<svg xmlns="http://www.w3.org/2000/svg" width="16" height="20" viewBox="0 0 16 20">
  <path id="Path_5" data-name="Path 5" d="M12.611,1.857c-5.641,0-8.485,3.913-8.485,7.177,0,1.976.773,3.733,2.431,4.388a.411.411,0,0,0,.595-.287c.055-.2.185-.709.242-.922a.546.546,0,0,0-.171-.64,3.245,3.245,0,0,1-.784-2.253,5.536,5.536,0,0,1,5.845-5.5c3.188,0,4.94,1.885,4.94,4.4,0,3.313-1.515,6.109-3.764,6.109a1.8,1.8,0,0,1-1.874-2.213,24,24,0,0,0,1.048-4.077,1.558,1.558,0,0,0-1.6-1.724c-1.27,0-2.29,1.271-2.29,2.973A4.3,4.3,0,0,0,9.122,11.1s-1.3,5.327-1.527,6.26a12.476,12.476,0,0,0-.035,4.365.16.16,0,0,0,.282.067,12.171,12.171,0,0,0,2.143-3.76c.146-.511.835-3.157.835-3.157a3.435,3.435,0,0,0,2.9,1.431c3.816,0,6.405-3.366,6.405-7.872C20.126,5.03,17.143,1.857,12.611,1.857Z" transform="translate(-4.126 -1.857)"/>
</svg>
