<svg width="132" height="140" viewBox="0 0 132 140" fill="none" xmlns="http://www.w3.org/2000/svg">
<g style="mix-blend-mode:multiply">
<path d="M13.7715 124.674L58.6021 118.256C57.4483 116.972 58.046 116.78 58.0044 115.091C57.9576 113.282 56.4141 113.209 55.8216 111.801C55.5098 111.068 55.9619 110.262 56.1698 109.493C56.5596 108.038 55.9775 106.37 54.7666 105.476C54.2157 105.07 53.5089 104.748 53.3218 104.093C53.1867 103.6 53.3997 103.09 53.5245 102.597C53.8571 101.271 53.4101 99.2861 52.7605 98.0647C52.1316 96.8902 50.4478 96.199 50.375 94.7646C50.3126 93.5172 51.6483 92.5454 51.5236 91.3033C51.3677 89.6973 49.268 89.2868 48.847 87.816C48.6028 86.974 49.0653 86.2724 49.1069 85.4305C49.1589 84.2923 48.7275 83.1385 48.265 82.1199C47.1528 79.6668 42.9223 67.2093 42.3506 63.2387C41.7062 59.7618 45.2922 58.0675 45.3286 54.6322C45.365 51.2281 42.9743 48.1098 41.8101 45.0487C40.3237 41.13 39.8508 36.8372 38.4008 32.8822C38.2345 32.43 37.4237 31.2451 37.4341 30.8189C37.4705 29.7067 42.7872 26.3597 46.2693 18.3821C47.2567 16.1214 47.4594 14.1568 46.4616 11.8545C45.5209 9.68211 44.1904 7.72278 42.5585 6.00773C41.6854 5.09303 40.7863 4.19392 40.0483 3.15969C39.5649 2.47886 39.2115 0.753412 38.4476 0.451978C35.8646 -0.556268 36.1816 19.2293 35.6515 24.6447C35.5528 25.6425 34.9499 27.2744 34.0872 28.8128C34.0144 28.9427 33.9832 29.0623 33.8377 29.0415C33.8325 29.0415 33.8221 29.0415 33.8169 29.0415C33.9468 28.714 33.9832 28.475 33.9572 27.9345C33.8377 24.9773 31.8784 22.3735 29.628 20.7832C29.4305 20.6429 29.2226 20.5182 29.0096 20.4038C26.9151 19.276 24.2438 19.302 22.3728 17.6389C21.219 16.6099 20.7305 14.6818 21.3646 13.2473C21.6712 12.5509 20.9956 11.8337 20.2887 12.1092C16.6819 13.4916 17.8825 20.7208 21.6764 22.0721C19.8782 21.4276 18.1683 21.5264 16.973 20.1803C16.5 19.645 15.6113 19.9101 15.5074 20.6169C15.2839 22.0981 15.4866 23.9275 16.1622 25.2372C16.3805 25.6581 16.2662 26.2454 15.7465 26.3649C15.471 26.4273 15.2943 26.2818 15.0604 26.1674C14.8318 26.0583 14.5095 26.1311 14.3068 26.7131C14.1717 27.1029 14.1925 27.5239 14.1977 27.9345C14.1977 28.2359 14.2341 28.5373 14.2964 28.8336C13.6364 27.763 13.1583 26.7235 12.9972 25.9959C11.8278 20.6793 11.3757 -0.23924 7.74285 2.74392C6.98926 3.36238 5.4769 9.22476 2.54571 13.2006C1.20485 15.0196 0.0406835 16.9789 0.544806 19.3488C1.33997 23.1063 8.06507 28.87 10.4142 31.0528C12.836 33.3083 11.6615 33.7241 10.9651 36.2239C10.3466 38.4327 10.1491 40.7818 10.1595 43.0686C10.1751 47.1379 9.49949 50.0535 8.07027 53.9046C7.62851 55.0999 7.36866 56.2485 7.38945 57.5738C7.42583 60.1672 11.1418 63.5349 11.6147 66.1959C12.1396 69.1426 12.1084 72.2973 12.176 75.2753C12.228 77.5776 12.2228 79.8851 12.0669 82.1875C11.9421 84.0013 11.7758 85.8566 11.5628 87.66C11.4328 88.7567 11.0015 89.7649 11.49 90.8251C12.1292 92.2127 13.1583 92.3843 12.4826 94.0629C12.0773 95.0764 10.9807 95.8611 11.2093 97.0773C11.438 98.3038 12.9972 98.8651 13.283 100.076C13.6572 101.646 11.6927 102.888 11.7706 104.499C11.8434 106.006 13.626 106.879 13.9222 108.36C14.1769 109.644 12.4411 110.787 12.0981 111.946C11.6511 113.453 13.2414 114.498 13.0231 116.026C12.9036 116.858 12.1344 117.663 11.9473 118.479C11.3393 121.119 13.2154 122.393 13.7507 124.607C13.7559 124.627 13.7611 124.653 13.7663 124.674H13.7715Z" fill="white"/>
<path d="M13.3141 124.716C13.3141 124.716 13.3141 124.731 13.3141 124.742L14.2184 124.612C14.2132 124.575 14.2028 124.539 14.1925 124.503C13.9794 123.635 13.5896 122.923 13.2154 122.231C12.5865 121.083 12.046 120.09 12.389 118.583C12.4618 118.261 12.6593 117.923 12.862 117.559C13.127 117.097 13.3973 116.619 13.47 116.094C13.5948 115.231 13.2414 114.508 12.9243 113.874C12.6125 113.24 12.3423 112.695 12.5242 112.076C12.6385 111.697 12.9659 111.276 13.3141 110.834C13.8962 110.091 13.4752 109.55 13.283 108.573C13.1218 107.763 13.7819 107.227 13.1946 106.255C12.8048 105.606 12.2539 105.128 12.2227 104.483C12.1916 103.865 12.5605 103.267 12.9503 102.633C13.4233 101.864 13.9638 100.986 13.7247 99.9773C13.5532 99.2549 13.0283 98.7403 12.5657 98.283C12.1448 97.8672 11.7446 97.4775 11.6562 96.9941C11.5419 96.3809 11.8797 95.8819 12.2747 95.3102C12.5034 94.9724 12.7425 94.6294 12.9036 94.2344C13.4597 92.8468 12.9971 92.2387 12.5034 91.5891C12.2955 91.3136 12.0772 91.0278 11.9005 90.638C11.5991 89.978 11.7238 89.3283 11.8693 88.5695C11.9213 88.2941 11.9785 88.0083 12.0097 87.7172C12.2123 85.997 12.3838 84.1468 12.5138 82.2186C12.6489 80.2021 12.6853 78.0557 12.6229 75.2701C12.6125 74.8179 12.6073 74.3502 12.5969 73.898C12.5554 71.3202 12.5086 68.6489 12.0564 66.1179C11.8174 64.7822 10.8455 63.3166 9.90481 61.903C8.89656 60.3854 7.85194 58.8159 7.83635 57.5634C7.82075 56.394 8.02344 55.313 8.49118 54.0553C9.81126 50.5057 10.6272 47.429 10.6116 43.0582C10.6012 40.47 10.8611 38.2716 11.4016 36.3383C11.5575 35.7822 11.7394 35.33 11.8953 34.9298C12.1864 34.2074 12.4098 33.6409 12.2903 32.9653C12.1656 32.2897 11.6978 31.614 10.726 30.7097C10.4661 30.4707 10.1647 30.19 9.81126 29.873C7.17111 27.4615 1.67253 22.4515 0.991702 19.2448C0.555142 17.1972 1.44386 15.4509 2.91465 13.4604C4.76483 10.9502 6.07451 7.6708 6.94244 5.49839C7.35821 4.45376 7.83115 3.26882 8.03903 3.08692C8.34047 2.84265 8.49119 2.89982 8.54316 2.92581C8.71986 2.99857 9.08886 3.3052 9.51502 4.52133C9.83724 5.43603 10.1283 6.66775 10.4089 8.29446C10.9286 11.314 11.3028 15.1183 11.6303 18.4757C11.9473 21.7239 12.2227 24.5251 12.5657 26.0843C12.7372 26.8535 13.231 27.9397 13.9222 29.0674L15.2683 31.2502L14.7589 28.74C14.707 28.475 14.6758 28.1995 14.6706 27.9241V27.8409C14.6602 27.4823 14.655 27.1445 14.7537 26.8587C14.8161 26.6872 14.8733 26.6144 14.8993 26.5832C14.9304 26.5988 14.9616 26.6144 14.9928 26.63C15.1955 26.7391 15.4762 26.8846 15.8607 26.8015C16.2038 26.7235 16.474 26.5104 16.6247 26.1934C16.791 25.84 16.7754 25.3931 16.5831 25.0241C15.9907 23.8703 15.7516 22.1656 15.9751 20.6793C16.0115 20.4506 16.1934 20.3778 16.2505 20.3622C16.3233 20.3414 16.5052 20.3103 16.6507 20.4766C17.5654 21.5108 18.714 21.7758 19.9301 22.0565C20.455 22.176 20.9955 22.3008 21.536 22.4931C21.536 22.4931 21.536 22.4931 21.5412 22.4931L21.8478 21.6355C19.769 20.8923 18.6204 18.2158 18.5996 16.0746C18.5892 15.2274 18.7504 13.185 20.4706 12.5249C20.6993 12.4366 20.8552 12.5769 20.8968 12.6185C20.9383 12.6653 21.0735 12.8264 20.9695 13.055C20.2731 14.635 20.7668 16.7918 22.0921 17.9715C23.2771 19.0266 24.7375 19.4371 26.1511 19.8373C27.1022 20.1076 28.0065 20.3622 28.8172 20.7988C29.0199 20.9079 29.2122 21.0275 29.3889 21.1522C31.8783 22.914 33.4219 25.4554 33.5258 27.9501C33.5466 28.4438 33.5154 28.6205 33.4167 28.8752L33.214 29.4001L33.7909 29.4936C34.0871 29.5404 34.321 29.4053 34.4821 29.0882C34.4925 29.0726 34.4977 29.057 34.5081 29.0415C35.3864 27.4719 36.0205 25.7621 36.1244 24.6966C36.2699 23.2259 36.3479 20.7364 36.4466 17.852C36.5662 14.1516 36.7065 9.95235 37.0131 6.5846C37.1794 4.78119 37.3821 3.37796 37.6212 2.40609C37.9642 0.997666 38.2812 0.878134 38.2812 0.878134C38.2812 0.878134 38.2864 0.878132 38.302 0.883329C38.6138 1.00286 38.9257 1.76165 39.1543 2.31255C39.331 2.73871 39.4974 3.13889 39.7 3.42993C40.3445 4.33943 41.1189 5.14499 41.8672 5.92456C41.9972 6.05969 42.1219 6.19481 42.2518 6.32994C43.8837 8.05019 45.1674 9.97313 46.0665 12.0468C46.9501 14.0893 46.8981 15.8719 45.8743 18.2106C43.5771 23.4701 40.49 26.6716 38.645 28.5841C37.5588 29.7119 37.0131 30.2732 36.9975 30.8189C36.9871 31.1879 37.2366 31.6556 37.6472 32.3884C37.7927 32.6483 37.9434 32.9185 37.9954 33.0536C38.697 34.9662 39.1751 36.9983 39.6377 38.9732C40.1262 41.0521 40.6355 43.1985 41.4047 45.2306C41.7841 46.2284 42.2934 47.2471 42.7923 48.2293C43.837 50.303 44.918 52.4442 44.8972 54.653C44.8816 56.1186 44.1644 57.2412 43.4004 58.4261C42.4909 59.8397 41.5554 61.3053 41.9244 63.3374C42.5065 67.3704 46.7214 79.7968 47.87 82.333C48.2961 83.2685 48.7223 84.3702 48.6703 85.4357C48.6599 85.7111 48.5872 85.9814 48.5144 86.2672C48.3897 86.7661 48.2441 87.3274 48.426 87.9667C48.6599 88.7878 49.3148 89.3179 49.8916 89.7857C50.4997 90.2794 51.0194 90.7004 51.087 91.3708C51.1338 91.8593 50.8635 92.3479 50.5725 92.8624C50.2554 93.4289 49.8968 94.0681 49.9332 94.8113C49.9852 95.8611 50.7284 96.5627 51.3832 97.176C51.7782 97.5502 52.1576 97.9036 52.3707 98.3038C52.9632 99.416 53.3997 101.297 53.0931 102.508C53.0723 102.602 53.0411 102.695 53.0151 102.794C52.8904 103.231 52.7501 103.724 52.8956 104.239C53.0827 104.915 53.6544 105.294 54.1533 105.621C54.278 105.705 54.3976 105.782 54.5067 105.866C55.5617 106.645 56.0814 108.132 55.7436 109.4C55.6969 109.571 55.6397 109.743 55.5773 109.93C55.359 110.564 55.1148 111.286 55.4162 112.003C55.7021 112.689 56.1802 113.095 56.596 113.453C57.1261 113.911 57.5418 114.269 57.5626 115.127C57.573 115.61 57.5314 115.953 57.4951 116.26C57.3963 117.029 57.3807 117.502 58.0823 118.354L59.1582 118.198C59.0958 118.126 59.0334 118.053 58.9711 117.985C58.2954 117.237 58.3214 117.019 58.3994 116.369C58.4409 116.047 58.4877 115.647 58.4773 115.101C58.4461 113.843 57.7809 113.272 57.1936 112.762C56.8194 112.44 56.4608 112.133 56.2581 111.645C56.0918 111.245 56.2581 110.746 56.44 110.216C56.5024 110.023 56.57 109.831 56.6271 109.634C57.0689 107.991 56.4193 106.141 55.0524 105.133C54.9225 105.039 54.7925 104.951 54.6626 104.863C54.2572 104.598 53.8779 104.343 53.7791 103.989C53.7063 103.719 53.7999 103.387 53.8986 103.038C53.9298 102.934 53.9558 102.831 53.9818 102.727C54.3508 101.245 53.8467 99.1197 53.1814 97.8724C52.9008 97.3423 52.4486 96.9213 52.0173 96.5108C51.4092 95.9391 50.8843 95.4454 50.8479 94.7593C50.8219 94.276 51.087 93.8031 51.3728 93.3041C51.7002 92.7169 52.0744 92.0516 51.9965 91.2773C51.8925 90.2274 51.139 89.6142 50.4685 89.0737C49.9488 88.6527 49.4603 88.2577 49.3044 87.712C49.19 87.3118 49.2888 86.9324 49.3979 86.4907C49.4811 86.1737 49.5642 85.8462 49.5798 85.4772C49.637 84.2195 49.164 82.993 48.6963 81.9588C47.5893 79.5161 43.3744 67.0638 42.8183 63.2023V63.1867C42.5065 61.5028 43.3069 60.2503 44.1592 58.925C44.9596 57.6829 45.7807 56.394 45.8015 54.6686C45.8275 52.2415 44.6945 49.9963 43.6031 47.8291C43.0938 46.8209 42.6156 45.875 42.2518 44.9187C41.5035 42.949 41.0045 40.8286 40.5212 38.7809C40.0483 36.7852 39.5649 34.7219 38.8425 32.7574C38.7698 32.5547 38.6138 32.2793 38.4371 31.9622C38.2604 31.6452 37.9278 31.0527 37.907 30.8657C37.959 30.6214 38.671 29.8834 39.2999 29.2337C41.1864 27.2796 44.3463 24.0002 46.7058 18.5952C47.8232 16.0382 47.8804 13.9749 46.8981 11.709C45.9574 9.53658 44.6165 7.52528 42.9119 5.72707C42.7819 5.59194 42.652 5.45682 42.5221 5.32169C41.7997 4.5681 41.0513 3.78333 40.4432 2.931C40.2977 2.72831 40.1522 2.36971 39.9963 1.99552C39.6585 1.17437 39.3051 0.327234 38.6346 0.0673772C38.3384 -0.04696 38.0318 -0.0157769 37.7667 0.160926C37.1898 0.540317 36.5402 1.63691 36.0776 6.88083C35.7866 10.2174 35.6515 14.2764 35.5371 17.8572C35.4436 20.726 35.3604 23.1999 35.2201 24.6447C35.1577 25.2995 34.8407 26.2818 34.3834 27.3056C34.0559 24.7486 32.424 22.2228 29.919 20.4506C29.7111 20.3051 29.4876 20.1647 29.2538 20.04C28.3547 19.5567 27.362 19.276 26.4057 19.0058C25.0337 18.616 23.7344 18.2522 22.7054 17.3323C21.6763 16.4176 21.2762 14.6817 21.8115 13.4656C22.0298 12.9719 21.9362 12.421 21.5672 12.0312C21.1982 11.6466 20.6577 11.5219 20.1588 11.7142C18.5944 12.3119 17.6797 13.9593 17.7005 16.1214C17.7161 17.4414 18.0799 18.8031 18.7192 19.9516C18.9426 20.3518 19.1921 20.7156 19.4676 21.0379C18.636 20.8248 17.9136 20.5493 17.3419 19.9049C17.0041 19.5255 16.4896 19.38 16.0011 19.5255C15.5125 19.671 15.1591 20.0764 15.0864 20.5805C14.8317 22.2696 15.102 24.1509 15.788 25.4814C15.8503 25.601 15.8607 25.7517 15.814 25.8504C15.788 25.9076 15.7464 25.9388 15.6788 25.9544C15.6269 25.9647 15.5957 25.9544 15.4346 25.8712C15.393 25.8452 15.341 25.8192 15.2891 25.7932C15.0604 25.6841 14.8109 25.6737 14.5822 25.7725C14.286 25.8972 14.0573 26.1726 13.9118 26.5988C13.8702 26.7131 13.8442 26.8275 13.8235 26.947C13.6571 26.5624 13.5376 26.2194 13.4752 25.9336C13.1426 24.4264 12.8724 21.6459 12.5554 18.4289C12.2279 15.0559 11.8537 11.236 11.3236 8.18012C10.674 4.41739 9.93079 2.54642 8.91215 2.12545C8.58993 1.99032 8.08061 1.93315 7.48294 2.42168C7.11914 2.71792 6.80211 3.4871 6.12129 5.19696C5.22218 7.45252 3.98526 10.5396 2.20784 12.9563C0.809804 14.8481 -0.406328 16.9477 0.128978 19.4683C0.866973 22.9608 6.30319 27.9137 9.22398 30.5798C9.57219 30.8968 9.87882 31.1775 10.1335 31.4114C11.7654 32.9289 11.5939 33.3551 11.0846 34.6284C10.9183 35.0494 10.726 35.5223 10.5545 36.1304C9.99316 38.1469 9.72291 40.4232 9.7333 43.0997C9.74889 47.351 8.99011 50.2302 7.67003 53.7747C7.16071 55.1415 6.94244 56.3265 6.95803 57.6102C6.97882 59.1277 8.0962 60.8116 9.1824 62.4383C10.0711 63.774 10.991 65.1564 11.1937 66.3102C11.6355 68.7684 11.677 71.3982 11.7238 73.9448C11.729 74.3969 11.7394 74.8647 11.7498 75.322C11.8122 78.0817 11.7758 80.2021 11.6459 82.1926C11.5159 84.1052 11.3496 85.9398 11.1469 87.6444C11.1157 87.9095 11.0638 88.1746 11.0118 88.4344C10.8507 89.266 10.6844 90.1287 11.1105 91.0538C11.334 91.5371 11.5991 91.8905 11.8174 92.1764C12.2591 92.7584 12.4618 93.0235 12.098 93.933C11.9785 94.2344 11.7758 94.5255 11.5679 94.8321C11.1209 95.4818 10.6168 96.2145 10.8039 97.202C10.9494 97.966 11.4951 98.5013 11.9733 98.969C12.3838 99.3744 12.7736 99.7538 12.8828 100.222C13.0335 100.866 12.6593 101.479 12.2175 102.191C11.7914 102.882 11.3132 103.662 11.3548 104.561C11.4016 105.507 11.9785 106.203 12.5398 106.874C12.9815 107.404 12.3475 108.152 12.467 108.734C12.5813 109.301 13.153 109.665 12.6489 110.309C12.2643 110.798 11.8641 111.307 11.703 111.853C11.4172 112.814 11.8122 113.609 12.1552 114.311C12.4358 114.877 12.6957 115.413 12.6125 115.995C12.5606 116.353 12.3423 116.733 12.1136 117.143C11.8849 117.549 11.6458 117.965 11.5419 118.417C11.1157 120.267 11.7966 121.504 12.4566 122.704C12.8204 123.37 13.1686 124.004 13.3505 124.752L13.3141 124.716Z" fill="#2B388F"/>
<path d="M22.8923 52.491C22.0399 52.6937 21.0317 52.413 20.9589 52.8132C20.777 53.8163 22.253 58.2027 24.6749 59.1381C27.6632 60.2919 30.2306 58.8315 30.9323 55.8224C31.3376 54.0917 31.1505 52.9016 31.0258 51.5711C28.4584 52.6365 25.5532 51.8569 22.8975 52.491H22.8923ZM30.0228 56.2537C29.3523 58.0467 27.0968 59.1485 24.7892 58.2494C22.5493 57.3763 22.0919 54.7933 21.7489 53.0159C21.7489 53.0159 28.0271 52.6001 30.2826 52.3091C30.3866 53.3641 30.5996 54.705 30.0176 56.2589L30.0228 56.2537Z" fill="#2B388F"/>
<path d="M26.3483 53.889C26.2444 53.863 26.0937 53.8319 26.0469 53.9254C24.8152 56.2537 24.0304 56.025 24.0772 56.1498C24.6489 57.631 26.4471 57.9844 27.3722 57.5426C28.0426 57.2256 28.5831 56.6435 28.7442 56.0354C28.7182 56.103 27.5489 55.1623 27.4501 55.0584C27.2838 54.8817 26.4315 53.9098 26.3483 53.889Z" fill="#2B388F"/>
<path d="M31.9096 48.0422C31.4939 47.6784 30.9482 47.4913 30.4492 47.3354C29.2695 46.9612 26.2915 46.1037 25.2781 46.2492C24.5713 46.3531 20.294 47.8551 19.5508 48.6762C17.5551 50.885 18.8804 54.6841 21.4062 55.6196C23.2616 56.3108 24.696 55.9678 25.4756 54.8349C25.803 54.3567 26.4578 54.3255 26.8476 54.7621C27.7727 55.8067 29.2435 55.999 30.9897 55.1259C33.37 53.9358 34.186 50.0223 31.9096 48.037V48.0422Z" fill="white"/>
<path d="M29.4824 56.0978C28.2922 56.2693 27.2528 55.9211 26.5044 55.0688C26.4109 54.9596 26.2861 54.9076 26.1562 54.9128C26.0315 54.918 25.9223 54.9856 25.8496 55.0947C24.9245 56.446 23.2458 56.7942 21.2501 56.051C19.8261 55.5209 18.6879 54.1592 18.2825 52.5014C17.9031 50.9526 18.2461 49.4454 19.218 48.3696C20.0859 47.4082 24.5035 45.901 25.2155 45.797C26.4992 45.6151 30.1736 46.7689 30.5894 46.8988C31.1766 47.0859 31.7431 47.2886 32.2109 47.6992C33.3439 48.6867 33.874 50.1834 33.6713 51.7998C33.4634 53.4472 32.5123 54.8816 31.1974 55.5365C30.605 55.8327 30.0333 56.0198 29.4876 56.0978H29.4824ZM25.9951 54.0137C26.0315 54.0137 26.0627 54.0033 26.099 54.0033C26.5096 53.9773 26.9046 54.1489 27.1852 54.4659C27.996 55.3858 29.2745 55.4793 30.7817 54.7257C31.8315 54.2008 32.5903 53.0367 32.7618 51.6854C32.9281 50.3757 32.5071 49.1752 31.608 48.3852C31.2702 48.089 30.8024 47.9279 30.3087 47.7668C28.76 47.273 26.1614 46.5818 25.3402 46.6962C24.6334 46.8001 20.5069 48.2917 19.8884 48.9777C19.1193 49.8248 18.8542 51.0306 19.1608 52.2779C19.4883 53.6239 20.4341 54.7673 21.5619 55.1883C23.1575 55.7808 24.4152 55.5625 25.096 54.5698C25.3091 54.258 25.6313 54.0553 25.9951 54.0033V54.0137Z" fill="#2B388F"/>
<path d="M41.9658 54.7621C42.8527 54.7621 43.5717 54.0431 43.5717 53.1562C43.5717 52.2693 42.8527 51.5503 41.9658 51.5503C41.0789 51.5503 40.3599 52.2693 40.3599 53.1562C40.3599 54.0431 41.0789 54.7621 41.9658 54.7621Z" fill="#EC1C24"/>
<path d="M11.0659 57.8808C11.8887 57.802 12.4919 57.0711 12.4131 56.2482C12.3343 55.4253 11.6034 54.8221 10.7805 54.9009C9.95761 54.9797 9.35441 55.7107 9.43321 56.5335C9.51201 57.3564 10.243 57.9596 11.0659 57.8808Z" fill="#EC1C24"/>
<path d="M46.7942 34.6699C46.4772 34.3737 34.3263 33.1628 28.3496 39.2538C28.1625 39.4461 26.5202 39.3578 24.8987 39.4877C23.2772 39.6176 21.6661 39.9606 21.453 39.7995C14.598 34.7167 2.78486 37.8142 2.5198 38.1572C2.37948 38.3339 2.66532 40.5947 2.86281 40.6467C3.26299 40.7506 3.40331 40.6623 3.87625 41.1924C4.46353 41.8524 4.96766 43.9728 5.41461 45.5528C6.03827 47.746 7.04652 50.2666 9.94132 52.0336C12.1137 53.3641 16.261 53.3797 18.7297 52.0024C19.6028 51.5139 20.9748 50.2874 21.6037 48.8789C22.8094 46.1764 22.6951 43.5623 23.1213 42.9906C23.4903 42.6008 26.7801 42.3409 27.2114 42.6683C27.7207 43.1673 28.017 45.771 29.6281 48.2501C30.47 49.539 32.0136 50.542 32.9543 50.885C35.61 51.8569 39.7053 51.1917 41.6387 49.539C44.2165 47.3406 44.8193 44.6952 45.0948 42.4293C45.2923 40.7974 45.4586 38.6198 45.9367 37.8818C46.3213 37.2893 46.472 37.3517 46.8514 37.1854C47.0437 37.1022 46.9709 34.8259 46.8046 34.6699H46.7942Z" fill="#EC1C24"/>
<path d="M43.0575 44.2743C41.9401 47.7511 39.7885 49.3727 36.8833 49.6793C33.2505 50.0639 30.0803 47.5485 29.784 44.0508C29.493 40.5531 31.8941 38.3807 35.8387 37.1594C39.3104 36.0888 42.6989 36.2187 43.3278 37.1386C44.1074 38.2872 43.6344 42.4709 43.0575 44.2743Z" fill="#2B388F"/>
<path d="M43.0575 44.2743C41.9401 47.7511 39.7885 49.3727 36.8833 49.6793C33.2505 50.0639 30.0803 47.5485 29.784 44.0508C29.493 40.5531 31.8941 38.3807 35.8387 37.1594C39.3104 36.0888 42.6989 36.2187 43.3278 37.1386C44.1074 38.2872 43.6344 42.4709 43.0575 44.2743Z" fill="#2B388F"/>
<path d="M7.7688 47.0547C9.4163 50.3134 11.7914 51.5815 14.7122 51.4255C18.3606 51.2332 21.0995 48.2553 20.8396 44.7524C20.5849 41.2495 17.872 39.4773 13.7819 38.8952C10.1855 38.3807 6.8593 39.0356 6.38636 40.049C5.79909 41.3067 6.91647 45.3605 7.7688 47.0547Z" fill="#2B388F"/>
<path d="M29.2692 49.3987C28.9261 48.7387 28.2453 48.2294 27.4606 48.3801C26.8525 48.4996 26.4003 48.9206 26.1145 49.4195C25.7975 49.9756 25.3661 49.3208 25.0751 49.0869C24.7528 48.827 24.3371 48.6243 23.9005 48.6139C22.7727 48.588 22.0347 49.7885 22.0607 50.724C22.0711 51.0982 22.2062 51.4724 22.4661 51.7582C22.7831 52.1064 23.2665 52.3143 23.7602 52.3299C24.3007 52.3455 24.7061 51.8881 25.0231 52.4338C25.2206 52.7769 25.3089 53.3122 25.4441 53.6812C25.5012 53.8423 25.6156 53.915 25.7715 53.993C25.8702 54.3984 25.8806 54.9701 25.9066 55.3027C25.9274 55.6353 26.6238 55.5158 26.5822 55.1831C26.5251 54.7206 26.5043 54.1229 26.5199 53.9202C26.5199 53.889 26.6082 53.8683 26.681 53.7591C26.9045 53.4369 26.9201 53.0419 26.9772 52.6833C27.0396 52.3143 27.2163 51.8985 27.6009 51.7946C28.0946 51.6595 28.5104 51.8102 28.9521 51.4932C29.2796 51.2541 29.4459 50.8695 29.4978 50.5057C29.5498 50.1419 29.4615 49.7417 29.2744 49.3831L29.2692 49.3987Z" fill="#2B388F"/>
<path d="M43.3278 37.1438C43.0108 36.6761 41.9714 36.411 40.5734 36.4058C39.6898 36.8268 38.8583 37.466 38.5984 38.3911C38.3126 39.4046 38.7596 40.6051 38.1671 41.473C37.5642 42.3617 36.3949 42.289 35.4594 42.4345C34.9552 42.5125 34.4927 42.7048 34.0613 42.9594C33.6664 43.1933 33.2974 43.4791 32.9544 43.7858C31.9929 44.6381 31.2497 45.7347 30.8027 46.9404C31.3069 47.6836 31.9669 48.3073 32.7413 48.775C33.1362 48.0058 33.526 47.2315 34.0406 46.5351C34.8981 45.3813 35.9011 44.9187 37.2316 44.5394C38.3334 44.2223 39.6587 43.8377 40.3187 42.8191C41.1139 41.5978 40.7657 39.7268 41.909 38.8173C42.4028 38.4275 43.0472 38.3288 43.6553 38.1469C43.5929 37.7155 43.4838 37.3621 43.3278 37.1334V37.1438Z" fill="white"/>
<path d="M16.8377 39.6644C16.7753 39.6904 16.7129 39.7164 16.6506 39.7424C15.6735 40.1582 14.6964 40.8286 14.4054 41.8524C14.1196 42.8659 14.5665 44.0664 13.974 44.9343C13.3712 45.823 12.2018 45.7503 11.2663 45.8958C10.7622 45.9738 10.2997 46.1661 9.8683 46.4207C9.47332 46.6546 9.10432 46.9404 8.76131 47.2471C8.56382 47.4238 8.37153 47.6109 8.19482 47.8084C8.70934 48.6711 9.29141 49.3623 9.92547 49.9028C10.7674 48.8166 11.7497 48.3696 13.0438 48.0006C14.1455 47.6836 15.4708 47.299 16.1309 46.2804C16.926 45.0591 16.5778 43.1881 17.7212 42.2786C18.2565 41.8524 18.9737 41.7745 19.6233 41.5614C18.9425 40.7402 18.0018 40.1166 16.8429 39.6592L16.8377 39.6644Z" fill="white"/>
<path d="M37.8344 38.651C37.8551 38.0585 37.8811 37.4245 38.193 36.9048C38.2657 36.78 38.3541 36.6709 38.4476 36.567C38.3073 36.5877 38.1618 36.6085 38.0215 36.6345C37.8084 36.9567 37.6784 37.3205 37.6161 37.7103C37.4602 38.6978 37.772 40.1062 36.8573 40.8026C36.3168 41.2132 35.5944 41.2392 34.9603 41.3847C34.4146 41.5146 33.8845 41.7121 33.3908 41.9772C32.4033 42.5073 31.5458 43.2817 30.9066 44.2068C30.5947 44.6537 30.3401 45.1319 30.1426 45.636C30.1945 45.7763 30.2517 45.9166 30.3141 46.0517C30.8546 44.451 32.0136 43.0582 33.5155 42.2526C34.0093 41.9876 34.5394 41.7849 35.0903 41.6654C35.6619 41.5406 36.27 41.4887 36.7897 41.208C37.7512 40.6883 37.8084 39.6229 37.8447 38.651H37.8344Z" fill="white"/>
<path d="M15.0138 39.1187C14.6916 39.2954 14.3901 39.5085 14.1355 39.7736C13.7613 40.1633 13.5534 40.6415 13.4703 41.1716C13.3143 42.159 13.6262 43.5675 12.7115 44.2639C12.171 44.6745 11.4486 44.7004 10.8145 44.846C10.2688 44.9759 9.7387 45.1734 9.24497 45.4384C8.63691 45.7659 8.08082 46.1816 7.59229 46.6702C7.63906 46.7689 7.68063 46.8677 7.72741 46.956C8.20555 46.4623 8.75644 46.0361 9.36971 45.7087C9.86344 45.4436 10.3935 45.241 10.9444 45.1214C11.5161 44.9967 12.1242 44.9447 12.6439 44.6641C13.6054 44.1444 13.6626 43.0789 13.6989 42.1071C13.7197 41.5146 13.7457 40.8805 14.0575 40.3608C14.3746 39.8307 14.9151 39.4929 15.4608 39.2227C15.3152 39.1863 15.1697 39.1499 15.019 39.1187H15.0138Z" fill="white"/>
<path d="M31.8318 32.2273C32.8504 31.6037 33.682 30.715 34.1029 29.5872C34.2432 29.2182 34.342 28.8336 34.4148 28.4438C34.4719 28.2775 34.5187 28.106 34.5603 27.9293C34.4148 28.2255 33.7027 29.5768 32.3359 30.1433C31.9461 30.3044 31.6135 30.19 31.2497 30.0185C30.626 29.7223 30.0699 29.2805 29.5918 28.7868C28.6303 27.7994 27.9079 26.6092 27.0764 25.5178C26.2189 24.39 25.247 23.4338 23.9477 22.8309C23.0642 22.4203 22.1391 22.1137 21.2608 21.6979C20.9334 21.542 20.5748 21.3705 20.2369 21.1626C20.6631 21.5576 21.1516 21.8694 21.6921 22.0617C21.3647 21.9422 21.0373 21.8538 20.7151 21.7707C21.4323 22.1449 22.1859 22.4307 22.9343 22.7321C23.7554 23.0596 24.561 23.4234 25.247 23.9898C25.8187 24.4628 26.3072 25.0293 26.7594 25.6166C27.6533 26.7755 28.412 28.054 29.4567 29.0934C29.94 29.5716 30.4805 29.9926 31.0938 30.2888C31.4004 30.4343 31.7018 30.559 32.0449 30.5279C32.4191 30.4915 32.7776 30.3096 33.0791 30.0913C33.157 30.0341 33.2298 29.977 33.2974 29.9146C32.9284 30.4031 32.471 30.8189 31.9253 31.1047C31.0158 31.5777 29.9608 31.7076 28.9474 31.7076C27.9911 31.7076 27.0088 31.5413 26.1773 31.0424C24.7792 30.2056 23.9477 28.6933 22.5497 27.8513C21.7441 27.368 20.8606 27.2952 19.9615 27.0925C19.1248 26.9002 18.34 26.5312 17.6488 26.0271C16.8224 25.4243 16.2923 25.0033 15.8038 24.1094C15.8921 24.4836 15.8402 24.4888 15.9805 24.8266C16.2507 25.1748 16.5522 25.5022 16.8796 25.7985C17.5292 26.3857 18.2932 26.8587 19.1196 27.1601C20.0654 27.5031 21.1101 27.4875 22.0248 27.9137C23.6515 28.6777 24.5194 30.4291 26.0577 31.323C26.8997 31.8116 27.8819 31.9934 28.8486 32.0038C29.8465 32.009 30.8859 31.9103 31.8006 31.4945C32.4762 31.1879 33.0375 30.7201 33.4897 30.1433C33.1415 30.7409 32.6685 31.2555 32.0916 31.6764C30.3766 32.9341 28.0534 33.3707 25.9746 33.4798C24.8364 33.5422 23.6671 33.459 22.5809 33.0849C22.0559 32.9081 21.5778 32.6535 21.1153 32.3521C20.7099 32.0818 20.2577 31.7856 19.764 31.7284C19.3586 31.6816 19.0104 31.8531 18.7817 32.1857C18.6726 32.3469 18.5946 32.5288 18.4803 32.6899C18.3296 32.8978 18.1893 32.8926 17.9606 32.8198C17.2382 32.5807 16.6197 32.0246 16.152 31.4426C14.4369 29.3273 14.1979 27.8877 14.1979 27.9241C14.1979 28.2255 14.2342 28.527 14.2966 28.8232C14.229 28.7141 14.1615 28.6049 14.0991 28.4906C14.4213 29.4001 14.8943 30.2628 15.44 31.0268C15.9441 31.7284 16.5574 32.4092 17.3161 32.851C17.576 33.0017 17.9138 33.1836 18.2205 33.1836C18.6206 33.1836 18.7921 32.747 18.9688 32.4612C19.1092 32.2325 19.2755 32.0454 19.5613 32.0246C19.8887 31.9987 20.2214 32.165 20.4968 32.3209C20.9957 32.6015 21.4479 32.9445 21.978 33.1732C23.033 33.6357 24.1972 33.7969 25.3405 33.7969C26.4943 33.7969 27.6585 33.6409 28.781 33.3863C29.8465 33.1472 30.8963 32.7886 31.8318 32.2169V32.2273Z" fill="#2B388F"/>
<path d="M27.4505 33.9528C26.7281 34.0567 26.0212 34.1087 25.3404 34.1087C24.0152 34.1087 22.8458 33.8904 21.8583 33.4591C21.4997 33.3031 21.1775 33.1005 20.8657 32.903C20.6994 32.799 20.5227 32.6899 20.3512 32.5911C20.1121 32.456 19.8315 32.3105 19.5924 32.3313C19.478 32.3417 19.3741 32.3937 19.2338 32.6275C19.2078 32.6691 19.1818 32.7159 19.1506 32.7678C18.9843 33.0589 18.7401 33.4954 18.2255 33.4954C17.8617 33.4954 17.5031 33.3135 17.1705 33.1212C16.4793 32.7211 15.8349 32.0974 15.2008 31.2139C14.6135 30.3979 14.1406 29.4988 13.8184 28.5997L13.9483 28.5426C13.9223 28.3451 13.9067 28.1424 13.9015 27.9345V27.6642L14.1666 27.6279C14.2601 27.6175 14.4524 27.6538 14.5044 27.8773C14.5875 28.2203 14.9617 29.4884 16.3961 31.2607C16.7599 31.7128 17.3472 32.3001 18.0644 32.5392C18.1528 32.5703 18.184 32.5704 18.1944 32.5704C18.1995 32.5704 18.2151 32.5496 18.2411 32.5184C18.2931 32.4456 18.3347 32.3677 18.3867 32.2793C18.4334 32.1962 18.4802 32.1078 18.5426 32.0194C18.8388 31.5881 19.3013 31.3698 19.8107 31.4322C20.372 31.4945 20.8501 31.8116 21.2763 32.0922L21.2919 32.1026C21.7648 32.4144 22.2221 32.6431 22.6899 32.8042C23.6306 33.1264 24.7012 33.2512 25.9693 33.1836C27.8403 33.0849 29.4098 32.7419 30.6675 32.1702C30.1322 32.2741 29.5345 32.3209 28.8589 32.3157C27.7155 32.3053 26.7281 32.0662 25.9173 31.5933C25.1585 31.1567 24.5609 30.5227 23.984 29.9146C23.3343 29.2286 22.7211 28.5789 21.9051 28.1944C21.4374 27.9761 20.9229 27.8825 20.3824 27.7786C19.9354 27.6954 19.4729 27.6123 19.0259 27.446C18.184 27.1393 17.3732 26.6456 16.6872 26.0271C16.3442 25.7205 16.0323 25.3775 15.7517 25.0137L15.7257 24.9825L15.7101 24.9461C15.6114 24.7071 15.5906 24.6031 15.5698 24.4524C15.5594 24.3848 15.549 24.3069 15.5178 24.1822L15.0241 22.0461L16.0791 23.9691C16.5261 24.7798 16.9782 25.1644 17.8357 25.7881C18.5062 26.2766 19.2702 26.6248 20.0393 26.8015C20.2472 26.8483 20.4551 26.8899 20.6578 26.9263C21.3438 27.0562 22.0506 27.1965 22.7159 27.5915C23.4487 28.0332 24.0255 28.6413 24.5868 29.2338C25.1481 29.8263 25.673 30.3823 26.3383 30.7773C27.0243 31.1879 27.9026 31.3958 28.9524 31.401C30.127 31.401 31.0573 31.2191 31.7901 30.8345C31.7901 30.8345 31.7953 30.8345 31.8005 30.8293C31.4886 30.7981 31.2132 30.6786 30.9689 30.5643C30.3661 30.2732 29.8048 29.8626 29.2487 29.3117C28.5263 28.5945 27.9338 27.7578 27.3621 26.947C27.0919 26.5676 26.8164 26.1727 26.5306 25.8037C25.9953 25.1073 25.5431 24.6187 25.065 24.2289C24.4413 23.7196 23.7241 23.3766 22.8354 23.018L22.5807 22.9141C21.9207 22.649 21.2347 22.3788 20.5902 22.0409L18.2775 20.8352L20.1121 21.3029L20.4135 20.908C20.7358 21.1107 21.0788 21.277 21.401 21.4277C21.8375 21.6356 22.3001 21.8175 22.7419 21.9942C23.1836 22.1709 23.641 22.3528 24.0879 22.5607C25.2781 23.1167 26.3071 24.0003 27.3257 25.3411C27.5908 25.6945 27.8506 26.0583 28.1001 26.4117C28.6302 27.1549 29.1759 27.9241 29.8152 28.5841C30.3193 29.1039 30.8494 29.4988 31.3847 29.7535C31.7329 29.9198 31.9616 29.9822 32.2266 29.873C33.4895 29.3481 34.1704 28.0592 34.2951 27.8046L35.3813 25.5698L34.8616 27.9969C34.8252 28.1684 34.7732 28.3451 34.7161 28.5218C34.6381 28.9323 34.529 29.3273 34.3938 29.6963C33.9781 30.8189 33.1465 31.7804 31.998 32.4872C31.1352 33.0173 30.1114 33.4123 28.8589 33.6929C28.386 33.8021 27.9182 33.8852 27.4609 33.9528H27.4505ZM33.5103 30.1329C33.5103 30.1329 33.5155 30.1225 33.5207 30.1173C33.5207 30.1173 33.5155 30.1277 33.5103 30.1329ZM33.3336 29.9146L33.5311 30.0965C33.6403 29.899 33.7338 29.6963 33.8118 29.4884C33.6662 29.634 33.5051 29.7795 33.3284 29.9146H33.3336Z" fill="#2B388F"/>
<path d="M43.8993 7.55652C43.7018 7.78 43.5251 8.02426 43.3744 8.28412C42.3454 10.0875 42.4701 12.2287 42.4649 14.2296C42.4649 15.3366 42.4233 16.4644 42.1115 17.5402C41.8672 18.3822 41.4722 19.1721 41.0357 19.9309C40.1989 21.3861 39.1647 22.7634 38.6086 24.3641C38.3124 25.206 38.1773 26.1051 38.2968 26.9938C38.3851 27.6747 38.6138 28.3243 38.9049 28.9428C38.9776 28.8648 39.0556 28.7868 39.1283 28.7089C38.936 28.2827 38.7801 27.8514 38.6762 27.394C38.4891 26.5521 38.5359 25.6894 38.7697 24.863C39.2115 23.3091 40.173 21.963 40.9993 20.5961C41.4099 19.9153 41.7997 19.2189 42.1063 18.4861C42.4597 17.6286 42.652 16.7347 42.7196 15.8148C42.8755 13.8087 42.5481 11.7402 43.0938 9.7705C43.2912 9.0481 43.6135 8.36727 44.0864 7.80598C44.024 7.72282 43.9617 7.63967 43.8941 7.55652H43.8993Z" fill="#2B388F"/>
<path d="M38.8167 29.4677L38.6296 29.0675C38.2814 28.3243 38.0839 27.6746 37.9955 27.0302C37.8812 26.1467 37.9903 25.2164 38.323 24.2601C38.7335 23.0856 39.3936 22.0253 40.0328 20.9963C40.2823 20.5961 40.5421 20.1804 40.776 19.775C41.2957 18.8707 41.6179 18.1535 41.8258 17.4519C42.1377 16.3812 42.1636 15.2275 42.1636 14.2296C42.1636 14.0373 42.1636 13.8398 42.1636 13.6476C42.1533 11.7714 42.1428 9.83285 43.1147 8.13338C43.2706 7.85793 43.4577 7.59808 43.676 7.35381L43.9203 7.08356L44.1438 7.3694C44.2113 7.45256 44.2737 7.53571 44.336 7.62406L44.4816 7.81636L44.3257 8.00345C43.9099 8.49718 43.5929 9.11564 43.3902 9.85364C43.0524 11.075 43.0628 12.3794 43.0731 13.6423C43.0783 14.3648 43.0835 15.1079 43.0264 15.8355C42.9484 16.8334 42.7353 17.7637 42.3871 18.6004C42.0649 19.3852 41.6335 20.1284 41.2593 20.752C41.0982 21.0171 40.9371 21.2822 40.776 21.542C40.1056 22.6178 39.4092 23.73 39.0661 24.9461C38.8375 25.7569 38.8063 26.5573 38.9778 27.3264C39.0661 27.7214 39.2065 28.132 39.4092 28.5841L39.4923 28.7712L38.8167 29.4729V29.4677Z" fill="#2B388F"/>
<path d="M5.91865 10.5397C6.5579 11.4024 7.01005 12.4262 7.06722 13.5073C7.12438 14.5623 6.78138 15.5861 6.50593 16.5892C6.25647 17.5039 6.04338 18.4549 6.1941 19.406C6.32923 20.2739 6.73461 21.0587 7.21274 21.7811C8.27816 23.3974 9.70217 24.8006 9.97762 26.8015C10.1491 28.0385 9.98282 29.2702 9.8321 30.4967C9.92565 30.5799 10.014 30.663 10.0972 30.741C10.2323 29.6184 10.3986 28.4958 10.3362 27.368C10.2843 26.3702 10.014 25.4295 9.52027 24.5616C9.05772 23.7508 8.47045 23.018 7.91956 22.2644C7.35307 21.4849 6.79697 20.6585 6.5631 19.7075C6.30324 18.6628 6.53192 17.6182 6.81256 16.6048C7.07762 15.6589 7.38425 14.7078 7.37385 13.7151C7.36866 12.6809 7.01525 11.6831 6.47474 10.8099C6.04858 10.1291 5.52367 9.55223 4.93639 9.04291C4.88962 9.13646 4.84804 9.23001 4.80127 9.32875C5.21184 9.68736 5.58603 10.0875 5.91865 10.5345V10.5397Z" fill="#2B388F"/>
<path d="M10.3309 31.375L9.89432 30.9748C9.81117 30.8969 9.72282 30.8189 9.62927 30.7358L9.51494 30.6318L9.55132 30.3512C9.70204 29.1506 9.84236 28.0125 9.68125 26.8587C9.48376 25.4243 8.6626 24.3121 7.79988 23.1375C7.51923 22.7581 7.23339 22.3684 6.96834 21.963C6.36547 21.0483 6.02765 20.2583 5.90292 19.4684C5.73661 18.4237 5.98088 17.3999 6.21995 16.5216C6.25633 16.3864 6.29791 16.2461 6.33429 16.111C6.57335 15.2691 6.81762 14.4011 6.77084 13.5384C6.71887 12.5925 6.33948 11.6259 5.67944 10.732C5.37281 10.3214 5.0246 9.942 4.60364 9.573L4.43213 9.42228L4.53088 9.21439C4.57765 9.12085 4.61922 9.02729 4.666 8.93374L4.83751 8.56995L5.13894 8.8298C5.79898 9.40149 6.32389 9.99916 6.73966 10.6696C7.35293 11.6519 7.68034 12.7121 7.68554 13.7307C7.69074 14.6506 7.44128 15.5289 7.20221 16.3812C7.17102 16.4904 7.13984 16.5995 7.10865 16.7035C6.85919 17.6026 6.61493 18.642 6.86439 19.6503C7.09306 20.565 7.65956 21.3965 8.16888 22.0981C8.29361 22.2696 8.41834 22.4359 8.54307 22.6022C8.97443 23.1791 9.42139 23.7768 9.78519 24.4212C10.2945 25.3203 10.5855 26.313 10.6375 27.3628C10.6895 28.3763 10.5648 29.3845 10.4452 30.3616C10.4296 30.5019 10.4088 30.6474 10.3933 30.7877L10.3257 31.375H10.3309Z" fill="#2B388F"/>
<path d="M38.3959 85.1031C39.8199 83.1801 40.5787 80.7063 40.5371 78.1337C40.5111 76.3667 40.1006 74.6308 39.3522 73.1133L39.269 72.947L24.2233 73.1808L24.1453 73.3523C23.4489 74.8959 23.0903 76.6421 23.1215 78.4092C23.1631 80.9766 23.9998 83.4296 25.481 85.3058C26.905 87.1092 28.802 88.2474 30.8497 88.5332L31.0471 101.349L31.0731 102.981C29.8154 103.044 28.6669 103.179 27.8145 103.366C26.6763 103.615 26.1722 103.917 26.1774 104.343C26.1826 104.8 26.7855 105.102 28.1212 105.315C29.2281 105.491 30.6885 105.575 32.2425 105.549C32.3152 105.549 32.3828 105.549 32.4556 105.549C33.9264 105.517 35.3036 105.388 36.3534 105.19C37.6839 104.935 38.2712 104.618 38.266 104.156C38.2608 103.73 37.7463 103.444 36.6081 103.231C35.7558 103.075 34.6124 102.971 33.3547 102.95L33.3079 100.014L33.1312 88.502C35.1685 88.1538 37.0343 86.9585 38.3959 85.1083V85.1031ZM37.6423 104.156C37.528 104.244 37.1538 104.447 36.026 104.644C34.9866 104.826 33.6405 104.935 32.2373 104.956C30.8289 104.977 29.4828 104.909 28.4382 104.759C27.3052 104.598 26.9258 104.405 26.8063 104.322C27.1077 104.083 28.5993 103.662 31.3902 103.548L31.676 103.537L31.6188 100.045L31.4317 87.9979L31.1719 87.9719C26.9986 87.5405 23.7919 83.4244 23.7088 78.3936C23.6828 76.7773 23.9946 75.1817 24.6079 73.7577L38.9052 73.5342C39.5653 74.9375 39.9239 76.5226 39.9499 78.1389C40.0278 83.1698 36.9511 87.3898 32.7934 87.9459L32.5335 87.9823L32.7258 100.383L32.7726 103.522H33.0584C35.8285 103.553 37.3305 103.927 37.6371 104.156H37.6423Z" fill="#2B388F"/>
<path d="M32.4605 105.694C32.3878 105.694 32.3202 105.694 32.2475 105.694C30.6883 105.72 29.2175 105.632 28.1001 105.455C26.6605 105.226 26.0369 104.889 26.0317 104.338C26.0213 103.818 26.5514 103.48 27.7883 103.21C28.6095 103.033 29.7216 102.898 30.9274 102.83L30.9066 101.63L30.8962 101.349L30.6987 88.6579C28.6614 88.3409 26.7697 87.1819 25.3612 85.3941C23.8593 83.4867 23.0121 81.0077 22.9706 78.4039C22.9446 76.6161 23.3032 74.8439 24.01 73.2847L24.1243 73.0249H24.2231L39.3624 72.7858L39.4871 73.0405C40.2407 74.5788 40.6564 76.3407 40.6876 78.1285C40.7292 80.7323 39.9548 83.2373 38.5152 85.1914C37.1588 87.026 35.3086 88.2369 33.2817 88.6215L33.4532 99.8629L33.5 102.794C34.7005 102.825 35.8075 102.924 36.6287 103.075C37.8708 103.303 38.4009 103.626 38.4113 104.145C38.4217 104.701 37.8136 105.055 36.3792 105.33C35.3294 105.533 33.9365 105.663 32.4553 105.694H32.4605ZM31.2028 101.063V101.344L31.234 103.122H31.0885C29.8412 103.189 28.6926 103.324 27.8507 103.511C26.8268 103.735 26.3279 104.005 26.3331 104.338C26.3383 104.701 26.9308 104.967 28.1469 105.164C29.2435 105.341 30.6987 105.424 32.2371 105.398C33.7806 105.372 35.2358 105.242 36.322 105.034C37.5278 104.8 38.115 104.514 38.1098 104.151C38.1046 103.818 37.6057 103.563 36.5767 103.376C35.7399 103.22 34.5914 103.122 33.3493 103.096H33.2037L33.157 100.154H33.1518V100.008L32.9699 88.3669L33.0998 88.3461C35.0955 88.0031 36.9353 86.8233 38.271 85.0147C39.6742 83.1177 40.4226 80.6751 40.381 78.1389C40.355 76.3979 39.9496 74.6828 39.2116 73.1808L39.1701 73.0977L24.3166 73.3315L24.2802 73.4147C23.589 74.9374 23.2408 76.6629 23.2668 78.4039C23.3084 80.9401 24.1347 83.3568 25.5951 85.2122C26.988 86.9792 28.8589 88.1018 30.865 88.3825L30.9949 88.398L31.1924 101.063H31.2028ZM32.4398 105.107C32.3722 105.107 32.3046 105.107 32.2371 105.107C30.8234 105.128 29.467 105.06 28.4172 104.909C27.279 104.748 26.8684 104.551 26.7229 104.447L26.5618 104.332L26.7177 104.208C27.0451 103.948 28.5575 103.517 31.3899 103.402H31.5303L31.4783 100.237V100.055L31.286 88.1434L31.1613 88.133C26.91 87.6964 23.6462 83.5127 23.563 78.4039C23.537 76.772 23.8541 75.1453 24.4725 73.7057L24.5089 73.6174H24.6077L39.0038 73.3887L39.0453 73.4771C39.7106 74.8959 40.0744 76.5122 40.1003 78.1441C40.1783 83.2529 37.0444 87.5353 32.8088 88.107L32.684 88.1226L32.8711 100.18V100.388L32.9179 103.376H33.0582C35.8699 103.407 37.3926 103.787 37.7253 104.036L37.8864 104.156L37.7253 104.275C37.5849 104.384 37.1744 104.598 36.0466 104.79C35.0539 104.961 33.7754 105.07 32.4346 105.102L32.4398 105.107ZM27.1439 104.322C27.3673 104.405 27.7675 104.514 28.4587 104.613C29.493 104.759 30.8338 104.831 32.2319 104.805C33.6299 104.785 34.9708 104.67 35.9998 104.494C36.6858 104.374 37.0808 104.255 37.3043 104.161C36.7534 103.963 35.3813 103.698 33.0634 103.678H32.632L32.5853 100.601L32.5801 100.388L32.3878 87.8523L32.7776 87.8004C36.8625 87.2495 39.8821 83.097 39.8041 78.1441C39.7781 76.5901 39.4403 75.0518 38.8167 73.6901L24.7168 73.9084C24.1399 75.2857 23.8437 76.8344 23.8697 78.3883C23.9476 83.3412 27.0971 87.4002 31.1924 87.8212L31.5874 87.8627L31.7745 99.8577V100.04L31.8369 103.678L31.4055 103.693C29.072 103.787 27.7 104.099 27.1543 104.312L27.1439 104.322Z" fill="#2B388F"/>
<path d="M40.7188 20.778C40.1471 21.9214 39.4767 23.0232 39.0245 24.2237C38.5724 25.4243 38.3593 26.7599 38.7283 27.9865C38.7803 28.158 38.8738 28.3503 39.0505 28.3658C39.1856 28.3762 39.3 28.2723 39.3987 28.1788C41.7686 25.8037 43.8267 23.1219 45.5106 20.2219C46.207 19.0214 46.8514 17.7585 47.0541 16.3864C47.3036 14.7338 46.8878 13.0811 46.233 11.5687C45.9055 10.8047 44.9961 8.2685 44.019 8.08141C42.7093 7.82675 43.0991 10.6332 43.0783 11.3348C43.0367 12.8836 42.8288 14.4271 42.4754 15.9343C42.0753 17.6078 41.488 19.2397 40.7188 20.778Z" fill="#2B388F"/>
<path d="M7.15017 14.952C7.00985 15.9135 6.61486 16.8282 6.50053 17.8C6.24067 20.0608 7.52956 22.1708 8.64695 24.1561C9.76433 26.1414 10.783 28.5009 9.96702 30.6266C7.00985 28.4074 4.3645 25.7672 2.14012 22.8101C1.02274 21.3237 0.34711 20.4506 0.435461 18.5952C0.503024 17.0724 1.13188 15.3626 1.93224 14.0633C2.52991 13.0914 3.18995 12.2391 3.79282 11.2672C4.30214 10.4409 4.41648 8.60628 5.39354 9.51058C6.71361 10.7319 7.4568 13.2213 7.14497 14.9624L7.15017 14.952Z" fill="#2B388F"/>
<path d="M17.0147 124.212C15.1385 117.003 12.8933 108.267 13.2987 107.726C15.9233 104.234 27.3674 97.0045 33.3805 95.9079C33.8482 95.0868 31.1769 94.037 31.0366 92.9456C30.8235 91.2929 30.548 90.3782 30.548 90.3782C24.3998 92.166 7.21286 98.5793 4.5935 104.192C2.54582 108.579 1.77665 118.64 1.75586 126.394L17.0199 124.212H17.0147Z" fill="white"/>
<path d="M28.6352 97.3059C30.0384 96.9577 33.4686 96.0171 33.4166 95.7416C33.3906 95.6065 33.2763 95.5129 33.1723 95.4298C32.2732 94.723 32.1537 93.8602 31.2598 93.1586C31.2598 93.1586 31.2234 92.6441 30.6309 90.7316C29.4408 90.7004 27.3879 90.6952 27.2995 91.5475C27.2268 92.2231 28.6664 97.3007 28.6352 97.3111V97.3059Z" fill="#2B388F"/>
<path d="M67.4786 29.8574C67.2811 29.8938 67.2239 29.5872 67.4214 29.5508C67.6189 29.5144 67.6761 29.821 67.4786 29.8574Z" fill="white"/>
<path d="M24.9141 79.0536C24.9141 79.0536 24.9141 79.0795 24.9141 79.0899C24.9816 83.4659 28.1103 86.9688 31.9042 86.9064C31.9198 86.9064 31.9406 86.9064 31.9562 86.9064C31.9718 86.9064 31.9822 86.9064 31.9978 86.9064C32.0134 86.9064 32.0238 86.9064 32.0393 86.9064C32.0497 86.9064 32.0601 86.9064 32.0653 86.9064C32.0757 86.9064 32.0861 86.9064 32.0965 86.9064C32.1121 86.9064 32.1225 86.9064 32.1381 86.9064C32.1537 86.9064 32.1641 86.9064 32.1797 86.9064C32.1953 86.9064 32.2161 86.9064 32.2316 86.9064C36.0204 86.7973 38.9931 83.1645 38.8684 78.7885C38.8528 78.2064 38.78 77.6347 38.6605 77.0942L24.9193 79.0588L24.9141 79.0536Z" fill="#EC1C24"/>
<path d="M33.526 94.8945C33.287 94.6138 32.9543 94.3488 32.6009 94.0681C32.2943 93.8239 31.364 93.0807 31.3172 92.7481C31.1042 91.0954 30.8599 89.8896 30.8547 89.874L30.8391 89.7961L30.4233 89.9156C26.962 90.9239 21.1828 93.0131 16.0636 95.409C13.0701 96.8122 10.5703 98.1947 8.64731 99.5095C6.33978 101.084 4.843 102.586 4.19855 103.969C2.09371 108.485 1.53761 118.204 1.39729 122.174C1.34532 123.572 1.31934 125.012 1.31934 126.446V126.457L2.20285 126.332C2.20285 125.095 2.22883 123.827 2.27041 122.569C2.54586 114.15 3.53852 107.534 4.99372 104.421C6.06953 102.108 10.0298 99.3016 16.4378 96.2977C21.5674 93.8914 27.0608 91.9321 30.2518 90.9758C30.3506 91.4072 30.4909 92.0932 30.6104 93.0079C30.704 93.7303 31.4108 94.2968 32.0968 94.8425C32.3255 95.0244 32.6841 95.3102 32.8816 95.5285C30.1011 96.1366 26.0941 97.9452 21.8584 100.507C17.6851 103.028 14.281 105.679 12.9661 107.425C12.7998 107.643 12.7115 107.945 13.0597 109.805C13.2572 110.86 13.5742 112.295 14.0316 114.197C14.7747 117.305 15.7414 121.031 16.5834 124.279L17.4669 124.154V124.144C16.6405 120.979 15.6998 117.351 14.967 114.295C13.7873 109.394 13.6885 108.246 13.7093 107.976C14.9774 106.339 18.3452 103.735 22.3054 101.344C25.1742 99.6083 27.7468 98.3142 30.1635 97.3787C30.8547 97.1085 31.4836 96.8954 32.0812 96.7239C32.3879 96.6355 32.6737 96.5576 32.9492 96.4952C33.0011 96.4848 33.0583 96.4744 33.1155 96.464C33.3909 96.412 33.7027 96.3549 33.8431 96.0222C34.0354 95.5649 33.6975 95.092 33.5416 94.9049L33.526 94.8945Z" fill="#2B388F"/>
</g>
<path d="M91.3484 121.687C100.979 112.056 100.979 96.4421 91.3484 86.8116C81.7178 77.1811 66.1037 77.1811 56.4732 86.8116C46.8427 96.4421 46.8427 112.056 56.4732 121.687C66.1037 131.317 81.7178 131.317 91.3484 121.687Z" fill="#FFDD14"/>
<path d="M82.4721 129.549C79.2499 130.64 75.9082 131.108 72.53 130.931C69.0791 130.75 65.7373 129.918 62.5983 128.447C59.454 126.976 56.6735 124.95 54.3192 122.419C51.887 119.799 50.0264 116.748 48.7999 113.36C47.5681 109.971 47.038 106.443 47.2251 102.867C47.407 99.416 48.2386 96.0742 49.7094 92.9352C51.1801 89.7909 53.207 87.0104 55.738 84.6561C58.3574 82.2239 61.4081 80.3633 64.7967 79.1368C64.9786 79.0692 65.1605 79.0068 65.3476 78.9445C68.5698 77.8531 71.9116 77.3853 75.2897 77.562C78.7406 77.7439 82.0824 78.5755 85.2214 80.0463C88.3657 81.5171 91.1462 83.5439 93.5005 86.075C95.9327 88.6943 97.7933 91.745 99.0198 95.1336C100.252 98.5221 100.782 102.051 100.595 105.627C100.418 109.078 99.5811 112.419 98.1103 115.558C96.6396 118.703 94.6127 121.483 92.0817 123.837C89.4623 126.27 86.4116 128.13 83.023 129.357C82.8411 129.424 82.6592 129.487 82.4721 129.549Z" fill="#F4D93C"/>
<path d="M82.6748 128.4C79.4162 129.585 76.0173 130.095 72.582 129.913C69.2662 129.741 66.0492 128.936 63.0244 127.522C59.9997 126.109 57.3232 124.16 55.0624 121.722C52.7237 119.201 50.9359 116.27 49.7509 113.007C48.566 109.748 48.0567 106.349 48.2386 102.914C48.4101 99.5979 49.2156 96.3809 50.6293 93.3561C52.0429 90.3314 53.9918 87.6548 56.4293 85.3941C58.9499 83.0554 61.8811 81.2676 65.1449 80.0826C68.4035 78.8977 71.8024 78.3883 75.2377 78.5702C78.5535 78.7417 81.7705 79.5473 84.7953 80.9609C87.82 82.3745 90.4965 84.3235 92.7573 86.7609C95.096 89.2816 96.8838 92.2127 98.0688 95.4765C99.2537 98.7352 99.763 102.134 99.5811 105.569C99.4096 108.885 98.6041 112.102 97.1905 115.127C95.7768 118.152 93.8279 120.828 91.3904 123.089C88.8698 125.428 85.9386 127.215 82.6748 128.4Z" fill="#EC1C24"/>
<path d="M91.3484 121.687C100.979 112.056 100.979 96.4421 91.3484 86.8116C81.7178 77.1811 66.1037 77.1811 56.4732 86.8116C46.8427 96.4421 46.8427 112.056 56.4732 121.687C66.1037 131.317 81.7178 131.317 91.3484 121.687Z" fill="#F4D93C"/>
<path d="M80.4193 122.2C80.0555 122.335 79.6865 122.455 79.3123 122.564C78.2313 122.886 77.1503 123.079 76.1421 123.24C74.2763 123.536 72.291 123.505 70.0718 123.141C68.0241 122.808 66.1583 122.216 64.5264 121.395C64.2718 121.265 64.1678 120.953 64.2978 120.698C64.4277 120.444 64.7395 120.34 64.9942 120.47C66.5325 121.244 68.2996 121.8 70.2381 122.117C72.3481 122.46 74.2243 122.497 75.9757 122.216C76.9476 122.06 77.9922 121.873 79.0161 121.571C79.9723 121.286 80.9234 120.922 81.8329 120.48C83.6259 119.612 85.2422 118.516 86.6455 117.221C87.898 116.068 88.9998 114.722 89.9301 113.23C90.0444 113.048 90.1587 112.856 90.2679 112.669C90.4134 112.419 90.7252 112.336 90.9747 112.482C91.2242 112.627 91.3073 112.939 91.1618 113.188C91.0475 113.386 90.9279 113.583 90.8084 113.781C89.8313 115.35 88.6672 116.769 87.3471 117.985C85.8711 119.347 84.1664 120.501 82.2851 121.416C81.677 121.712 81.0534 121.972 80.4193 122.205V122.2Z" fill="#EC1C24"/>
<path d="M62.562 116.655C61.6213 116.998 60.7014 117.154 59.8023 117.128C58.9032 117.102 58.0768 116.925 57.318 116.603C56.5645 116.275 55.8992 115.813 55.3275 115.21C54.7558 114.607 54.3245 113.895 54.0231 113.079C53.7268 112.258 53.6021 111.437 53.6541 110.605C53.706 109.779 53.9139 108.994 54.2881 108.261C54.6571 107.529 55.182 106.863 55.8524 106.266C56.5281 105.668 57.3336 105.2 58.2743 104.857C59.215 104.514 60.1349 104.358 61.034 104.384C61.9331 104.41 62.7594 104.587 63.5182 104.909C64.2718 105.237 64.9371 105.699 65.5087 106.302C66.0804 106.905 66.5118 107.617 66.8132 108.433C67.1147 109.249 67.2342 110.075 67.1822 110.907C67.1302 111.733 66.9172 112.518 66.5482 113.251C66.1792 113.984 65.6543 114.649 64.9838 115.246C64.3082 115.844 63.5026 116.312 62.562 116.655ZM60.8677 111.988C61.2159 111.863 61.4654 111.64 61.6109 111.323C61.7564 111.006 61.7616 110.673 61.6369 110.32C61.5121 109.971 61.2887 109.722 60.9768 109.566C60.6598 109.415 60.3324 109.4 59.979 109.53C59.6308 109.654 59.3813 109.878 59.2306 110.2C59.0799 110.522 59.0695 110.855 59.1942 111.203C59.3189 111.551 59.5424 111.801 59.8646 111.951C60.1869 112.102 60.5195 112.113 60.8677 111.988Z" fill="#EC1C24"/>
<path d="M84.5772 108.329L79.6607 110.112L78.0236 106.624L76.2046 109.789L72.7797 108.527L73.762 112.253L68.8455 114.036L65.8623 101.729L74.2609 104.431L78.9695 96.9733L84.5772 108.329Z" fill="#EC1C24"/>
<path d="M94.8882 98.4701L96.2758 102.29C95.6782 103.272 94.9454 104.088 94.0671 104.733C93.1887 105.377 92.2585 105.881 91.2762 106.24C90.1952 106.635 89.187 106.822 88.2463 106.812C87.3108 106.801 86.4688 106.63 85.7256 106.297C84.9825 105.97 84.3432 105.502 83.8079 104.899C83.2726 104.296 82.862 103.594 82.571 102.799C82.2643 101.957 82.1344 101.121 82.176 100.279C82.2176 99.442 82.4255 98.652 82.7997 97.9088C83.1738 97.1656 83.7092 96.4952 84.4056 95.8975C85.102 95.2998 85.9491 94.8165 86.9418 94.4579C88.1007 94.0369 89.2181 93.8862 90.2991 94.0006C91.3801 94.1149 92.4611 94.5463 93.5473 95.2895L90.5018 98.6936C89.9197 98.3142 89.3117 98.2362 88.6776 98.4649C88.1527 98.6572 87.7681 98.969 87.5187 99.416C87.2692 99.8577 87.2536 100.367 87.4615 100.949C87.6694 101.526 88.0124 101.905 88.4853 102.087C88.9583 102.269 89.4728 102.259 90.0289 102.056C90.3563 101.937 90.6214 101.786 90.8292 101.599L90.2991 100.138L94.8882 98.4753V98.4701Z" fill="#EC1C24"/>
<path d="M66.3628 97.5973C67.3908 97.2241 67.5723 95.126 66.7683 92.9109C65.9642 90.6957 64.4791 89.2025 63.4511 89.5757C62.4232 89.9488 62.2416 92.047 63.0457 94.2621C63.8497 96.4772 65.3349 97.9704 66.3628 97.5973Z" fill="#EC1C24"/>
<path d="M75.3194 94.347C76.3473 93.9739 76.5289 91.8757 75.7248 89.6606C74.9208 87.4455 73.4356 85.9523 72.4077 86.3254C71.3797 86.6986 71.1982 88.7967 72.0022 91.0118C72.8063 93.2269 74.2914 94.7202 75.3194 94.347Z" fill="#EC1C24"/>
<path d="M106.603 31.9155L51.1494 30.9592C48.8263 30.9176 46.9086 32.773 46.867 35.0961L46.4616 58.7691C46.42 61.0922 48.2754 63.01 50.5986 63.0516L106.052 64.0078C108.375 64.0494 110.293 62.194 110.335 59.8709L110.74 36.1979C110.781 33.8748 108.926 31.957 106.603 31.9155ZM66.0185 57.1268C66.0029 58.1247 65.1817 58.9146 64.1839 58.899L54.564 58.7327C53.5661 58.7171 52.7762 57.896 52.7917 56.8981L53.1296 37.175C53.1452 36.1771 53.9663 35.3872 54.9641 35.4027L64.5841 35.569C65.5819 35.5846 66.3719 36.4058 66.3563 37.4036L66.0185 57.1268ZM85.0452 57.4542C85.0296 58.4521 84.2085 59.242 83.2106 59.2265L73.5907 59.0601C72.5929 59.0445 71.8029 58.2234 71.8185 57.2255L72.1563 37.5024C72.1719 36.5045 72.993 35.7146 73.9909 35.7302L83.6108 35.8965C84.6087 35.9121 85.3986 36.7332 85.383 37.7311L85.0452 57.4542ZM104.072 57.7868C104.056 58.7847 103.235 59.5747 102.237 59.5591L92.6175 59.3928C91.6196 59.3772 90.8296 58.556 90.8452 57.5582L91.183 37.835C91.1986 36.8372 92.0198 36.0472 93.0176 36.0628L102.638 36.2291C103.635 36.2447 104.425 37.0658 104.41 38.0637L104.072 57.7868Z" fill="#EC1C24"/>
<path d="M131.95 16.5163C132.002 13.5955 129.673 11.1841 126.747 11.1321C123.826 11.0801 121.415 13.4084 121.363 16.3344C121.332 18.2678 122.34 19.9776 123.868 20.9287L123.468 44.0144C123.452 44.8927 122.725 45.5943 121.846 45.5787L118.978 45.5268C118.167 42.1226 115.724 39.3422 112.507 38.0793L112.164 58.0415C115.386 56.9033 117.902 54.258 118.853 50.937L121.753 50.989C125.614 51.0565 128.811 47.9694 128.878 44.1027L129.278 21.017C130.843 20.1179 131.908 18.4497 131.944 16.5163H131.95Z" fill="#EC1C24"/>
<path d="M60.9667 45.0435V44.8668L54.6781 44.7576C54.3299 44.7524 54.0701 44.4874 54.0753 44.134L54.1065 42.3877C54.1117 42.0395 54.3767 41.7797 54.7301 41.7849L64.8697 41.9616C65.2179 41.9668 65.4778 42.2318 65.4726 42.5852L65.4466 44.0716C65.431 44.8564 65.166 45.1162 64.9841 45.4644L60.5613 53.52C60.3794 53.8682 60.1144 54.1229 59.6778 54.1177L56.705 54.0657C56.3568 54.0605 56.0814 53.7903 56.2789 53.4473L60.9719 45.0487L60.9667 45.0435Z" fill="#EC1C24"/>
<path d="M79.8583 45.3657V45.189L73.5697 45.0798C73.2215 45.0746 72.9617 44.8096 72.9669 44.4562L72.9981 42.7099C73.0033 42.3617 73.2683 42.1019 73.6217 42.1071L83.7613 42.2838C84.1095 42.289 84.3694 42.554 84.3642 42.9074L84.3382 44.3938C84.3226 45.1786 84.0576 45.4384 83.8757 45.7867L79.4529 53.8422C79.271 54.1904 79.006 54.4451 78.5694 54.4399L75.5966 54.3879C75.2484 54.3827 74.973 54.1125 75.1705 53.7695L79.8635 45.3709L79.8583 45.3657Z" fill="#EC1C24"/>
<path d="M98.7499 45.6931V45.5164L92.4613 45.4073C92.1131 45.4021 91.8533 45.137 91.8585 44.7836L91.8897 43.0374C91.8949 42.6892 92.1599 42.4293 92.5133 42.4345L102.653 42.6112C103.001 42.6164 103.261 42.8815 103.256 43.2349L103.23 44.7213C103.214 45.506 102.949 45.7659 102.767 46.1141L98.3445 54.1697C98.1626 54.5179 97.8976 54.7725 97.461 54.7673L94.4882 54.7154C94.14 54.7102 93.8646 54.4399 94.0621 54.0969L98.7551 45.6983L98.7499 45.6931Z" fill="#EC1C24"/>
<path d="M103.5 22.0461L100.21 21.9889C99.9921 21.9889 99.7998 21.8382 99.7322 21.6303L98.7708 18.486C98.6253 18.0131 97.9652 18.0027 97.8041 18.4705L96.7335 21.5835C96.6607 21.7914 96.4632 21.9318 96.245 21.9266L92.9552 21.8694C92.4614 21.859 92.2484 22.4879 92.6381 22.7841L95.2679 24.7642C95.4446 24.8941 95.5122 25.128 95.4446 25.3359L94.374 28.449C94.2129 28.9167 94.743 29.3117 95.1484 29.0311L97.8405 27.1445C98.0224 27.0198 98.2614 27.0198 98.4382 27.1549L101.068 29.135C101.463 29.4312 102.003 29.0518 101.858 28.5789L100.896 25.4346C100.834 25.2215 100.912 24.9981 101.089 24.8681L103.781 22.9816C104.186 22.7009 103.989 22.0669 103.5 22.0565V22.0461Z" fill="#00A14B"/>
<path d="M65.1296 21.3861L61.8398 21.3289C61.6215 21.3289 61.4292 21.1782 61.3616 20.9703L60.4002 17.826C60.2546 17.3531 59.5946 17.3427 59.4335 17.8104L58.3629 20.9235C58.2901 21.1314 58.0926 21.2717 57.8744 21.2665L54.5846 21.2094C54.0908 21.199 53.8777 21.8278 54.2675 22.1241L56.8973 24.1042C57.074 24.2341 57.1416 24.468 57.074 24.6759L56.0034 27.7889C55.8423 28.2567 56.3724 28.6517 56.7778 28.371L59.4699 26.4845C59.6518 26.3597 59.8908 26.3597 60.0675 26.4949L62.6973 28.475C63.0923 28.7712 63.6328 28.3918 63.4873 27.9189L62.5258 24.7746C62.4634 24.5615 62.5414 24.338 62.7181 24.2081L65.4102 22.3215C65.8156 22.0409 65.6181 21.4069 65.1296 21.3965V21.3861Z" fill="#00A14B"/>
<path d="M90.0605 14.1256L82.483 13.9957C82.2648 13.9957 82.0725 13.845 82.0049 13.6371L79.7857 6.3923C79.6402 5.91936 78.9802 5.90896 78.819 6.37671L76.3556 13.5436C76.2828 13.7515 76.0854 13.8918 75.8671 13.8866L68.2896 13.7566C67.7959 13.7463 67.5828 14.3751 67.9726 14.6713L74.0273 19.2292C74.204 19.3592 74.2715 19.593 74.204 19.8009L71.7405 26.9678C71.5794 27.4355 72.1095 27.8305 72.5149 27.5499L78.7203 23.2051C78.9022 23.0803 79.1413 23.0803 79.318 23.2155L85.3727 27.7733C85.7676 28.0696 86.3081 27.6902 86.1626 27.2173L83.9434 19.9724C83.8811 19.7593 83.959 19.5359 84.1357 19.4059L90.3411 15.0611C90.7465 14.7805 90.549 14.1464 90.0605 14.136V14.1256Z" fill="#00A14B"/>
</svg>
