<svg width="153" height="48" viewBox="0 0 153 48" fill="none" xmlns="http://www.w3.org/2000/svg">
<path d="M140.38 0H12C5.37258 0 0 5.37258 0 12V35.36C0 41.9874 5.37258 47.36 12 47.36H140.38C147.007 47.36 152.38 41.9874 152.38 35.36V12C152.38 5.37258 147.007 0 140.38 0Z" fill="#2CB275"/>
<path d="M26 16.4H35.82V29.6H33.2V18.76H28.62V29.6H26V16.4Z" fill="white"/>
<path d="M48.5797 29.6C48.1397 29.74 47.6996 29.8 47.2396 29.8C46.1196 29.8 45.3796 29.32 45.0396 28.38C44.4596 29.34 43.4796 29.84 42.2596 29.84C39.7996 29.84 38.1396 27.78 38.1396 24.66C38.1396 21.54 39.7996 19.48 42.2596 19.48C43.4796 19.48 44.4396 19.98 45.0196 20.92L45.0797 19.7H47.4996C47.3796 21.74 47.3196 23.3 47.3196 24.36V26.42C47.3196 27.14 47.5397 27.48 48.0797 27.48C48.2597 27.48 48.4197 27.48 48.5797 27.46V29.6ZM42.7596 21.82C41.5596 21.82 40.7796 22.84 40.7796 24.66C40.7796 26.48 41.5596 27.48 42.7596 27.48C43.9596 27.48 44.7596 26.56 44.7596 24.66C44.7596 22.76 43.9396 21.82 42.7596 21.82Z" fill="white"/>
<path d="M50.8999 14H53.9599V14.44L52.3199 18.2H50.4199L50.8999 14ZM50.4399 19.7H52.9999V26.22C52.9999 27.1 53.3399 27.48 54.0799 27.5C54.2999 27.5 54.5799 27.48 54.9199 27.44V29.62C54.4199 29.76 53.9199 29.82 53.4199 29.82C51.4399 29.82 50.4399 28.74 50.4399 26.56V19.7Z" fill="white"/>
<path d="M63.4603 33.2H60.9403C61.2203 32.44 61.3603 31.84 61.3603 31.42C61.3603 30.4 61.0003 29.94 60.0203 29.7L59.3603 29.5C57.3803 28.94 56.2803 27.54 56.2803 25.52C56.2803 23.82 56.9803 22.58 58.2803 21.88C57.2203 21.32 56.6803 20.42 56.6803 19.24C56.6803 18.34 57.0603 17.52 57.7803 16.94H56.3803V14.6H63.8403V16.94H61.2003C59.9403 16.94 59.2403 17.76 59.2403 18.88C59.2403 20 59.9203 20.86 61.1203 20.86H63.0403V23.06H61.0603C59.7003 23.06 58.9203 23.82 58.9203 25.18C58.9203 26.44 59.5003 27.06 60.9603 27.46L61.6003 27.66C63.1803 28.12 63.9603 29.2 63.9603 30.86C63.9603 31.7 63.8003 32.48 63.4603 33.2Z" fill="white"/>
<path d="M73.2802 27.82C72.4402 29.16 71.1002 29.84 69.2402 29.84C66.7402 29.84 65.2402 28.74 65.2402 26.9C65.2402 25.84 65.7802 25.02 66.8002 24.56C65.9802 24.06 65.5802 23.34 65.5802 22.4C65.5802 20.58 67.0402 19.48 69.3802 19.48C71.1602 19.48 72.4402 20.12 73.2202 21.38L71.6002 22.74C71.1002 22.04 70.3802 21.7 69.4402 21.7C68.5002 21.7 68.0802 22.04 68.0802 22.7C68.0802 23.32 68.4802 23.66 69.2202 23.66H70.7002V25.58H69.1202C68.1602 25.58 67.7202 25.88 67.7202 26.54C67.7202 27.26 68.2202 27.6 69.2802 27.6C70.3402 27.6 71.1002 27.24 71.6802 26.44L73.2802 27.82Z" fill="white"/>
<path d="M83.6004 18.76H79.9004V16.4H89.9404V18.76H86.2204V29.6H83.6004V18.76Z" fill="white"/>
<path d="M99.2605 29.84C98.1005 29.84 97.2205 29.42 96.6005 28.56C96.0005 29.42 95.1205 29.84 93.9605 29.84C91.4805 29.84 89.9805 27.98 89.9805 24.8C89.9805 22 91.1405 20.2 93.4005 19.54L94.2405 21.7C93.0405 22.32 92.5605 23.22 92.5605 24.82C92.5605 26.56 93.1405 27.5 94.1205 27.5C94.9205 27.5 95.3805 26.9 95.3805 25.86V22.9H97.8205V25.86C97.8205 26.88 98.2805 27.5 99.0805 27.5C100.1 27.5 100.64 26.54 100.64 24.84C100.64 23.14 100.16 22.32 98.9605 21.7L99.8205 19.54C102.06 20.2 103.22 22 103.22 24.8C103.22 27.98 101.74 29.84 99.2605 29.84ZM95.7805 14H98.8405V14.44L97.2005 18.2H95.3005L95.7805 14Z" fill="white"/>
<path d="M110.32 29.84C109.38 29.84 108.58 29.54 107.96 28.94V33.2H105.38V24.58C105.38 21.44 107.14 19.48 109.96 19.48C112.78 19.48 114.58 21.48 114.58 24.66C114.58 27.84 112.86 29.84 110.32 29.84ZM109.92 21.82C108.66 21.82 107.92 22.82 107.92 24.66C107.92 26.5 108.66 27.48 109.92 27.48C111.18 27.48 111.94 26.44 111.94 24.66C111.94 22.88 111.18 21.82 109.92 21.82Z" fill="white"/>
<path d="M126.78 29.6C126.34 29.74 125.9 29.8 125.44 29.8C124.32 29.8 123.58 29.32 123.24 28.38C122.66 29.34 121.68 29.84 120.46 29.84C118 29.84 116.34 27.78 116.34 24.66C116.34 21.54 118 19.48 120.46 19.48C121.68 19.48 122.64 19.98 123.22 20.92L123.28 19.7H125.7C125.58 21.74 125.52 23.3 125.52 24.36V26.42C125.52 27.14 125.74 27.48 126.28 27.48C126.46 27.48 126.62 27.48 126.78 27.46V29.6ZM120.96 21.82C119.76 21.82 118.98 22.84 118.98 24.66C118.98 26.48 119.76 27.48 120.96 27.48C122.16 27.48 122.96 26.56 122.96 24.66C122.96 22.76 122.14 21.82 120.96 21.82Z" fill="white"/>
</svg>
