<svg xmlns="http://www.w3.org/2000/svg" viewBox="0 0 1004.3 589.53"><defs><style>.cls-1,.cls-2{fill:#1a3362;}.cls-2{stroke:#fff;stroke-miterlimit:10;stroke-width:4px;}.cls-3{fill:#fff;}</style></defs><title>Asset 3</title><g id="Layer_2" data-name="Layer 2"><g id="Layer_1-2" data-name="Layer 1"><rect class="cls-1" width="1004.3" height="589.53"/><path class="cls-2" d="M138,116s-15.86,0-15.86,15.86V457.27s0,15.86,15.86,15.86H463.43s15.86,0,15.86-15.86V131.81s0-15.86-15.86-15.86Z"/><path class="cls-3" d="M276.77,194.25H176.67a9.88,9.88,0,1,1,0-19.75h100.1a9.88,9.88,0,1,1,0,19.75"/><path class="cls-3" d="M276.76,257.3H197.52a10.88,10.88,0,1,1,0-21.75h49.22a9.89,9.89,0,1,0,0-19.78H176.68a9.92,9.92,0,0,0-9.89,9.88v41.54a9.92,9.92,0,0,0,9.89,9.89H277a9.74,9.74,0,0,0,9.68-9.89,9.91,9.91,0,0,0-9.88-9.88"/><path class="cls-3" d="M416.74,312H332.63a9.9,9.9,0,0,0-9.87,9.87v82.82a9.88,9.88,0,1,0,19.75,0V331.74h64.36v72.95a9.87,9.87,0,1,0,19.74,0V321.87a9.9,9.9,0,0,0-9.87-9.87"/><path class="cls-3" d="M276.77,331.74H176.67a9.87,9.87,0,1,1,0-19.74h100.1a9.87,9.87,0,1,1,0,19.74"/><path class="cls-3" d="M276.76,394.79H197.52a10.88,10.88,0,1,1,0-21.76h49.22a9.89,9.89,0,0,0,0-19.78H176.68a9.92,9.92,0,0,0-9.89,9.89v41.54a9.92,9.92,0,0,0,9.89,9.89H277a9.75,9.75,0,0,0,9.68-9.89,9.92,9.92,0,0,0-9.88-9.89"/><path class="cls-3" d="M424.74,257.33H324.63a9.87,9.87,0,0,0,0,19.74H424.74a9.87,9.87,0,0,0,0-19.74"/><path class="cls-3" d="M424.73,194.28H345.49a10.88,10.88,0,1,0,0,21.75h49.22a9.89,9.89,0,1,1,0,19.78H324.65a9.92,9.92,0,0,1-9.89-9.89V184.39a9.92,9.92,0,0,1,9.89-9.88H424.93a9.74,9.74,0,0,1,9.68,9.88,9.92,9.92,0,0,1-9.88,9.89"/><rect class="cls-3" x="528.5" y="115.95" width="353.99" height="1.8"/><path class="cls-3" d="M533.54,439.32l9.07-22.68h3.89l9.07,22.68h-3.72l-2.27-5.83h-10l-2.27,5.83Zm7.29-9.07h7.45l-3.72-9.4Z"/><polygon class="cls-3" points="560.98 439.32 560.98 416.64 564.22 416.64 576.7 433.32 576.7 416.64 580.26 416.64 580.26 439.32 577.02 439.32 564.55 422.63 564.55 439.32 560.98 439.32"/><polygon class="cls-3" points="588.59 439.32 588.59 416.64 604.63 416.64 604.63 420.04 592.15 420.04 592.15 425.87 602.03 425.87 602.03 429.27 592.15 429.27 592.15 435.92 604.95 435.92 604.95 439.32 588.59 439.32"/><path class="cls-3" d="M610.2,435.91h18.15v3.41H610.2Zm.49-19.27h17.17V420H610.69Zm2.1,9.23h13v3.4h-13Z"/><path class="cls-3" d="M632.46,439.32l9.07-22.68h3.89l9.07,22.68h-3.72l-2.27-5.83h-10l-2.26,5.83Zm7.29-9.07h7.45l-3.73-9.4Z"/><path class="cls-3" d="M659.9,439.32V416.64H669a7.51,7.51,0,0,1,5.45,2.11,7.27,7.27,0,0,1,0,10.36,7.55,7.55,0,0,1-5.45,2.11h-5.51v8.1ZM663.46,428H669a3.92,3.92,0,0,0,2.87-1.17,4.12,4.12,0,0,0,0-5.77,4,4,0,0,0-2.87-1.16h-5.51Z"/><polygon class="cls-3" points="687.34 439.32 687.34 420.04 680.54 420.04 680.54 416.64 697.71 416.64 697.71 420.04 690.91 420.04 690.91 439.32 687.34 439.32"/><polygon class="cls-3" points="703.44 439.32 703.44 416.64 707.01 416.64 707.01 426.2 718.19 426.2 718.19 416.64 721.75 416.64 721.75 439.32 718.19 439.32 718.19 429.44 707.01 429.44 707.01 439.32 703.44 439.32"/><polygon class="cls-3" points="734.29 439.32 734.29 420.04 727.49 420.04 727.49 416.64 744.66 416.64 744.66 420.04 737.85 420.04 737.85 439.32 734.29 439.32"/><polygon class="cls-3" points="750.39 439.32 750.39 416.64 753.96 416.64 753.96 426.2 765.14 426.2 765.14 416.64 768.7 416.64 768.7 439.32 765.14 439.32 765.14 429.44 753.96 429.44 753.96 439.32 750.39 439.32"/><path class="cls-3" d="M781.79,439.32l9.07-22.68h3.89l9.07,22.68h-3.73l-2.27-5.83h-10l-2.27,5.83Zm7.29-9.07h7.45l-3.73-9.4Z"/><path class="cls-3" d="M809.23,439.32V416.64h9.07a7.51,7.51,0,0,1,5.45,2.11,7.27,7.27,0,0,1,0,10.36,7.55,7.55,0,0,1-5.45,2.11h-5.51v8.1ZM812.79,428h5.51a3.92,3.92,0,0,0,2.87-1.17,4.12,4.12,0,0,0,0-5.77,4,4,0,0,0-2.87-1.16h-5.51Z"/><polygon class="cls-3" points="828.9 439.32 837 427.49 829.54 416.64 833.76 416.64 839.26 424.9 844.77 416.64 848.98 416.64 841.53 427.49 849.63 439.32 845.42 439.32 839.26 430.08 833.11 439.32 828.9 439.32"/><polygon class="cls-3" points="855.04 439.32 855.04 416.64 858.61 416.64 858.61 426.2 869.79 426.2 869.79 416.64 873.35 416.64 873.35 439.32 869.79 439.32 869.79 429.44 858.61 429.44 858.61 439.32 855.04 439.32"/><polygon class="cls-3" points="534.21 192.57 534.21 155.26 560.59 155.26 560.59 160.85 540.07 160.85 540.07 170.45 556.33 170.45 556.33 176.05 540.07 176.05 540.07 186.97 561.13 186.97 561.13 192.57 534.21 192.57"/><polygon class="cls-3" points="568.85 192.57 568.85 155.26 598.97 155.26 598.97 192.57 593.11 192.57 593.11 160.85 574.72 160.85 574.72 192.57 568.85 192.57"/><rect class="cls-3" x="609.63" y="155.26" width="5.86" height="37.31"/><polygon class="cls-3" points="633.08 192.57 633.08 160.85 621.89 160.85 621.89 155.26 650.13 155.26 650.13 160.85 638.94 160.85 638.94 192.57 633.08 192.57"/><path class="cls-3" d="M656.53,192.57V155.26h14.92a12.36,12.36,0,0,1,9,3.47,12,12,0,0,1,0,17.05,12.36,12.36,0,0,1-9,3.47h-9.06v13.32Zm5.86-18.65h9.06a6.47,6.47,0,0,0,4.72-1.92,6.77,6.77,0,0,0,0-9.49,6.47,6.47,0,0,0-4.72-1.92h-9.06Z"/><path class="cls-3" d="M695,187.53a19.16,19.16,0,0,1,0-27.23,20.48,20.48,0,0,1,28.08,0,19.16,19.16,0,0,1,0,27.23,20.45,20.45,0,0,1-28.08,0m4.21-23.44a14,14,0,1,0,9.83-4,13.33,13.33,0,0,0-9.83,4"/><polygon class="cls-3" points="737.01 192.57 737.01 155.26 767.13 155.26 767.13 192.57 761.26 192.57 761.26 160.85 742.88 160.85 742.88 192.57 737.01 192.57"/><polygon class="cls-3" points="777.79 192.57 777.79 155.26 783.65 155.26 783.65 170.99 802.04 170.99 802.04 155.26 807.9 155.26 807.9 192.57 802.04 192.57 802.04 176.31 783.65 176.31 783.65 192.57 777.79 192.57"/><polygon class="cls-3" points="534.21 256.53 534.21 219.22 560.59 219.22 560.59 224.81 540.07 224.81 540.07 234.41 556.33 234.41 556.33 240.01 540.07 240.01 540.07 250.94 561.13 250.94 561.13 256.53 534.21 256.53"/><polygon class="cls-3" points="568.85 256.53 568.85 219.22 598.97 219.22 598.97 256.53 593.11 256.53 593.11 224.81 574.72 224.81 574.72 256.53 568.85 256.53"/><path class="cls-3" d="M612.91,251.49a19.16,19.16,0,0,1,0-27.23,20.48,20.48,0,0,1,28.08,0,19.16,19.16,0,0,1,0,27.23,20.48,20.48,0,0,1-28.08,0M617.12,228a14,14,0,1,0,9.83-4,13.35,13.35,0,0,0-9.83,4"/><polygon class="cls-3" points="654.93 256.53 654.93 219.22 685.05 219.22 685.05 256.53 679.18 256.53 679.18 224.81 660.8 224.81 660.8 256.53 654.93 256.53"/><polygon class="cls-3" points="702.63 256.53 702.63 224.81 691.44 224.81 691.44 219.22 719.69 219.22 719.69 224.81 708.5 224.81 708.5 256.53 702.63 256.53"/><polygon class="cls-3" points="726.09 256.53 726.09 219.22 752.47 219.22 752.47 224.81 731.95 224.81 731.95 234.41 748.21 234.41 748.21 240.01 731.95 240.01 731.95 250.94 753 250.94 753 256.53 726.09 256.53"/><rect class="cls-3" x="760.73" y="219.22" width="5.86" height="37.31"/><path class="cls-3" d="M772.46,256.53l14.92-37.31h6.4l14.92,37.31h-6.13l-3.73-9.6H782.32l-3.73,9.6Zm12-14.92h12.26l-6.13-15.46Z"/><polygon class="cls-3" points="812.43 256.53 812.43 251.74 823.89 237.07 812.43 224.02 812.43 219.22 839.35 219.22 839.35 224.81 819.89 224.81 830.82 237.07 819.89 250.94 839.35 250.94 839.35 256.53 812.43 256.53"/><polygon class="cls-3" points="534.21 320.49 534.21 283.18 540.07 283.18 540.07 301.3 556.86 283.18 564.33 283.18 549.93 298.63 565.39 320.49 558.19 320.49 545.94 302.9 540.07 309.3 540.07 320.49 534.21 320.49"/><path class="cls-3" d="M565.92,320.49l14.93-37.31h6.39l14.93,37.31H596l-3.73-9.6H575.78l-3.73,9.6Zm12-14.93h12.26l-6.12-15.46Z"/><rect class="cls-3" x="608.03" y="283.17" width="5.86" height="37.31"/><polygon class="cls-3" points="634.68 320.49 634.68 283.18 661.06 283.18 661.06 288.77 640.54 288.77 640.54 298.37 656.8 298.37 656.8 303.96 640.54 303.96 640.54 314.89 661.59 314.89 661.59 320.49 634.68 320.49"/><polygon class="cls-3" points="664.52 320.49 679.45 283.18 685.85 283.18 700.77 320.49 694.64 320.49 682.65 290.1 670.65 320.49 664.52 320.49"/><polygon class="cls-3" points="706.58 320.49 706.58 283.18 732.96 283.18 732.96 288.77 712.44 288.77 712.44 298.37 728.7 298.37 728.7 303.96 712.44 303.96 712.44 314.89 733.5 314.89 733.5 320.49 706.58 320.49"/><polygon class="cls-3" points="741.22 320.49 741.22 283.18 765.21 283.18 765.21 288.77 747.09 288.77 747.09 320.49 741.22 320.49"/><polygon class="cls-3" points="766.81 320.49 780.13 301.03 767.88 283.18 774.8 283.18 783.86 296.77 792.92 283.18 799.86 283.18 787.6 301.03 800.92 320.49 793.99 320.49 783.86 305.3 773.74 320.49 766.81 320.49"/><path class="cls-3" d="M809.05,315.45a19.17,19.17,0,0,1,0-27.24,20.51,20.51,0,0,1,28.08,0,19.17,19.17,0,0,1,0,27.24,20.48,20.48,0,0,1-28.08,0M813.26,292a14,14,0,1,0,9.83-4,13.35,13.35,0,0,0-9.83,4"/><polygon class="cls-3" points="859.12 320.49 859.12 307.16 845 283.18 851.66 283.18 862.05 301.3 872.45 283.18 879.11 283.18 864.99 307.16 864.99 320.49 859.12 320.49"/><polygon class="cls-3" points="533.14 384.45 533.14 347.13 566.46 347.13 566.46 384.45 556.33 384.45 556.33 356.73 543.27 356.73 543.27 384.45 533.14 384.45"/><path class="cls-3" d="M570.45,384.45l14.13-37.31h11.19l14.12,37.31H599l-2.67-8H584l-2.66,8Zm16.26-16.26h6.93l-3.36-10.66h-.21Z"/><rect class="cls-3" x="613.89" y="347.13" width="10.13" height="37.31"/><polygon class="cls-3" points="632.55 384.45 632.55 347.13 658.66 347.13 658.66 356.73 642.67 356.73 642.67 384.45 632.55 384.45"/><polygon class="cls-3" points="663.99 384.45 663.99 347.13 672.79 347.13 688.78 367.65 688.78 347.13 698.9 347.13 698.9 384.45 690.11 384.45 674.12 363.93 674.12 384.45 663.99 384.45"/><rect class="cls-3" x="707.44" y="347.13" width="10.13" height="37.31"/><path class="cls-3" d="M725.29,384.45v-8h5.59a12.94,12.94,0,0,1-3.19-2.93,14.08,14.08,0,0,1-3.2-9.32,16.73,16.73,0,0,1,5.81-12.85q5.81-5.28,15-5.28t15,5.28a16.74,16.74,0,0,1,5.82,12.85,14,14,0,0,1-3.21,9.32,12.81,12.81,0,0,1-3.2,2.93h5.6v8H747.94v-8.53q7.72-2.3,7.73-10.13a10.43,10.43,0,0,0-3-7.62,10.54,10.54,0,0,0-14.79,0,10.45,10.45,0,0,0-3,7.62q0,7.84,7.73,10.13v8.53Z"/><polygon class="cls-3" points="772.99 384.45 772.99 347.13 781.79 347.13 797.78 367.65 797.78 347.13 807.9 347.13 807.9 384.45 799.11 384.45 783.12 363.93 783.12 384.45 772.99 384.45"/><rect class="cls-3" x="528.5" y="471.73" width="353.99" height="1.8"/></g></g></svg>