<svg width="141" height="56" viewBox="0 0 141 56" fill="none" xmlns="http://www.w3.org/2000/svg">
<path d="M20.3813 15.48L22.4573 15.588C22.4933 13.734 23.1113 12.282 24.3113 11.244C25.5113 10.206 27.1673 9.69002 29.2793 9.69002C30.9893 9.69002 32.4173 10.128 33.5693 10.998C34.7153 11.874 35.2913 12.984 35.2913 14.328C35.2913 15.24 34.9913 16.002 34.3913 16.62C33.7913 17.238 33.0353 17.55 32.1233 17.55C31.1033 17.55 30.3593 17.166 29.8853 16.404L29.3393 15.528C29.1953 15.276 28.9553 15.144 28.6313 15.144C27.8693 15.144 27.4853 15.672 27.4853 16.728C27.4853 16.986 27.5033 17.166 27.5393 17.274C31.0313 18.51 32.7833 20.988 32.7833 24.702C32.7833 27.504 31.6973 29.76 29.5313 31.476C27.3653 33.186 24.5153 34.044 20.9873 34.044C19.0913 34.044 17.1473 33.624 15.1433 32.79L14.8673 32.682C14.3213 33.12 14.0453 33.594 14.0453 34.104C14.0453 35.34 14.9213 36.108 16.6673 36.396C17.2493 36.504 18.5813 36.558 20.6513 36.558H21.2513L24.7493 36.504C28.2413 36.468 30.9353 37.14 32.8313 38.526C34.7213 39.912 35.6693 41.874 35.6693 44.424C35.6693 47.664 34.2473 50.22 31.4093 52.098C28.5713 53.97 24.7073 54.912 19.8353 54.912C15.4673 54.912 11.9633 54.102 9.32328 52.482C6.68328 50.862 5.36328 48.702 5.36328 46.008C5.36328 43.098 7.19928 41.076 10.8773 39.948C7.96728 39.366 6.50928 37.71 6.50928 34.98C6.50928 33.558 6.82728 32.442 7.46328 31.62C8.09928 30.798 9.23928 30.03 10.8773 29.298C9.56928 27.84 8.90928 26.238 8.90928 24.492C8.90928 21.942 10.0073 19.806 12.2153 18.078C14.4173 16.35 17.1413 15.486 20.3813 15.486V15.48ZM19.7273 42.942C18.8513 42.942 17.7593 42.87 16.4513 42.726C14.8133 43.38 13.9913 44.22 13.9913 45.24C13.9913 47.172 16.1393 48.132 20.4353 48.132C24.7313 48.132 26.9333 47.166 26.9333 45.24C26.9333 43.674 25.5113 42.894 22.6733 42.894C22.5653 42.894 22.0733 42.912 21.1973 42.948H19.7213L19.7273 42.942ZM20.8193 21.21C19.7993 21.21 18.9533 21.546 18.2813 22.218C17.6093 22.89 17.2733 23.736 17.2733 24.756C17.2733 25.776 17.6093 26.634 18.2813 27.324C18.9533 28.014 19.7993 28.362 20.8193 28.362C21.8393 28.362 22.6853 28.014 23.3573 27.324C24.0293 26.634 24.3653 25.794 24.3653 24.81C24.3653 23.826 24.0293 22.938 23.3573 22.242C22.6853 21.552 21.8393 21.204 20.8193 21.204V21.21Z" fill="#EC1C24"/>
<path d="M55.6606 3.14401C55.7686 3.14401 55.8886 3.138 56.0146 3.114C56.1406 3.096 56.2966 3.084 56.4766 3.084C56.7286 3.084 56.9326 3.102 57.0766 3.138C57.2566 3.102 57.4486 3.066 57.6526 3.03C57.8506 2.994 58.0606 2.97601 58.2826 2.97601C58.5046 2.97601 58.7266 3.042 58.9666 3.168C59.2006 3.294 59.4106 3.45 59.5966 3.63C59.8126 3.81 60.0346 4.014 60.2506 4.23C60.3226 4.77601 60.4786 5.25601 60.7126 5.67601C60.9466 6.09601 61.0846 6.59401 61.1206 7.17601C61.2646 7.28401 61.3546 7.44 61.3966 7.638C61.4326 7.836 61.4686 8.028 61.5046 8.214C61.5406 8.394 61.5886 8.58001 61.6426 8.76001C61.6966 8.94001 61.8166 9.09 61.9966 9.198C61.9606 9.306 61.9426 9.456 61.9426 9.636C61.9426 10.002 62.0626 10.266 62.2966 10.428C62.5306 10.59 62.6506 10.872 62.6506 11.274C62.6506 11.346 62.6386 11.4 62.6206 11.436C62.6026 11.472 62.5906 11.526 62.5906 11.598C62.7346 11.67 62.8426 11.814 62.9206 12.036C62.9926 12.252 63.0466 12.474 63.0826 12.69C63.1186 12.906 63.1546 13.11 63.1906 13.29C63.2266 13.47 63.3166 13.566 63.4666 13.566C63.4306 13.638 63.4126 13.746 63.4126 13.896C63.4126 14.19 63.5026 14.412 63.6886 14.58C63.8686 14.742 63.9646 14.952 63.9646 15.21C64.1806 15.54 64.3006 15.93 64.3186 16.386C64.3366 16.842 64.4926 17.178 64.7806 17.394C64.8886 18.234 65.1286 18.924 65.4886 19.47V19.632C65.4886 19.704 65.4766 19.77 65.4586 19.824C65.4406 19.878 65.4286 19.944 65.4286 20.016C65.4286 20.196 65.5306 20.424 65.7286 20.7C65.9266 20.976 66.0286 21.312 66.0286 21.708V21.924C66.1726 21.996 66.2746 22.14 66.3286 22.362C66.3826 22.578 66.4126 22.656 66.4126 22.578C66.4126 22.944 66.5146 23.214 66.7126 23.4C66.9106 23.58 67.0126 23.856 67.0126 24.222C67.0126 24.366 66.9946 24.498 66.9586 24.606C67.0306 24.822 67.1386 25.014 67.2886 25.182C67.4326 25.344 67.5046 25.572 67.5046 25.866V26.028C67.5766 26.394 67.7326 26.682 67.9666 26.904C68.2006 27.12 68.3206 27.432 68.3206 27.834C68.3206 27.906 68.3086 27.972 68.2906 28.026C68.2726 28.08 68.2606 28.146 68.2606 28.218C68.6626 28.692 68.9266 29.31 69.0526 30.072C69.1786 30.834 69.4426 31.476 69.8446 31.986C69.9166 32.316 69.9886 32.706 70.0606 33.162C70.1326 33.618 70.3126 33.972 70.6066 34.224C70.7146 34.404 70.7806 34.596 70.7986 34.8C70.8166 34.998 70.8466 35.208 70.8826 35.43C70.9546 35.724 71.0746 35.976 71.2366 36.192C71.3986 36.408 71.4826 36.684 71.4826 37.014C71.4826 37.308 71.5666 37.53 71.7286 37.698C71.8906 37.866 71.9746 38.106 71.9746 38.436C71.7946 38.544 71.6566 38.682 71.5666 38.844C71.4766 39.006 71.3746 39.174 71.2666 39.336C71.1586 39.498 71.0266 39.636 70.8826 39.744C70.7386 39.852 70.5526 39.906 70.3366 39.906C70.2286 39.906 70.0606 39.87 69.8446 39.798V39.852H69.3526C68.8426 39.852 68.3506 39.834 67.8766 39.798C67.4026 39.762 66.9106 39.744 66.4006 39.744C66.0346 39.744 65.6986 39.774 65.3926 39.828C65.0806 39.882 64.7626 39.912 64.4386 39.912C63.7126 39.912 63.0286 39.822 62.3926 39.636C61.7566 39.456 61.2886 39.09 61.0006 38.544C61.0726 38.256 61.1086 38.07 61.1086 37.998C61.1086 37.596 61.0066 37.29 60.8086 37.068C60.6106 36.852 60.5086 36.558 60.5086 36.192C60.5086 35.94 60.5266 35.754 60.5626 35.646C60.5626 35.394 60.4726 35.208 60.2866 35.1C60.1066 34.992 60.0106 34.794 60.0106 34.5V34.17C60.0106 33.696 59.8546 33.414 59.5486 33.324C59.2366 33.234 58.9366 33.186 58.6486 33.186H57.9406C57.7246 33.222 57.5026 33.24 57.2866 33.24H56.5786C55.8526 33.24 55.1746 33.21 54.5566 33.156C53.9386 33.102 53.3026 33.072 52.6426 33.072C52.4986 33.144 52.3246 33.216 52.1266 33.288C51.9286 33.36 51.6826 33.396 51.3886 33.396C51.0226 33.396 50.6686 33.378 50.3266 33.342C49.9786 33.306 49.6066 33.288 49.2046 33.288C48.9106 33.288 48.6406 33.3 48.3826 33.318C48.1306 33.336 47.8546 33.348 47.5606 33.348C47.3086 33.348 47.1046 33.45 46.9606 33.648C46.8166 33.846 46.7026 34.068 46.6306 34.302C46.5586 34.542 46.4866 34.86 46.4146 35.256C46.3066 35.586 46.2346 35.976 46.1986 36.432C46.1626 36.888 46.0186 37.206 45.7606 37.386C45.6886 37.644 45.6406 37.914 45.6226 38.208C45.6046 38.502 45.5206 38.736 45.3766 38.916C45.1186 39.132 44.8486 39.354 44.5546 39.57C44.2606 39.786 44.0086 39.9 43.7926 39.9C43.3186 39.9 42.8746 39.864 42.4546 39.792C42.0346 39.72 41.7706 39.684 41.6626 39.684C41.3326 39.684 41.0626 39.756 40.8406 39.9C40.6246 40.044 40.3486 40.116 40.0186 40.116C39.6526 40.116 39.3106 40.086 38.9806 40.032C38.6506 39.978 38.2906 39.948 37.8886 39.948C37.7086 39.948 37.5046 39.954 37.2886 39.978C37.0726 39.996 36.8506 40.008 36.6346 40.008C36.1246 40.008 35.6506 39.888 35.2126 39.654C34.7746 39.414 34.5586 39.06 34.5586 38.592C34.5586 38.082 34.6306 37.698 34.7746 37.446C34.9186 37.194 34.9906 36.9 34.9906 36.57C34.9906 36.282 35.0626 36.06 35.2066 35.916C35.3506 35.772 35.4226 35.55 35.4226 35.262V35.1C35.4946 34.884 35.6206 34.692 35.8066 34.524C35.9866 34.362 36.0826 34.134 36.0826 33.84V33.624C36.2986 32.862 36.5026 32.298 36.6826 31.932C36.8626 31.566 37.0186 31.284 37.1446 31.086C37.2706 30.888 37.3606 30.732 37.4206 30.624C37.4746 30.516 37.5046 30.336 37.5046 30.078V29.808C37.5046 29.556 37.5946 29.352 37.7806 29.208C37.9606 29.064 38.0566 28.86 38.0566 28.608C38.0566 28.428 38.0206 28.296 37.9486 28.224C37.9846 28.224 38.0506 28.134 38.1406 27.948C38.2306 27.768 38.3206 27.564 38.4166 27.348C38.5066 27.132 38.5906 26.946 38.6626 26.802C38.7346 26.658 38.7706 26.622 38.7706 26.694C38.8426 26.514 38.8966 26.31 38.9326 26.094C38.9686 25.878 39.0226 25.656 39.0946 25.44C39.2386 24.966 39.4006 24.51 39.5866 24.072C39.7666 23.634 39.9166 23.196 40.0246 22.764C40.2046 22.584 40.3006 22.326 40.3006 22.002C40.3006 21.678 40.3906 21.42 40.5766 21.24C40.6486 21.06 40.7146 20.886 40.7686 20.724C40.8226 20.562 40.8886 20.388 40.9606 20.208C41.1406 19.914 41.2606 19.596 41.3146 19.254C41.3686 18.906 41.5246 18.588 41.7766 18.3V18.138C41.7766 17.736 41.8786 17.4 42.0766 17.13C42.2746 16.854 42.3946 16.518 42.4306 16.122C42.5746 16.014 42.6766 15.858 42.7306 15.66C42.7846 15.462 42.8326 15.252 42.8686 15.03C42.9046 14.814 42.9526 14.604 43.0066 14.4C43.0606 14.202 43.1446 14.028 43.2526 13.884C43.3246 13.776 43.3786 13.518 43.4146 13.122C43.4506 12.72 43.5766 12.45 43.7986 12.3C44.0506 11.97 44.1886 11.592 44.2066 11.154C44.2246 10.716 44.3626 10.356 44.6146 10.062C44.6866 9.91801 44.7166 9.75 44.6986 9.57C44.6806 9.39 44.7046 9.24 44.7826 9.132C44.8546 8.88 44.9746 8.652 45.1366 8.448C45.2986 8.25 45.3826 8.00401 45.3826 7.71001C45.5266 7.45801 45.5926 7.182 45.5746 6.888C45.5566 6.6 45.6346 6.36001 45.8206 6.18001C46.1506 5.85 46.3126 5.43601 46.3126 4.92601V4.59601C46.4206 4.30801 46.6006 4.08601 46.8586 3.94201C47.1106 3.79801 47.2966 3.59401 47.4046 3.34201C47.8066 3.16201 48.1666 3.05401 48.4966 3.01201C48.8266 2.97601 49.1686 2.95801 49.5346 2.95801C50.3746 2.95801 51.1786 3.00601 51.9646 3.09601C52.7446 3.18601 53.5546 3.234 54.3946 3.234H54.9946C55.2106 3.234 55.4326 3.216 55.6486 3.18L55.6606 3.14401ZM40.3126 30.834V30.78C40.3126 30.744 40.2946 30.726 40.2586 30.726C40.1866 30.726 40.1386 30.738 40.1206 30.756C40.1026 30.774 40.0726 30.786 40.0366 30.786H39.9826C39.9826 30.822 40.0186 30.84 40.0906 30.84H40.3066L40.3126 30.834ZM41.6806 34.11C41.5726 34.038 41.4646 33.954 41.3506 33.864C41.2426 33.774 41.0926 33.726 40.9126 33.726C40.8046 33.726 40.7506 33.762 40.7506 33.834C40.7506 34.014 40.8226 34.146 40.9666 34.218C41.1106 34.29 41.2186 34.326 41.2966 34.326C41.5126 34.326 41.6446 34.254 41.6806 34.11ZM43.2646 28.65C43.1926 28.65 43.1086 28.644 43.0186 28.62C42.9286 28.602 42.8446 28.59 42.7726 28.59C42.6286 28.59 42.5566 28.626 42.5566 28.698C42.5566 28.806 42.6406 28.908 42.8026 28.998C42.9646 29.088 43.1686 29.172 43.4026 29.244C43.6366 29.316 43.8766 29.37 44.1106 29.406C44.3446 29.442 44.5366 29.46 44.6866 29.46C44.8366 29.46 44.9866 29.4 45.1486 29.268C45.3106 29.142 45.3946 28.986 45.3946 28.806C45.3946 28.734 45.3586 28.704 45.2866 28.722C45.2146 28.74 45.1426 28.716 45.0706 28.638C44.9266 28.674 44.7886 28.704 44.6626 28.722C44.5366 28.74 44.3806 28.752 44.2006 28.752C43.8706 28.752 43.5646 28.716 43.2706 28.644L43.2646 28.65ZM44.7946 31.65C44.7946 31.542 44.7226 31.488 44.5786 31.488H44.3026C44.3026 31.56 44.2666 31.578 44.1946 31.542C44.1226 31.506 44.0866 31.524 44.0866 31.596C44.0866 31.632 44.1046 31.668 44.1406 31.704C44.1046 31.74 44.0686 31.758 44.0326 31.758C44.0326 31.83 44.0686 31.866 44.1406 31.866L44.0866 31.974C44.0866 32.046 44.1226 32.082 44.1946 32.082C44.2666 32.082 44.3866 32.052 44.5486 31.998C44.7106 31.944 44.7946 31.824 44.7946 31.644V31.65ZM47.1406 26.898C46.9606 26.718 46.7386 26.622 46.4866 26.622C46.3066 26.622 46.1026 26.658 45.8866 26.73C45.6706 26.802 45.4666 26.856 45.2866 26.892C45.2866 27 45.3886 27.102 45.5866 27.192C45.7846 27.282 46.0126 27.33 46.2706 27.33C46.4866 27.33 46.6906 27.312 46.8706 27.276C47.0506 27.24 47.1466 27.15 47.1466 27V26.892L47.1406 26.898ZM45.5026 33.51V33.456H45.4486L45.3946 33.51C45.3946 33.546 45.4126 33.564 45.4486 33.564L45.5026 33.51ZM46.8166 23.514C46.7806 23.442 46.7086 23.412 46.6006 23.43C46.4926 23.448 46.4026 23.424 46.3246 23.346C46.2526 23.382 46.1506 23.4 46.0246 23.4C45.8986 23.4 45.7966 23.472 45.7246 23.616C45.8686 23.76 46.1266 23.832 46.4866 23.832C46.6306 23.832 46.7866 23.826 46.9486 23.802C47.1106 23.784 47.2486 23.772 47.3566 23.772C47.1766 23.664 46.9906 23.574 46.8106 23.496L46.8166 23.514ZM46.5406 31.704C46.4686 31.704 46.4326 31.686 46.4326 31.65C46.4326 31.614 46.3966 31.596 46.3246 31.596H46.2166V31.488H45.8866C45.8146 31.488 45.7606 31.542 45.7246 31.65C45.7966 31.686 45.8506 31.716 45.8866 31.734C45.9226 31.752 45.9766 31.8 46.0486 31.872H46.3786C46.4866 31.872 46.5406 31.836 46.5406 31.764V31.71V31.704ZM49.0546 15.87C48.9106 15.798 48.7966 15.762 48.7246 15.762C48.6166 15.762 48.5266 15.798 48.4486 15.87C48.4846 15.978 48.5926 16.032 48.7786 16.032H49.2166V15.978L49.1626 15.87H49.0546ZM49.1086 21.168V21.006C49.1086 20.97 49.0726 20.952 49.0006 20.952H48.6166C48.6166 21.024 48.5866 21.072 48.5326 21.09C48.4786 21.108 48.4486 21.156 48.4486 21.228C48.4486 21.336 48.5206 21.39 48.6646 21.39C48.7366 21.39 48.8086 21.36 48.8806 21.306C48.9526 21.252 49.0246 21.204 49.0966 21.168H49.1086ZM49.4326 14.016C49.3606 13.908 49.2766 13.842 49.1866 13.824C49.0966 13.806 48.9766 13.764 48.8326 13.686C48.7606 13.758 48.6886 13.794 48.6166 13.794C48.5446 13.794 48.5086 13.83 48.5086 13.902C48.5086 14.082 48.5626 14.184 48.6706 14.202C48.7786 14.22 48.9226 14.268 49.1086 14.34C49.1806 14.268 49.2526 14.22 49.3246 14.202C49.3966 14.184 49.4326 14.142 49.4326 14.064V14.01V14.016ZM49.2166 23.19V23.028C49.2166 22.956 49.1446 22.92 49.0006 22.92H48.7246C48.6886 22.956 48.6406 22.992 48.5866 23.028C48.5326 23.064 48.5026 23.118 48.5026 23.19L48.6106 23.298C48.8626 23.298 49.0666 23.262 49.2106 23.19H49.2166ZM49.7086 27.72C49.7086 27.576 49.6366 27.504 49.4926 27.504C49.5286 27.504 49.4926 27.516 49.3846 27.534C49.2766 27.552 49.2226 27.6 49.2226 27.672C49.2226 27.708 49.2286 27.738 49.2526 27.756C49.2706 27.774 49.2826 27.804 49.2826 27.84C49.3546 27.84 49.4086 27.852 49.4446 27.87C49.4806 27.888 49.5346 27.9 49.6066 27.9C49.6786 27.9 49.7086 27.894 49.6906 27.87C49.6726 27.852 49.6786 27.81 49.7206 27.732L49.7086 27.72ZM53.9686 13.524C53.8966 13.452 53.7886 13.416 53.6386 13.416C53.2006 13.416 52.9306 13.536 52.8166 13.77C52.7086 14.01 52.6186 14.232 52.5406 14.454V14.562C52.5406 14.67 52.5226 14.76 52.4866 14.838C52.4506 14.91 52.4146 14.982 52.3786 15.054C52.3786 15.492 52.2706 15.81 52.0486 16.008C51.8326 16.206 51.7186 16.506 51.7186 16.908C51.7186 17.016 51.7246 17.124 51.7486 17.238C51.7666 17.346 51.7786 17.454 51.7786 17.568C51.7066 17.748 51.6226 17.916 51.5326 18.06C51.4426 18.204 51.3586 18.372 51.2866 18.552V18.828C51.2866 19.194 51.2146 19.482 51.0706 19.704C50.9266 19.92 50.7946 20.178 50.6866 20.466V20.682C50.6866 21.048 50.6146 21.354 50.4706 21.612C50.3266 21.87 50.2186 22.14 50.1406 22.434C50.0686 22.578 50.0026 22.764 49.9486 22.98C49.8946 23.196 49.8286 23.418 49.7566 23.634C49.6846 23.886 49.6306 24.144 49.5946 24.396C49.5946 24.612 49.6966 24.798 49.8946 24.942C50.0926 25.086 50.2306 25.236 50.3026 25.38H51.2326C51.8506 25.38 52.4326 25.434 52.9786 25.542C53.5246 25.65 54.1066 25.704 54.7246 25.704H55.2706C55.4506 25.704 55.6366 25.668 55.8166 25.596C55.9246 25.488 56.0626 25.416 56.2246 25.38C56.3866 25.344 56.5546 25.32 56.7166 25.296C56.8786 25.278 57.0226 25.23 57.1546 25.158C57.2806 25.086 57.3466 24.96 57.3466 24.774C57.3466 24.588 57.2926 24.294 57.1846 23.874C57.0766 23.454 56.9386 23.01 56.7766 22.536C56.6146 22.062 56.4586 21.618 56.3146 21.198C56.1706 20.778 56.0386 20.496 55.9306 20.352C55.9306 19.95 55.8466 19.614 55.6846 19.344C55.5226 19.068 55.4206 18.75 55.3846 18.39C55.1686 18.096 55.0546 17.736 55.0546 17.298C55.0546 16.86 54.9106 16.554 54.6166 16.368C54.6166 16.296 54.6046 16.194 54.5866 16.068C54.5686 15.942 54.5566 15.804 54.5566 15.66C54.5566 15.444 54.6046 15.276 54.6946 15.168C54.7846 15.06 54.8746 14.976 54.9706 14.922C55.0606 14.868 55.1506 14.814 55.2466 14.76C55.3366 14.706 55.3846 14.622 55.3846 14.514C55.2046 14.514 55.0486 14.562 54.9226 14.652C54.7966 14.742 54.6586 14.826 54.5146 14.898C54.1846 14.826 54.0286 14.634 54.0526 14.322C54.0706 14.016 54.0406 13.746 53.9686 13.53V13.524ZM51.7846 10.41C51.7846 10.338 51.7486 10.302 51.6766 10.302H51.2386C51.2386 10.374 51.1846 10.428 51.0766 10.464C50.9686 10.5 50.9146 10.554 50.9146 10.626C50.9146 10.662 50.9506 10.68 51.0226 10.68H51.1846C51.4726 10.68 51.6766 10.59 51.7846 10.404V10.41ZM51.7306 13.302C51.7306 13.23 51.6766 13.194 51.5686 13.194C51.4246 13.194 51.3526 13.23 51.3526 13.302C51.3526 13.446 51.3706 13.542 51.4066 13.578C51.5146 13.578 51.6226 13.488 51.7366 13.302H51.7306ZM53.0926 8.05801C52.9126 7.87801 52.7446 7.782 52.6006 7.782C52.5286 7.782 52.4386 7.8 52.3246 7.836C52.2166 7.872 52.1266 7.90801 52.0486 7.94401C52.0486 8.05201 52.1206 8.142 52.2646 8.22H52.6486C52.8646 8.22 53.0146 8.16601 53.0866 8.05801H53.0926ZM54.6226 11.994C54.5506 11.814 54.4306 11.706 54.2686 11.664C54.1066 11.628 53.9146 11.61 53.6926 11.61H52.8706C52.6906 11.682 52.5166 11.736 52.3546 11.772C52.1926 11.808 52.1086 12.03 52.1086 12.426C52.1446 12.426 52.1806 12.438 52.2166 12.456C52.2526 12.474 52.2886 12.486 52.3246 12.486C52.6126 12.486 52.8586 12.432 53.0626 12.324C53.2606 12.216 53.5066 12.162 53.8006 12.162C54.0526 12.162 54.2266 12.21 54.3166 12.3C54.4066 12.39 54.4726 12.498 54.5086 12.63C54.5446 12.756 54.5986 12.87 54.6706 12.96C54.7426 13.05 54.8866 13.098 55.1086 13.098C55.1806 13.098 55.3006 13.08 55.4626 13.044C55.6246 13.008 55.7086 12.954 55.7086 12.882C55.7086 12.516 55.5706 12.33 55.3006 12.306C55.0246 12.288 54.8026 12.186 54.6166 12.006L54.6226 11.994ZM52.7086 29.082C52.7086 29.01 52.6726 28.974 52.6006 28.974C52.4206 28.974 52.3246 29.028 52.3246 29.136C52.3246 29.172 52.3426 29.208 52.3786 29.244C52.5586 29.244 52.6726 29.19 52.7086 29.082ZM55.3846 8.934C55.3486 8.862 55.3006 8.832 55.2466 8.85C55.1926 8.868 55.1446 8.844 55.1086 8.766H54.7786C54.5986 8.766 54.4966 8.82001 54.4786 8.92801C54.4606 9.03601 54.3946 9.126 54.2866 9.204C54.3226 9.348 54.4306 9.42 54.6166 9.42H55.1086C55.1806 9.348 55.2286 9.276 55.2466 9.204C55.2646 9.132 55.3126 9.04201 55.3846 8.92801V8.934ZM56.8606 10.626C56.7526 10.554 56.6446 10.5 56.5306 10.464C56.4226 10.428 56.2726 10.41 56.0926 10.41C56.0206 10.41 55.9366 10.428 55.8466 10.464C55.7566 10.5 55.7086 10.572 55.7086 10.68C55.7086 10.716 55.7266 10.752 55.7626 10.788H55.9246C55.9966 10.788 56.0806 10.8 56.1706 10.818C56.2606 10.836 56.3446 10.848 56.4166 10.848C56.7046 10.848 56.8546 10.776 56.8546 10.632L56.8606 10.626ZM57.2446 8.49601C57.2446 8.31601 57.2086 8.21401 57.1366 8.19601C57.0646 8.17801 56.9926 8.166 56.9206 8.166C56.7046 8.166 56.5366 8.22001 56.4286 8.32801L56.0446 8.71201C56.0806 8.78401 56.2246 8.82 56.4826 8.82H56.6986C56.7706 8.82 56.8426 8.802 56.9146 8.766H56.9686C57.0406 8.766 57.0886 8.736 57.1066 8.682C57.1246 8.628 57.1666 8.56201 57.2446 8.49001V8.49601ZM57.4066 28.212C57.3346 28.14 57.2446 28.104 57.1306 28.104C57.0586 28.104 56.9686 28.122 56.8546 28.158C56.7466 28.194 56.6566 28.212 56.5786 28.212H56.4706C56.2126 28.284 56.0866 28.356 56.0866 28.428C56.3386 28.68 56.6866 28.812 57.1246 28.812C57.3046 28.812 57.4006 28.74 57.4006 28.596V28.212H57.4066ZM57.5686 12.21C57.4966 12.102 57.3766 12.048 57.2146 12.048H56.6986C56.6266 12.048 56.5906 12.084 56.5906 12.156C56.5906 12.264 56.6446 12.33 56.7526 12.348C56.8606 12.366 56.9506 12.378 57.0286 12.378C57.1066 12.378 57.2806 12.324 57.5746 12.216L57.5686 12.21ZM58.1206 15.27C58.0846 15.198 58.0126 15.162 57.9046 15.162H57.4126C57.4126 15.234 57.3946 15.264 57.3586 15.246C57.3226 15.228 57.3046 15.258 57.3046 15.33V15.384H57.7966C57.9766 15.384 58.0846 15.348 58.1266 15.276L58.1206 15.27ZM58.0066 21.822C57.9346 21.75 57.8626 21.714 57.7906 21.714C57.6466 21.714 57.5746 21.75 57.5746 21.822C57.6466 21.894 57.7006 21.93 57.7366 21.93C57.7726 21.93 57.8626 21.894 58.0126 21.822H58.0066ZM58.2826 27.336C58.2106 27.336 58.1746 27.318 58.1746 27.282C58.1746 27.246 58.1386 27.228 58.0666 27.228C57.9946 27.3 57.9586 27.354 57.9586 27.39C57.9586 27.498 57.9946 27.552 58.0666 27.552C58.2106 27.552 58.2826 27.516 58.2826 27.444V27.336ZM64.5046 28.32C64.3966 28.14 64.2106 28.044 63.9586 28.044C63.6286 28.044 63.2926 28.11 62.9506 28.236C62.6026 28.362 62.2306 28.428 61.8286 28.428C61.4266 28.428 61.0846 28.374 60.7906 28.266C60.4966 28.158 60.1546 28.104 59.7526 28.104C59.5366 28.104 59.3146 28.14 59.0986 28.212L59.0446 28.158C59.0086 28.194 58.9906 28.23 58.9906 28.266C58.9906 28.524 59.1706 28.65 59.5366 28.65H59.7526C60.0046 28.758 60.2266 28.812 60.4066 28.812C60.6946 28.812 60.9826 28.764 61.2526 28.674C61.5286 28.584 61.8046 28.536 62.0986 28.536C62.2426 28.536 62.4646 28.572 62.7526 28.644C62.8966 28.68 63.0286 28.716 63.1366 28.752C63.3526 28.68 63.6106 28.632 63.8986 28.614C64.1866 28.596 64.3906 28.494 64.4986 28.314L64.5046 28.32ZM60.3046 26.298H59.5426V26.352C59.5426 26.424 59.5246 26.46 59.4886 26.46C59.4526 26.46 59.4346 26.532 59.4346 26.676C59.5426 26.784 59.7226 26.838 59.9806 26.838C60.0886 26.838 60.2326 26.784 60.4186 26.676V26.4C60.4186 26.364 60.3826 26.328 60.3106 26.292L60.3046 26.298ZM59.9746 24.39H59.6446V24.444C59.6446 24.516 59.6626 24.552 59.6986 24.552H59.9146C59.9146 24.516 59.9206 24.492 59.9446 24.468C59.9626 24.45 59.9746 24.42 59.9746 24.384V24.39ZM62.2666 25.314C62.1226 25.278 62.0086 25.248 61.9366 25.23C61.8646 25.212 61.7746 25.2 61.6606 25.2C61.5886 25.2 61.4026 25.236 61.1146 25.308V25.362C61.1146 25.398 61.0966 25.41 61.0606 25.392C61.0246 25.374 61.0066 25.404 61.0066 25.476C61.0066 25.548 61.0726 25.602 61.1986 25.638C61.3246 25.674 61.4446 25.692 61.5526 25.692C61.6966 25.692 61.8526 25.686 62.0146 25.662C62.1766 25.644 62.2606 25.542 62.2606 25.362V25.308L62.2666 25.314ZM61.9966 21.984C61.9966 21.912 61.9066 21.876 61.7206 21.876C61.5046 21.876 61.3906 21.93 61.3906 22.038C61.3906 22.074 61.3966 22.092 61.4206 22.092C61.4446 22.092 61.4506 22.128 61.4506 22.2C61.5586 22.128 61.6786 22.116 61.8046 22.17C61.9306 22.224 61.9966 22.164 61.9966 21.978V21.984ZM61.9966 20.184C61.9966 20.112 61.9606 20.076 61.8886 20.076H61.6126V20.13C61.6126 20.202 61.6306 20.238 61.6666 20.238C61.7386 20.238 61.7926 20.232 61.8286 20.208C61.8646 20.19 61.9186 20.178 61.9906 20.178L61.9966 20.184ZM61.8286 27.12V27.066C61.8286 26.994 61.7926 26.958 61.7206 26.958C61.7206 27.102 61.7386 27.174 61.7746 27.174L61.8286 27.12ZM63.0346 32.142C63.0346 32.106 63.0226 32.088 63.0046 32.088C62.9866 32.088 62.9746 32.07 62.9746 32.034V31.98C62.8666 31.98 62.8126 32.034 62.8126 32.142V32.196C62.8126 32.232 62.8486 32.25 62.9206 32.25C62.9566 32.25 62.9686 32.232 62.9506 32.196C62.9326 32.16 62.9566 32.142 63.0346 32.142ZM63.5266 26.574L63.4726 26.466C63.4366 26.502 63.4186 26.538 63.4186 26.574C63.4186 26.61 63.4366 26.628 63.4726 26.628L63.5266 26.574ZM65.9266 31.872C65.8546 31.728 65.6326 31.656 65.2726 31.656C65.2726 31.728 65.2606 31.764 65.2426 31.764C65.2246 31.764 65.2126 31.782 65.2126 31.818C65.2126 31.89 65.2606 31.944 65.3506 31.98C65.4406 32.016 65.5066 32.034 65.5426 32.034C65.6866 32.034 65.8186 31.98 65.9266 31.872Z" fill="#EC1C24"/>
<path d="M74.1719 2.05801H83.7839L93.2879 16.038L102.738 2.05801H112.35V38.484H100.716V25.38L93.2879 36.3L85.8059 25.38V38.484H74.1719V2.05801ZM81.0539 34.11V9.04201L93.2879 26.844L105.468 9.04201V34.11H106.89V6.42601H105.468L93.2879 24.39L81.0539 6.42601H79.6319V34.11H81.0539Z" fill="#EC1C24"/>
<path d="M132.312 37.128C129.828 39.192 127.146 40.224 124.272 40.224C121.398 40.224 119.112 39.21 117.516 37.176C116.352 35.694 115.77 33.996 115.77 32.076C115.77 31.35 115.86 30.582 116.034 29.766L119.388 14.076C120 11.172 121.524 8.70001 123.966 6.66601C126.408 4.63201 129.108 3.61801 132.072 3.61801C135.036 3.61801 137.112 4.65001 138.738 6.71401C139.956 8.25601 140.568 9.98401 140.568 11.898C140.568 12.594 140.478 13.32 140.304 14.076C139.692 16.926 138.156 19.38 135.684 21.444C133.212 23.508 130.524 24.54 127.62 24.54H122.388L121.254 29.772C121.164 30.18 121.122 30.558 121.122 30.906C121.122 31.896 121.41 32.754 121.992 33.48C122.802 34.5 123.936 35.004 125.394 35.004C126.852 35.004 128.154 34.488 129.402 33.456C130.65 32.424 131.418 31.2 131.712 29.772C131.856 29.046 132.24 28.428 132.864 27.918C133.488 27.408 134.166 27.156 134.892 27.156C135.618 27.156 136.176 27.408 136.572 27.918C136.962 28.428 137.088 29.046 136.944 29.772C136.332 32.622 134.784 35.076 132.3 37.14L132.312 37.128ZM123.486 19.302H128.718C130.14 19.302 131.466 18.792 132.684 17.778C134.34 16.41 135.168 14.832 135.168 13.026C135.168 11.862 134.76 10.878 133.95 10.062C133.134 9.24602 132.132 8.84402 130.944 8.84402C129.492 8.84402 128.154 9.35401 126.936 10.368C125.718 11.388 124.944 12.618 124.626 14.07L123.492 19.302H123.486Z" fill="#EC1C24"/>
<path d="M0.576004 6.684C0.288004 6.684 0 6.45601 0 6.10801C0 5.47801 0.743997 5.496 1.338 5.418C1.398 3.336 1.914 1.596 1.932 1.536C2.028 1.29 2.256 1.134 2.484 1.134C2.826 1.134 3.06 1.42201 3.06 1.71001C3.06 1.95601 2.562 3.276 2.484 5.286C3.42 5.208 4.47 5.154 5.544 5.154C5.85 5.154 6.12 5.42401 6.12 5.73001C6.12 6.03601 5.85 6.30601 5.544 6.30601C4.494 6.30601 3.42 6.38401 2.502 6.45601C2.676 10.488 4.32 11.466 5.922 11.466C6.228 11.466 6.498 11.736 6.498 12.042C6.498 12.348 6.228 12.618 5.922 12.618C3.57 12.618 1.584 10.878 1.356 6.57601C1.068 6.61201 0.821998 6.69001 0.569998 6.69001L0.576004 6.684Z" fill="#EC1C24"/>
<path d="M11.2797 10.32C11.4897 10.32 11.7777 10.05 12.5997 8.598C13.3257 7.32 13.9197 6.30601 15.1017 6.30601C16.4997 6.30601 16.6317 7.776 16.6317 9.174C16.6317 11.43 16.9377 11.466 17.3577 11.466H17.3937C17.6997 11.466 17.9697 11.736 17.9697 12.042C17.9697 12.348 17.6997 12.618 17.3937 12.618C15.9417 12.618 15.4797 11.43 15.4797 9.18C15.4797 7.518 15.2337 7.458 15.0957 7.458C14.7537 7.458 14.3877 7.782 13.5837 9.18C12.8757 10.404 12.3957 11.472 11.2737 11.472C10.6437 11.472 10.1457 10.992 9.8397 10.38C8.6937 11.64 7.3557 12.618 5.9217 12.618C5.6157 12.618 5.3457 12.348 5.3457 12.042C5.3457 11.736 5.6157 11.466 5.9217 11.466C6.9357 11.466 8.2557 10.53 9.4197 9.114C9.2457 8.328 9.1737 7.45201 9.1737 6.30601C9.1737 3.21001 9.7857 0 11.8497 0C13.1277 0 13.5717 1.26 13.5717 2.292C13.5717 4.302 12.2937 7.242 10.6857 9.384C10.9317 10.188 11.2617 10.32 11.2797 10.32ZM11.8497 1.14001C11.2377 1.14001 10.3197 2.898 10.3197 6.3C10.3197 6.852 10.3377 7.35 10.3797 7.788C11.6037 5.874 12.4257 3.642 12.4257 2.28C12.4257 1.398 12.1017 1.134 11.8497 1.134V1.14001Z" fill="#EC1C24"/>
<path d="M25.4225 11.466C25.4225 11.676 25.2905 11.886 25.0985 11.982C24.0845 12.48 23.3765 12.612 22.5545 12.612C21.8105 12.612 21.1565 12.384 20.6405 11.964C19.5905 12.366 18.4445 12.612 17.3885 12.612C17.0825 12.612 16.8125 12.342 16.8125 12.036C16.8125 11.73 17.0825 11.46 17.3885 11.46C18.1505 11.46 19.0325 11.31 19.8725 11.022C19.6265 10.524 19.4885 9.95401 19.4885 9.36001C19.4885 7.75201 20.6525 6.3 22.3565 6.3C23.4245 6.3 24.2705 7.14 24.2705 8.214C24.2705 9.588 23.1605 10.644 21.9005 11.37C22.0925 11.43 22.3205 11.466 22.5485 11.466C23.2565 11.466 23.6945 11.406 24.5945 10.95C24.6725 10.914 24.7685 10.89 24.8405 10.89C25.1285 10.89 25.4165 11.118 25.4165 11.466H25.4225ZM22.3625 7.452C21.3905 7.452 20.6405 8.292 20.6405 9.366C20.6405 9.846 20.7545 10.266 20.9465 10.59C22.3205 9.90001 23.1245 8.982 23.1245 8.22C23.1245 7.764 22.8185 7.45801 22.3625 7.45801V7.452Z" fill="#EC1C24"/>
<path d="M66.8928 42.612C67.4328 42.618 67.9488 42.732 68.4348 42.948C68.9208 43.164 69.3408 43.458 69.7008 43.83C70.0608 44.202 70.3428 44.634 70.5528 45.12C70.7628 45.612 70.8588 46.14 70.8528 46.704C70.8468 47.256 70.7328 47.772 70.5168 48.252C70.3008 48.732 70.0068 49.152 69.6408 49.512C69.2748 49.872 68.8488 50.154 68.3568 50.358C67.8648 50.562 67.3368 50.658 66.7728 50.652C66.2208 50.646 65.6988 50.538 65.2188 50.328C64.7328 50.124 64.3128 49.836 63.9528 49.47C63.5928 49.104 63.3108 48.678 63.1068 48.186C62.9028 47.694 62.8068 47.16 62.8128 46.59C62.8188 46.038 62.9328 45.522 63.1428 45.042C63.3528 44.562 63.6408 44.148 64.0068 43.794C64.3728 43.44 64.8048 43.158 65.2968 42.948C65.7888 42.738 66.3228 42.63 66.8868 42.612H66.8928ZM66.8568 44.784C66.6048 44.784 66.3648 44.826 66.1428 44.916C65.9208 45.006 65.7228 45.132 65.5488 45.3C65.3748 45.462 65.2368 45.66 65.1348 45.882C65.0328 46.11 64.9788 46.35 64.9728 46.62C64.9728 46.872 65.0148 47.118 65.1108 47.346C65.2068 47.574 65.3388 47.778 65.5068 47.952C65.6748 48.126 65.8728 48.264 66.0888 48.366C66.3108 48.468 66.5448 48.522 66.8028 48.528C67.0548 48.528 67.3008 48.486 67.5288 48.39C67.7568 48.294 67.9548 48.162 68.1228 47.994C68.2908 47.826 68.4288 47.628 68.5308 47.4C68.6328 47.172 68.6868 46.932 68.6928 46.68C68.6808 46.17 68.5008 45.738 68.1648 45.378C67.8288 45.018 67.3908 44.826 66.8628 44.796L66.8568 44.784Z" fill="#EC1C24"/>
<path d="M76.2104 40.194C76.5344 40.194 76.7984 40.29 77.0204 40.47C77.2364 40.65 77.3564 40.92 77.3744 41.274C77.3744 41.562 77.2664 41.802 77.0564 42C76.8464 42.198 76.5884 42.306 76.2764 42.318C76.0424 42.324 75.8624 42.408 75.7244 42.558C75.5864 42.708 75.5204 42.894 75.5144 43.104L75.4904 44.73C76.0004 44.76 76.3484 44.88 76.5404 45.084C76.7324 45.294 76.8224 45.546 76.8224 45.846C76.8224 46.146 76.7204 46.392 76.5284 46.59C76.3364 46.788 75.9824 46.89 75.4604 46.908L75.4124 50.244C75.4124 50.568 75.3524 50.874 75.2384 51.174C75.1304 51.474 74.9804 51.738 74.7884 51.972C74.5964 52.206 74.3684 52.416 74.1044 52.602C73.8404 52.788 73.5404 52.926 73.2104 53.022C73.0124 53.088 72.8024 53.112 72.5924 53.106C72.3824 53.094 72.1904 53.052 72.0224 52.962C71.8544 52.878 71.7044 52.758 71.5904 52.596C71.4704 52.44 71.4044 52.236 71.3984 51.996C71.3984 51.708 71.5064 51.462 71.7164 51.264C71.9264 51.06 72.1724 50.958 72.4604 50.952C72.6824 50.952 72.8684 50.88 73.0184 50.718C73.1684 50.562 73.2464 50.382 73.2524 50.184L73.3004 46.878C72.7784 46.872 72.4304 46.764 72.2564 46.566C72.0824 46.362 71.9864 46.104 71.9684 45.78C71.9684 45.492 72.0704 45.246 72.2624 45.048C72.4544 44.844 72.8084 44.73 73.3304 44.706L73.3544 43.062C73.3544 42.684 73.4384 42.324 73.5884 41.976C73.7384 41.628 73.9424 41.322 74.2004 41.052C74.4584 40.782 74.7584 40.572 75.1064 40.416C75.4484 40.26 75.8204 40.188 76.2044 40.194H76.2104Z" fill="#EC1C24"/>
<path d="M84.682 50.928C84.274 50.922 83.89 50.838 83.53 50.676C83.17 50.514 82.864 50.304 82.6 50.04C82.336 49.776 82.132 49.47 81.982 49.116C81.832 48.768 81.76 48.396 81.766 48.006L81.826 43.92C81.814 43.776 81.844 43.638 81.904 43.506C81.964 43.374 82.048 43.26 82.15 43.158C82.252 43.062 82.366 42.984 82.504 42.93C82.636 42.876 82.78 42.852 82.936 42.852C83.224 42.852 83.47 42.96 83.668 43.152C83.872 43.35 83.98 43.578 83.998 43.848L83.938 47.964C83.944 48.186 84.022 48.372 84.172 48.516C84.322 48.66 84.496 48.738 84.706 48.738C84.892 48.738 85.066 48.672 85.222 48.54C85.378 48.402 85.462 48.228 85.48 48.006L85.54 43.854C85.54 43.578 85.66 43.344 85.882 43.152C86.104 42.96 86.356 42.87 86.632 42.87C86.932 42.87 87.184 42.984 87.4 43.2C87.61 43.416 87.718 43.668 87.712 43.968L87.652 48.036C87.652 48.282 87.724 48.468 87.886 48.594C88.042 48.726 88.216 48.792 88.408 48.792C88.63 48.792 88.816 48.726 88.966 48.582C89.116 48.438 89.194 48.264 89.2 48.054L89.26 44.022C89.26 43.734 89.374 43.482 89.596 43.272C89.818 43.062 90.07 42.954 90.358 42.96C90.646 42.96 90.898 43.068 91.12 43.272C91.336 43.476 91.444 43.71 91.444 43.974L91.384 48.144C91.384 48.54 91.294 48.918 91.126 49.272C90.958 49.626 90.742 49.926 90.466 50.178C90.19 50.43 89.872 50.628 89.512 50.772C89.152 50.916 88.774 50.982 88.39 50.982C87.682 50.97 87.064 50.748 86.542 50.31C86.272 50.526 85.978 50.688 85.666 50.784C85.348 50.886 85.024 50.934 84.694 50.928H84.682Z" fill="#EC1C24"/>
<path d="M93.6531 43.074C93.9411 43.074 94.1811 43.188 94.3731 43.398C94.5651 43.608 94.6671 43.866 94.6851 44.166L94.5951 50.046C94.5951 50.346 94.4931 50.592 94.3011 50.79C94.1091 50.988 93.8511 51.09 93.5331 51.108C93.2451 51.108 93.0051 51.012 92.8071 50.832C92.6091 50.652 92.4951 50.4 92.4531 50.082L92.5431 44.07C92.5671 43.782 92.6871 43.548 92.9031 43.362C93.1131 43.176 93.3651 43.08 93.6531 43.074ZM93.6891 40.536C93.9771 40.536 94.2231 40.65 94.4211 40.872C94.6251 41.088 94.7211 41.346 94.7151 41.634C94.7151 41.922 94.6071 42.174 94.3971 42.384C94.1871 42.594 93.9411 42.702 93.6531 42.696C93.3351 42.678 93.0711 42.576 92.8671 42.378C92.6631 42.18 92.5671 41.904 92.5731 41.55C92.5911 41.262 92.7051 41.022 92.9271 40.824C93.1491 40.626 93.4011 40.53 93.6891 40.536Z" fill="#EC1C24"/>
<path d="M99.779 43.068C100.313 43.074 100.817 43.182 101.303 43.38C101.789 43.578 102.209 43.86 102.569 44.214C102.929 44.568 103.217 44.988 103.433 45.462C103.649 45.942 103.751 46.458 103.745 47.01L103.697 50.082C103.697 50.37 103.589 50.616 103.379 50.826C103.169 51.036 102.917 51.138 102.617 51.144C102.317 51.144 102.065 51.042 101.849 50.844C101.639 50.646 101.531 50.4 101.537 50.1L101.579 47.112C101.579 46.86 101.537 46.614 101.447 46.386C101.357 46.158 101.225 45.96 101.057 45.792C100.889 45.624 100.691 45.486 100.463 45.384C100.235 45.282 99.989 45.228 99.725 45.222C99.479 45.222 99.251 45.264 99.023 45.354C98.801 45.444 98.603 45.564 98.435 45.72C98.267 45.87 98.129 46.056 98.027 46.278C97.925 46.5 97.871 46.728 97.865 46.974L97.823 49.998C97.823 50.286 97.703 50.538 97.481 50.748C97.259 50.958 97.001 51.066 96.713 51.06C96.425 51.06 96.173 50.952 95.951 50.748C95.729 50.544 95.627 50.298 95.627 50.01L95.669 47.022C95.687 46.47 95.801 45.948 96.017 45.468C96.233 44.988 96.515 44.562 96.881 44.202C97.247 43.842 97.673 43.56 98.165 43.356C98.657 43.152 99.191 43.056 99.761 43.062L99.779 43.068Z" fill="#EC1C24"/>
<path d="M108.814 43.2C109.348 43.206 109.852 43.314 110.338 43.512C110.824 43.716 111.244 43.992 111.604 44.346C111.964 44.7 112.252 45.12 112.468 45.594C112.684 46.074 112.786 46.59 112.774 47.142L112.726 50.214C112.726 50.502 112.618 50.748 112.408 50.958C112.198 51.168 111.946 51.27 111.646 51.276C111.346 51.276 111.094 51.174 110.878 50.976C110.668 50.778 110.56 50.532 110.566 50.232L110.608 47.244C110.608 46.992 110.566 46.746 110.476 46.518C110.386 46.29 110.254 46.092 110.086 45.924C109.918 45.756 109.72 45.618 109.492 45.516C109.264 45.414 109.018 45.36 108.754 45.354C108.508 45.354 108.28 45.396 108.052 45.486C107.824 45.576 107.632 45.696 107.464 45.852C107.296 46.002 107.158 46.188 107.056 46.41C106.954 46.632 106.9 46.86 106.894 47.106L106.852 50.13C106.852 50.418 106.732 50.67 106.51 50.88C106.288 51.09 106.03 51.198 105.742 51.192C105.454 51.192 105.202 51.084 104.98 50.88C104.764 50.676 104.656 50.43 104.656 50.142L104.698 47.154C104.716 46.602 104.83 46.08 105.046 45.6C105.256 45.114 105.544 44.694 105.91 44.334C106.276 43.974 106.702 43.692 107.194 43.488C107.686 43.284 108.214 43.188 108.79 43.194L108.814 43.2Z" fill="#EC1C24"/>
<path d="M114.971 43.392C115.259 43.392 115.499 43.506 115.691 43.716C115.883 43.932 115.985 44.184 116.003 44.484L115.913 50.364C115.913 50.664 115.811 50.91 115.619 51.108C115.427 51.306 115.169 51.408 114.851 51.426C114.563 51.426 114.323 51.33 114.125 51.15C113.927 50.97 113.813 50.718 113.771 50.4L113.861 44.388C113.885 44.1 114.005 43.866 114.221 43.68C114.431 43.494 114.683 43.398 114.971 43.392ZM115.007 40.854C115.295 40.854 115.541 40.968 115.739 41.19C115.943 41.406 116.039 41.664 116.033 41.952C116.033 42.24 115.925 42.492 115.715 42.702C115.505 42.912 115.259 43.02 114.971 43.014C114.653 42.996 114.389 42.894 114.185 42.696C113.981 42.498 113.885 42.222 113.891 41.868C113.909 41.58 114.023 41.34 114.245 41.142C114.467 40.944 114.719 40.848 115.007 40.854Z" fill="#EC1C24"/>
<path d="M121.097 43.386C121.631 43.392 122.135 43.5 122.621 43.698C123.107 43.896 123.527 44.178 123.887 44.532C124.247 44.886 124.535 45.306 124.751 45.78C124.967 46.26 125.069 46.776 125.063 47.328L125.015 50.4C125.015 50.688 124.907 50.934 124.697 51.144C124.487 51.354 124.235 51.456 123.935 51.462C123.635 51.462 123.383 51.36 123.167 51.162C122.957 50.964 122.849 50.718 122.855 50.418L122.897 47.43C122.897 47.178 122.855 46.932 122.765 46.704C122.675 46.476 122.543 46.278 122.375 46.11C122.207 45.942 122.009 45.804 121.781 45.702C121.553 45.6 121.307 45.546 121.043 45.54C120.797 45.54 120.569 45.582 120.341 45.672C120.119 45.762 119.921 45.882 119.753 46.038C119.585 46.188 119.447 46.374 119.345 46.596C119.243 46.818 119.189 47.046 119.183 47.292L119.141 50.316C119.141 50.604 119.021 50.856 118.799 51.066C118.577 51.276 118.319 51.384 118.031 51.378C117.743 51.372 117.491 51.27 117.269 51.066C117.047 50.862 116.945 50.616 116.945 50.328L116.987 47.34C117.005 46.788 117.119 46.266 117.335 45.786C117.551 45.306 117.833 44.88 118.199 44.52C118.565 44.16 118.991 43.878 119.483 43.674C119.975 43.47 120.509 43.374 121.079 43.38L121.097 43.386Z" fill="#EC1C24"/>
<path d="M130.36 54.63H129.826C129.55 54.642 129.304 54.75 129.088 54.96C128.866 55.17 128.602 55.266 128.296 55.266C127.99 55.266 127.732 55.146 127.51 54.924C127.3 54.72 127.192 54.48 127.18 54.198C127.168 53.916 127.258 53.67 127.45 53.466C127.786 53.052 128.278 52.752 128.926 52.572C129.214 52.488 129.526 52.44 129.856 52.434L131.086 52.452C131.254 52.434 131.386 52.362 131.488 52.242C131.74 51.882 131.824 51.546 131.752 51.234V51.216C131.53 51.336 131.278 51.432 130.99 51.504C130.708 51.576 130.33 51.612 129.868 51.606C129.28 51.6 128.74 51.492 128.254 51.282C127.762 51.078 127.342 50.79 126.994 50.43C126.646 50.07 126.376 49.644 126.184 49.146C125.992 48.648 125.902 48.108 125.908 47.52C125.914 46.98 126.034 46.464 126.262 45.984C126.49 45.498 126.79 45.078 127.168 44.718C127.546 44.358 127.972 44.076 128.458 43.866C128.944 43.656 129.448 43.554 129.982 43.566C130.534 43.572 131.056 43.686 131.536 43.902C132.022 44.118 132.442 44.412 132.802 44.784C133.162 45.156 133.438 45.588 133.636 46.074C133.834 46.566 133.93 47.088 133.918 47.64C133.906 48.39 133.738 49.056 133.408 49.626C133.72 50.064 133.87 50.766 133.858 51.744C133.864 52.068 133.792 52.416 133.636 52.794C133.48 53.172 133.276 53.496 133.024 53.754C132.772 54.018 132.472 54.222 132.124 54.378C131.776 54.534 131.404 54.618 131.008 54.636H130.444L130.342 54.624L130.36 54.63ZM129.964 45.726C129.718 45.726 129.49 45.774 129.262 45.876C129.04 45.978 128.842 46.116 128.668 46.284C128.494 46.452 128.35 46.65 128.242 46.866C128.134 47.088 128.08 47.316 128.074 47.562C128.074 47.808 128.116 48.042 128.206 48.27C128.296 48.498 128.422 48.702 128.584 48.87C128.746 49.044 128.944 49.188 129.166 49.296C129.394 49.404 129.634 49.458 129.904 49.464C130.168 49.464 130.42 49.422 130.654 49.326C130.888 49.23 131.092 49.092 131.26 48.918C131.428 48.744 131.56 48.546 131.662 48.324C131.758 48.102 131.812 47.868 131.812 47.61C131.812 47.358 131.764 47.112 131.662 46.884C131.56 46.656 131.422 46.458 131.254 46.29C131.086 46.122 130.888 45.984 130.66 45.882C130.432 45.78 130.198 45.726 129.958 45.72L129.964 45.726Z" fill="#EC1C24"/>
</svg>
