<svg width="196" height="78" viewBox="0 0 196 78" fill="none" xmlns="http://www.w3.org/2000/svg">
<path d="M83.0868 40.2689C83.2397 41.9489 83.5556 43.3289 84.0243 44.3889C84.4931 45.4489 85.2778 46.2589 86.3885 46.7989C86.4293 46.9889 86.4599 47.2289 86.4904 47.5089C86.5108 47.7889 86.5312 47.9989 86.5516 48.1489C86.7248 49.9989 86.5719 51.6289 86.093 53.0189C85.614 54.4089 84.9415 55.5789 84.0651 56.5289C83.1887 57.4789 82.1595 58.2089 80.9774 58.7389C79.7953 59.2589 78.5724 59.5789 77.3088 59.6889C76.412 59.7689 75.5255 59.7389 74.6491 59.6089C73.7727 59.4789 72.9371 59.2389 72.1422 58.8889C71.3474 58.5389 70.6137 58.0689 69.9513 57.4789C69.2787 56.8889 68.7386 56.1689 68.3106 55.3189C67.8826 55.3589 67.5769 55.4889 67.3935 55.7289C67.1999 55.9689 67.1285 56.2689 67.1591 56.6389C67.1897 56.9789 67.3323 57.3389 67.5973 57.7089C67.8521 58.0789 68.2189 58.4589 68.6775 58.8289C67.9336 59.4389 66.9043 59.9289 65.5796 60.3189C64.265 60.6989 62.9097 60.9589 61.5136 61.0789C59.2513 61.2789 57.1724 61.1489 55.2668 60.6989C53.3612 60.2489 51.69 59.4889 50.2531 58.4089C48.8162 57.3289 47.6545 55.9689 46.768 54.3089C45.8814 52.6589 45.3311 50.7089 45.1273 48.4589C44.9133 46.1489 45.1273 44.1089 45.7591 42.3389C46.3909 40.5789 47.3284 39.0789 48.5615 37.8589C49.8047 36.6289 51.2823 35.6689 53.0147 34.9789C54.7369 34.2889 56.6018 33.8589 58.5889 33.6789C59.4857 33.5989 60.2805 33.5589 60.9837 33.5589C61.6868 33.5589 62.288 33.5689 62.7874 33.5989C63.3682 33.6489 63.8574 33.6989 64.265 33.7689C64.316 33.5189 64.3363 33.3089 64.316 33.1389C64.2854 32.8189 64.0918 32.5689 63.7453 32.3789C63.3886 32.1889 62.9301 32.0589 62.3798 31.9989C61.8193 31.9389 61.1875 31.9089 60.4538 31.9289C59.7302 31.9489 58.9965 31.9789 58.2526 32.0489C56.561 32.1989 54.8898 32.5289 53.2389 33.0389C51.5881 33.5489 50.1206 34.2489 48.8468 35.1189C48.215 34.2689 47.6749 33.1589 47.2163 31.7989C46.7578 30.4389 46.4622 29.0389 46.3298 27.5989C46.2686 26.9189 46.2482 26.2189 46.2686 25.5189C46.289 24.8189 46.4215 24.1889 46.6457 23.6289C47.2673 23.2789 48.0621 22.8889 49.0302 22.4389C50.0085 21.9989 51.1397 21.5689 52.4441 21.1489C53.7484 20.7289 55.1853 20.3389 56.775 19.9789C58.3545 19.6189 60.0665 19.3589 61.9008 19.1989C65.1006 18.9189 67.9336 19.0289 70.3997 19.5289C72.8658 20.0289 74.9446 20.8689 76.6566 22.0589C78.3686 23.2489 79.7036 24.7789 80.6819 26.6489C81.65 28.5189 82.2512 30.6689 82.4652 33.1089L83.1174 40.2789L83.0868 40.2689ZM63.9083 43.7489C63.3377 43.7989 62.9504 43.9789 62.7364 44.2789C62.5224 44.5789 62.4409 44.9089 62.4715 45.2789C62.5122 45.7689 62.7262 46.0889 63.1033 46.2589C63.4803 46.4189 63.9185 46.4789 64.4179 46.4389C65.2127 46.3689 65.8038 46.1189 66.191 45.6889C66.5782 45.2589 66.7209 44.5389 66.6292 43.5089L63.9083 43.7489Z" fill="#00ADEE" stroke="#00ADEE" stroke-width="3.6" stroke-miterlimit="10"/>
<path d="M80.3251 36.8989C80.4779 38.5789 80.7938 39.9489 81.2626 41.0189C81.7314 42.0789 82.5262 42.8889 83.6268 43.4289C83.6676 43.6189 83.7083 43.8589 83.7287 44.1389C83.7491 44.4189 83.7695 44.6289 83.7898 44.7789C83.9631 46.6289 83.8102 48.2589 83.3313 49.6489C82.8625 51.0389 82.1797 52.2089 81.3034 53.1589C80.427 54.1089 79.3978 54.8389 78.2157 55.3689C77.0336 55.8889 75.8107 56.2089 74.5471 56.3189C73.6503 56.3989 72.7637 56.3689 71.8874 56.2389C71.011 56.1089 70.1754 55.8689 69.3805 55.5189C68.5857 55.1689 67.8519 54.6989 67.1896 54.1089C66.517 53.5189 65.9769 52.7989 65.5489 51.9489C65.1209 51.9889 64.8152 52.1189 64.6317 52.3589C64.4381 52.5989 64.3668 52.8989 64.3974 53.2589C64.4279 53.5989 64.5706 53.9589 64.8356 54.3289C65.0903 54.6989 65.4572 55.0789 65.9157 55.4489C65.1718 56.0589 64.1426 56.5489 62.8178 56.9389C61.5033 57.3289 60.1479 57.5789 58.7518 57.6989C56.4896 57.8989 54.4107 57.7689 52.5051 57.3189C50.5995 56.8689 48.9282 56.1089 47.4914 55.0289C46.0545 53.9489 44.8928 52.5889 44.0062 50.9289C43.1196 49.2789 42.5694 47.3289 42.3656 45.0789C42.1516 42.7589 42.3656 40.7289 42.9974 38.9589C43.6292 37.1989 44.5667 35.6989 45.7998 34.4789C47.043 33.2489 48.5206 32.2889 50.253 31.5989C51.9752 30.9089 53.84 30.4789 55.8272 30.2989C56.7239 30.2189 57.5188 30.1789 58.2219 30.1789C58.9251 30.1789 59.5263 30.1889 60.0256 30.2189C60.6065 30.2689 61.0957 30.3189 61.5033 30.3889C61.5542 30.1389 61.5746 29.9289 61.5542 29.7589C61.5236 29.4389 61.33 29.1889 60.9836 28.9989C60.6269 28.8089 60.1683 28.6889 59.618 28.6189C59.0576 28.5589 58.4156 28.5389 57.692 28.5489C56.9685 28.5689 56.2348 28.5989 55.4909 28.6689C53.7993 28.8189 52.128 29.1489 50.4772 29.6589C48.8263 30.1689 47.3589 30.8689 46.0851 31.7389C45.4533 30.8889 44.9132 29.7789 44.4546 28.4189C43.996 27.0589 43.7005 25.6589 43.568 24.2189C43.5069 23.5389 43.4865 22.8389 43.5171 22.1389C43.5375 21.4389 43.6598 20.8089 43.8941 20.2489C44.5158 19.8989 45.3106 19.5089 46.2787 19.0589C47.257 18.6189 48.3881 18.1889 49.6925 17.7689C50.9969 17.3489 52.4338 16.9589 54.0133 16.5989C55.5928 16.2389 57.3048 15.9789 59.1391 15.8189C62.3389 15.5389 65.1718 15.6489 67.6379 16.1489C70.104 16.6489 72.1829 17.4889 73.8949 18.6789C75.6069 19.8689 76.9419 21.3989 77.9201 23.2689C78.8984 25.1389 79.4895 27.2889 79.7035 29.7289L80.3557 36.8989H80.3251ZM61.1466 40.3789C60.5759 40.4289 60.1887 40.6089 59.9747 40.9089C59.7607 41.2089 59.6792 41.5389 59.7097 41.9089C59.7505 42.3989 59.9645 42.7189 60.3416 42.8889C60.7186 43.0489 61.1568 43.1089 61.6561 43.0689C62.451 42.9989 63.042 42.7489 63.4293 42.3289C63.8165 41.8989 63.9592 41.1789 63.8675 40.1489L61.1466 40.3889V40.3789Z" fill="#00ADEE" stroke="#00ADEE" stroke-width="3.6" stroke-miterlimit="10"/>
<path d="M17.0828 19.2489C27.9459 18.2989 33.4895 22.8689 34.1315 29.9689C34.7429 36.7189 30.0859 42.3689 19.2432 43.3189C8.35978 44.2689 2.81615 39.6489 2.18434 32.7589C1.55253 25.7889 6.20958 20.1889 17.0726 19.2389L17.0828 19.2489ZM32.6029 62.4089C32.4093 60.2289 30.7381 58.2389 26.6007 58.6089L18.591 59.3089C15.2587 59.5989 12.3748 59.5589 10.3265 58.8789L10.2858 58.3889C6.28091 57.5289 4.46702 55.2889 4.21225 52.4689C3.85559 48.5489 6.34206 44.8689 10.7647 40.7889L12.8843 41.8489C11.8857 43.4289 11.4475 44.6889 11.6105 46.5589C11.7736 48.3089 13.0372 49.2889 16.288 48.9989L25.2046 48.2189C36.8421 47.1989 41.2954 51.2889 41.8864 57.7789C42.5794 65.4089 35.4053 72.4189 20.731 73.6989C8.09482 74.8089 4.00844 70.9489 3.59063 66.3689C3.25435 62.6989 5.74082 59.5289 11.3456 57.0389L12.5073 57.6089C11.0908 60.0189 10.5915 61.2989 10.8055 63.6789C11.2131 68.1389 14.6167 69.7489 21.5564 69.1389C29.2401 68.4689 32.9086 65.6589 32.6131 62.4189L32.6029 62.4089ZM13.0372 31.7289C13.5161 37.0289 15.3402 40.0989 18.8661 39.7989C22.4532 39.4889 23.8595 36.0689 23.3805 30.7389C22.9016 25.4789 20.8023 22.4889 17.4293 22.7789C14.0359 23.0789 12.5582 26.4189 13.0372 31.7289ZM37.7083 17.2789L38.972 17.9189L39.5019 23.6989L28.5573 24.6589L28.3331 22.2089L37.7083 17.2889V17.2789Z" fill="#652D90"/>
<path d="M78.7866 33.2389C78.9394 34.9189 79.2553 36.2889 79.7241 37.3589C80.1929 38.4189 80.9877 39.2289 82.0883 39.7689C82.1291 39.9589 82.1698 40.1989 82.1902 40.4789C82.2208 40.7589 82.231 40.9689 82.2513 41.1189C82.4246 42.9689 82.2615 44.5989 81.7928 45.9889C81.3138 47.3789 80.6412 48.5489 79.7649 49.4989C78.8885 50.4489 77.8592 51.1789 76.6771 51.7089C75.4951 52.2289 74.2722 52.5489 73.0086 52.6589C72.1118 52.7389 71.2252 52.7089 70.359 52.5789C69.4827 52.4489 68.647 52.2089 67.8522 51.8589C67.0573 51.5089 66.3236 51.0389 65.6612 50.4489C64.9887 49.8589 64.4486 49.1389 64.0206 48.2889C63.5926 48.3289 63.2869 48.4589 63.1034 48.6989C62.9098 48.9389 62.8385 49.2389 62.8691 49.6089C62.8996 49.9489 63.0423 50.3089 63.3072 50.6789C63.562 51.0489 63.9289 51.4289 64.3874 51.7989C63.6435 52.4089 62.6041 52.8989 61.2895 53.2889C59.975 53.6789 58.6196 53.9289 57.2235 54.0489C54.9612 54.2489 52.8824 54.1189 50.9768 53.6689C49.0711 53.2189 47.3999 52.4589 45.9631 51.3789C44.5262 50.2989 43.3645 48.9389 42.4779 47.2789C41.5913 45.6289 41.0411 43.6789 40.8372 41.4289C40.6232 39.1189 40.8372 37.0789 41.4691 35.3089C42.1009 33.5489 43.0282 32.0489 44.2714 30.8289C45.5147 29.5989 46.9923 28.6389 48.7247 27.9489C50.4469 27.2589 52.3117 26.8289 54.2989 26.6489C55.1956 26.5689 55.9905 26.5289 56.6936 26.5289C57.3968 26.5289 57.998 26.5389 58.4973 26.5689C59.0782 26.6189 59.5673 26.6689 59.975 26.7389C60.0259 26.4889 60.0463 26.2789 60.0259 26.1089C59.9953 25.7889 59.8017 25.5389 59.445 25.3489C59.0884 25.1589 58.64 25.0389 58.0795 24.9689C57.5191 24.9089 56.8872 24.8789 56.1637 24.8989C55.4402 24.9189 54.7065 24.9489 53.9626 25.0189C52.271 25.1689 50.5997 25.4989 48.9489 26.0089C47.298 26.5189 45.8306 27.2189 44.5568 28.0889C43.925 27.2389 43.3849 26.1289 42.9263 24.7689C42.4677 23.4089 42.1722 22.0089 42.0397 20.5689C41.9786 19.8889 41.9582 19.1889 41.9786 18.4889C41.999 17.7889 42.1314 17.1589 42.3556 16.5989C42.9772 16.2489 43.7721 15.8589 44.7504 15.4089C45.7287 14.9689 46.8598 14.5389 48.1642 14.1189C49.4686 13.6989 50.9054 13.3089 52.485 12.9489C54.0645 12.5889 55.7765 12.3289 57.6108 12.1689C60.8106 11.8889 63.6435 11.9989 66.1096 12.4989C68.5757 12.9989 70.6546 13.8389 72.3666 15.0289C74.0786 16.2189 75.4135 17.7489 76.3918 19.6189C77.3599 21.4889 77.9612 23.6389 78.1752 26.0789L78.8273 33.2489L78.7866 33.2389ZM59.6081 36.7189C59.0374 36.7689 58.6502 36.9489 58.4362 37.2489C58.2222 37.5489 58.1407 37.8789 58.1712 38.2489C58.212 38.7389 58.426 39.0589 58.803 39.2289C59.1801 39.3889 59.6183 39.4489 60.1176 39.4089C60.9125 39.3389 61.5035 39.0889 61.8908 38.6589C62.278 38.2289 62.4207 37.5089 62.329 36.4789L59.6081 36.7189Z" fill="white" stroke="#00ADEE" stroke-width="1.2" stroke-miterlimit="10"/>
<path d="M141.916 27.0689C142.028 28.3089 141.998 29.3789 141.835 30.2789C141.662 31.1689 141.152 32.0089 140.276 32.7989C138.217 34.7889 135.975 36.5089 133.55 37.9889C131.125 39.4689 128.781 40.2989 126.519 40.4889C126.233 40.5089 125.846 40.4789 125.347 40.3689C123.696 40.2189 122.667 39.3589 122.279 37.7789C122.361 37.5189 122.391 37.3089 122.371 37.1589C122.626 36.1089 122.942 35.0289 123.309 33.9189C123.675 32.8089 124.052 31.7489 124.44 30.7389C124.827 29.7189 125.061 29.0389 125.153 28.6889C126.396 25.5789 126.998 23.7689 126.947 23.2589L126.926 23.0189C126.62 23.0489 125.041 24.5389 122.188 27.5089C121.087 28.6689 119.732 30.1989 118.122 32.0689C116.512 33.9389 115.064 35.6189 113.801 37.0689C112.527 38.5289 111.355 39.8089 110.265 40.9289C109.5 41.6489 108.543 42.0589 107.371 42.1589C105.842 42.2889 105.017 41.6389 104.884 40.1989L104.854 39.8889C104.884 38.7389 106.066 35.0989 108.4 28.9489C109.47 26.6689 109.969 25.1189 109.888 24.2889L109.857 23.9989C109.704 24.0089 109.562 24.0789 109.409 24.1889C109.205 24.3789 108.787 24.8089 108.155 25.4889C107.524 26.1589 107.126 26.5789 106.953 26.7489C105.353 28.5989 103.702 30.4389 101.99 32.2889C100.278 34.1289 98.6884 35.8489 97.2107 37.4489C95.7331 39.0489 94.2351 40.7689 92.6964 42.6289C92.197 43.2289 91.4939 43.5689 90.5768 43.6489C89.8736 43.7089 89.2418 43.5489 88.6813 43.1689C88.131 42.7889 87.8253 42.3089 87.7744 41.7189L87.7234 41.1189C88.131 39.7789 88.4775 38.4889 88.773 37.2489C89.0686 36.0089 89.2826 35.0589 89.4252 34.4089C89.2724 34.5089 88.4673 35.2589 87.0203 36.6489C86.8267 36.6689 86.7247 36.7489 86.7451 36.8889C86.6534 36.9989 86.5209 37.1089 86.3477 37.2389C86.1745 37.3689 86.0624 37.4489 86.0318 37.4889L85.8178 35.1689L85.6955 33.8189C85.6038 32.8089 85.5936 32.0489 85.6548 31.5589C85.7261 31.0589 85.9809 30.6389 86.4394 30.2889C87.7234 28.9889 89.2724 27.2389 91.0965 25.0589C92.9206 22.8789 94.3065 21.1889 95.2644 20.0089C95.4987 19.5689 95.8146 18.7689 96.2019 17.6089C96.5891 16.4389 96.8846 15.7089 97.0783 15.3989L100.278 15.1189L104.018 14.7889C103.773 15.4389 103.264 16.6789 102.489 18.5289C101.715 20.3689 101.124 21.8689 100.716 23.0089C100.319 24.1589 100.084 25.1589 100.044 26.0089L100.064 26.2289C104.263 22.2489 107.646 18.9889 110.234 16.4389C110.815 15.7589 111.691 15.0789 112.874 14.3789C114.056 13.6889 115.156 13.2989 116.175 13.2089C116.909 13.1489 117.694 13.2689 118.539 13.5789C119.385 13.8889 119.834 14.3889 119.895 15.0589C119.915 15.2389 119.895 15.4189 119.864 15.5989C119.823 15.7789 119.803 15.8689 119.803 15.8989C119.609 16.6389 119.243 17.7789 118.692 19.3089C118.152 20.8389 117.745 22.0389 117.469 22.8989C117.194 23.7589 117.052 24.4989 117.031 25.1289L117.174 25.0389C118.438 23.9189 119.834 22.5989 121.362 21.0789C122.891 19.5589 124.328 18.1189 125.693 16.7789C127.059 15.4289 128.282 14.3089 129.362 13.3989C130.391 12.4089 131.695 11.8489 133.285 11.7089C134.121 11.6389 134.936 11.8189 135.731 12.2489C136.526 12.6789 136.964 13.2989 137.035 14.0889C137.096 14.8089 136.964 15.5789 136.628 16.3889C136.128 17.9389 135.068 20.7989 133.438 24.9689C131.807 29.1389 131.002 31.3489 131.023 31.5989C131.074 32.1989 131.39 32.5389 131.96 32.6389C132.939 32.3189 133.927 31.7889 134.895 31.0389C135.863 30.2889 137.086 29.2189 138.554 27.8189C140.021 26.4189 140.836 25.6489 140.999 25.5089C141.335 25.5389 141.641 26.0689 141.916 27.0889V27.0689Z" fill="#652D90"/>
<path d="M186.591 28.0689C186.866 31.1189 186.622 33.0889 185.868 33.9789C183.198 37.1589 179.284 40.3089 174.159 43.4089C169.033 46.5089 163.683 48.3089 158.129 48.7889C154.878 49.0689 151.964 48.8689 149.375 48.1889C146.308 47.5289 143.944 45.8389 142.293 43.1289C140.642 40.4189 139.644 37.2289 139.307 33.5589C138.91 29.2089 139.562 24.9589 141.254 20.7989C142.945 16.6389 145.442 12.9589 148.754 9.74891C152.066 6.53891 155.816 4.11891 160.004 2.47891C163.041 1.46891 165.762 0.85892 168.177 0.64892C171.937 0.31892 174.954 0.918908 177.246 2.44891C179.539 3.97891 180.833 6.46891 181.149 9.93891C181.537 14.2489 180.008 18.2189 176.553 21.8489C173.099 25.4789 169.012 28.3789 164.315 30.5189C162.409 31.5089 160.901 32.1589 159.8 32.4589C158.7 32.7589 157.334 33.0689 155.704 33.3889C154.073 33.7089 153.064 34.0489 152.657 34.3789C152.29 34.6689 151.994 35.1889 151.78 35.9389C151.872 36.9189 152.83 37.7289 154.674 38.3689C156.509 39.0089 158.516 39.2589 160.687 39.1289C166.261 36.8689 170.918 34.6489 174.638 32.4689C178.357 30.2989 181.802 27.4289 184.95 23.8589L185.47 23.8089C186.031 24.5689 186.408 25.9789 186.591 28.0389V28.0689ZM169.074 13.2489C168.992 12.3289 168.534 11.5589 167.708 10.9289C166.883 10.3089 165.976 10.0389 164.997 10.1189C162.582 10.3289 160.065 11.8289 157.436 14.6289C153.706 18.2089 151.515 21.9889 150.873 25.9889C151.729 25.6689 152.636 25.4689 153.594 25.3889C158.037 23.9889 161.767 22.1189 164.804 19.7689C167.83 17.4289 169.257 15.2489 169.074 13.2489Z" fill="#652D90"/>
<path d="M0.798617 9.62893C0.43176 9.65893 0.0445232 9.40892 0.00376133 8.97892C-0.067572 8.18892 0.890339 8.12893 1.63424 7.96893C1.4712 5.35893 1.92977 3.11893 1.95015 3.04893C2.04186 2.72893 2.317 2.50893 2.61252 2.48893C3.05071 2.44893 3.37681 2.78893 3.40738 3.13893C3.43795 3.44893 2.94881 5.15892 3.08129 7.66892C4.26338 7.46892 5.59833 7.27893 6.96386 7.15893C7.3511 7.12893 7.72814 7.42892 7.75871 7.80892C7.78929 8.18892 7.48358 8.55892 7.09634 8.58892C5.7512 8.70892 4.40604 8.91894 3.24433 9.11894C3.9169 14.1389 6.12824 15.1789 8.17653 14.9989C8.56377 14.9689 8.94081 15.2689 8.97138 15.6489C9.00196 16.0289 8.69623 16.3989 8.30899 16.4289C5.31299 16.6889 2.58195 14.7389 1.79728 9.37893C1.43042 9.45893 1.12471 9.57893 0.808802 9.60893L0.798617 9.62893Z" fill="#652D90"/>
<path d="M14.8514 12.9789C15.1164 12.9589 15.4526 12.5889 16.3392 10.6789C17.1239 8.99895 17.7557 7.65894 19.2741 7.52894C21.0574 7.36894 21.3937 9.19894 21.5465 10.9489C21.8013 13.7689 22.1987 13.7789 22.7388 13.7389H22.7898C23.177 13.6989 23.5541 14.0089 23.5846 14.3889C23.6152 14.7689 23.3095 15.1389 22.9223 15.1689C21.0676 15.3289 20.3543 13.8989 20.0893 11.0789C19.9059 8.99894 19.5798 8.95894 19.4065 8.96894C18.9683 9.00894 18.5403 9.45895 17.6742 11.2889C16.9099 12.8989 16.4207 14.2889 14.9839 14.4189C14.1788 14.4889 13.4961 13.9489 13.0375 13.2189C11.7229 14.9289 10.123 16.2889 8.29892 16.4489C7.91168 16.4789 7.53463 16.1789 7.50406 15.7989C7.47349 15.4189 7.7792 15.0489 8.16644 15.0189C9.46063 14.9089 11.03 13.5889 12.3547 11.6889C12.049 10.7289 11.8452 9.63894 11.7229 8.19894C11.3764 4.32894 11.7841 0.238948 14.4132 0.00894841C16.0437 -0.131052 16.7468 1.39894 16.8691 2.68894C17.0933 5.19894 15.7991 9.02894 13.9954 11.8789C14.403 12.8589 14.831 12.9889 14.8616 12.9889L14.8514 12.9789ZM14.5457 1.43894C13.761 1.50894 12.7929 3.80895 13.1801 8.06895C13.2413 8.75895 13.3228 9.37895 13.4247 9.92895C14.7699 7.39895 15.5647 4.50895 15.4119 2.81895C15.31 1.71895 14.8616 1.41894 14.5559 1.44894L14.5457 1.43894Z" fill="#652D90"/>
<path d="M33.011 12.8289C33.0313 13.0889 32.8887 13.3689 32.6543 13.5089C31.4212 14.2389 30.5347 14.4889 29.4851 14.5789C28.5373 14.6589 27.6813 14.4489 26.9782 13.9789C25.684 14.5989 24.2472 15.0389 22.9122 15.1489C22.525 15.1789 22.1479 14.8789 22.1173 14.4989C22.0868 14.1189 22.3925 13.7489 22.7797 13.7189C23.758 13.6389 24.8586 13.3489 25.898 12.8889C25.521 12.2989 25.2866 11.5889 25.2254 10.8489C25.042 8.83894 26.3668 6.88894 28.5373 6.69894C29.9029 6.57894 31.0646 7.53894 31.1869 8.87894C31.3397 10.5989 30.0455 12.0389 28.5272 13.0889C28.7819 13.1389 29.0774 13.1589 29.3628 13.1389C30.2697 13.0589 30.82 12.9389 31.9104 12.2689C32.0021 12.2089 32.1244 12.1789 32.2263 12.1689C32.5932 12.1389 32.9804 12.3889 33.0211 12.8189L33.011 12.8289ZM28.6596 8.14895C27.4164 8.25895 26.5604 9.38893 26.6827 10.7289C26.7336 11.3289 26.9272 11.8389 27.2126 12.2289C28.8838 11.2189 29.8112 9.97894 29.7194 9.01894C29.6685 8.44894 29.2405 8.09895 28.6596 8.14895Z" fill="#652D90"/>
<path d="M72.6519 62.7689C73.2837 62.7689 73.8951 62.9089 74.4556 63.1589C75.0262 63.4089 75.5154 63.7489 75.9434 64.1789C76.3714 64.6089 76.6975 65.0989 76.9421 65.6689C77.1866 66.2289 77.2987 66.8389 77.2885 67.4889C77.2885 68.1289 77.1459 68.7189 76.8911 69.2689C76.6363 69.8189 76.2899 70.2989 75.8619 70.7189C75.4339 71.1389 74.9345 71.4589 74.3537 71.6889C73.783 71.9189 73.1614 72.0389 72.499 72.0289C71.8468 72.0289 71.2354 71.8989 70.6749 71.6589C70.1043 71.4189 69.6151 71.0889 69.1871 70.6689C68.7591 70.2489 68.433 69.7589 68.1986 69.1889C67.9642 68.6289 67.842 68.0089 67.8522 67.3489C67.8522 66.7089 67.9948 66.1189 68.2394 65.5689C68.484 65.0189 68.8304 64.5389 69.2584 64.1289C69.6864 63.7189 70.196 63.3989 70.7768 63.1589C71.3577 62.9189 71.9793 62.7889 72.6417 62.7789L72.6519 62.7689ZM72.6111 65.2789C72.3156 65.2789 72.0302 65.3289 71.7653 65.4289C71.5003 65.5289 71.266 65.6789 71.0621 65.8689C70.8583 66.0589 70.6953 66.2789 70.573 66.5389C70.4507 66.7989 70.3896 67.0789 70.3794 67.3889C70.3794 67.6789 70.4303 67.9589 70.5424 68.2189C70.6545 68.4789 70.8074 68.7189 71.0112 68.9189C71.2048 69.1189 71.4392 69.2789 71.694 69.3989C71.9487 69.5189 72.2341 69.5789 72.5296 69.5789C72.8251 69.5789 73.1104 69.5289 73.3754 69.4189C73.6403 69.3089 73.8747 69.1589 74.0785 68.9589C74.2823 68.7589 74.4352 68.5389 74.5575 68.2789C74.6798 68.0189 74.7409 67.7389 74.7409 67.4489C74.7205 66.8589 74.5167 66.3589 74.1193 65.9489C73.7219 65.5389 73.2123 65.3089 72.5907 65.2789H72.6111Z" fill="#00ADEE"/>
<path d="M83.5966 59.989C83.9736 59.989 84.2895 60.099 84.5443 60.309C84.7991 60.519 84.9417 60.8289 84.9621 61.2289C84.9621 61.5589 84.8296 61.8389 84.585 62.0689C84.3405 62.2989 84.0348 62.419 83.6781 62.439C83.4029 62.439 83.1889 62.539 83.0259 62.719C82.8629 62.899 82.7813 63.1089 82.7813 63.3489L82.7508 65.2289C83.352 65.2589 83.7596 65.3989 83.9838 65.6389C84.208 65.8789 84.3201 66.169 84.3099 66.519C84.3099 66.859 84.1876 67.1489 83.9634 67.3789C83.7392 67.6089 83.3214 67.729 82.71 67.739L82.6489 71.589C82.6489 71.959 82.5775 72.3189 82.445 72.6589C82.3126 72.9989 82.1393 73.3089 81.9151 73.5789C81.691 73.8489 81.426 74.089 81.1101 74.309C80.8044 74.519 80.4477 74.6789 80.0605 74.7889C79.8261 74.8589 79.5815 74.8889 79.337 74.8789C79.0924 74.8689 78.8682 74.819 78.6644 74.719C78.4606 74.619 78.2975 74.479 78.1549 74.299C78.0122 74.1189 77.9409 73.8889 77.9307 73.6089C77.9307 73.2789 78.0631 72.9989 78.3077 72.7589C78.5523 72.5289 78.8478 72.409 79.1841 72.399C79.4389 72.399 79.663 72.3089 79.8363 72.1289C80.0095 71.9489 80.1012 71.7389 80.1114 71.5089L80.1726 67.6989C79.5611 67.6989 79.1535 67.569 78.9497 67.339C78.7459 67.109 78.6338 66.809 78.6134 66.439C78.6134 66.109 78.7357 65.829 78.9599 65.589C79.1841 65.359 79.6019 65.2289 80.2133 65.1989L80.2439 63.309C80.2439 62.879 80.3356 62.459 80.519 62.059C80.7025 61.659 80.9369 61.309 81.2426 60.999C81.5483 60.689 81.9049 60.449 82.3024 60.269C82.71 60.089 83.138 59.9989 83.5966 60.0089V59.989Z" fill="#00ADEE"/>
<path d="M91.4943 60.119C91.6676 60.119 91.8204 60.139 91.9835 60.209C92.1465 60.279 92.279 60.379 92.4013 60.489C92.5236 60.599 92.6153 60.7389 92.6764 60.9089C92.7376 61.0689 92.7681 61.229 92.7681 61.399L92.7376 63.599C93.1961 63.379 93.6751 63.229 94.154 63.169C94.633 63.109 95.1221 63.109 95.6011 63.189C96.08 63.269 96.5488 63.409 96.9972 63.629C97.4456 63.849 97.8634 64.139 98.2506 64.499C98.699 64.969 99.0353 65.469 99.2493 65.999C99.4633 66.529 99.5754 67.139 99.5652 67.809C99.5652 68.449 99.4225 69.049 99.1576 69.599C98.8926 70.159 98.5461 70.639 98.108 71.059C97.6698 71.469 97.1704 71.799 96.5896 72.029C96.0189 72.259 95.4075 72.379 94.7757 72.369C94.154 72.369 93.5528 72.229 92.9822 71.969C92.4115 71.709 91.9121 71.369 91.4841 70.939C91.0561 70.509 90.7097 70.019 90.4651 69.449C90.2103 68.889 90.0881 68.2889 90.0982 67.6589L90.2001 61.249C90.2001 61.099 90.2409 60.949 90.3224 60.799C90.404 60.649 90.5059 60.529 90.618 60.419C90.7402 60.309 90.8727 60.229 91.0256 60.169C91.1784 60.109 91.3313 60.089 91.4841 60.099L91.4943 60.119ZM92.6662 67.719C92.6662 68.009 92.7172 68.289 92.8293 68.549C92.9414 68.809 93.0942 69.039 93.2981 69.239C93.4917 69.429 93.7261 69.589 93.9808 69.709C94.2356 69.829 94.5209 69.889 94.8164 69.889C95.1018 69.889 95.3769 69.839 95.6419 69.729C95.9068 69.619 96.1514 69.469 96.3552 69.279C96.559 69.089 96.722 68.869 96.8443 68.609C96.9666 68.349 97.0278 68.069 97.0278 67.779C97.0278 67.489 96.9768 67.209 96.8647 66.949C96.7526 66.689 96.5998 66.459 96.396 66.259C96.1921 66.069 95.968 65.909 95.703 65.789C95.4381 65.669 95.1629 65.609 94.8776 65.609C94.5821 65.609 94.2967 65.659 94.0318 65.779C93.7668 65.899 93.5324 66.049 93.3286 66.249C93.1248 66.439 92.9618 66.669 92.8395 66.929C92.7172 67.189 92.656 67.449 92.656 67.719H92.6662Z" fill="#00ADEE"/>
<path d="M105.037 63.259C105.658 63.259 106.26 63.409 106.82 63.669C107.391 63.929 107.89 64.279 108.318 64.719C108.746 65.149 109.082 65.649 109.337 66.209C109.592 66.769 109.714 67.349 109.704 67.969C109.704 68.299 109.572 68.559 109.317 68.749C109.062 68.939 108.746 69.019 108.369 68.999L103.182 68.919C103.6 69.649 104.181 70.029 104.935 70.039C105.139 70.039 105.322 70.029 105.465 69.989C105.607 69.949 105.74 69.909 105.852 69.859C105.964 69.809 106.076 69.769 106.188 69.729C106.3 69.689 106.423 69.679 106.565 69.679C106.84 69.699 107.075 69.779 107.279 69.919C107.482 70.059 107.625 70.239 107.717 70.449C107.809 70.659 107.839 70.889 107.809 71.129C107.768 71.369 107.656 71.589 107.452 71.789C107.095 72.069 106.708 72.249 106.27 72.359C105.832 72.469 105.383 72.519 104.904 72.519C104.283 72.539 103.681 72.419 103.121 72.159C102.55 71.899 102.051 71.559 101.623 71.119C101.195 70.689 100.859 70.179 100.614 69.599C100.37 69.019 100.247 68.429 100.257 67.819C100.257 67.219 100.4 66.639 100.665 66.079C100.93 65.519 101.276 65.029 101.715 64.609C102.153 64.189 102.652 63.859 103.233 63.609C103.804 63.359 104.415 63.239 105.047 63.249L105.037 63.259ZM106.759 66.849C106.545 66.449 106.29 66.169 105.995 66.009C105.699 65.849 105.373 65.759 105.006 65.759C104.629 65.759 104.293 65.829 103.997 65.979C103.702 66.129 103.447 66.409 103.213 66.799L106.759 66.849Z" fill="#00ADEE"/>
<path d="M112.079 63.4189C112.415 63.4189 112.7 63.549 112.924 63.799C113.149 64.049 113.271 64.339 113.291 64.689L113.189 71.459C113.189 71.799 113.067 72.0889 112.843 72.3189C112.619 72.5489 112.313 72.669 111.936 72.689C111.6 72.689 111.314 72.579 111.08 72.369C110.846 72.159 110.713 71.869 110.662 71.499L110.764 64.5689C110.795 64.2389 110.937 63.969 111.182 63.749C111.437 63.539 111.722 63.4289 112.068 63.4189H112.079ZM112.119 60.499C112.456 60.499 112.741 60.6289 112.986 60.8889C113.22 61.1389 113.332 61.429 113.332 61.769C113.332 62.099 113.2 62.3889 112.955 62.6389C112.71 62.8889 112.415 63.009 112.079 62.999C111.702 62.979 111.396 62.8589 111.161 62.6289C110.927 62.3989 110.805 62.089 110.815 61.679C110.835 61.349 110.968 61.069 111.223 60.839C111.477 60.609 111.773 60.4989 112.119 60.5089V60.499Z" fill="#00ADEE"/>
<path d="M119.273 63.4189C119.895 63.4189 120.496 63.549 121.057 63.779C121.627 64.009 122.117 64.329 122.545 64.739C122.973 65.149 123.309 65.629 123.553 66.179C123.808 66.729 123.93 67.329 123.92 67.959L123.869 71.499C123.869 71.829 123.737 72.1189 123.492 72.3589C123.248 72.5989 122.952 72.7189 122.595 72.7289C122.249 72.7289 121.943 72.6089 121.699 72.3789C121.444 72.1489 121.322 71.8689 121.332 71.5189L121.383 68.0789C121.383 67.7889 121.332 67.509 121.23 67.249C121.128 66.989 120.975 66.759 120.771 66.559C120.578 66.369 120.343 66.209 120.078 66.089C119.813 65.969 119.528 65.909 119.212 65.899C118.927 65.899 118.652 65.9489 118.387 66.0489C118.122 66.1489 117.898 66.289 117.694 66.469C117.5 66.649 117.337 66.8589 117.215 67.1089C117.093 67.3589 117.031 67.6289 117.031 67.9089L116.981 71.3889C116.981 71.7189 116.838 72.009 116.573 72.249C116.308 72.499 116.012 72.6089 115.666 72.6089C115.33 72.6089 115.034 72.489 114.769 72.249C114.514 72.019 114.382 71.729 114.392 71.399L114.443 67.959C114.463 67.319 114.606 66.7189 114.851 66.1689C115.105 65.6089 115.442 65.129 115.87 64.709C116.298 64.299 116.797 63.969 117.378 63.739C117.949 63.509 118.58 63.389 119.253 63.399L119.273 63.4189Z" fill="#00ADEE"/>
<path d="M130.146 76.379H129.525C129.199 76.389 128.913 76.519 128.659 76.759C128.394 76.999 128.088 77.119 127.721 77.109C127.364 77.109 127.059 76.969 126.804 76.709C126.559 76.479 126.427 76.199 126.417 75.869C126.406 75.539 126.508 75.259 126.733 75.019C127.13 74.539 127.711 74.199 128.465 73.989C128.801 73.889 129.168 73.839 129.555 73.829L131.002 73.849C131.196 73.829 131.349 73.749 131.471 73.609C131.767 73.189 131.869 72.809 131.777 72.449V72.429C131.512 72.569 131.216 72.679 130.88 72.759C130.544 72.839 130.106 72.879 129.565 72.869C128.873 72.859 128.241 72.739 127.67 72.499C127.099 72.259 126.6 71.939 126.192 71.519C125.785 71.109 125.469 70.609 125.245 70.039C125.021 69.469 124.908 68.849 124.919 68.169C124.919 67.549 125.071 66.949 125.336 66.399C125.601 65.839 125.958 65.359 126.406 64.939C126.845 64.529 127.354 64.199 127.925 63.959C128.495 63.719 129.087 63.599 129.718 63.609C130.371 63.609 130.982 63.749 131.542 63.999C132.113 64.249 132.602 64.589 133.03 65.019C133.458 65.449 133.784 65.939 134.009 66.509C134.243 67.079 134.355 67.679 134.345 68.309C134.335 69.179 134.131 69.939 133.744 70.599C134.11 71.099 134.294 71.919 134.273 73.039C134.273 73.409 134.192 73.809 134.009 74.249C133.825 74.689 133.591 75.059 133.285 75.359C132.989 75.659 132.633 75.899 132.225 76.079C131.818 76.259 131.379 76.359 130.921 76.379H130.258L130.146 76.369V76.379ZM129.678 66.109C129.392 66.109 129.117 66.159 128.852 66.279C128.587 66.399 128.353 66.549 128.149 66.749C127.945 66.939 127.782 67.169 127.65 67.419C127.527 67.669 127.456 67.939 127.456 68.219C127.456 68.499 127.507 68.769 127.609 69.039C127.711 69.299 127.864 69.539 128.057 69.739C128.251 69.939 128.475 70.099 128.74 70.229C129.005 70.349 129.29 70.419 129.606 70.419C129.922 70.419 130.207 70.369 130.483 70.259C130.758 70.149 130.992 69.989 131.186 69.789C131.379 69.589 131.542 69.359 131.655 69.109C131.767 68.859 131.828 68.579 131.828 68.289C131.828 67.999 131.777 67.719 131.655 67.449C131.532 67.189 131.379 66.959 131.176 66.759C130.982 66.569 130.748 66.409 130.483 66.289C130.218 66.169 129.943 66.109 129.657 66.109H129.678Z" fill="#00ADEE"/>
<path d="M144.535 73.049C143.863 73.039 143.231 72.909 142.671 72.659C142.1 72.409 141.611 72.069 141.193 71.639C140.775 71.209 140.449 70.719 140.225 70.149C139.99 69.589 139.878 68.979 139.868 68.349L139.96 61.999C139.96 61.669 140.103 61.389 140.357 61.159C140.622 60.929 140.918 60.819 141.264 60.829C141.601 60.829 141.896 60.959 142.151 61.219C142.406 61.469 142.538 61.759 142.528 62.099L142.436 68.489C142.436 68.769 142.487 69.039 142.599 69.299C142.711 69.559 142.864 69.779 143.058 69.959C143.251 70.139 143.476 70.289 143.73 70.399C143.985 70.509 144.26 70.569 144.546 70.569C144.861 70.569 145.147 70.519 145.412 70.409C145.677 70.299 145.921 70.149 146.125 69.959C146.329 69.769 146.492 69.549 146.604 69.289C146.716 69.029 146.777 68.749 146.777 68.459L146.869 62.109C146.869 61.769 147.002 61.479 147.266 61.259C147.521 61.039 147.827 60.929 148.173 60.939C148.52 60.959 148.815 61.089 149.06 61.339C149.294 61.589 149.406 61.869 149.406 62.209L149.305 68.659C149.305 69.299 149.152 69.889 148.887 70.429C148.622 70.969 148.265 71.439 147.827 71.839C147.389 72.239 146.889 72.539 146.309 72.759C145.728 72.969 145.137 73.079 144.515 73.069L144.535 73.049Z" fill="#00ADEE"/>
<path d="M155.297 63.9389C155.918 63.9389 156.52 64.0689 157.08 64.2989C157.651 64.5289 158.14 64.8489 158.568 65.2589C158.996 65.6689 159.332 66.1489 159.577 66.6989C159.832 67.2489 159.954 67.8489 159.944 68.4789L159.893 72.0189C159.893 72.3489 159.76 72.6389 159.516 72.8789C159.271 73.1189 158.976 73.2389 158.619 73.2489C158.272 73.2489 157.967 73.1289 157.722 72.8989C157.467 72.6689 157.345 72.3889 157.355 72.0389L157.406 68.5989C157.406 68.3089 157.355 68.0289 157.253 67.7689C157.151 67.5089 156.999 67.2789 156.795 67.0789C156.601 66.8889 156.367 66.7289 156.102 66.6089C155.837 66.4889 155.552 66.4289 155.236 66.4189C154.95 66.4189 154.675 66.4689 154.41 66.5689C154.145 66.6689 153.921 66.8089 153.717 66.9889C153.524 67.1689 153.361 67.3789 153.238 67.6289C153.116 67.8789 153.055 68.1489 153.055 68.4289L153.004 71.9089C153.004 72.2389 152.861 72.5289 152.596 72.7689C152.331 73.0189 152.036 73.1289 151.689 73.1289C151.353 73.1289 151.058 73.0089 150.793 72.7689C150.538 72.5389 150.405 72.2489 150.416 71.9189L150.467 68.4789C150.487 67.8389 150.63 67.2389 150.874 66.6889C151.129 66.1289 151.465 65.6489 151.893 65.2289C152.321 64.8089 152.821 64.4889 153.401 64.2589C153.972 64.0289 154.604 63.9089 155.276 63.9189L155.297 63.9389Z" fill="#00ADEE"/>
<path d="M162.532 64.1589C162.868 64.1589 163.153 64.2889 163.378 64.5389C163.602 64.7889 163.724 65.079 163.744 65.429L163.642 72.1989C163.642 72.5389 163.52 72.829 163.296 73.059C163.072 73.289 162.766 73.409 162.389 73.429C162.053 73.429 161.767 73.3189 161.533 73.1089C161.299 72.8989 161.166 72.609 161.115 72.239L161.217 65.309C161.248 64.979 161.39 64.709 161.635 64.489C161.89 64.279 162.175 64.1689 162.522 64.1589H162.532ZM162.572 61.2289C162.909 61.2289 163.194 61.359 163.439 61.619C163.673 61.869 163.795 62.159 163.785 62.499C163.785 62.829 163.653 63.119 163.408 63.369C163.164 63.619 162.868 63.7389 162.532 63.7289C162.155 63.7089 161.849 63.5889 161.615 63.3589C161.38 63.1289 161.258 62.8189 161.268 62.4089C161.288 62.0789 161.421 61.7989 161.676 61.5689C161.93 61.3389 162.226 61.229 162.572 61.239V61.2289Z" fill="#00ADEE"/>
<path d="M169.36 64.1789C169.991 64.1789 170.603 64.3189 171.173 64.5789C171.744 64.8389 172.243 65.1789 172.671 65.6089C173.099 66.0389 173.426 66.5289 173.67 67.0989C173.915 67.6589 174.037 68.2589 174.027 68.8789L173.935 75.2889C173.915 75.6189 173.782 75.8989 173.517 76.1189C173.262 76.3389 172.967 76.4489 172.641 76.4389C172.274 76.4389 171.968 76.3089 171.734 76.0589C171.489 75.8089 171.367 75.5289 171.377 75.1889L171.408 72.9889C170.756 73.2989 170.022 73.4489 169.217 73.4389C168.554 73.4389 167.933 73.2989 167.362 73.0489C166.792 72.7989 166.292 72.4589 165.874 72.0289C165.457 71.5989 165.13 71.1089 164.906 70.5389C164.672 69.9789 164.56 69.3689 164.57 68.7389C164.57 68.0989 164.713 67.5089 164.967 66.9489C165.222 66.3889 165.569 65.9089 166.007 65.4889C166.445 65.0789 166.944 64.7489 167.525 64.5189C168.106 64.2889 168.718 64.1689 169.36 64.1789ZM171.469 68.8489C171.469 68.5589 171.418 68.2789 171.316 68.0189C171.214 67.7589 171.061 67.5389 170.868 67.3389C170.674 67.1389 170.45 66.9889 170.185 66.8689C169.92 66.7489 169.635 66.6889 169.319 66.6889C169.023 66.6889 168.738 66.7389 168.473 66.8389C168.208 66.9389 167.984 67.0889 167.78 67.2789C167.586 67.4689 167.423 67.6889 167.301 67.9489C167.179 68.2089 167.118 68.4889 167.118 68.7789C167.118 69.0689 167.169 69.3489 167.27 69.6089C167.372 69.8689 167.525 70.1089 167.719 70.3089C167.912 70.5089 168.137 70.6689 168.391 70.7889C168.646 70.9089 168.931 70.9689 169.247 70.9689C169.533 70.9689 169.808 70.9189 170.083 70.8189C170.358 70.7189 170.593 70.5689 170.796 70.3789C171 70.1889 171.163 69.9689 171.285 69.7089C171.408 69.4489 171.469 69.1589 171.479 68.8389L171.469 68.8489Z" fill="#00ADEE"/>
<path d="M176.534 64.2889C176.87 64.2889 177.165 64.419 177.42 64.679C177.675 64.929 177.807 65.239 177.797 65.589L177.746 68.959C177.746 69.249 177.797 69.5289 177.909 69.7889C178.021 70.0489 178.174 70.2789 178.368 70.4789C178.562 70.6789 178.786 70.8289 179.051 70.9489C179.316 71.0689 179.601 71.1289 179.897 71.1389C180.182 71.1389 180.457 71.099 180.712 70.999C180.977 70.899 181.211 70.769 181.415 70.589C181.619 70.409 181.782 70.1989 181.904 69.9489C182.026 69.6989 182.087 69.4189 182.087 69.1289L182.138 65.649C182.138 65.329 182.271 65.0489 182.526 64.7889C182.78 64.5389 183.076 64.409 183.433 64.399C183.779 64.399 184.085 64.5289 184.329 64.7889C184.584 65.0389 184.706 65.3189 184.717 65.6289L184.666 69.0689C184.666 69.7089 184.523 70.3089 184.268 70.8589C184.013 71.4189 183.667 71.8989 183.229 72.3189C182.791 72.7289 182.291 73.0589 181.71 73.2889C181.14 73.5189 180.518 73.6389 179.856 73.6289C179.234 73.6489 178.633 73.5289 178.062 73.2889C177.492 73.0489 176.992 72.7089 176.564 72.2889C176.136 71.8689 175.8 71.3789 175.545 70.8189C175.29 70.2589 175.168 69.679 175.178 69.059L175.229 65.5389C175.229 65.2089 175.362 64.9189 175.606 64.6689C175.851 64.4189 176.157 64.2989 176.513 64.2889H176.534Z" fill="#00ADEE"/>
<path d="M190.495 64.509C191.116 64.509 191.718 64.659 192.278 64.919C192.849 65.179 193.348 65.529 193.776 65.969C194.204 66.399 194.54 66.899 194.795 67.459C195.05 68.019 195.172 68.599 195.162 69.219C195.162 69.549 195.03 69.809 194.775 69.999C194.52 70.189 194.204 70.269 193.827 70.249L188.64 70.169C189.058 70.899 189.649 71.279 190.403 71.289C190.607 71.289 190.79 71.279 190.933 71.239C191.076 71.199 191.208 71.159 191.32 71.109C191.432 71.059 191.544 71.019 191.656 70.979C191.769 70.939 191.891 70.929 192.034 70.929C192.309 70.949 192.543 71.029 192.747 71.169C192.951 71.309 193.093 71.489 193.185 71.699C193.277 71.909 193.307 72.139 193.277 72.379C193.236 72.619 193.124 72.839 192.92 73.039C192.563 73.319 192.176 73.499 191.738 73.609C191.3 73.719 190.851 73.769 190.372 73.769C189.751 73.789 189.15 73.669 188.579 73.409C188.008 73.149 187.509 72.809 187.081 72.369C186.653 71.939 186.317 71.429 186.072 70.849C185.828 70.269 185.705 69.679 185.715 69.069C185.715 68.469 185.858 67.889 186.123 67.329C186.388 66.769 186.735 66.279 187.173 65.859C187.611 65.439 188.11 65.109 188.691 64.859C189.262 64.609 189.873 64.489 190.515 64.499L190.495 64.509ZM192.207 68.099C191.993 67.699 191.738 67.419 191.442 67.259C191.147 67.099 190.821 67.009 190.454 67.009C190.077 67.009 189.741 67.079 189.445 67.229C189.15 67.379 188.895 67.659 188.66 68.049L192.207 68.099Z" fill="#00ADEE"/>
</svg>
