<svg width="193" height="76" viewBox="0 0 193 76" fill="none" xmlns="http://www.w3.org/2000/svg">
<path d="M27.9296 21.21L30.7696 21.36C30.8196 18.82 31.6696 16.83 33.3096 15.41C34.9596 13.99 37.2296 13.28 40.1196 13.28C42.4596 13.28 44.4196 13.88 45.9896 15.08C47.5596 16.28 48.3496 17.8 48.3496 19.64C48.3496 20.89 47.9396 21.94 47.1196 22.78C46.2996 23.63 45.2596 24.05 44.0096 24.05C42.6096 24.05 41.5896 23.53 40.9396 22.48L40.1896 21.28C39.9896 20.93 39.6696 20.76 39.2196 20.76C38.1696 20.76 37.6496 21.48 37.6496 22.93C37.6496 23.28 37.6696 23.53 37.7296 23.68C42.5196 25.38 44.9096 28.77 44.9096 33.86C44.9096 37.7 43.4196 40.79 40.4596 43.14C37.4896 45.49 33.5896 46.66 28.7496 46.66C26.1596 46.66 23.4896 46.09 20.7396 44.94L20.3696 44.79C19.6196 45.39 19.2496 46.04 19.2496 46.74C19.2496 48.44 20.4496 49.48 22.8396 49.88C23.6396 50.03 25.4596 50.1 28.2996 50.1H29.1196L33.9096 50.03C38.6996 49.98 42.3896 50.9 44.9796 52.8C47.5696 54.7 48.8696 57.39 48.8696 60.88C48.8696 65.32 46.9196 68.82 43.0296 71.39C39.1396 73.96 33.8496 75.24 27.1696 75.24C21.1796 75.24 16.3796 74.13 12.7696 71.91C9.14962 69.69 7.34961 66.73 7.34961 63.04C7.34961 59.05 9.86962 56.28 14.9096 54.73C10.9196 53.93 8.91962 51.66 8.91962 47.92C8.91962 45.97 9.35961 44.44 10.2296 43.32C11.0996 42.2 12.6596 41.14 14.9096 40.14C13.1096 38.15 12.2196 35.95 12.2196 33.56C12.2196 30.07 13.7296 27.14 16.7496 24.77C19.7696 22.4 23.4996 21.22 27.9396 21.22L27.9296 21.21ZM27.0396 58.85C25.8396 58.85 24.3496 58.75 22.5496 58.55C20.2996 59.45 19.1796 60.6 19.1796 61.99C19.1796 64.63 22.1196 65.96 28.0096 65.96C33.8996 65.96 36.9196 64.64 36.9196 61.99C36.9196 59.85 34.9696 58.77 31.0796 58.77C30.9296 58.77 30.2596 58.8 29.0596 58.84H27.0396V58.85ZM28.5296 29.07C27.1296 29.07 25.9696 29.53 25.0496 30.45C24.1296 31.37 23.6696 32.53 23.6696 33.93C23.6696 35.33 24.1296 36.5 25.0496 37.45C25.9696 38.4 27.1296 38.87 28.5296 38.87C29.9296 38.87 31.0896 38.4 32.0096 37.45C32.9296 36.5 33.3896 35.35 33.3896 34.01C33.3896 32.67 32.9296 31.44 32.0096 30.49C31.0896 29.54 29.9296 29.07 28.5296 29.07Z" fill="#22B971"/>
<path d="M76.2699 4.31C76.4199 4.31 76.5799 4.29999 76.7599 4.26999C76.9299 4.24999 77.1499 4.23 77.3999 4.23C77.7499 4.23 78.0199 4.25999 78.2199 4.29999C78.4699 4.24999 78.7299 4.19999 79.0099 4.14999C79.2799 4.09999 79.5699 4.06999 79.8699 4.06999C80.1699 4.06999 80.4799 4.16 80.8099 4.33C81.1299 4.51 81.4199 4.72 81.6699 4.97C81.9699 5.22 82.2699 5.48999 82.5699 5.78999C82.6699 6.53999 82.8799 7.19999 83.2099 7.76999C83.5299 8.33999 83.7199 9.03 83.7699 9.83C83.9699 9.98 84.0899 10.19 84.1499 10.47C84.1999 10.74 84.2499 11.01 84.2999 11.26C84.3499 11.51 84.4099 11.76 84.4899 12.01C84.5699 12.26 84.7299 12.46 84.9799 12.61C84.9299 12.76 84.9099 12.96 84.9099 13.21C84.9099 13.71 85.0699 14.07 85.3999 14.29C85.7199 14.51 85.8899 14.9 85.8899 15.45C85.8899 15.55 85.8799 15.63 85.8499 15.67C85.8199 15.72 85.8099 15.79 85.8099 15.89C86.0099 15.99 86.1599 16.19 86.2599 16.49C86.3599 16.79 86.4299 17.09 86.4799 17.39C86.5299 17.69 86.5799 17.96 86.6299 18.21C86.6799 18.46 86.7999 18.58 86.9999 18.58C86.9499 18.68 86.9299 18.83 86.9299 19.03C86.9299 19.43 87.0499 19.74 87.2999 19.97C87.5499 20.19 87.6699 20.48 87.6699 20.83C87.9699 21.28 88.1299 21.82 88.1599 22.44C88.1799 23.06 88.3999 23.52 88.7999 23.82C88.9499 24.97 89.2699 25.92 89.7699 26.66V26.88C89.7699 26.98 89.7599 27.07 89.7299 27.14C89.6999 27.21 89.6899 27.3 89.6899 27.4C89.6899 27.65 89.8299 27.96 90.0999 28.34C90.3699 28.71 90.5099 29.18 90.5099 29.72V30.02C90.7099 30.12 90.8499 30.32 90.9199 30.62C90.9899 30.92 91.0299 31.02 91.0299 30.92C91.0299 31.42 91.1699 31.79 91.4399 32.04C91.7099 32.29 91.8499 32.66 91.8499 33.16C91.8499 33.36 91.8199 33.53 91.7699 33.68C91.8699 33.98 92.0199 34.24 92.2199 34.47C92.4199 34.69 92.5199 35.01 92.5199 35.41V35.63C92.6199 36.13 92.8299 36.53 93.1599 36.83C93.4799 37.13 93.6499 37.55 93.6499 38.1C93.6499 38.2 93.6399 38.29 93.6099 38.36C93.5799 38.43 93.5699 38.52 93.5699 38.62C94.1199 39.27 94.4799 40.12 94.6499 41.16C94.8199 42.21 95.1899 43.08 95.7299 43.78C95.8299 44.23 95.9299 44.77 96.0299 45.39C96.1299 46.01 96.3799 46.5 96.7799 46.85C96.9299 47.1 97.0199 47.36 97.0399 47.64C97.0599 47.91 97.0999 48.2 97.1499 48.5C97.2499 48.9 97.4099 49.25 97.6399 49.55C97.8699 49.85 97.9799 50.22 97.9799 50.67C97.9799 51.07 98.0899 51.38 98.3199 51.61C98.5499 51.84 98.6599 52.17 98.6599 52.62C98.4099 52.77 98.2199 52.96 98.0999 53.18C97.9799 53.4 97.8399 53.63 97.6899 53.85C97.5399 54.07 97.3599 54.26 97.1699 54.41C96.9699 54.56 96.7199 54.63 96.4199 54.63C96.2699 54.63 96.0499 54.58 95.7499 54.48V54.55H95.0799C94.3799 54.55 93.7099 54.52 93.0599 54.48C92.4099 54.43 91.7399 54.41 91.0399 54.41C90.5399 54.41 90.0799 54.45 89.6599 54.52C89.2399 54.59 88.7999 54.63 88.3499 54.63C87.3499 54.63 86.4199 54.5 85.5399 54.26C84.6699 54.01 84.0299 53.51 83.6299 52.76C83.7299 52.36 83.7799 52.11 83.7799 52.01C83.7799 51.46 83.6399 51.04 83.3699 50.74C83.0999 50.44 82.9599 50.04 82.9599 49.54C82.9599 49.19 82.9799 48.94 83.0299 48.79C83.0299 48.44 82.9099 48.19 82.6599 48.04C82.4099 47.89 82.2899 47.62 82.2899 47.22V46.77C82.2899 46.12 82.0799 45.74 81.6499 45.61C81.2299 45.49 80.8099 45.42 80.4099 45.42H79.4399C79.1399 45.47 78.8399 45.49 78.5399 45.49H77.5699C76.5699 45.49 75.6499 45.45 74.7999 45.38C73.9499 45.31 73.0799 45.27 72.1799 45.27C71.9799 45.37 71.7399 45.47 71.4699 45.57C71.1899 45.67 70.8599 45.72 70.4599 45.72C69.9599 45.72 69.4699 45.7 68.9999 45.64C68.5299 45.59 68.0099 45.57 67.4699 45.57C67.0699 45.57 66.6999 45.58 66.3499 45.61C65.9999 45.64 65.6299 45.65 65.2299 45.65C64.8799 45.65 64.6099 45.79 64.4099 46.06C64.2099 46.33 64.0599 46.63 63.9599 46.96C63.8599 47.29 63.7599 47.72 63.6599 48.27C63.5099 48.72 63.4099 49.26 63.3599 49.88C63.3099 50.5 63.1099 50.94 62.7599 51.19C62.6599 51.54 62.5999 51.91 62.5699 52.31C62.5399 52.71 62.4299 53.03 62.2299 53.28C61.8799 53.58 61.5099 53.88 61.1099 54.18C60.7099 54.48 60.3599 54.63 60.0599 54.63C59.4099 54.63 58.7999 54.58 58.2299 54.48C57.6599 54.38 57.2899 54.33 57.1499 54.33C56.6999 54.33 56.3299 54.43 56.0299 54.63C55.7299 54.83 55.3599 54.93 54.9099 54.93C54.4099 54.93 53.9399 54.89 53.4899 54.82C53.0399 54.74 52.5399 54.71 51.9899 54.71C51.7399 54.71 51.4699 54.72 51.1699 54.75C50.8699 54.77 50.5699 54.79 50.2699 54.79C49.5699 54.79 48.9199 54.63 48.3199 54.3C47.7199 53.97 47.4199 53.49 47.4199 52.84C47.4199 52.14 47.5199 51.62 47.7199 51.27C47.9199 50.92 48.0199 50.52 48.0199 50.07C48.0199 49.67 48.1199 49.37 48.3199 49.17C48.5199 48.97 48.6199 48.67 48.6199 48.27V48.05C48.7199 47.75 48.8899 47.49 49.1399 47.26C49.3899 47.04 49.5099 46.72 49.5099 46.32V46.02C49.8099 44.97 50.0799 44.2 50.3299 43.7C50.5799 43.2 50.7899 42.81 50.9699 42.54C51.1399 42.27 51.2699 42.05 51.3399 41.9C51.4199 41.75 51.4499 41.5 51.4499 41.15V40.78C51.4499 40.43 51.5699 40.16 51.8299 39.96C52.0799 39.76 52.1999 39.49 52.1999 39.14C52.1999 38.89 52.1499 38.72 52.0499 38.62C52.0999 38.62 52.1899 38.5 52.3099 38.25C52.4299 38 52.5599 37.73 52.6799 37.43C52.7999 37.13 52.9199 36.88 53.0199 36.68C53.1199 36.48 53.1699 36.43 53.1699 36.53C53.2699 36.28 53.3399 36.01 53.3899 35.71C53.4399 35.41 53.5099 35.11 53.6099 34.81C53.8099 34.16 54.0299 33.54 54.2799 32.94C54.5299 32.34 54.7299 31.74 54.8799 31.14C55.1299 30.89 55.2499 30.54 55.2499 30.09C55.2499 29.64 55.3699 29.29 55.6199 29.04C55.7199 28.79 55.8099 28.55 55.8799 28.33C55.9499 28.11 56.0399 27.87 56.1399 27.62C56.3899 27.22 56.5499 26.79 56.6299 26.31C56.6999 25.84 56.9199 25.4 57.2699 25V24.78C57.2699 24.23 57.4099 23.77 57.6799 23.4C57.9499 23.03 58.1199 22.57 58.1699 22.02C58.3699 21.87 58.5099 21.66 58.5799 21.38C58.6599 21.11 58.7199 20.82 58.7699 20.52C58.8199 20.22 58.8799 19.93 58.9599 19.66C59.0399 19.39 59.1499 19.15 59.2999 18.95C59.3999 18.8 59.4699 18.45 59.5199 17.9C59.5699 17.35 59.7399 16.98 60.0399 16.78C60.3899 16.33 60.5799 15.81 60.5999 15.21C60.6199 14.61 60.8099 14.11 61.1599 13.71C61.2599 13.51 61.2999 13.29 61.2699 13.04C61.2399 12.79 61.2799 12.59 61.3799 12.44C61.4799 12.09 61.6399 11.78 61.8699 11.5C62.0899 11.23 62.2099 10.89 62.2099 10.49C62.4099 10.14 62.4999 9.77 62.4699 9.37C62.4399 8.97 62.5599 8.64999 62.8099 8.39999C63.2599 7.94999 63.4799 7.37999 63.4799 6.67999V6.23C63.6299 5.83 63.8799 5.53 64.2299 5.33C64.5799 5.13 64.8299 4.85999 64.9799 4.50999C65.5299 4.25999 66.0299 4.11 66.4799 4.06C66.9299 4.01 67.3999 3.98999 67.8999 3.98999C69.0499 3.98999 70.1599 4.04999 71.2299 4.17999C72.2999 4.30999 73.4099 4.37 74.5599 4.37H75.3799C75.6799 4.37 75.9799 4.34999 76.2799 4.29999L76.2699 4.31ZM55.2499 42.25V42.18C55.2499 42.18 55.2199 42.1 55.1799 42.1C55.0799 42.1 55.0199 42.11 54.9899 42.14C54.9599 42.17 54.9299 42.18 54.8799 42.18H54.8099C54.8099 42.23 54.8599 42.25 54.9599 42.25H55.2599H55.2499ZM57.1199 46.74C56.9699 46.64 56.8199 46.53 56.6699 46.4C56.5199 46.28 56.3199 46.21 56.0699 46.21C55.9199 46.21 55.8499 46.26 55.8499 46.36C55.8499 46.61 55.9499 46.78 56.1499 46.88C56.3499 46.98 56.4999 47.03 56.5999 47.03C56.8999 47.03 57.0699 46.93 57.1199 46.73V46.74ZM59.2899 39.26C59.1899 39.26 59.0799 39.25 58.9499 39.22C58.8299 39.2 58.7099 39.18 58.6099 39.18C58.4099 39.18 58.3099 39.23 58.3099 39.33C58.3099 39.48 58.4199 39.62 58.6499 39.74C58.8699 39.86 59.1499 39.98 59.4699 40.08C59.7899 40.18 60.1199 40.26 60.4399 40.3C60.7599 40.35 61.0299 40.38 61.2299 40.38C61.4299 40.38 61.6399 40.29 61.8699 40.12C62.0899 39.95 62.2099 39.73 62.2099 39.48C62.2099 39.38 62.1599 39.34 62.0599 39.37C61.9599 39.4 61.8599 39.36 61.7599 39.26C61.5599 39.31 61.3699 39.35 61.1999 39.37C61.0199 39.4 60.8099 39.41 60.5599 39.41C60.1099 39.41 59.6899 39.36 59.2899 39.26ZM61.3799 43.37C61.3799 43.22 61.2799 43.15 61.0799 43.15H60.7099C60.7099 43.25 60.6599 43.27 60.5599 43.22C60.4599 43.17 60.4099 43.2 60.4099 43.29C60.4099 43.34 60.4399 43.39 60.4899 43.44C60.4399 43.49 60.3899 43.51 60.3399 43.51C60.3399 43.61 60.3899 43.66 60.4899 43.66L60.4099 43.81C60.4099 43.91 60.4599 43.96 60.5599 43.96C60.6599 43.96 60.8199 43.92 61.0499 43.85C61.2799 43.78 61.3899 43.61 61.3899 43.36L61.3799 43.37ZM64.5999 36.86C64.3499 36.61 64.0499 36.49 63.6999 36.49C63.4499 36.49 63.1799 36.54 62.8799 36.64C62.5799 36.74 62.3099 36.82 62.0599 36.86C62.0599 37.01 62.1999 37.15 62.4699 37.27C62.7399 37.39 63.0499 37.46 63.3999 37.46C63.6999 37.46 63.9699 37.44 64.2199 37.39C64.4699 37.34 64.5899 37.22 64.5899 37.02V36.87L64.5999 36.86ZM62.3599 45.92V45.85H62.2799L62.1999 45.92C62.1999 45.97 62.2299 45.99 62.2799 45.99L62.3599 45.92ZM64.1499 32.22C64.0999 32.12 63.9999 32.08 63.8499 32.11C63.6999 32.14 63.5799 32.1 63.4799 32C63.3799 32.05 63.2399 32.07 63.0699 32.07C62.8999 32.07 62.7599 32.17 62.6599 32.37C62.8599 32.57 63.2099 32.67 63.7099 32.67C63.9099 32.67 64.1199 32.66 64.3499 32.63C64.5699 32.61 64.7599 32.59 64.9099 32.59C64.6599 32.44 64.4099 32.32 64.1599 32.22H64.1499ZM63.7799 43.45C63.6799 43.45 63.6299 43.43 63.6299 43.38C63.6299 43.33 63.5799 43.3 63.4799 43.3H63.3299V43.15H62.8799C62.7799 43.15 62.6999 43.22 62.6599 43.37C62.7599 43.42 62.8299 43.46 62.8799 43.48C62.9299 43.51 62.9999 43.57 63.0999 43.67H63.5499C63.6999 43.67 63.7699 43.62 63.7699 43.52V43.45H63.7799ZM67.2199 21.75C67.0199 21.65 66.8699 21.6 66.7699 21.6C66.6199 21.6 66.4899 21.65 66.3899 21.75C66.4399 21.9 66.5899 21.97 66.8399 21.97H67.4399V21.9L67.3699 21.75H67.2199ZM67.2899 29.01V28.79C67.2899 28.79 67.2399 28.72 67.1399 28.72H66.6199C66.6199 28.82 66.5799 28.88 66.5099 28.91C66.4399 28.94 66.3999 29 66.3999 29.1C66.3999 29.25 66.4999 29.32 66.6999 29.32C66.7999 29.32 66.8999 29.28 66.9999 29.21C67.0999 29.14 67.1999 29.07 67.2999 29.02L67.2899 29.01ZM67.7399 19.2C67.6399 19.05 67.5299 18.96 67.3999 18.94C67.2799 18.92 67.1099 18.85 66.9099 18.75C66.8099 18.85 66.7099 18.9 66.6099 18.9C66.5099 18.9 66.4599 18.95 66.4599 19.05C66.4599 19.3 66.5399 19.44 66.6799 19.46C66.8299 19.49 67.0299 19.55 67.2799 19.65C67.3799 19.55 67.4799 19.49 67.5799 19.46C67.6799 19.44 67.7299 19.37 67.7299 19.27V19.2H67.7399ZM67.4399 31.78V31.56C67.4399 31.46 67.3399 31.41 67.1399 31.41H66.7699C66.7199 31.46 66.6599 31.51 66.5799 31.56C66.4999 31.61 66.4699 31.68 66.4699 31.78L66.6199 31.93C66.9699 31.93 67.2399 31.88 67.4399 31.78ZM68.1199 37.99C68.1199 37.79 68.0199 37.69 67.8199 37.69C67.8699 37.69 67.8199 37.7 67.6699 37.73C67.5199 37.76 67.4499 37.82 67.4499 37.92C67.4499 37.97 67.4599 38.01 67.4899 38.03C67.5199 38.06 67.5299 38.09 67.5299 38.14C67.6299 38.14 67.6999 38.15 67.7499 38.18C67.7999 38.21 67.8699 38.22 67.9699 38.22C68.0699 38.22 68.1099 38.21 68.0799 38.18C68.0499 38.16 68.0699 38.09 68.1199 37.99ZM73.9499 18.53C73.8499 18.43 73.6999 18.38 73.4999 18.38C72.8999 18.38 72.5299 18.54 72.3799 18.87C72.2299 19.2 72.1099 19.51 72.0099 19.81V19.96C72.0099 20.11 71.9799 20.23 71.9399 20.33C71.8899 20.43 71.8399 20.53 71.7899 20.63C71.7899 21.23 71.6399 21.67 71.3399 21.94C71.0399 22.21 70.8899 22.63 70.8899 23.17C70.8899 23.32 70.8999 23.47 70.9299 23.62C70.9499 23.77 70.9699 23.92 70.9699 24.07C70.8699 24.32 70.7599 24.54 70.6299 24.74C70.5099 24.94 70.3899 25.16 70.2899 25.41V25.78C70.2899 26.28 70.1899 26.68 69.9899 26.98C69.7899 27.28 69.6199 27.63 69.4699 28.03V28.33C69.4699 28.83 69.3699 29.25 69.1699 29.6C68.9699 29.95 68.8199 30.32 68.7199 30.72C68.6199 30.92 68.5299 31.17 68.4599 31.47C68.3799 31.77 68.2999 32.07 68.1999 32.37C68.0999 32.72 68.0299 33.07 67.9799 33.42C67.9799 33.72 68.1199 33.97 68.3899 34.17C68.6599 34.37 68.8499 34.57 68.9499 34.77H70.2199C71.0699 34.77 71.8699 34.84 72.6099 34.99C73.3599 35.14 74.1599 35.21 74.9999 35.21H75.7499C75.9999 35.21 76.2499 35.16 76.4999 35.06C76.6499 34.91 76.8399 34.81 77.0599 34.76C77.2799 34.71 77.5099 34.67 77.7299 34.65C77.9499 34.63 78.1499 34.56 78.3299 34.46C78.4999 34.36 78.5899 34.19 78.5899 33.94C78.5899 33.69 78.5199 33.28 78.3699 32.71C78.2199 32.14 78.0299 31.53 77.8099 30.88C77.5899 30.23 77.3699 29.62 77.1699 29.05C76.9699 28.48 76.7999 28.09 76.6499 27.89C76.6499 27.34 76.5399 26.88 76.3099 26.51C76.0799 26.14 75.9499 25.7 75.8999 25.2C75.5999 24.8 75.4499 24.3 75.4499 23.7C75.4499 23.1 75.2499 22.68 74.8499 22.43C74.8499 22.33 74.8399 22.19 74.8099 22.02C74.7799 21.85 74.7699 21.66 74.7699 21.46C74.7699 21.16 74.8299 20.94 74.9599 20.79C75.0799 20.64 75.2099 20.53 75.3299 20.45C75.4499 20.37 75.5799 20.3 75.6999 20.23C75.8199 20.16 75.8899 20.04 75.8899 19.89C75.6399 19.89 75.4299 19.95 75.2499 20.08C75.0799 20.21 74.8899 20.32 74.6899 20.42C74.2399 20.32 74.0299 20.06 74.0499 19.63C74.0799 19.21 74.0399 18.84 73.9399 18.55L73.9499 18.53ZM70.9599 14.27C70.9599 14.17 70.9099 14.12 70.8099 14.12H70.2099C70.2099 14.22 70.1399 14.3 69.9899 14.34C69.8399 14.39 69.7699 14.46 69.7699 14.56C69.7699 14.61 69.8199 14.64 69.9199 14.64H70.1399C70.5399 14.64 70.8099 14.52 70.9599 14.27ZM70.8899 18.23C70.8899 18.13 70.8099 18.08 70.6699 18.08C70.4699 18.08 70.3699 18.13 70.3699 18.23C70.3699 18.43 70.3899 18.55 70.4399 18.6C70.5899 18.6 70.7399 18.48 70.8899 18.23ZM72.7599 11.05C72.5099 10.8 72.2799 10.68 72.0899 10.68C71.9899 10.68 71.8699 10.71 71.7199 10.76C71.5699 10.81 71.4399 10.86 71.3499 10.91C71.3499 11.06 71.4499 11.18 71.6499 11.28H72.1699C72.4699 11.28 72.6699 11.21 72.7699 11.06L72.7599 11.05ZM74.8499 16.44C74.7499 16.19 74.5899 16.04 74.3599 15.99C74.1399 15.94 73.8699 15.92 73.5699 15.92H72.4499C72.1999 16.02 71.9599 16.1 71.7399 16.14C71.5199 16.19 71.3999 16.49 71.3999 17.04C71.4499 17.04 71.4999 17.05 71.5499 17.08C71.5999 17.11 71.6499 17.12 71.6999 17.12C72.0999 17.12 72.4399 17.05 72.7099 16.9C72.9799 16.75 73.3199 16.68 73.7199 16.68C74.0699 16.68 74.2999 16.74 74.4299 16.87C74.5499 16.99 74.6399 17.14 74.6899 17.32C74.7399 17.5 74.8099 17.65 74.9099 17.77C75.0099 17.89 75.2099 17.96 75.5099 17.96C75.6099 17.96 75.7699 17.94 75.9999 17.88C76.2199 17.83 76.3399 17.76 76.3399 17.66C76.3399 17.16 76.1499 16.9 75.7799 16.87C75.4099 16.85 75.0899 16.71 74.8399 16.46L74.8499 16.44ZM72.2299 39.86C72.2299 39.76 72.1799 39.71 72.0799 39.71C71.8299 39.71 71.7099 39.79 71.7099 39.93C71.7099 39.98 71.7299 40.03 71.7799 40.08C72.0299 40.08 72.1799 40 72.2299 39.86ZM75.8999 12.25C75.8499 12.15 75.7899 12.11 75.7099 12.14C75.6399 12.17 75.5699 12.13 75.5199 12.03H75.0699C74.8199 12.03 74.6799 12.1 74.6599 12.25C74.6299 12.4 74.5499 12.52 74.3999 12.62C74.4499 12.82 74.5999 12.92 74.8499 12.92H75.5199C75.6199 12.82 75.6799 12.72 75.7099 12.62C75.7299 12.52 75.7999 12.4 75.8999 12.25ZM77.9199 14.56C77.7699 14.46 77.6199 14.39 77.4699 14.34C77.3199 14.29 77.1199 14.26 76.8699 14.26C76.7699 14.26 76.6599 14.29 76.5299 14.34C76.4099 14.39 76.3399 14.49 76.3399 14.64C76.3399 14.69 76.3599 14.74 76.4099 14.79H76.6299C76.7299 14.79 76.8399 14.8 76.9699 14.83C77.0899 14.86 77.2099 14.87 77.3099 14.87C77.7099 14.87 77.9099 14.77 77.9099 14.57L77.9199 14.56ZM78.4399 11.65C78.4399 11.4 78.3899 11.26 78.2899 11.24C78.1899 11.22 78.0899 11.2 77.9899 11.2C77.6899 11.2 77.4699 11.27 77.3199 11.42C77.1699 11.57 76.9899 11.75 76.7999 11.94C76.8499 12.04 77.0499 12.09 77.3999 12.09H77.6999C77.7999 12.09 77.8999 12.07 77.9999 12.02H78.0799C78.1799 12.02 78.2399 11.98 78.2699 11.91C78.2999 11.84 78.3599 11.75 78.4599 11.65H78.4399ZM78.6699 38.66C78.5699 38.56 78.4499 38.51 78.2999 38.51C78.1999 38.51 78.0799 38.54 77.9299 38.59C77.7799 38.64 77.6499 38.66 77.5599 38.66H77.4099C77.0599 38.76 76.8899 38.86 76.8899 38.96C77.2399 39.31 77.7099 39.48 78.3099 39.48C78.5599 39.48 78.6799 39.38 78.6799 39.18V38.66H78.6699ZM78.8899 16.74C78.7899 16.59 78.6299 16.52 78.3999 16.52H77.6899C77.5899 16.52 77.5399 16.57 77.5399 16.67C77.5399 16.82 77.6099 16.91 77.7599 16.93C77.9099 16.96 78.0299 16.97 78.1399 16.97C78.2499 16.97 78.4899 16.9 78.8899 16.75V16.74ZM79.6399 20.93C79.5899 20.83 79.4899 20.78 79.3399 20.78H78.6699C78.6699 20.88 78.6399 20.92 78.5899 20.89C78.5399 20.87 78.5199 20.9 78.5199 21V21.07H79.1899C79.4399 21.07 79.5899 21.02 79.6399 20.92V20.93ZM79.4899 29.91C79.3899 29.81 79.2899 29.76 79.1899 29.76C78.9899 29.76 78.8899 29.81 78.8899 29.91C78.9899 30.01 79.0599 30.06 79.1099 30.06C79.1599 30.06 79.2799 30.01 79.4799 29.91H79.4899ZM79.8699 37.46C79.7699 37.46 79.7199 37.44 79.7199 37.39C79.7199 37.34 79.6699 37.31 79.5699 37.31C79.4699 37.41 79.4199 37.49 79.4199 37.53C79.4199 37.68 79.4699 37.75 79.5699 37.75C79.7699 37.75 79.8699 37.7 79.8699 37.6V37.45V37.46ZM88.3999 38.81C88.2499 38.56 87.9999 38.44 87.6499 38.44C87.1999 38.44 86.7399 38.53 86.2699 38.7C85.7999 38.88 85.2799 38.96 84.7399 38.96C84.1999 38.96 83.7199 38.89 83.3199 38.74C82.9199 38.59 82.4499 38.52 81.8999 38.52C81.5999 38.52 81.2999 38.57 80.9999 38.67L80.9299 38.6C80.8799 38.65 80.8499 38.7 80.8499 38.75C80.8499 39.1 81.0999 39.27 81.5999 39.27H81.8999C82.2499 39.42 82.5499 39.49 82.7999 39.49C83.1999 39.49 83.5899 39.43 83.9599 39.3C84.3299 39.18 84.7199 39.11 85.1199 39.11C85.3199 39.11 85.6199 39.16 86.0199 39.26C86.2199 39.31 86.3899 39.36 86.5399 39.41C86.8399 39.31 87.1899 39.25 87.5899 39.22C87.9899 39.2 88.2599 39.06 88.4099 38.81H88.3999ZM82.6299 36.04H81.5799V36.11C81.5799 36.21 81.5499 36.26 81.5099 36.26C81.4699 36.26 81.4299 36.36 81.4299 36.56C81.5799 36.71 81.8299 36.78 82.1799 36.78C82.3299 36.78 82.5299 36.7 82.7799 36.56V36.19C82.7799 36.19 82.7299 36.09 82.6299 36.04ZM82.1799 33.42H81.7299V33.5C81.7299 33.6 81.7499 33.65 81.7999 33.65H82.0999C82.0999 33.65 82.1099 33.56 82.1399 33.54C82.1599 33.52 82.1799 33.48 82.1799 33.43V33.42ZM85.3299 34.69C85.1299 34.64 84.9799 34.6 84.8799 34.58C84.7799 34.56 84.6599 34.54 84.5099 34.54C84.4099 34.54 84.1599 34.59 83.7599 34.69V34.76C83.7599 34.81 83.7299 34.82 83.6899 34.8C83.6399 34.78 83.6099 34.81 83.6099 34.91C83.6099 35.01 83.6999 35.09 83.8699 35.13C84.0399 35.18 84.2099 35.2 84.3599 35.2C84.5599 35.2 84.7699 35.19 84.9999 35.16C85.2199 35.14 85.3399 35 85.3399 34.75V34.68L85.3299 34.69ZM84.9499 30.13C84.9499 30.03 84.8299 29.98 84.5799 29.98C84.2799 29.98 84.1299 30.05 84.1299 30.2C84.1299 30.25 84.1399 30.27 84.1699 30.27C84.1899 30.27 84.2099 30.32 84.2099 30.42C84.3599 30.32 84.5199 30.31 84.6999 30.38C84.8799 30.45 84.9599 30.37 84.9599 30.12L84.9499 30.13ZM84.9499 27.66C84.9499 27.56 84.8999 27.51 84.7999 27.51H84.4299V27.58C84.4299 27.68 84.4499 27.73 84.5099 27.73C84.6099 27.73 84.6799 27.72 84.7299 27.69C84.7799 27.67 84.8499 27.65 84.9499 27.65V27.66ZM84.7299 37.16V37.09C84.7299 36.99 84.6799 36.94 84.5799 36.94C84.5799 37.14 84.5999 37.24 84.6599 37.24L84.7399 37.17L84.7299 37.16ZM86.3699 44.05C86.3699 44.05 86.3599 43.98 86.3299 43.98C86.2999 43.98 86.2899 43.96 86.2899 43.9V43.83C86.1399 43.83 86.0699 43.9 86.0699 44.05V44.12C86.0699 44.17 86.1199 44.19 86.2199 44.19C86.2699 44.19 86.2799 44.17 86.2599 44.12C86.2299 44.07 86.2699 44.05 86.3699 44.05ZM87.0499 36.41L86.9699 36.26C86.9199 36.31 86.8999 36.36 86.8999 36.41C86.8999 36.46 86.9199 36.49 86.9699 36.49L87.0499 36.41ZM90.3399 43.67C90.2399 43.47 89.9399 43.37 89.4399 43.37C89.4399 43.47 89.4299 43.52 89.3999 43.52C89.3699 43.52 89.3599 43.55 89.3599 43.59C89.3599 43.69 89.4199 43.77 89.5499 43.81C89.6699 43.86 89.7599 43.88 89.8099 43.88C90.0099 43.88 90.1799 43.81 90.3299 43.66L90.3399 43.67Z" fill="#22B971"/>
<path d="M101.64 2.82001H114.81L127.83 21.98L140.78 2.82001H153.95V52.73H138.01V34.77L127.83 49.74L117.58 34.77V52.73H101.64V2.82001ZM111.07 46.74V12.39L127.83 36.78L144.52 12.39V46.74H146.47V8.8H144.52L127.83 33.42L111.07 8.8H109.12V46.74H111.07Z" fill="#22B971"/>
<path d="M181.3 50.88C177.9 53.71 174.22 55.12 170.28 55.12C166.34 55.12 163.21 53.73 161.02 50.94C159.43 48.91 158.63 46.58 158.63 43.95C158.63 42.96 158.75 41.9 158.99 40.78L163.59 19.28C164.43 15.3 166.52 11.92 169.86 9.13C173.2 6.34 176.91 4.95001 180.97 4.95001C185.03 4.95001 187.88 6.36002 190.11 9.19002C191.78 11.3 192.62 13.67 192.62 16.3C192.62 17.26 192.5 18.25 192.26 19.29C191.42 23.19 189.31 26.56 185.93 29.38C182.55 32.21 178.86 33.62 174.88 33.62H167.71L166.16 40.79C166.04 41.35 165.98 41.87 165.98 42.34C165.98 43.69 166.38 44.87 167.17 45.86C168.28 47.25 169.84 47.95 171.83 47.95C173.82 47.95 175.61 47.24 177.32 45.83C179.03 44.42 180.09 42.73 180.49 40.78C180.69 39.79 181.22 38.94 182.07 38.24C182.93 37.54 183.85 37.2 184.85 37.2C185.85 37.2 186.61 37.55 187.15 38.24C187.69 38.94 187.86 39.78 187.66 40.78C186.82 44.68 184.7 48.05 181.3 50.87V50.88ZM169.21 26.45H176.38C178.33 26.45 180.14 25.75 181.81 24.36C184.08 22.49 185.21 20.32 185.21 17.85C185.21 16.26 184.65 14.9 183.54 13.79C182.42 12.68 181.05 12.12 179.42 12.12C177.43 12.12 175.6 12.82 173.93 14.21C172.26 15.6 171.2 17.3 170.76 19.29L169.21 26.46V26.45Z" fill="#22B971"/>
<path d="M0.789993 9.17001C0.399993 9.17001 0 8.86 0 8.38C0 7.52 1.02 7.54002 1.83 7.44002C1.91 4.59002 2.62 2.20001 2.64 2.12001C2.77 1.78001 3.07999 1.57001 3.39999 1.57001C3.86999 1.57001 4.19 1.96002 4.19 2.36002C4.19 2.70002 3.50999 4.51001 3.39999 7.26001C4.67999 7.16001 6.12 7.08002 7.59 7.08002C8.01 7.08002 8.38 7.45001 8.38 7.87001C8.38 8.29001 8.01 8.66 7.59 8.66C6.15 8.66 4.67999 8.76001 3.42999 8.87001C3.66999 14.39 5.92 15.73 8.12 15.73C8.54 15.73 8.91 16.1 8.91 16.52C8.91 16.94 8.54 17.31 8.12 17.31C4.89999 17.31 2.18 14.93 1.86 9.04001C1.47 9.09001 1.12999 9.20001 0.789993 9.20001V9.17001Z" fill="#22B971"/>
<path d="M15.4501 14.14C15.7401 14.14 16.1301 13.77 17.2601 11.78C18.2601 10.03 19.0701 8.64 20.6901 8.64C22.6001 8.64 22.7801 10.66 22.7801 12.57C22.7801 15.66 23.2001 15.71 23.7801 15.71H23.8301C24.2501 15.71 24.6201 16.08 24.6201 16.5C24.6201 16.92 24.2501 17.29 23.8301 17.29C21.8401 17.29 21.2101 15.67 21.2101 12.58C21.2101 10.3 20.8701 10.22 20.6901 10.22C20.2201 10.22 19.7201 10.67 18.6201 12.58C17.6501 14.26 17.0001 15.72 15.4501 15.72C14.5901 15.72 13.9101 15.07 13.4901 14.23C11.9201 15.96 10.0901 17.29 8.12007 17.29C7.70007 17.29 7.33008 16.92 7.33008 16.5C7.33008 16.08 7.70007 15.71 8.12007 15.71C9.51007 15.71 11.3101 14.43 12.9101 12.49C12.6701 11.42 12.5701 10.21 12.5701 8.64C12.5701 4.4 13.4101 0 16.2401 0C17.9901 0 18.6001 1.73 18.6001 3.14C18.6001 5.89 16.8501 9.91999 14.6501 12.85C14.9901 13.95 15.4401 14.13 15.4601 14.13L15.4501 14.14ZM16.2401 1.56999C15.4001 1.56999 14.1501 3.98 14.1501 8.64C14.1501 9.4 14.1801 10.08 14.2301 10.68C15.9101 8.05999 17.0301 5 17.0301 3.14C17.0301 1.94 16.5801 1.56999 16.2401 1.56999Z" fill="#22B971"/>
<path d="M34.83 15.71C34.83 16 34.6501 16.29 34.3801 16.42C32.9901 17.1 32.02 17.28 30.9 17.28C29.88 17.28 28.99 16.97 28.28 16.39C26.84 16.94 25.27 17.28 23.83 17.28C23.41 17.28 23.04 16.91 23.04 16.49C23.04 16.07 23.41 15.7 23.83 15.7C24.88 15.7 26.08 15.49 27.23 15.1C26.89 14.42 26.71 13.63 26.71 12.82C26.71 10.62 28.31 8.63 30.64 8.63C32.11 8.63 33.26 9.78002 33.26 11.25C33.26 13.14 31.74 14.58 30.01 15.57C30.27 15.65 30.59 15.7 30.9 15.7C31.87 15.7 32.47 15.62 33.7 14.99C33.8 14.94 33.94 14.91 34.04 14.91C34.43 14.91 34.83 15.22 34.83 15.7V15.71ZM30.64 10.21C29.3 10.21 28.28 11.36 28.28 12.83C28.28 13.48 28.44 14.06 28.7 14.51C30.59 13.57 31.69 12.31 31.69 11.26C31.69 10.63 31.27 10.21 30.64 10.21Z" fill="#22B971"/>
<path d="M57.4193 58.53C58.0093 58.53 58.5593 58.66 59.0793 58.9C59.5993 59.14 60.0593 59.45 60.4493 59.85C60.8393 60.25 61.1493 60.72 61.3693 61.25C61.5993 61.78 61.6993 62.35 61.6893 62.96C61.6893 63.56 61.5593 64.12 61.3193 64.63C61.0793 65.15 60.7693 65.6 60.3693 65.99C59.9793 66.38 59.5093 66.68 58.9793 66.9C58.4493 67.12 57.8793 67.22 57.2693 67.22C56.6693 67.22 56.1093 67.1 55.5893 66.87C55.0693 66.65 54.6093 66.34 54.2193 65.94C53.8293 65.55 53.5293 65.08 53.3093 64.55C53.0893 64.02 52.9893 63.44 52.9893 62.82C52.9893 62.22 53.1193 61.66 53.3493 61.15C53.5793 60.63 53.8893 60.18 54.2893 59.8C54.6793 59.42 55.1493 59.11 55.6893 58.89C56.2293 58.66 56.7993 58.55 57.4093 58.53H57.4193ZM57.3893 60.88C57.1093 60.88 56.8593 60.92 56.6193 61.02C56.3793 61.12 56.1593 61.26 55.9793 61.43C55.7893 61.61 55.6393 61.82 55.5293 62.06C55.4193 62.3 55.3593 62.57 55.3593 62.86C55.3593 63.13 55.4093 63.4 55.5093 63.64C55.6093 63.89 55.7593 64.1 55.9393 64.29C56.1193 64.48 56.3293 64.63 56.5693 64.74C56.8093 64.85 57.0593 64.91 57.3393 64.91C57.6193 64.91 57.8793 64.86 58.1193 64.76C58.3693 64.66 58.5793 64.51 58.7593 64.33C58.9393 64.15 59.0893 63.93 59.1993 63.69C59.3093 63.45 59.3693 63.19 59.3693 62.91C59.3493 62.36 59.1593 61.89 58.7993 61.5C58.4293 61.11 57.9593 60.9 57.3893 60.87V60.88Z" fill="#22B971"/>
<path d="M67.4993 55.92C67.8493 55.92 68.1393 56.03 68.3793 56.22C68.6193 56.41 68.7393 56.7 68.7593 57.09C68.7593 57.4 68.6393 57.66 68.4193 57.88C68.1993 58.09 67.9193 58.21 67.5793 58.23C67.3293 58.23 67.1293 58.32 66.9793 58.49C66.8293 58.66 66.7593 58.85 66.7593 59.08L66.7293 60.84C67.2793 60.87 67.6593 61 67.8593 61.22C68.0693 61.45 68.1693 61.72 68.1593 62.04C68.1593 62.36 68.0493 62.63 67.8393 62.84C67.6293 63.05 67.2493 63.17 66.6793 63.18L66.6293 66.79C66.6293 67.14 66.5593 67.47 66.4493 67.79C66.3293 68.11 66.1693 68.4 65.9593 68.65C65.7493 68.9 65.5093 69.13 65.2193 69.33C64.9393 69.53 64.6093 69.68 64.2493 69.78C64.0293 69.85 63.8093 69.88 63.5793 69.87C63.3493 69.87 63.1493 69.81 62.9593 69.72C62.7793 69.63 62.6193 69.5 62.4893 69.33C62.3593 69.16 62.2893 68.94 62.2793 68.68C62.2793 68.37 62.3993 68.1 62.6193 67.89C62.8493 67.67 63.1093 67.56 63.4193 67.55C63.6593 67.55 63.8593 67.47 64.0293 67.3C64.1893 67.13 64.2793 66.94 64.2793 66.72L64.3293 63.15C63.7693 63.15 63.3893 63.03 63.1993 62.81C63.0093 62.59 62.9093 62.31 62.8893 61.96C62.8893 61.65 62.9993 61.38 63.2093 61.17C63.4193 60.95 63.7993 60.83 64.3593 60.8L64.3893 59.02C64.3893 58.61 64.4793 58.22 64.6393 57.85C64.7993 57.47 65.0193 57.14 65.2993 56.85C65.5793 56.56 65.9093 56.33 66.2793 56.16C66.6493 55.99 67.0493 55.91 67.4693 55.92H67.4993Z" fill="#22B971"/>
<path d="M77.7694 58.85C78.3394 58.85 78.8894 58.99 79.4194 59.23C79.9394 59.48 80.3994 59.8 80.7994 60.21C81.1994 60.62 81.5094 61.08 81.7394 61.61C81.9694 62.14 82.0794 62.68 82.0694 63.26C82.0694 63.57 81.9494 63.81 81.7094 63.99C81.4694 64.17 81.1794 64.25 80.8394 64.23L76.0694 64.16C76.4594 64.85 76.9894 65.2 77.6894 65.21C77.8794 65.21 78.0394 65.2 78.1694 65.16C78.2994 65.13 78.4194 65.09 78.5194 65.04C78.6194 64.99 78.7294 64.95 78.8294 64.92C78.9294 64.89 79.0494 64.87 79.1794 64.87C79.4294 64.89 79.6494 64.96 79.8294 65.1C80.0094 65.23 80.1494 65.4 80.2294 65.6C80.3094 65.8 80.3394 66.01 80.3094 66.24C80.2794 66.47 80.1694 66.68 79.9894 66.86C79.6594 67.12 79.2994 67.3 78.9094 67.39C78.5094 67.49 78.0894 67.54 77.6494 67.54C77.0794 67.56 76.5294 67.44 75.9994 67.2C75.4794 66.96 75.0194 66.64 74.6194 66.23C74.2194 65.82 73.9094 65.35 73.6894 64.81C73.4594 64.27 73.3594 63.71 73.3594 63.14C73.3594 62.58 73.4894 62.04 73.7394 61.51C73.9794 60.99 74.2994 60.53 74.6994 60.13C75.0994 59.73 75.5694 59.42 76.0994 59.19C76.6294 58.96 77.1894 58.85 77.7694 58.86V58.85ZM79.3594 62.22C79.1594 61.85 78.9294 61.58 78.6494 61.43C78.3794 61.28 78.0694 61.2 77.7394 61.19C77.3894 61.19 77.0794 61.25 76.8094 61.4C76.5394 61.55 76.2994 61.8 76.0894 62.17L79.3594 62.22Z" fill="#22B971"/>
<path d="M87.3596 58.9401C87.9296 58.9401 88.4796 59.0601 89.0096 59.2801C89.5296 59.5001 89.9897 59.8001 90.3797 60.1801C90.7697 60.5601 91.0796 61.0101 91.3096 61.5301C91.5396 62.0501 91.6496 62.61 91.6396 63.2L91.5896 66.5201C91.5896 66.83 91.4696 67.1001 91.2496 67.3201C91.0296 67.5401 90.7496 67.66 90.4296 67.67C90.1096 67.67 89.8296 67.5601 89.5996 67.3401C89.3696 67.1301 89.2596 66.8601 89.2596 66.5401L89.3096 63.3101C89.3096 63.0301 89.2696 62.7701 89.1696 62.5301C89.0696 62.2801 88.9296 62.07 88.7496 61.89C88.5696 61.71 88.3496 61.56 88.1096 61.45C87.8696 61.34 87.5996 61.2801 87.3096 61.2801C87.0496 61.2801 86.7897 61.32 86.5497 61.42C86.3097 61.52 86.0996 61.6501 85.9196 61.8101C85.7396 61.9801 85.5896 62.1801 85.4796 62.4101C85.3696 62.6501 85.3096 62.9001 85.3096 63.1601L85.2596 66.4301C85.2596 66.7401 85.1296 67.0101 84.8896 67.2401C84.6496 67.4701 84.3696 67.58 84.0596 67.58C83.7496 67.58 83.4796 67.4601 83.2396 67.2401C82.9996 67.0201 82.8896 66.76 82.8896 66.45L82.9397 63.2201C82.9597 62.6201 83.0896 62.0601 83.3196 61.5401C83.5496 61.0201 83.8596 60.56 84.2596 60.17C84.6496 59.78 85.1196 59.4801 85.6496 59.2601C86.1796 59.0401 86.7597 58.94 87.3797 58.95L87.3596 58.9401Z" fill="#22B971"/>
<path d="M94.039 56.31C94.369 56.31 94.649 56.44 94.879 56.67C95.099 56.91 95.219 57.2 95.239 57.55L95.219 58.99L98.309 59.04C98.659 59.04 98.939 59.17 99.149 59.41C99.359 59.65 99.469 59.94 99.459 60.26C99.459 60.57 99.329 60.85 99.089 61.09C98.849 61.33 98.579 61.45 98.279 61.45L95.189 61.4L95.159 63.37C95.159 63.65 95.199 63.91 95.299 64.15C95.399 64.4 95.539 64.62 95.709 64.81C95.879 65 96.099 65.16 96.339 65.27C96.579 65.38 96.849 65.44 97.139 65.44C97.449 65.44 97.719 65.41 97.939 65.33C98.159 65.25 98.359 65.13 98.529 64.96C98.779 64.75 99.059 64.64 99.369 64.64C99.669 64.64 99.959 64.76 100.219 65C100.339 65.11 100.429 65.23 100.479 65.37C100.539 65.51 100.569 65.65 100.569 65.8C100.569 65.95 100.549 66.1 100.499 66.24C100.449 66.38 100.369 66.51 100.259 66.61C99.839 67.01 99.369 67.32 98.859 67.52C98.349 67.73 97.809 67.83 97.239 67.82C96.619 67.82 96.029 67.7 95.489 67.48C94.939 67.26 94.459 66.96 94.049 66.56C93.639 66.16 93.309 65.69 93.069 65.14C92.829 64.59 92.709 63.98 92.709 63.31L92.799 57.41C92.799 57.09 92.929 56.82 93.179 56.61C93.429 56.4 93.709 56.29 94.039 56.3V56.31Z" fill="#22B971"/>
<path d="M105.569 59.27C106.139 59.27 106.689 59.41 107.219 59.65C107.739 59.9 108.199 60.22 108.599 60.63C108.999 61.04 109.309 61.5 109.539 62.03C109.769 62.55 109.879 63.1 109.869 63.68C109.869 63.99 109.749 64.23 109.509 64.41C109.269 64.59 108.979 64.67 108.639 64.65L103.869 64.58C104.259 65.27 104.789 65.62 105.489 65.63C105.679 65.63 105.839 65.62 105.969 65.58C106.099 65.55 106.219 65.51 106.319 65.46C106.419 65.41 106.519 65.37 106.629 65.34C106.729 65.31 106.849 65.29 106.979 65.29C107.229 65.31 107.449 65.38 107.629 65.52C107.809 65.65 107.949 65.82 108.039 66.02C108.129 66.22 108.149 66.43 108.119 66.66C108.089 66.89 107.979 67.09 107.799 67.28C107.469 67.54 107.109 67.72 106.719 67.81C106.319 67.91 105.899 67.96 105.459 67.96C104.889 67.98 104.339 67.86 103.809 67.62C103.289 67.38 102.829 67.05 102.429 66.65C102.029 66.24 101.719 65.77 101.499 65.23C101.269 64.69 101.169 64.13 101.169 63.56C101.169 63 101.299 62.46 101.549 61.93C101.789 61.41 102.109 60.95 102.509 60.55C102.909 60.15 103.379 59.84 103.909 59.61C104.439 59.38 104.999 59.27 105.579 59.28L105.569 59.27ZM107.159 62.63C106.959 62.26 106.729 61.99 106.449 61.84C106.179 61.69 105.869 61.61 105.539 61.6C105.189 61.6 104.879 61.66 104.609 61.81C104.339 61.96 104.099 62.21 103.889 62.58L107.159 62.63Z" fill="#22B971"/>
<path d="M111.779 68.0701C111.459 68.0701 111.189 67.9601 110.979 67.7401C110.769 67.5301 110.649 67.2501 110.629 66.9001L110.679 63.58C110.699 63.01 110.829 62.4701 111.069 61.9601C111.309 61.4601 111.629 61.0201 112.019 60.6501C112.409 60.2801 112.869 59.9901 113.399 59.7701C113.919 59.5601 114.479 59.4401 115.069 59.4301C115.399 59.4301 115.679 59.5501 115.899 59.7801C116.119 60.0101 116.239 60.29 116.259 60.61C116.259 60.93 116.139 61.2 115.909 61.42C115.679 61.64 115.399 61.7501 115.059 61.7601C114.779 61.7601 114.529 61.8001 114.279 61.9001C114.039 62.0001 113.829 62.1401 113.649 62.3101C113.469 62.4901 113.319 62.7001 113.209 62.9401C113.099 63.1801 113.039 63.4501 113.039 63.7401L112.989 67.0101C112.959 67.3201 112.839 67.5801 112.629 67.7801C112.419 67.9801 112.139 68.0801 111.789 68.0701H111.779Z" fill="#22B971"/>
<path d="M118.199 56.67C118.529 56.67 118.809 56.8 119.039 57.03C119.259 57.27 119.379 57.5601 119.399 57.9101L119.379 59.3501L122.469 59.4C122.819 59.4 123.099 59.53 123.309 59.77C123.519 60.01 123.629 60.3 123.619 60.62C123.619 60.93 123.489 61.21 123.249 61.45C123.009 61.69 122.739 61.81 122.439 61.81L119.349 61.7601L119.319 63.73C119.319 64.01 119.359 64.2701 119.459 64.5101C119.559 64.7601 119.699 64.98 119.869 65.17C120.049 65.36 120.259 65.5201 120.499 65.6301C120.739 65.7401 121.009 65.8 121.299 65.8C121.609 65.8 121.879 65.77 122.099 65.69C122.319 65.61 122.519 65.4901 122.689 65.3201C122.939 65.1101 123.219 65 123.529 65C123.829 65 124.119 65.12 124.379 65.36C124.499 65.47 124.589 65.59 124.639 65.73C124.699 65.87 124.729 66.0101 124.729 66.1601C124.729 66.3101 124.709 66.4601 124.659 66.6001C124.609 66.7401 124.529 66.87 124.419 66.97C123.999 67.37 123.529 67.6701 123.029 67.8801C122.519 68.0901 121.979 68.19 121.409 68.18C120.789 68.18 120.199 68.06 119.659 67.84C119.109 67.62 118.629 67.32 118.219 66.92C117.809 66.52 117.479 66.05 117.239 65.5C116.999 64.95 116.879 64.34 116.879 63.67L116.969 57.77C116.969 57.45 117.099 57.18 117.349 56.97C117.599 56.76 117.879 56.6501 118.209 56.6601L118.199 56.67Z" fill="#22B971"/>
<path d="M130.249 59.65C130.789 59.72 131.289 59.88 131.759 60.14C132.229 60.4 132.629 60.72 132.969 61.12C133.299 61.51 133.569 61.96 133.759 62.46C133.949 62.96 134.039 63.48 134.029 64.03L133.979 67.21C133.979 67.53 133.849 67.81 133.609 68.03C133.369 68.25 133.099 68.36 132.799 68.36C132.379 68.36 132.049 68.16 131.799 67.77C131.739 67.79 131.689 67.82 131.639 67.85C131.589 67.88 131.539 67.91 131.489 67.93C131.199 68.06 130.909 68.15 130.609 68.22C130.299 68.29 129.969 68.32 129.619 68.31C128.719 68.3 127.919 68.04 127.229 67.55C126.529 67.05 126.009 66.42 125.679 65.65C125.559 65.37 125.469 65.09 125.409 64.8C125.349 64.51 125.319 64.21 125.319 63.9C125.319 63.59 125.359 63.29 125.429 63C125.499 62.71 125.599 62.43 125.719 62.16C126.079 61.39 126.609 60.77 127.329 60.3C128.039 59.83 128.849 59.6 129.749 59.62C129.849 59.62 129.929 59.62 130.009 59.62C130.089 59.62 130.169 59.62 130.249 59.64V59.65ZM129.639 65.98C129.919 65.98 130.179 65.94 130.419 65.84C130.669 65.74 130.879 65.6 131.059 65.43C131.239 65.25 131.389 65.04 131.499 64.8C131.609 64.56 131.669 64.29 131.669 64C131.669 63.74 131.619 63.48 131.519 63.23C131.419 62.98 131.269 62.77 131.089 62.58C130.909 62.39 130.689 62.24 130.449 62.13C130.209 62.02 129.949 61.96 129.689 61.96C129.429 61.96 129.169 62.01 128.929 62.11C128.689 62.21 128.469 62.36 128.289 62.54C128.099 62.72 127.949 62.94 127.839 63.18C127.729 63.42 127.669 63.68 127.669 63.94C127.669 64.21 127.719 64.48 127.829 64.72C127.939 64.97 128.089 65.18 128.269 65.36C128.449 65.54 128.659 65.69 128.899 65.8C129.139 65.91 129.379 65.97 129.629 65.97L129.639 65.98Z" fill="#22B971"/>
<path d="M136.389 59.78C136.699 59.78 136.959 59.9 137.159 60.13C137.369 60.36 137.479 60.64 137.499 60.96L137.409 67.31C137.409 67.63 137.299 67.9 137.089 68.11C136.879 68.32 136.609 68.44 136.259 68.46C135.949 68.46 135.689 68.36 135.469 68.16C135.259 67.97 135.129 67.69 135.089 67.35L135.189 60.85C135.219 60.54 135.349 60.28 135.579 60.08C135.809 59.88 136.079 59.78 136.389 59.77V59.78ZM136.429 57.03C136.739 57.03 137.009 57.16 137.219 57.39C137.439 57.63 137.539 57.9 137.539 58.21C137.539 58.52 137.419 58.79 137.199 59.02C136.979 59.25 136.709 59.36 136.399 59.36C136.049 59.34 135.769 59.23 135.549 59.02C135.329 58.81 135.229 58.51 135.229 58.13C135.249 57.82 135.369 57.56 135.609 57.35C135.849 57.14 136.119 57.03 136.429 57.04V57.03Z" fill="#22B971"/>
<path d="M143.009 59.77C143.579 59.77 144.129 59.89 144.659 60.11C145.179 60.33 145.639 60.63 146.029 61.01C146.419 61.39 146.729 61.84 146.959 62.36C147.189 62.88 147.299 63.44 147.289 64.03L147.239 67.35C147.239 67.66 147.119 67.93 146.899 68.15C146.679 68.37 146.399 68.49 146.079 68.5C145.759 68.5 145.479 68.39 145.249 68.17C145.019 67.96 144.909 67.69 144.909 67.37L144.959 64.14C144.959 63.86 144.919 63.6 144.819 63.36C144.719 63.11 144.579 62.9 144.399 62.72C144.219 62.54 143.999 62.39 143.759 62.28C143.519 62.17 143.249 62.11 142.959 62.11C142.699 62.11 142.439 62.15 142.199 62.25C141.959 62.35 141.749 62.48 141.569 62.64C141.389 62.81 141.239 63.01 141.129 63.24C141.019 63.48 140.959 63.73 140.959 63.99L140.909 67.26C140.909 67.57 140.779 67.84 140.539 68.07C140.299 68.3 140.019 68.41 139.709 68.41C139.399 68.41 139.129 68.29 138.889 68.07C138.649 67.85 138.539 67.59 138.539 67.28L138.589 64.05C138.609 63.45 138.739 62.89 138.969 62.37C139.199 61.85 139.509 61.39 139.909 61C140.299 60.61 140.769 60.31 141.299 60.09C141.829 59.87 142.399 59.77 143.029 59.78L143.009 59.77Z" fill="#22B971"/>
<path d="M151.679 59.95C152.039 59.95 152.389 60.02 152.729 60.14C153.069 60.26 153.379 60.44 153.659 60.68C154.239 60.22 154.909 60.0001 155.679 60.0101C156.099 60.0101 156.499 60.1 156.889 60.27C157.279 60.44 157.609 60.66 157.899 60.94C158.189 61.22 158.419 61.55 158.589 61.94C158.759 62.33 158.839 62.73 158.829 63.16L158.759 67.66C158.759 67.95 158.629 68.2 158.389 68.41C158.149 68.62 157.869 68.73 157.559 68.72C157.249 68.72 156.979 68.59 156.749 68.36C156.519 68.12 156.409 67.85 156.409 67.5401L156.469 63.18C156.469 62.95 156.399 62.76 156.239 62.6C156.079 62.44 155.879 62.36 155.639 62.36C155.439 62.36 155.249 62.42 155.069 62.56C154.889 62.7 154.799 62.89 154.799 63.16L154.739 67.52C154.739 67.84 154.619 68.12 154.379 68.34C154.139 68.56 153.859 68.67 153.539 68.67C153.239 68.67 152.969 68.56 152.739 68.34C152.509 68.12 152.389 67.87 152.389 67.57L152.459 63.12C152.459 62.88 152.359 62.68 152.199 62.53C152.029 62.38 151.849 62.3 151.649 62.3C151.419 62.3 151.229 62.37 151.059 62.52C150.899 62.67 150.809 62.87 150.789 63.11L150.719 67.56C150.689 67.85 150.569 68.09 150.339 68.3C150.119 68.51 149.849 68.61 149.539 68.6C149.369 68.6 149.219 68.57 149.069 68.5C148.929 68.44 148.799 68.35 148.699 68.24C148.589 68.13 148.509 68 148.449 67.86C148.389 67.72 148.359 67.57 148.379 67.41L148.449 62.99C148.449 62.57 148.549 62.17 148.719 61.8C148.889 61.43 149.129 61.1 149.419 60.82C149.709 60.54 150.049 60.32 150.449 60.16C150.839 60 151.259 59.92 151.699 59.93L151.679 59.95Z" fill="#22B971"/>
<path d="M164.239 60.14C164.809 60.14 165.359 60.28 165.889 60.52C166.409 60.77 166.869 61.09 167.269 61.5C167.669 61.91 167.979 62.37 168.209 62.9C168.439 63.42 168.549 63.97 168.539 64.55C168.539 64.86 168.419 65.1 168.179 65.28C167.939 65.46 167.649 65.54 167.309 65.52L162.529 65.45C162.919 66.14 163.449 66.49 164.149 66.5C164.339 66.5 164.499 66.49 164.629 66.45C164.759 66.42 164.879 66.38 164.979 66.33C165.079 66.28 165.189 66.24 165.289 66.21C165.389 66.18 165.509 66.16 165.639 66.16C165.889 66.18 166.109 66.25 166.289 66.39C166.469 66.52 166.609 66.69 166.699 66.89C166.789 67.09 166.809 67.3 166.779 67.53C166.749 67.76 166.639 67.97 166.459 68.15C166.129 68.41 165.769 68.59 165.379 68.68C164.979 68.78 164.559 68.83 164.119 68.83C163.549 68.85 162.999 68.73 162.469 68.49C161.949 68.25 161.489 67.93 161.089 67.52C160.689 67.11 160.379 66.64 160.159 66.1C159.929 65.56 159.829 65 159.829 64.43C159.829 63.87 159.959 63.33 160.209 62.8C160.449 62.28 160.769 61.82 161.169 61.42C161.569 61.02 162.039 60.71 162.569 60.48C163.099 60.25 163.659 60.14 164.239 60.15V60.14ZM165.829 63.5C165.629 63.13 165.399 62.86 165.119 62.71C164.849 62.56 164.539 62.48 164.209 62.47C163.859 62.47 163.549 62.53 163.279 62.68C163.009 62.83 162.769 63.08 162.559 63.45L165.829 63.5Z" fill="#22B971"/>
<path d="M173.829 60.23C174.399 60.23 174.949 60.35 175.479 60.57C175.999 60.79 176.459 61.09 176.849 61.47C177.239 61.85 177.549 62.3 177.779 62.82C178.009 63.34 178.119 63.9 178.109 64.49L178.059 67.81C178.059 68.12 177.939 68.39 177.719 68.61C177.499 68.83 177.219 68.95 176.899 68.96C176.579 68.96 176.299 68.85 176.069 68.63C175.839 68.42 175.729 68.15 175.729 67.83L175.779 64.6C175.779 64.32 175.739 64.06 175.639 63.82C175.539 63.57 175.399 63.36 175.219 63.18C175.039 63 174.819 62.85 174.579 62.74C174.339 62.63 174.069 62.57 173.779 62.57C173.519 62.57 173.259 62.61 173.019 62.71C172.779 62.81 172.569 62.94 172.389 63.1C172.209 63.27 172.059 63.47 171.949 63.7C171.839 63.94 171.779 64.19 171.779 64.45L171.729 67.72C171.729 68.03 171.599 68.3 171.359 68.53C171.119 68.76 170.839 68.87 170.529 68.87C170.219 68.87 169.949 68.75 169.709 68.53C169.469 68.31 169.359 68.05 169.359 67.74L169.409 64.51C169.429 63.91 169.559 63.35 169.789 62.83C170.019 62.31 170.329 61.85 170.729 61.46C171.119 61.07 171.589 60.77 172.119 60.55C172.649 60.33 173.229 60.23 173.849 60.24L173.829 60.23Z" fill="#22B971"/>
<path d="M180.509 57.6C180.839 57.6 181.119 57.73 181.349 57.96C181.569 58.2 181.689 58.49 181.709 58.84L181.689 60.28L184.779 60.33C185.129 60.33 185.409 60.46 185.619 60.7C185.829 60.94 185.939 61.23 185.929 61.55C185.929 61.86 185.799 62.14 185.559 62.38C185.319 62.62 185.049 62.74 184.749 62.74L181.659 62.69L181.629 64.66C181.629 64.94 181.669 65.2 181.769 65.44C181.869 65.69 182.009 65.91 182.179 66.1C182.359 66.29 182.569 66.45 182.809 66.56C183.049 66.67 183.319 66.73 183.609 66.73C183.919 66.73 184.189 66.7 184.409 66.62C184.629 66.54 184.829 66.42 184.999 66.25C185.249 66.04 185.529 65.93 185.839 65.93C186.139 65.93 186.429 66.05 186.689 66.29C186.809 66.4 186.899 66.52 186.949 66.66C187.009 66.8 187.039 66.94 187.039 67.09C187.039 67.24 187.019 67.39 186.969 67.53C186.919 67.67 186.839 67.8 186.729 67.9C186.309 68.3 185.839 68.6 185.339 68.81C184.829 69.02 184.289 69.12 183.719 69.11C183.099 69.11 182.509 68.99 181.969 68.77C181.419 68.55 180.939 68.25 180.529 67.85C180.119 67.45 179.789 66.98 179.549 66.43C179.309 65.88 179.189 65.27 179.189 64.6L179.279 58.7C179.279 58.38 179.409 58.11 179.659 57.9C179.909 57.69 180.189 57.58 180.519 57.59L180.509 57.6Z" fill="#22B971"/>
</svg>
