<svg width="193" height="76" viewBox="0 0 193 76" fill="none" xmlns="http://www.w3.org/2000/svg">
<path d="M27.9104 21.21L30.7504 21.36C30.8004 18.82 31.6504 16.84 33.2904 15.42C34.9304 14 37.2004 13.29 40.0904 13.29C42.4304 13.29 44.3904 13.89 45.9604 15.08C47.5304 16.28 48.3104 17.8 48.3104 19.64C48.3104 20.89 47.9004 21.93 47.0804 22.78C46.2604 23.63 45.2204 24.05 43.9804 24.05C42.5804 24.05 41.5604 23.53 40.9204 22.48L40.1704 21.28C39.9704 20.93 39.6504 20.76 39.2004 20.76C38.1504 20.76 37.6304 21.48 37.6304 22.93C37.6304 23.28 37.6504 23.53 37.7104 23.68C42.4904 25.38 44.8904 28.76 44.8904 33.85C44.8904 37.69 43.4104 40.78 40.4404 43.12C37.4804 45.46 33.5804 46.63 28.7404 46.63C26.1504 46.63 23.4804 46.06 20.7404 44.91L20.3704 44.76C19.6204 45.36 19.2504 46.01 19.2504 46.7C19.2504 48.4 20.4504 49.44 22.8404 49.84C23.6404 49.99 25.4604 50.06 28.3004 50.06H29.1204L33.9004 49.98C38.6804 49.93 42.3704 50.85 44.9604 52.75C47.5504 54.64 48.8504 57.34 48.8504 60.82C48.8504 65.25 46.9104 68.75 43.0204 71.32C39.1304 73.89 33.8504 75.17 27.1704 75.17C21.1904 75.17 16.3904 74.06 12.7804 71.84C9.17037 69.62 7.36035 66.67 7.36035 62.98C7.36035 58.99 9.88035 56.23 14.9104 54.68C10.9204 53.88 8.93036 51.62 8.93036 47.88C8.93036 45.94 9.37036 44.4 10.2404 43.28C11.1104 42.16 12.6704 41.1 14.9104 40.1C13.1204 38.11 12.2204 35.91 12.2204 33.52C12.2204 30.03 13.7304 27.1 16.7404 24.74C19.7504 22.37 23.4804 21.19 27.9104 21.19V21.21ZM27.0104 58.81C25.8104 58.81 24.3204 58.71 22.5304 58.51C20.2904 59.41 19.1704 60.55 19.1704 61.95C19.1704 64.59 22.1104 65.91 27.9904 65.91C33.8704 65.91 36.8904 64.59 36.8904 61.95C36.8904 59.81 34.9504 58.7401 31.0604 58.7401C30.9104 58.7401 30.2404 58.77 29.0404 58.81H27.0204H27.0104ZM28.5104 29.06C27.1104 29.06 25.9604 29.52 25.0304 30.44C24.1004 31.36 23.6504 32.52 23.6504 33.92C23.6504 35.32 24.1104 36.49 25.0304 37.43C25.9504 38.38 27.1104 38.85 28.5104 38.85C29.9104 38.85 31.0604 38.38 31.9904 37.43C32.9104 36.48 33.3704 35.34 33.3704 33.99C33.3704 32.64 32.9104 31.42 31.9904 30.48C31.0704 29.53 29.9104 29.06 28.5104 29.06Z" fill="#2B388F"/>
<path d="M76.2001 4.33002C76.3501 4.33002 76.5101 4.32002 76.6901 4.29002C76.8701 4.26002 77.0801 4.25002 77.3301 4.25002C77.6801 4.25002 77.9501 4.28002 78.1501 4.33002C78.4001 4.28002 78.6601 4.23002 78.9401 4.18002C79.2101 4.13002 79.5001 4.10002 79.8001 4.10002C80.1001 4.10002 80.4101 4.19002 80.7301 4.36002C81.0501 4.53002 81.3401 4.75002 81.5901 5.00002C81.8901 5.25002 82.1901 5.52002 82.4901 5.82002C82.5901 6.57002 82.8001 7.23002 83.1301 7.80002C83.4501 8.37002 83.6401 9.06002 83.6901 9.86002C83.8901 10.01 84.0101 10.22 84.0601 10.5C84.1101 10.77 84.1601 11.04 84.2101 11.28C84.2601 11.53 84.3201 11.78 84.4001 12.03C84.4801 12.28 84.6401 12.48 84.8901 12.63C84.8401 12.78 84.8101 12.98 84.8101 13.23C84.8101 13.73 84.9701 14.09 85.3001 14.31C85.6201 14.53 85.7901 14.92 85.7901 15.47C85.7901 15.57 85.7801 15.64 85.7501 15.69C85.7201 15.74 85.7101 15.81 85.7101 15.91C85.9101 16.01 86.0601 16.21 86.1601 16.51C86.2601 16.81 86.3301 17.11 86.3801 17.41C86.4301 17.71 86.4801 17.98 86.5301 18.23C86.5801 18.48 86.7001 18.6 86.9001 18.6C86.8501 18.7 86.8301 18.85 86.8301 19.05C86.8301 19.45 86.9501 19.76 87.2001 19.98C87.4501 20.2 87.5701 20.49 87.5701 20.84C87.8701 21.29 88.0301 21.82 88.0601 22.45C88.0801 23.07 88.3001 23.53 88.6901 23.83C88.8401 24.98 89.1601 25.92 89.6601 26.67V26.89C89.6601 26.99 89.6501 27.08 89.6201 27.15C89.5901 27.23 89.5801 27.31 89.5801 27.41C89.5801 27.66 89.7201 27.97 89.9901 28.34C90.2601 28.71 90.4001 29.17 90.4001 29.72V30.02C90.6001 30.12 90.7401 30.32 90.8101 30.62C90.8801 30.92 90.9201 31.02 90.9201 30.92C90.9201 31.42 91.0601 31.79 91.3301 32.04C91.6001 32.29 91.7401 32.66 91.7401 33.16C91.7401 33.36 91.7101 33.53 91.6601 33.68C91.7601 33.98 91.9101 34.24 92.1101 34.47C92.3101 34.69 92.4101 35.01 92.4101 35.4V35.62C92.5101 36.12 92.7201 36.52 93.0501 36.82C93.3701 37.12 93.5401 37.54 93.5401 38.09C93.5401 38.19 93.5301 38.28 93.5001 38.35C93.4701 38.42 93.4601 38.51 93.4601 38.61C94.0101 39.26 94.3701 40.11 94.5401 41.15C94.7101 42.2 95.0801 43.07 95.6201 43.77C95.7201 44.22 95.8201 44.75 95.9201 45.38C96.0201 46 96.2701 46.49 96.6701 46.84C96.8201 47.09 96.9101 47.35 96.9301 47.63C96.9501 47.9 96.9901 48.19 97.0401 48.49C97.1401 48.89 97.3001 49.24 97.5301 49.54C97.7501 49.84 97.8701 50.21 97.8701 50.66C97.8701 51.06 97.9801 51.37 98.2101 51.59C98.4301 51.81 98.5501 52.15 98.5501 52.6C98.3001 52.75 98.1101 52.94 97.9901 53.16C97.8701 53.38 97.7301 53.61 97.5801 53.83C97.4301 54.05 97.2501 54.24 97.0601 54.39C96.8601 54.54 96.6101 54.61 96.3101 54.61C96.1601 54.61 95.9401 54.56 95.6401 54.46V54.53H94.9701C94.2701 54.53 93.6001 54.5 92.9501 54.46C92.3001 54.41 91.6301 54.38 90.9301 54.38C90.4301 54.38 89.9701 54.42 89.5501 54.49C89.1301 54.56 88.6901 54.6 88.2401 54.6C87.2401 54.6 86.3101 54.48 85.4401 54.23C84.5701 53.98 83.9301 53.48 83.5301 52.73C83.6301 52.33 83.6801 52.08 83.6801 51.98C83.6801 51.43 83.5401 51.01 83.2701 50.71C83.0001 50.41 82.8601 50.01 82.8601 49.51C82.8601 49.16 82.8801 48.91 82.9401 48.76C82.9401 48.41 82.8201 48.16 82.5701 48.01C82.3201 47.86 82.2001 47.59 82.2001 47.19V46.74C82.2001 46.09 81.9901 45.71 81.5701 45.58C81.1501 45.46 80.7301 45.39 80.3401 45.39H79.3701C79.0701 45.44 78.7701 45.47 78.4701 45.47H77.5001C76.5001 45.47 75.5801 45.43 74.7301 45.36C73.8801 45.28 73.0101 45.25 72.1101 45.25C71.9101 45.35 71.6701 45.45 71.4001 45.55C71.1301 45.65 70.7901 45.7 70.3901 45.7C69.8901 45.7 69.4001 45.68 68.9301 45.63C68.4601 45.58 67.9501 45.55 67.4001 45.55C67.0001 45.55 66.6301 45.56 66.2801 45.59C65.9301 45.62 65.5601 45.63 65.1601 45.63C64.8101 45.63 64.5401 45.77 64.3401 46.04C64.1401 46.31 63.9901 46.61 63.8901 46.94C63.7901 47.27 63.6901 47.7 63.5901 48.25C63.4401 48.7 63.3401 49.23 63.2901 49.86C63.2401 50.48 63.0401 50.92 62.6901 51.17C62.5901 51.52 62.5301 51.89 62.5001 52.29C62.4701 52.69 62.3601 53.01 62.1601 53.26C61.8101 53.56 61.4401 53.86 61.0401 54.16C60.6401 54.46 60.2901 54.61 59.9901 54.61C59.3401 54.61 58.7301 54.56 58.1601 54.46C57.5901 54.36 57.2301 54.31 57.0801 54.31C56.6301 54.31 56.2601 54.41 55.9601 54.61C55.6601 54.81 55.2901 54.91 54.8401 54.91C54.3401 54.91 53.8701 54.87 53.4201 54.8C52.9701 54.72 52.4701 54.69 51.9301 54.69C51.6801 54.69 51.4101 54.7 51.1101 54.73C50.8101 54.76 50.5101 54.77 50.2101 54.77C49.5101 54.77 48.8601 54.61 48.2701 54.28C47.6801 53.95 47.3701 53.47 47.3701 52.82C47.3701 52.12 47.4701 51.6 47.6701 51.25C47.8701 50.9 47.9701 50.5 47.9701 50.05C47.9701 49.65 48.0701 49.35 48.2701 49.15C48.4701 48.95 48.5701 48.65 48.5701 48.25V48.03C48.6701 47.73 48.8401 47.47 49.0901 47.24C49.3401 47.02 49.4601 46.71 49.4601 46.31V46.01C49.7601 44.96 50.0301 44.19 50.2801 43.69C50.5301 43.19 50.7401 42.81 50.9101 42.53C51.0801 42.26 51.2101 42.04 51.2801 41.9C51.3601 41.75 51.3901 41.5 51.3901 41.15V40.78C51.3901 40.43 51.5101 40.16 51.7601 39.96C52.0101 39.76 52.1301 39.49 52.1301 39.14C52.1301 38.89 52.0801 38.72 51.9801 38.62C52.0301 38.62 52.1201 38.5 52.2401 38.25C52.3601 38 52.4901 37.73 52.6101 37.43C52.7301 37.13 52.8501 36.88 52.9501 36.68C53.0501 36.48 53.1001 36.43 53.1001 36.53C53.2001 36.28 53.2701 36.01 53.3201 35.71C53.3701 35.41 53.4401 35.11 53.5401 34.81C53.7401 34.16 53.9601 33.54 54.2101 32.94C54.4601 32.34 54.6601 31.74 54.8101 31.15C55.0601 30.9 55.1801 30.55 55.1801 30.1C55.1801 29.65 55.3001 29.3 55.5501 29.05C55.6501 28.8 55.7401 28.56 55.8101 28.34C55.8901 28.12 55.9701 27.88 56.0701 27.63C56.3201 27.23 56.4801 26.8 56.5601 26.32C56.6301 25.85 56.8501 25.41 57.1901 25.01V24.79C57.1901 24.24 57.3301 23.78 57.6001 23.41C57.8701 23.04 58.0401 22.58 58.0901 22.03C58.2901 21.88 58.4301 21.67 58.5001 21.4C58.5701 21.13 58.6401 20.84 58.6901 20.54C58.7401 20.24 58.8001 19.96 58.8801 19.68C58.9601 19.41 59.0701 19.17 59.2201 18.97C59.3201 18.82 59.3901 18.47 59.4401 17.92C59.4901 17.37 59.6601 17 59.9601 16.8C60.3101 16.35 60.5001 15.83 60.5201 15.23C60.5401 14.63 60.7301 14.13 61.0801 13.73C61.1801 13.53 61.2201 13.31 61.1901 13.06C61.1601 12.81 61.2001 12.61 61.3001 12.46C61.4001 12.11 61.5601 11.8 61.7901 11.53C62.0101 11.26 62.1301 10.92 62.1301 10.52C62.3301 10.17 62.4201 9.80002 62.3901 9.40002C62.3601 9.00002 62.4801 8.68002 62.7301 8.43002C63.1801 7.98002 63.4001 7.41002 63.4001 6.71002V6.26003C63.5501 5.86003 63.8001 5.56002 64.1501 5.36002C64.5001 5.16002 64.7501 4.89002 64.9001 4.54002C65.4501 4.29002 65.9501 4.14003 66.4001 4.09003C66.8501 4.04003 67.3201 4.02002 67.8201 4.02002C68.9701 4.02002 70.0701 4.08002 71.1501 4.21002C72.2201 4.33002 73.3301 4.40002 74.4801 4.40002H75.3001C75.6001 4.40002 75.9001 4.38002 76.2001 4.33002ZM55.1901 42.23V42.15C55.1901 42.15 55.1601 42.08 55.1201 42.08C55.0201 42.08 54.9601 42.09 54.9301 42.12C54.9001 42.15 54.8701 42.16 54.8201 42.16H54.7401C54.7401 42.21 54.7901 42.24 54.8901 42.24H55.1901V42.23ZM57.0601 46.72C56.9101 46.62 56.7601 46.51 56.6101 46.38C56.4601 46.26 56.2601 46.19 56.0101 46.19C55.8601 46.19 55.7901 46.24 55.7901 46.34C55.7901 46.59 55.8901 46.76 56.0901 46.86C56.2901 46.96 56.4401 47.01 56.5401 47.01C56.8401 47.01 57.0101 46.91 57.0601 46.71V46.72ZM59.2301 39.24C59.1301 39.24 59.0201 39.23 58.8901 39.2C58.7701 39.18 58.6501 39.16 58.5501 39.16C58.3501 39.16 58.2501 39.21 58.2501 39.31C58.2501 39.46 58.3601 39.6 58.5901 39.72C58.8101 39.84 59.0901 39.96 59.4101 40.06C59.7301 40.16 60.0601 40.23 60.3801 40.28C60.7001 40.33 60.9601 40.35 61.1701 40.35C61.3801 40.35 61.5801 40.26 61.8001 40.09C62.0201 39.92 62.1401 39.71 62.1401 39.46C62.1401 39.36 62.0901 39.32 61.9901 39.35C61.8901 39.38 61.7901 39.34 61.6901 39.24C61.4901 39.29 61.3001 39.33 61.1301 39.35C60.9501 39.38 60.7401 39.39 60.4901 39.39C60.0401 39.39 59.6201 39.34 59.2201 39.24H59.2301ZM61.3201 43.35C61.3201 43.2 61.2201 43.13 61.0201 43.13H60.6501C60.6501 43.23 60.6001 43.25 60.5001 43.21C60.4001 43.16 60.3501 43.19 60.3501 43.28C60.3501 43.33 60.3701 43.38 60.4201 43.43C60.3701 43.48 60.3201 43.51 60.2701 43.51C60.2701 43.61 60.3201 43.66 60.4201 43.66L60.3501 43.81C60.3501 43.91 60.4001 43.96 60.5001 43.96C60.6001 43.96 60.7601 43.92 60.9901 43.85C61.2101 43.78 61.3301 43.61 61.3301 43.36L61.3201 43.35ZM64.5301 36.85C64.2801 36.6 63.9801 36.48 63.6301 36.48C63.3801 36.48 63.1101 36.53 62.8101 36.63C62.5101 36.73 62.2401 36.8 61.9901 36.85C61.9901 37 62.1301 37.14 62.4001 37.26C62.6701 37.38 62.9801 37.45 63.3301 37.45C63.6301 37.45 63.9001 37.43 64.1501 37.37C64.4001 37.32 64.5201 37.2 64.5201 37V36.85H64.5301ZM62.2901 45.89V45.82H62.2101L62.1401 45.89C62.1401 45.94 62.1601 45.97 62.2101 45.97L62.2901 45.89ZM64.0901 32.21C64.0401 32.11 63.9401 32.07 63.7901 32.1C63.6401 32.13 63.5201 32.09 63.4201 31.99C63.3201 32.04 63.1801 32.07 63.0101 32.07C62.8401 32.07 62.7001 32.17 62.6001 32.37C62.8001 32.57 63.1501 32.67 63.6501 32.67C63.8501 32.67 64.0601 32.66 64.2801 32.63C64.5001 32.61 64.6901 32.59 64.8401 32.59C64.5901 32.44 64.3401 32.32 64.0901 32.22V32.21ZM63.7101 43.43C63.6101 43.43 63.5601 43.41 63.5601 43.36C63.5601 43.31 63.5101 43.28 63.4101 43.28H63.2601V43.13H62.8101C62.7101 43.13 62.6301 43.21 62.5901 43.35C62.6901 43.4 62.7601 43.44 62.8101 43.46C62.8601 43.49 62.9301 43.55 63.0301 43.65H63.4801C63.6301 43.65 63.7001 43.6 63.7001 43.5V43.42L63.7101 43.43ZM67.1501 21.75C66.9501 21.65 66.8001 21.6 66.7001 21.6C66.5501 21.6 66.4301 21.65 66.3301 21.75C66.3801 21.9 66.5301 21.97 66.7801 21.97H67.3801V21.89L67.3001 21.74H67.1501V21.75ZM67.2301 29V28.78C67.2301 28.78 67.1801 28.71 67.0801 28.71H66.5601C66.5601 28.81 66.5201 28.87 66.4501 28.9C66.3801 28.93 66.3401 28.99 66.3401 29.09C66.3401 29.24 66.4401 29.31 66.6401 29.31C66.7401 29.31 66.8401 29.27 66.9401 29.2C67.0401 29.13 67.1401 29.06 67.2401 29.01L67.2301 29ZM67.6701 19.21C67.5701 19.06 67.4601 18.97 67.3301 18.95C67.2101 18.93 67.0401 18.86 66.8401 18.76C66.7401 18.86 66.6401 18.91 66.5401 18.91C66.4401 18.91 66.3901 18.96 66.3901 19.06C66.3901 19.31 66.4601 19.45 66.6101 19.47C66.7601 19.49 66.9601 19.56 67.2101 19.66C67.3101 19.56 67.4101 19.5 67.5101 19.47C67.6101 19.44 67.6601 19.38 67.6601 19.28V19.21H67.6701ZM67.3801 31.77V31.55C67.3801 31.45 67.2801 31.4 67.0801 31.4H66.7101C66.6601 31.45 66.6001 31.5 66.5201 31.55C66.4401 31.6 66.4101 31.67 66.4101 31.77L66.5601 31.92C66.9101 31.92 67.1801 31.87 67.3801 31.77ZM68.0501 37.97C68.0501 37.77 67.9501 37.67 67.7501 37.67C67.8001 37.67 67.7501 37.68 67.6001 37.71C67.4501 37.74 67.3801 37.8 67.3801 37.9C67.3801 37.95 67.3901 37.99 67.4201 38.01C67.4401 38.04 67.4601 38.07 67.4601 38.12C67.5601 38.12 67.6301 38.13 67.6801 38.16C67.7301 38.19 67.8001 38.2 67.9001 38.2C68.0001 38.2 68.0401 38.19 68.0101 38.16C67.9801 38.14 68.0001 38.07 68.0501 37.97ZM73.8801 18.54C73.7801 18.44 73.6301 18.39 73.4301 18.39C72.8301 18.39 72.4601 18.55 72.3101 18.88C72.1601 19.21 72.0401 19.52 71.9401 19.81V19.96C71.9401 20.11 71.9101 20.23 71.8601 20.33C71.8101 20.43 71.7601 20.53 71.7101 20.63C71.7101 21.23 71.5601 21.67 71.2601 21.94C70.9601 22.22 70.8101 22.63 70.8101 23.17C70.8101 23.32 70.8201 23.47 70.8501 23.62C70.8701 23.77 70.8901 23.92 70.8901 24.07C70.7901 24.32 70.6801 24.54 70.5501 24.74C70.4301 24.94 70.3101 25.16 70.2101 25.41V25.78C70.2101 26.28 70.1101 26.68 69.9101 26.98C69.7101 27.28 69.5401 27.63 69.3901 28.03V28.33C69.3901 28.83 69.2901 29.25 69.0901 29.6C68.8901 29.95 68.7401 30.32 68.6401 30.72C68.5401 30.92 68.4501 31.17 68.3801 31.47C68.3101 31.77 68.2201 32.07 68.1201 32.37C68.0201 32.72 67.9501 33.07 67.9001 33.42C67.9001 33.72 68.0401 33.97 68.3101 34.17C68.5801 34.37 68.7701 34.57 68.8701 34.77H70.1401C70.9901 34.77 71.7801 34.85 72.5301 34.99C73.2801 35.14 74.0701 35.21 74.9201 35.21H75.6701C75.9201 35.21 76.1701 35.16 76.4201 35.06C76.5701 34.91 76.7601 34.81 76.9801 34.76C77.2001 34.71 77.4301 34.67 77.6501 34.65C77.8701 34.63 78.0701 34.56 78.2501 34.46C78.4201 34.36 78.5101 34.19 78.5101 33.94C78.5101 33.69 78.4301 33.28 78.2901 32.71C78.1401 32.14 77.9501 31.53 77.7301 30.88C77.5101 30.23 77.2901 29.62 77.0901 29.05C76.8901 28.48 76.7201 28.09 76.5701 27.89C76.5701 27.34 76.4601 26.88 76.2301 26.51C76.0101 26.14 75.8701 25.7 75.8201 25.2C75.5201 24.8 75.3701 24.3 75.3701 23.7C75.3701 23.1 75.1701 22.68 74.7701 22.43C74.7701 22.33 74.7601 22.19 74.7301 22.02C74.7001 21.85 74.6901 21.66 74.6901 21.46C74.6901 21.16 74.7501 20.94 74.8801 20.79C75.0001 20.64 75.1301 20.53 75.2501 20.45C75.3701 20.37 75.5001 20.3 75.6201 20.23C75.7401 20.15 75.8101 20.04 75.8101 19.89C75.5601 19.89 75.3501 19.95 75.1701 20.08C75.0001 20.2 74.8101 20.32 74.6101 20.42C74.1601 20.32 73.9501 20.06 73.9801 19.64C74.0001 19.22 73.9701 18.85 73.8701 18.56L73.8801 18.54ZM70.8901 14.28C70.8901 14.18 70.8401 14.13 70.7401 14.13H70.1401C70.1401 14.23 70.0601 14.3 69.9201 14.35C69.7701 14.4 69.7001 14.47 69.7001 14.57C69.7001 14.62 69.7501 14.65 69.8501 14.65H70.0701C70.4701 14.65 70.7401 14.53 70.8901 14.28ZM70.8101 18.24C70.8101 18.14 70.7301 18.09 70.5901 18.09C70.3901 18.09 70.2901 18.14 70.2901 18.24C70.2901 18.44 70.3101 18.56 70.3701 18.61C70.5201 18.61 70.6701 18.49 70.8201 18.24H70.8101ZM72.6801 11.06C72.4301 10.81 72.2101 10.69 72.0101 10.69C71.9101 10.69 71.7901 10.72 71.6401 10.76C71.4901 10.81 71.3701 10.86 71.2701 10.91C71.2701 11.06 71.3701 11.18 71.5701 11.28H72.0901C72.3901 11.28 72.5901 11.21 72.6901 11.06H72.6801ZM74.7801 16.44C74.6801 16.19 74.5201 16.04 74.2901 15.99C74.0701 15.94 73.8001 15.92 73.5001 15.92H72.3801C72.1301 16.02 71.8901 16.09 71.6701 16.14C71.4501 16.19 71.3301 16.49 71.3301 17.04C71.3801 17.04 71.4301 17.05 71.4801 17.08C71.5301 17.11 71.5801 17.12 71.6301 17.12C72.0301 17.12 72.3601 17.04 72.6401 16.9C72.9101 16.75 73.2501 16.68 73.6501 16.68C74.0001 16.68 74.2401 16.74 74.3601 16.87C74.4801 16.99 74.5701 17.14 74.6201 17.32C74.6701 17.49 74.7401 17.64 74.8401 17.77C74.9401 17.89 75.1401 17.96 75.4401 17.96C75.5401 17.96 75.7001 17.94 75.9301 17.89C76.1501 17.84 76.2701 17.77 76.2701 17.67C76.2701 17.17 76.0801 16.91 75.7101 16.89C75.3401 16.87 75.0201 16.73 74.7801 16.48V16.44ZM72.1601 39.84C72.1601 39.74 72.1101 39.69 72.0101 39.69C71.7601 39.69 71.6401 39.77 71.6401 39.91C71.6401 39.96 71.6601 40.01 71.7101 40.06C71.9601 40.06 72.1101 39.98 72.1601 39.84ZM75.8201 12.26C75.7701 12.16 75.7101 12.12 75.6301 12.15C75.5501 12.18 75.4901 12.14 75.4401 12.04H74.9901C74.7401 12.04 74.6001 12.11 74.5801 12.26C74.5501 12.41 74.4701 12.53 74.3201 12.63C74.3701 12.83 74.5201 12.93 74.7701 12.93H75.4401C75.5401 12.83 75.6001 12.73 75.6301 12.63C75.6501 12.53 75.7201 12.41 75.8201 12.26ZM77.8401 14.57C77.6901 14.47 77.5401 14.4 77.3901 14.35C77.2401 14.3 77.0401 14.28 76.7901 14.28C76.6901 14.28 76.5801 14.31 76.4501 14.35C76.3301 14.4 76.2601 14.5 76.2601 14.65C76.2601 14.7 76.2801 14.75 76.3401 14.8H76.5601C76.6601 14.8 76.7701 14.81 76.9001 14.84C77.0201 14.87 77.1401 14.88 77.2401 14.88C77.6401 14.88 77.8401 14.78 77.8401 14.58V14.57ZM78.3601 11.66C78.3601 11.41 78.3101 11.27 78.2101 11.25C78.1101 11.23 78.0101 11.21 77.9101 11.21C77.6101 11.21 77.3901 11.28 77.2401 11.43C77.0901 11.58 76.9201 11.76 76.7201 11.95C76.7701 12.05 76.9701 12.1 77.3201 12.1H77.6201C77.7201 12.1 77.8201 12.08 77.9201 12.03H78.0001C78.1001 12.03 78.1601 11.99 78.1901 11.92C78.2101 11.84 78.2801 11.76 78.3801 11.66H78.3601ZM78.5901 38.64C78.4901 38.54 78.3701 38.49 78.2201 38.49C78.1201 38.49 78.0001 38.52 77.8501 38.56C77.7001 38.61 77.5801 38.64 77.4801 38.64H77.3301C76.9801 38.74 76.8101 38.84 76.8101 38.94C77.1601 39.29 77.6301 39.46 78.2301 39.46C78.4801 39.46 78.6001 39.36 78.6001 39.16V38.64H78.5901ZM78.8101 16.74C78.7101 16.59 78.5501 16.52 78.3201 16.52H77.6101C77.5101 16.52 77.4601 16.57 77.4601 16.67C77.4601 16.82 77.5401 16.91 77.6801 16.93C77.8301 16.96 77.9501 16.97 78.0501 16.97C78.1501 16.97 78.4001 16.9 78.8001 16.75L78.8101 16.74ZM79.5601 20.93C79.5101 20.83 79.4101 20.78 79.2601 20.78H78.5901C78.5901 20.88 78.5601 20.92 78.5201 20.89C78.4701 20.87 78.4401 20.9 78.4401 21V21.07H79.1101C79.3601 21.07 79.5101 21.02 79.5601 20.92V20.93ZM79.4101 29.9C79.3101 29.8 79.2101 29.75 79.1101 29.75C78.9101 29.75 78.8101 29.8 78.8101 29.9C78.9101 30 78.9801 30.05 79.0301 30.05C79.0801 30.05 79.2001 30 79.4001 29.9H79.4101ZM79.7801 37.45C79.6801 37.45 79.6301 37.43 79.6301 37.37C79.6301 37.31 79.5801 37.3 79.4801 37.3C79.3801 37.4 79.3301 37.47 79.3301 37.52C79.3301 37.67 79.3801 37.74 79.4801 37.74C79.6801 37.74 79.7801 37.69 79.7801 37.59V37.44V37.45ZM88.3101 38.79C88.1601 38.54 87.9101 38.42 87.5601 38.42C87.1101 38.42 86.6501 38.51 86.1801 38.68C85.7101 38.85 85.2001 38.94 84.6501 38.94C84.1001 38.94 83.6301 38.86 83.2301 38.72C82.8301 38.57 82.3601 38.5 81.8101 38.5C81.5101 38.5 81.2101 38.55 80.9101 38.65L80.8301 38.57C80.7801 38.62 80.7601 38.67 80.7601 38.72C80.7601 39.07 81.0101 39.24 81.5101 39.24H81.8101C82.1601 39.39 82.4601 39.46 82.7101 39.46C83.1101 39.46 83.5001 39.4 83.8701 39.27C84.2401 39.15 84.6301 39.08 85.0301 39.08C85.2301 39.08 85.5301 39.13 85.9301 39.23C86.1301 39.28 86.3001 39.33 86.4501 39.38C86.7501 39.28 87.1001 39.22 87.5001 39.19C87.9001 39.17 88.1701 39.03 88.3201 38.78L88.3101 38.79ZM82.5501 36.03H81.5001V36.1C81.5001 36.2 81.4701 36.25 81.4301 36.25C81.3901 36.25 81.3501 36.35 81.3501 36.55C81.5001 36.7 81.7501 36.77 82.1001 36.77C82.2501 36.77 82.4501 36.7 82.7001 36.55V36.18C82.7001 36.18 82.6501 36.08 82.5501 36.03ZM82.1001 33.41H81.6501V33.48C81.6501 33.58 81.6701 33.63 81.7301 33.63H82.0301C82.0301 33.63 82.0401 33.54 82.0701 33.52C82.0901 33.49 82.1101 33.46 82.1101 33.41H82.1001ZM85.2401 34.68C85.0401 34.63 84.8901 34.59 84.7901 34.57C84.6901 34.55 84.5701 34.53 84.4201 34.53C84.3201 34.53 84.0701 34.58 83.6701 34.68V34.75C83.6701 34.8 83.6401 34.81 83.5901 34.79C83.5401 34.77 83.5201 34.8 83.5201 34.9C83.5201 35 83.6101 35.07 83.7801 35.12C83.9501 35.17 84.1201 35.2 84.2701 35.2C84.4701 35.2 84.6801 35.19 84.9101 35.16C85.1301 35.14 85.2501 35 85.2501 34.75V34.68H85.2401ZM84.8701 30.12C84.8701 30.02 84.7501 29.97 84.5001 29.97C84.2001 29.97 84.0501 30.04 84.0501 30.19C84.0501 30.24 84.0601 30.27 84.0901 30.27C84.1201 30.27 84.1301 30.32 84.1301 30.42C84.2801 30.32 84.4401 30.31 84.6201 30.38C84.7901 30.45 84.8801 30.37 84.8801 30.12H84.8701ZM84.8701 27.66C84.8701 27.56 84.8201 27.51 84.7201 27.51H84.3501V27.58C84.3501 27.68 84.3701 27.73 84.4201 27.73C84.5201 27.73 84.5901 27.72 84.6401 27.69C84.6901 27.67 84.7601 27.65 84.8601 27.65L84.8701 27.66ZM84.6401 37.15V37.07C84.6401 36.97 84.5901 36.92 84.4901 36.92C84.4901 37.12 84.5101 37.22 84.5701 37.22L84.6401 37.15ZM86.2901 44.03C86.2901 44.03 86.2801 43.95 86.2501 43.95C86.2201 43.95 86.2101 43.93 86.2101 43.88V43.8C86.0601 43.8 85.9901 43.88 85.9901 44.02V44.09C85.9901 44.14 86.0401 44.17 86.1401 44.17C86.1901 44.17 86.2001 44.15 86.1801 44.09C86.1501 44.04 86.1901 44.02 86.2901 44.02V44.03ZM86.9601 36.4L86.8801 36.25C86.8301 36.3 86.8101 36.35 86.8101 36.4C86.8101 36.45 86.8301 36.48 86.8801 36.48L86.9601 36.4ZM90.2501 43.65C90.1501 43.45 89.8501 43.35 89.3501 43.35C89.3501 43.45 89.3401 43.5 89.3101 43.5C89.2801 43.5 89.2701 43.53 89.2701 43.57C89.2701 43.67 89.3301 43.75 89.4601 43.79C89.5801 43.84 89.6701 43.87 89.7201 43.87C89.9201 43.87 90.0901 43.79 90.2401 43.65H90.2501Z" fill="#2B388F"/>
<path d="M101.53 2.84003H114.69L127.7 21.98L140.63 2.84003H153.79V52.7H137.87V34.76L127.7 49.71L117.46 34.76V52.7H101.54V2.84003H101.53ZM110.95 46.72V12.41L127.69 36.78L144.36 12.41V46.72H146.3V8.82002H144.36L127.69 33.41L110.95 8.82002H109.01V46.72H110.95Z" fill="#2B388F"/>
<path d="M181.11 50.85C177.71 53.67 174.04 55.09 170.1 55.09C166.16 55.09 163.04 53.7 160.85 50.91C159.26 48.88 158.46 46.56 158.46 43.93C158.46 42.94 158.58 41.88 158.82 40.77L163.41 19.3C164.24 15.32 166.33 11.94 169.67 9.16003C173.01 6.38003 176.71 4.98004 180.76 4.98004C184.81 4.98004 187.66 6.39003 189.89 9.22003C191.56 11.33 192.4 13.69 192.4 16.32C192.4 17.28 192.28 18.27 192.04 19.3C191.2 23.2 189.1 26.56 185.72 29.38C182.34 32.2 178.66 33.62 174.68 33.62H167.52L165.97 40.78C165.85 41.34 165.79 41.85 165.79 42.33C165.79 43.68 166.19 44.86 166.98 45.85C168.09 47.24 169.64 47.94 171.63 47.94C173.62 47.94 175.41 47.23 177.12 45.82C178.83 44.41 179.88 42.73 180.28 40.78C180.48 39.79 181 38.94 181.86 38.24C182.72 37.54 183.64 37.2 184.63 37.2C185.62 37.2 186.39 37.55 186.93 38.24C187.47 38.94 187.64 39.78 187.44 40.78C186.61 44.68 184.49 48.04 181.09 50.86L181.11 50.85ZM169.03 26.45H176.19C178.14 26.45 179.95 25.75 181.62 24.36C183.89 22.49 185.02 20.32 185.02 17.86C185.02 16.27 184.46 14.92 183.35 13.8C182.24 12.69 180.86 12.13 179.23 12.13C177.24 12.13 175.41 12.83 173.74 14.22C172.07 15.61 171.02 17.3 170.58 19.29L169.03 26.45Z" fill="#2B388F"/>
<path d="M0.790009 9.18002C0.400009 9.18002 0 8.87001 0 8.39001C0 7.53001 1.02 7.55003 1.83 7.45003C1.91 4.60003 2.62 2.22001 2.64 2.14001C2.77 1.80001 3.09001 1.59003 3.40001 1.59003C3.87001 1.59003 4.19 1.98002 4.19 2.38002C4.19 2.72002 3.51001 4.53002 3.40001 7.27002C4.68001 7.16002 6.12001 7.09003 7.59001 7.09003C8.01001 7.09003 8.38 7.46002 8.38 7.88002C8.38 8.30002 8.01001 8.67003 7.59001 8.67003C6.15001 8.67003 4.69001 8.77002 3.43001 8.88002C3.67001 14.4 5.92 15.74 8.11 15.74C8.53 15.74 8.90001 16.11 8.90001 16.53C8.90001 16.95 8.53 17.32 8.11 17.32C4.89 17.32 2.17 14.94 1.86 9.05002C1.47 9.10002 1.13001 9.21002 0.790009 9.21002V9.18002Z" fill="#2B388F"/>
<path d="M15.4403 14.15C15.7303 14.15 16.1203 13.78 17.2503 11.79C18.2403 10.04 19.0603 8.65001 20.6803 8.65001C22.5903 8.65001 22.7703 10.66 22.7703 12.57C22.7703 15.66 23.1903 15.71 23.7603 15.71H23.8103C24.2303 15.71 24.6003 16.08 24.6003 16.5C24.6003 16.92 24.2303 17.29 23.8103 17.29C21.8203 17.29 21.1903 15.67 21.1903 12.58C21.1903 10.3 20.8503 10.23 20.6703 10.23C20.2003 10.23 19.7003 10.67 18.6003 12.58C17.6303 14.25 16.9803 15.72 15.4303 15.72C14.5703 15.72 13.8903 15.07 13.4703 14.23C11.9003 15.96 10.0703 17.29 8.11031 17.29C7.69031 17.29 7.32031 16.92 7.32031 16.5C7.32031 16.08 7.69031 15.71 8.11031 15.71C9.50031 15.71 11.3003 14.43 12.9003 12.49C12.6603 11.42 12.5603 10.21 12.5603 8.64C12.5603 4.4 13.4003 0 16.2203 0C17.9703 0 18.5803 1.73 18.5803 3.14C18.5803 5.89 16.8303 9.92001 14.6303 12.85C14.9703 13.95 15.4203 14.13 15.4403 14.13V14.15ZM16.2303 1.59001C15.3903 1.59001 14.1403 4 14.1403 8.66C14.1403 9.42 14.1703 10.1 14.2203 10.7C15.8903 8.08001 17.0203 5.02 17.0203 3.16C17.0203 1.96 16.5703 1.59001 16.2303 1.59001Z" fill="#2B388F"/>
<path d="M34.7998 15.72C34.7998 16.01 34.6198 16.3 34.3498 16.43C32.9598 17.11 31.9898 17.29 30.8698 17.29C29.8498 17.29 28.9598 16.98 28.2498 16.4C26.8098 16.95 25.2398 17.29 23.7998 17.29C23.3798 17.29 23.0098 16.92 23.0098 16.5C23.0098 16.08 23.3798 15.71 23.7998 15.71C24.8498 15.71 26.0498 15.5 27.1998 15.11C26.8598 14.43 26.6798 13.64 26.6798 12.83C26.6798 10.63 28.2798 8.64001 30.5998 8.64001C32.0698 8.64001 33.2198 9.79002 33.2198 11.26C33.2198 13.14 31.6998 14.58 29.9698 15.58C30.2298 15.66 30.5498 15.71 30.8598 15.71C31.8298 15.71 32.4298 15.63 33.6598 15C33.7698 14.95 33.8998 14.92 33.9998 14.92C34.3898 14.92 34.7898 15.23 34.7898 15.71L34.7998 15.72ZM30.6198 10.23C29.2898 10.23 28.2598 11.38 28.2598 12.85C28.2598 13.5 28.4198 14.08 28.6798 14.52C30.5598 13.58 31.6598 12.32 31.6598 11.27C31.6598 10.64 31.2398 10.22 30.6098 10.22L30.6198 10.23Z" fill="#2B388F"/>
<path d="M59.5805 60.3199C60.3205 60.3299 61.0205 60.4899 61.6905 60.7799C62.3505 61.0799 62.9305 61.48 63.4205 61.99C63.9105 62.5 64.3005 63.0899 64.5905 63.7599C64.8805 64.4299 65.0105 65.1499 65.0005 65.9299C64.9905 66.6899 64.8305 67.39 64.5405 68.05C64.2505 68.71 63.8405 69.28 63.3405 69.77C62.8405 70.26 62.2605 70.6499 61.5905 70.9299C60.9205 71.2099 60.2005 71.34 59.4205 71.33C58.6605 71.32 57.9505 71.17 57.2905 70.89C56.6305 70.61 56.0505 70.2199 55.5605 69.7199C55.0705 69.2199 54.6805 68.6299 54.4005 67.9599C54.1205 67.2899 53.9905 66.56 54.0005 65.77C54.0105 65.01 54.1605 64.3099 54.4505 63.6499C54.7405 62.9999 55.1305 62.4299 55.6305 61.9399C56.1305 61.4599 56.7205 61.0699 57.4005 60.7799C58.0805 60.4899 58.8105 60.3399 59.5805 60.3199ZM59.5405 63.2899C59.1905 63.2899 58.8605 63.3399 58.5605 63.4699C58.2605 63.5999 57.9805 63.77 57.7505 63.99C57.5105 64.21 57.3205 64.4799 57.1805 64.7899C57.0405 65.0999 56.9705 65.43 56.9605 65.8C56.9605 66.15 57.0205 66.4799 57.1505 66.7899C57.2805 67.0999 57.4605 67.3799 57.6905 67.6199C57.9205 67.8599 58.1905 68.0499 58.4905 68.1899C58.7905 68.3299 59.1205 68.3999 59.4605 68.4099C59.8005 68.4199 60.1405 68.3499 60.4505 68.2199C60.7605 68.0899 61.0305 67.9099 61.2705 67.6799C61.5005 67.4499 61.6905 67.1799 61.8305 66.8699C61.9705 66.5599 62.0405 66.2299 62.0505 65.8799C62.0305 65.1799 61.7905 64.5899 61.3305 64.0999C60.8705 63.6099 60.2705 63.34 59.5505 63.3L59.5405 63.2899Z" fill="#2B388F"/>
<path d="M72.6801 57.01C73.1201 57.01 73.4901 57.14 73.7901 57.39C74.0901 57.64 74.2501 58 74.2701 58.49C74.2701 58.88 74.1201 59.22 73.8301 59.48C73.5501 59.75 73.1901 59.89 72.7701 59.92C72.4501 59.93 72.2001 60.04 72.0201 60.25C71.8401 60.46 71.7401 60.71 71.7401 61L71.7101 63.23C72.4101 63.27 72.8801 63.43 73.1501 63.72C73.4101 64 73.5401 64.35 73.5301 64.76C73.5201 65.17 73.3901 65.51 73.1301 65.78C72.8701 66.05 72.3801 66.1899 71.6701 66.2099L71.6001 70.78C71.6001 71.22 71.5201 71.64 71.3601 72.05C71.2101 72.46 71.0001 72.82 70.7401 73.14C70.4801 73.46 70.1701 73.75 69.8101 74C69.4501 74.25 69.0401 74.44 68.5901 74.57C68.3201 74.66 68.0301 74.6899 67.7501 74.6799C67.4601 74.6699 67.2001 74.6 66.9701 74.49C66.7401 74.38 66.5401 74.21 66.3801 73.99C66.2201 73.78 66.1301 73.5 66.1201 73.17C66.1201 72.78 66.2701 72.44 66.5601 72.16C66.8401 71.88 67.1801 71.74 67.5801 71.73C67.8801 71.73 68.1401 71.63 68.3501 71.41C68.5601 71.19 68.6601 70.9499 68.6701 70.6799L68.7401 66.16C68.0301 66.15 67.5501 66.01 67.3101 65.73C67.0701 65.45 66.9401 65.1 66.9201 64.66C66.9201 64.27 67.0601 63.9299 67.3201 63.6499C67.5801 63.3699 68.0701 63.2199 68.7801 63.1799L68.8101 60.9299C68.8101 60.4099 68.9201 59.92 69.1301 59.45C69.3301 58.98 69.6101 58.56 69.9701 58.19C70.3201 57.82 70.7401 57.53 71.2101 57.32C71.6801 57.11 72.1801 57 72.7101 57.01H72.6801Z" fill="#2B388F"/>
<path d="M87.0408 60.77C87.7208 60.86 88.3608 61.06 88.9508 61.39C89.5408 61.72 90.0508 62.13 90.4808 62.63C90.9008 63.13 91.2408 63.69 91.4808 64.33C91.7208 64.96 91.8408 65.63 91.8208 66.32L91.7608 70.34C91.7608 70.75 91.6008 71.1 91.2908 71.38C90.9808 71.66 90.6408 71.8 90.2608 71.8C89.7308 71.8 89.3108 71.54 89.0008 71.05C88.9208 71.08 88.8608 71.11 88.7908 71.15C88.7308 71.19 88.6708 71.22 88.6108 71.25C88.2408 71.41 87.8708 71.53 87.4908 71.62C87.0908 71.7 86.6808 71.74 86.2408 71.74C85.1008 71.72 84.0908 71.4 83.2108 70.77C82.3308 70.14 81.6708 69.34 81.2508 68.37C81.1008 68.02 80.9908 67.66 80.9108 67.3C80.8308 66.94 80.8008 66.56 80.8008 66.16C80.8008 65.76 80.8508 65.39 80.9408 65.03C81.0308 64.67 81.1508 64.31 81.3108 63.97C81.7608 62.99 82.4408 62.21 83.3508 61.61C84.2508 61.02 85.2708 60.73 86.4108 60.75C86.5308 60.75 86.6408 60.75 86.7408 60.75C86.8408 60.75 86.9408 60.76 87.0508 60.78L87.0408 60.77ZM86.2608 68.78C86.6108 68.78 86.9408 68.73 87.2508 68.6C87.5608 68.48 87.8308 68.3 88.0708 68.08C88.3008 67.86 88.4808 67.59 88.6308 67.28C88.7808 66.97 88.8408 66.64 88.8508 66.27C88.8508 65.94 88.7908 65.61 88.6608 65.3C88.5308 64.99 88.3508 64.71 88.1208 64.47C87.8908 64.23 87.6208 64.04 87.3108 63.9C87.0008 63.76 86.6808 63.69 86.3508 63.68C86.0208 63.68 85.7008 63.74 85.3908 63.87C85.0908 64 84.8108 64.18 84.5808 64.41C84.3408 64.64 84.1508 64.91 84.0108 65.22C83.8708 65.53 83.8008 65.85 83.7908 66.18C83.7908 66.53 83.8508 66.86 83.9908 67.17C84.1308 67.48 84.3108 67.75 84.5508 67.99C84.7808 68.22 85.0508 68.41 85.3508 68.55C85.6508 68.69 85.9608 68.76 86.2808 68.77L86.2608 68.78Z" fill="#2B388F"/>
<path d="M102.75 57.5C103.14 57.5 103.49 57.65 103.78 57.94C104.07 58.22 104.21 58.59 104.21 59.03L104.1 66.51C104.09 67.25 103.93 67.95 103.63 68.62C103.32 69.28 102.91 69.86 102.4 70.35C101.88 70.84 101.29 71.23 100.62 71.52C99.9503 71.81 99.2503 71.94 98.5203 71.93C97.7903 71.92 97.1003 71.76 96.4403 71.47C95.7803 71.17 95.2003 70.77 94.7003 70.26C94.2003 69.75 93.8003 69.16 93.5103 68.49C93.2203 67.82 93.0803 67.1 93.0903 66.35C93.1003 65.61 93.2603 64.91 93.5703 64.24C93.8703 63.58 94.2804 63 94.8004 62.51C95.3204 62.02 95.9103 61.63 96.5803 61.34C97.2503 61.05 97.9603 60.92 98.7003 60.93C99.6103 60.94 100.45 61.16 101.21 61.58L101.25 58.97C101.25 58.77 101.3 58.58 101.38 58.4C101.47 58.22 101.58 58.06 101.72 57.93C101.86 57.8 102.02 57.69 102.2 57.62C102.38 57.55 102.57 57.51 102.77 57.51L102.75 57.5ZM98.6303 63.87C98.2803 63.87 97.9503 63.93 97.6403 64.06C97.3303 64.19 97.0503 64.37 96.8103 64.6C96.5703 64.83 96.3803 65.1 96.2403 65.41C96.1003 65.72 96.0303 66.04 96.0203 66.37C96.0203 66.72 96.0803 67.05 96.2103 67.36C96.3403 67.67 96.5203 67.94 96.7503 68.18C96.9803 68.41 97.2503 68.6 97.5603 68.74C97.8703 68.88 98.2004 68.95 98.5504 68.96C98.8804 68.96 99.2003 68.9 99.5103 68.77C99.8103 68.64 100.09 68.46 100.32 68.23C100.56 68 100.75 67.73 100.89 67.43C101.03 67.13 101.1 66.81 101.11 66.46C101.11 66.1 101.05 65.76 100.92 65.45C100.79 65.14 100.61 64.87 100.37 64.64C100.14 64.41 99.8703 64.23 99.5703 64.09C99.2703 63.96 98.9503 63.89 98.6203 63.88L98.6303 63.87Z" fill="#2B388F"/>
<path d="M107.12 72.07C106.71 72.07 106.37 71.93 106.1 71.66C105.83 71.39 105.68 71.04 105.66 70.6L105.72 66.4C105.75 65.67 105.91 64.99 106.22 64.35C106.53 63.71 106.93 63.16 107.43 62.69C107.93 62.22 108.51 61.85 109.18 61.58C109.84 61.31 110.55 61.16 111.29 61.14C111.71 61.14 112.06 61.3 112.34 61.59C112.62 61.88 112.77 62.23 112.79 62.64C112.79 63.05 112.64 63.39 112.34 63.67C112.05 63.95 111.69 64.09 111.27 64.1C110.92 64.1 110.6 64.15 110.29 64.28C109.98 64.4 109.72 64.58 109.49 64.8C109.26 65.02 109.07 65.29 108.93 65.6C108.79 65.91 108.72 66.24 108.71 66.61L108.65 70.75C108.61 71.14 108.46 71.47 108.19 71.72C107.92 71.97 107.57 72.1 107.13 72.09L107.12 72.07Z" fill="#2B388F"/>
<path d="M118.881 61.22C119.611 61.23 120.301 61.39 120.961 61.71C121.621 62.02 122.201 62.44 122.701 62.95C123.201 63.47 123.601 64.05 123.891 64.72C124.181 65.38 124.321 66.08 124.311 66.81C124.311 67.2 124.151 67.51 123.851 67.74C123.551 67.96 123.181 68.06 122.741 68.04L116.691 67.95C117.181 68.82 117.861 69.26 118.741 69.28C118.981 69.28 119.191 69.26 119.351 69.22C119.521 69.18 119.671 69.13 119.801 69.07C119.931 69.01 120.061 68.96 120.191 68.92C120.321 68.88 120.471 68.86 120.631 68.86C120.951 68.88 121.221 68.97 121.461 69.15C121.701 69.33 121.861 69.53 121.971 69.78C122.081 70.03 122.111 70.3 122.071 70.59C122.031 70.88 121.891 71.14 121.661 71.38C121.251 71.71 120.791 71.93 120.291 72.05C119.791 72.17 119.261 72.24 118.701 72.24C117.971 72.26 117.281 72.12 116.621 71.81C115.961 71.51 115.381 71.1 114.881 70.58C114.381 70.07 113.991 69.46 113.701 68.78C113.421 68.09 113.281 67.39 113.291 66.66C113.301 65.95 113.461 65.26 113.761 64.6C114.071 63.94 114.471 63.36 114.981 62.86C115.491 62.36 116.081 61.96 116.751 61.67C117.421 61.38 118.131 61.24 118.871 61.25L118.881 61.22ZM120.881 65.48C120.631 65.01 120.331 64.67 119.991 64.48C119.651 64.29 119.261 64.19 118.831 64.18C118.391 64.18 118.001 64.26 117.661 64.45C117.321 64.64 117.011 64.96 116.751 65.43L120.891 65.49L120.881 65.48Z" fill="#2B388F"/>
<path d="M131.35 61.34C132.08 61.35 132.77 61.49 133.43 61.77C134.09 62.05 134.67 62.43 135.16 62.91C135.65 63.39 136.05 63.96 136.34 64.62C136.63 65.28 136.78 65.98 136.76 66.74L136.7 70.94C136.7 71.33 136.55 71.67 136.26 71.96C135.97 72.24 135.63 72.39 135.22 72.4C134.81 72.4 134.46 72.26 134.17 71.99C133.88 71.72 133.74 71.38 133.74 70.97L133.8 66.88C133.8 66.53 133.75 66.2 133.62 65.89C133.5 65.58 133.32 65.31 133.09 65.08C132.86 64.85 132.59 64.66 132.28 64.52C131.97 64.38 131.64 64.31 131.27 64.3C130.94 64.3 130.62 64.36 130.31 64.48C130 64.6 129.74 64.77 129.51 64.98C129.28 65.19 129.09 65.44 128.95 65.74C128.81 66.04 128.74 66.36 128.73 66.69L128.67 70.83C128.67 71.22 128.51 71.57 128.2 71.86C127.89 72.15 127.54 72.29 127.15 72.29C126.76 72.29 126.41 72.14 126.11 71.87C125.81 71.59 125.66 71.26 125.67 70.86L125.73 66.77C125.76 66.01 125.91 65.3 126.21 64.64C126.5 63.98 126.89 63.4 127.4 62.91C127.9 62.42 128.48 62.03 129.16 61.75C129.83 61.47 130.56 61.34 131.35 61.35V61.34Z" fill="#2B388F"/>
<path d="M144.581 61.62C145.261 61.71 145.901 61.91 146.491 62.24C147.081 62.57 147.591 62.98 148.021 63.48C148.441 63.98 148.781 64.54 149.021 65.18C149.261 65.81 149.381 66.48 149.361 67.17L149.301 71.19C149.301 71.6 149.141 71.95 148.831 72.23C148.521 72.51 148.181 72.65 147.801 72.65C147.271 72.65 146.851 72.39 146.541 71.9C146.461 71.93 146.401 71.96 146.331 72C146.271 72.04 146.211 72.07 146.151 72.1C145.781 72.26 145.411 72.39 145.031 72.47C144.631 72.55 144.221 72.59 143.781 72.59C142.641 72.57 141.631 72.25 140.751 71.62C139.871 70.99 139.211 70.19 138.791 69.22C138.641 68.87 138.531 68.51 138.451 68.15C138.371 67.78 138.341 67.41 138.341 67.01C138.341 66.62 138.391 66.24 138.481 65.88C138.571 65.52 138.691 65.16 138.851 64.82C139.301 63.84 139.981 63.06 140.891 62.46C141.791 61.87 142.811 61.58 143.951 61.6C144.071 61.6 144.181 61.6 144.281 61.6C144.381 61.6 144.481 61.61 144.591 61.63L144.581 61.62ZM143.801 69.64C144.151 69.64 144.481 69.59 144.791 69.46C145.101 69.34 145.371 69.16 145.611 68.94C145.841 68.72 146.031 68.45 146.171 68.14C146.311 67.83 146.381 67.5 146.391 67.13C146.391 66.8 146.331 66.47 146.201 66.16C146.071 65.85 145.891 65.57 145.661 65.33C145.431 65.09 145.161 64.9 144.851 64.76C144.541 64.62 144.221 64.55 143.891 64.54C143.561 64.54 143.241 64.6 142.931 64.73C142.631 64.86 142.351 65.04 142.121 65.27C141.881 65.5 141.691 65.77 141.551 66.08C141.411 66.39 141.341 66.71 141.331 67.04C141.331 67.39 141.391 67.72 141.531 68.03C141.671 68.34 141.851 68.61 142.081 68.85C142.311 69.08 142.581 69.27 142.881 69.41C143.181 69.55 143.491 69.62 143.811 69.63L143.801 69.64Z" fill="#2B388F"/>
<path d="M152.701 58.27C153.111 58.27 153.451 58.43 153.731 58.72C154.011 59.01 154.151 59.37 154.181 59.79L154.051 68.77C154.051 69.07 154.141 69.33 154.331 69.55C154.521 69.77 154.771 69.87 155.081 69.88C155.471 69.88 155.821 70.03 156.111 70.3C156.401 70.58 156.551 70.92 156.561 71.33C156.561 71.69 156.421 72.01 156.171 72.29C155.921 72.57 155.591 72.73 155.201 72.79H154.881C154.351 72.78 153.851 72.66 153.381 72.43C152.911 72.2 152.501 71.91 152.161 71.54C151.811 71.17 151.541 70.74 151.341 70.25C151.141 69.76 151.051 69.25 151.051 68.72L151.181 59.65C151.231 59.27 151.401 58.95 151.671 58.68C151.951 58.41 152.291 58.27 152.701 58.26V58.27Z" fill="#2B388F"/>
<path d="M159.51 61.89C159.9 61.89 160.23 62.05 160.49 62.34C160.75 62.63 160.89 62.98 160.92 63.39L160.8 71.44C160.8 71.85 160.66 72.19 160.4 72.46C160.14 72.73 159.79 72.88 159.35 72.9C158.96 72.9 158.62 72.77 158.35 72.52C158.08 72.27 157.92 71.93 157.87 71.49L157.99 63.26C158.03 62.87 158.19 62.54 158.48 62.29C158.77 62.04 159.11 61.91 159.51 61.9V61.89ZM159.56 58.42C159.95 58.42 160.29 58.58 160.56 58.88C160.84 59.18 160.97 59.53 160.96 59.92C160.96 60.31 160.81 60.66 160.53 60.95C160.24 61.24 159.91 61.38 159.51 61.38C159.07 61.36 158.71 61.21 158.44 60.94C158.16 60.67 158.03 60.29 158.04 59.81C158.06 59.42 158.22 59.08 158.52 58.82C158.82 58.55 159.17 58.42 159.56 58.43V58.42Z" fill="#2B388F"/>
<path d="M168.241 61.89C168.971 61.9 169.661 62.04 170.321 62.32C170.981 62.59 171.561 62.97 172.051 63.46C172.541 63.94 172.941 64.52 173.231 65.17C173.521 65.83 173.671 66.53 173.651 67.29L173.591 71.49C173.591 71.88 173.441 72.22 173.151 72.51C172.861 72.79 172.521 72.94 172.111 72.95C171.701 72.95 171.351 72.81 171.061 72.54C170.771 72.27 170.631 71.93 170.631 71.52L170.691 67.43C170.691 67.08 170.641 66.75 170.511 66.44C170.391 66.13 170.211 65.86 169.981 65.62C169.751 65.39 169.481 65.2 169.171 65.06C168.861 64.92 168.531 64.85 168.161 64.84C167.831 64.84 167.511 64.9 167.201 65.02C166.891 65.14 166.631 65.31 166.401 65.52C166.171 65.73 165.981 65.98 165.841 66.29C165.701 66.59 165.631 66.91 165.621 67.24L165.561 71.38C165.561 71.77 165.401 72.12 165.091 72.41C164.781 72.7 164.431 72.84 164.041 72.84C163.651 72.84 163.301 72.69 163.001 72.42C162.701 72.14 162.551 71.81 162.561 71.41L162.621 67.32C162.651 66.56 162.801 65.85 163.101 65.19C163.391 64.53 163.781 63.95 164.291 63.46C164.791 62.97 165.371 62.58 166.051 62.3C166.721 62.02 167.451 61.89 168.241 61.9V61.89Z" fill="#2B388F"/>
<path d="M180.8 62.14C181.53 62.15 182.22 62.31 182.88 62.63C183.54 62.94 184.12 63.36 184.62 63.87C185.12 64.39 185.52 64.97 185.81 65.64C186.1 66.3 186.24 67 186.23 67.73C186.23 68.12 186.07 68.43 185.77 68.66C185.47 68.88 185.1 68.98 184.66 68.96L178.61 68.87C179.1 69.74 179.78 70.18 180.66 70.2C180.9 70.2 181.11 70.18 181.27 70.14C181.44 70.1 181.59 70.05 181.72 69.99C181.85 69.93 181.98 69.88 182.11 69.84C182.24 69.8 182.39 69.78 182.55 69.78C182.87 69.8 183.14 69.89 183.38 70.07C183.62 70.25 183.78 70.45 183.89 70.7C184 70.95 184.03 71.22 183.99 71.51C183.95 71.8 183.81 72.06 183.58 72.3C183.17 72.63 182.71 72.85 182.21 72.97C181.71 73.09 181.18 73.16 180.62 73.16C179.89 73.18 179.2 73.04 178.54 72.73C177.88 72.43 177.3 72.02 176.8 71.5C176.3 70.98 175.91 70.38 175.62 69.7C175.34 69.01 175.2 68.31 175.21 67.58C175.22 66.87 175.38 66.18 175.68 65.52C175.99 64.86 176.39 64.28 176.9 63.78C177.41 63.28 178 62.88 178.67 62.59C179.34 62.3 180.05 62.16 180.79 62.17L180.8 62.14ZM182.81 66.4C182.56 65.93 182.26 65.59 181.92 65.4C181.57 65.21 181.19 65.11 180.76 65.1C180.32 65.1 179.93 65.18 179.59 65.37C179.25 65.55 178.94 65.88 178.68 66.35L182.82 66.41L182.81 66.4Z" fill="#2B388F"/>
</svg>
