<svg width="235" height="93" viewBox="0 0 235 93" fill="none" xmlns="http://www.w3.org/2000/svg">
<path d="M33.97 25.8L37.43 25.98C37.49 22.89 38.52 20.47 40.52 18.74C42.52 17.01 45.28 16.15 48.8 16.15C51.65 16.15 54.03 16.88 55.95 18.33C57.86 19.79 58.82 21.64 58.82 23.88C58.82 25.4 58.32 26.67 57.32 27.7C56.32 28.73 55.06 29.25 53.54 29.25C51.84 29.25 50.6 28.61 49.81 27.34L48.9 25.88C48.66 25.46 48.26 25.24 47.72 25.24C46.45 25.24 45.81 26.12 45.81 27.88C45.81 28.31 45.84 28.61 45.9 28.79C51.72 30.85 54.64 34.98 54.64 41.17C54.64 45.84 52.83 49.6 49.22 52.46C45.61 55.31 40.86 56.74 34.98 56.74C31.82 56.74 28.58 56.04 25.24 54.65L24.78 54.47C23.87 55.2 23.41 55.99 23.41 56.84C23.41 58.9 24.87 60.18 27.78 60.66C28.75 60.84 30.97 60.93 34.42 60.93H35.42L41.25 60.84C47.07 60.78 51.56 61.9 54.72 64.21C57.87 66.52 59.45 69.79 59.45 74.04C59.45 79.44 57.08 83.7 52.35 86.83C47.62 89.95 41.18 91.52 33.06 91.52C25.78 91.52 19.94 90.17 15.54 87.47C11.14 84.77 8.94 81.17 8.94 76.68C8.94 71.83 12 68.46 18.13 66.58C13.28 65.61 10.85 62.85 10.85 58.3C10.85 55.93 11.38 54.07 12.44 52.7C13.5 51.33 15.4 50.05 18.13 48.83C15.95 46.4 14.85 43.73 14.85 40.82C14.85 36.57 16.68 33.01 20.36 30.13C24.03 27.25 28.57 25.81 33.97 25.81V25.8ZM32.88 71.57C31.42 71.57 29.6 71.45 27.42 71.21C24.69 72.3 23.32 73.7 23.32 75.4C23.32 78.62 26.9 80.22 34.06 80.22C41.22 80.22 44.89 78.61 44.89 75.4C44.89 72.79 42.52 71.49 37.79 71.49C37.61 71.49 36.79 71.52 35.33 71.58H32.87L32.88 71.57ZM34.7 35.35C33 35.35 31.59 35.91 30.47 37.03C29.35 38.15 28.79 39.56 28.79 41.26C28.79 42.96 29.35 44.39 30.47 45.54C31.59 46.69 33 47.27 34.7 47.27C36.4 47.27 37.81 46.69 38.93 45.54C40.05 44.39 40.61 42.99 40.61 41.35C40.61 39.71 40.05 38.23 38.93 37.07C37.81 35.92 36.4 35.34 34.7 35.34V35.35Z" fill="#2B388F"/>
<path d="M92.77 5.23999C92.95 5.23999 93.15 5.22999 93.36 5.18999C93.57 5.15999 93.83 5.13998 94.13 5.13998C94.55 5.13998 94.89 5.16998 95.13 5.22998C95.43 5.16998 95.75 5.10999 96.09 5.04999C96.42 4.98999 96.77 4.95999 97.14 4.95999C97.51 4.95999 97.88 5.06998 98.28 5.27998C98.67 5.48998 99.02 5.74999 99.33 6.04999C99.69 6.34999 100.06 6.68999 100.42 7.04999C100.54 7.95999 100.8 8.75999 101.19 9.45999C101.58 10.16 101.81 10.99 101.87 11.96C102.11 12.14 102.26 12.4 102.33 12.73C102.39 13.06 102.45 13.38 102.51 13.69C102.57 13.99 102.65 14.3 102.74 14.6C102.83 14.9 103.03 15.15 103.33 15.33C103.27 15.51 103.24 15.76 103.24 16.06C103.24 16.67 103.44 17.11 103.83 17.38C104.22 17.65 104.42 18.12 104.42 18.79C104.42 18.91 104.4 19 104.37 19.06C104.34 19.12 104.32 19.21 104.32 19.33C104.56 19.45 104.74 19.69 104.87 20.06C104.99 20.42 105.08 20.79 105.14 21.15C105.2 21.51 105.26 21.85 105.32 22.15C105.38 22.45 105.53 22.61 105.78 22.61C105.72 22.73 105.69 22.91 105.69 23.16C105.69 23.65 105.84 24.02 106.15 24.3C106.45 24.57 106.61 24.92 106.61 25.35C106.97 25.9 107.17 26.55 107.2 27.31C107.23 28.07 107.49 28.63 107.97 28.99C108.15 30.39 108.55 31.54 109.15 32.45V32.72C109.15 32.84 109.13 32.95 109.1 33.04C109.07 33.13 109.05 33.24 109.05 33.36C109.05 33.66 109.22 34.04 109.55 34.5C109.88 34.96 110.05 35.52 110.05 36.18V36.54C110.29 36.66 110.46 36.9 110.55 37.27C110.64 37.63 110.69 37.76 110.69 37.63C110.69 38.24 110.86 38.69 111.19 39C111.52 39.3 111.69 39.76 111.69 40.37C111.69 40.61 111.66 40.83 111.6 41.01C111.72 41.37 111.9 41.69 112.15 41.97C112.39 42.24 112.51 42.62 112.51 43.11V43.38C112.63 43.99 112.89 44.47 113.28 44.84C113.67 45.2 113.87 45.72 113.87 46.39C113.87 46.51 113.85 46.62 113.82 46.71C113.79 46.8 113.77 46.91 113.77 47.03C114.44 47.82 114.88 48.85 115.09 50.12C115.3 51.39 115.74 52.46 116.41 53.31C116.53 53.86 116.65 54.51 116.77 55.27C116.89 56.03 117.19 56.62 117.68 57.04C117.86 57.34 117.97 57.66 118 58C118.03 58.33 118.08 58.68 118.14 59.05C118.26 59.54 118.46 59.96 118.73 60.32C119 60.68 119.14 61.14 119.14 61.69C119.14 62.18 119.28 62.55 119.55 62.83C119.82 63.11 119.96 63.51 119.96 64.06C119.66 64.24 119.43 64.47 119.28 64.74C119.13 65.01 118.96 65.29 118.78 65.56C118.6 65.83 118.38 66.06 118.14 66.24C117.9 66.42 117.59 66.51 117.23 66.51C117.05 66.51 116.77 66.45 116.41 66.33V66.42H115.59C114.74 66.42 113.92 66.39 113.13 66.33C112.34 66.27 111.52 66.24 110.67 66.24C110.06 66.24 109.5 66.29 108.99 66.38C108.47 66.47 107.94 66.52 107.4 66.52C106.19 66.52 105.05 66.37 103.99 66.06C102.93 65.76 102.15 65.15 101.67 64.24C101.79 63.76 101.85 63.45 101.85 63.33C101.85 62.66 101.68 62.15 101.35 61.78C101.02 61.42 100.85 60.93 100.85 60.32C100.85 59.9 100.88 59.59 100.94 59.41C100.94 58.99 100.79 58.68 100.48 58.5C100.18 58.32 100.02 57.99 100.02 57.5V56.95C100.02 56.16 99.76 55.69 99.25 55.54C98.73 55.39 98.23 55.31 97.75 55.31H96.57C96.21 55.37 95.84 55.4 95.48 55.4H94.3C93.09 55.4 91.96 55.35 90.93 55.26C89.9 55.17 88.84 55.12 87.74 55.12C87.5 55.24 87.21 55.36 86.88 55.48C86.55 55.6 86.14 55.66 85.65 55.66C85.04 55.66 84.45 55.63 83.88 55.57C83.3 55.51 82.68 55.48 82.01 55.48C81.52 55.48 81.07 55.5 80.64 55.53C80.22 55.56 79.76 55.58 79.27 55.58C78.85 55.58 78.51 55.75 78.27 56.08C78.03 56.41 77.84 56.78 77.72 57.17C77.6 57.57 77.48 58.1 77.36 58.76C77.18 59.31 77.06 59.96 77 60.72C76.94 61.48 76.7 62.01 76.27 62.31C76.15 62.74 76.07 63.19 76.04 63.68C76.01 64.17 75.87 64.56 75.63 64.86C75.2 65.22 74.75 65.59 74.26 65.95C73.77 66.31 73.35 66.5 72.99 66.5C72.2 66.5 71.46 66.44 70.76 66.32C70.06 66.2 69.62 66.14 69.44 66.14C68.89 66.14 68.44 66.26 68.07 66.5C67.71 66.74 67.25 66.86 66.7 66.86C66.09 66.86 65.52 66.81 64.97 66.72C64.42 66.63 63.82 66.58 63.15 66.58C62.85 66.58 62.51 66.59 62.15 66.63C61.79 66.66 61.42 66.68 61.06 66.68C60.21 66.68 59.42 66.48 58.69 66.09C57.96 65.69 57.6 65.1 57.6 64.32C57.6 63.47 57.72 62.83 57.96 62.41C58.2 61.99 58.32 61.5 58.32 60.95C58.32 60.47 58.44 60.1 58.68 59.86C58.92 59.62 59.04 59.25 59.04 58.77V58.5C59.16 58.14 59.37 57.82 59.68 57.54C59.98 57.27 60.14 56.89 60.14 56.4V56.04C60.5 54.77 60.84 53.83 61.14 53.22C61.44 52.61 61.7 52.14 61.91 51.81C62.12 51.48 62.27 51.22 62.37 51.04C62.46 50.86 62.51 50.56 62.51 50.13V49.68C62.51 49.26 62.66 48.92 62.97 48.68C63.27 48.44 63.43 48.1 63.43 47.68C63.43 47.38 63.37 47.16 63.25 47.04C63.31 47.04 63.42 46.89 63.57 46.58C63.72 46.28 63.87 45.94 64.03 45.58C64.18 45.22 64.32 44.91 64.44 44.67C64.56 44.43 64.62 44.37 64.62 44.49C64.74 44.19 64.83 43.85 64.89 43.49C64.95 43.13 65.04 42.76 65.16 42.4C65.4 41.61 65.67 40.85 65.98 40.12C66.28 39.39 66.53 38.66 66.71 37.94C67.01 37.64 67.17 37.21 67.17 36.67C67.17 36.13 67.32 35.7 67.63 35.4C67.75 35.1 67.86 34.81 67.95 34.54C68.04 34.27 68.15 33.98 68.27 33.68C68.57 33.19 68.77 32.66 68.86 32.09C68.95 31.51 69.21 30.98 69.63 30.5V30.23C69.63 29.56 69.8 29 70.13 28.55C70.46 28.09 70.66 27.53 70.72 26.87C70.96 26.69 71.13 26.43 71.22 26.1C71.31 25.77 71.39 25.42 71.45 25.05C71.51 24.69 71.59 24.34 71.68 24C71.77 23.67 71.91 23.38 72.09 23.14C72.21 22.96 72.3 22.53 72.36 21.87C72.42 21.2 72.63 20.75 73 20.5C73.42 19.95 73.65 19.32 73.68 18.59C73.71 17.86 73.94 17.26 74.36 16.77C74.48 16.53 74.53 16.25 74.5 15.95C74.47 15.65 74.51 15.4 74.64 15.22C74.76 14.8 74.96 14.42 75.23 14.08C75.5 13.75 75.64 13.34 75.64 12.85C75.88 12.43 75.99 11.97 75.96 11.48C75.93 11 76.06 10.6 76.37 10.3C76.92 9.74999 77.19 9.05999 77.19 8.20999V7.65999C77.37 7.17999 77.67 6.80999 78.1 6.56999C78.52 6.32999 78.83 5.98999 79.01 5.56999C79.68 5.26999 80.28 5.08999 80.83 5.01999C81.38 4.95999 81.95 4.92999 82.56 4.92999C83.96 4.92999 85.3 5.00999 86.61 5.15999C87.91 5.30999 89.26 5.38998 90.66 5.38998H91.66C92.02 5.38998 92.39 5.35999 92.75 5.29999L92.77 5.23999ZM67.19 51.39V51.3C67.19 51.24 67.16 51.21 67.1 51.21C66.98 51.21 66.9 51.23 66.87 51.26C66.84 51.29 66.79 51.31 66.73 51.31H66.64C66.64 51.37 66.7 51.4 66.82 51.4H67.18L67.19 51.39ZM69.47 56.85C69.29 56.73 69.11 56.59 68.92 56.44C68.74 56.29 68.49 56.21 68.19 56.21C68.01 56.21 67.92 56.27 67.92 56.39C67.92 56.69 68.04 56.91 68.28 57.03C68.52 57.15 68.7 57.21 68.83 57.21C69.19 57.21 69.41 57.09 69.47 56.85ZM72.11 47.75C71.99 47.75 71.85 47.74 71.7 47.7C71.55 47.67 71.41 47.65 71.29 47.65C71.05 47.65 70.93 47.71 70.93 47.83C70.93 48.01 71.07 48.18 71.34 48.33C71.61 48.48 71.95 48.62 72.34 48.74C72.73 48.86 73.13 48.95 73.52 49.01C73.91 49.07 74.23 49.1 74.48 49.1C74.73 49.1 74.98 49 75.25 48.78C75.52 48.57 75.66 48.31 75.66 48.01C75.66 47.89 75.6 47.84 75.48 47.87C75.36 47.9 75.24 47.86 75.12 47.73C74.88 47.79 74.65 47.84 74.44 47.87C74.23 47.9 73.97 47.92 73.67 47.92C73.12 47.92 72.61 47.86 72.12 47.74L72.11 47.75ZM74.66 52.75C74.66 52.57 74.54 52.48 74.3 52.48H73.84C73.84 52.6 73.78 52.63 73.66 52.57C73.54 52.51 73.48 52.54 73.48 52.66C73.48 52.72 73.51 52.78 73.57 52.84C73.51 52.9 73.45 52.93 73.39 52.93C73.39 53.05 73.45 53.11 73.57 53.11L73.48 53.29C73.48 53.41 73.54 53.47 73.66 53.47C73.78 53.47 73.98 53.42 74.25 53.33C74.52 53.24 74.66 53.04 74.66 52.74V52.75ZM78.57 44.83C78.27 44.53 77.9 44.37 77.48 44.37C77.18 44.37 76.84 44.43 76.48 44.55C76.12 44.67 75.78 44.76 75.48 44.82C75.48 45 75.65 45.17 75.98 45.32C76.31 45.47 76.69 45.55 77.12 45.55C77.48 45.55 77.82 45.52 78.12 45.46C78.42 45.4 78.58 45.25 78.58 45V44.82L78.57 44.83ZM75.84 55.85V55.76H75.75L75.66 55.85C75.66 55.91 75.69 55.94 75.75 55.94L75.84 55.85ZM78.03 39.19C77.97 39.07 77.85 39.02 77.67 39.05C77.49 39.08 77.34 39.04 77.21 38.91C77.09 38.97 76.92 39 76.71 39C76.5 39 76.33 39.12 76.21 39.36C76.45 39.6 76.88 39.72 77.48 39.72C77.72 39.72 77.98 39.71 78.25 39.67C78.52 39.64 78.75 39.62 78.93 39.62C78.63 39.44 78.32 39.29 78.02 39.16L78.03 39.19ZM77.57 52.84C77.45 52.84 77.39 52.81 77.39 52.75C77.39 52.69 77.33 52.66 77.21 52.66H77.03V52.48H76.48C76.36 52.48 76.27 52.57 76.21 52.75C76.33 52.81 76.42 52.86 76.48 52.89C76.54 52.92 76.63 53 76.75 53.12H77.3C77.48 53.12 77.57 53.06 77.57 52.94V52.85V52.84ZM81.76 26.45C81.52 26.33 81.33 26.27 81.21 26.27C81.03 26.27 80.88 26.33 80.75 26.45C80.81 26.63 80.99 26.72 81.3 26.72H82.03V26.63L81.94 26.45H81.76ZM81.85 35.28V35.01C81.85 34.95 81.79 34.92 81.67 34.92H81.03C81.03 35.04 80.98 35.12 80.89 35.15C80.8 35.18 80.75 35.26 80.75 35.38C80.75 35.56 80.87 35.65 81.11 35.65C81.23 35.65 81.35 35.6 81.47 35.51C81.59 35.42 81.71 35.34 81.83 35.28H81.85ZM82.39 23.36C82.27 23.18 82.13 23.07 81.98 23.04C81.83 23.01 81.63 22.94 81.39 22.81C81.27 22.93 81.15 22.99 81.03 22.99C80.91 22.99 80.85 23.05 80.85 23.17C80.85 23.47 80.94 23.64 81.12 23.67C81.3 23.7 81.54 23.78 81.85 23.9C81.97 23.78 82.09 23.7 82.21 23.67C82.33 23.64 82.39 23.57 82.39 23.44V23.35V23.36ZM82.03 38.65V38.38C82.03 38.26 81.91 38.2 81.67 38.2H81.21C81.15 38.26 81.07 38.32 80.98 38.38C80.89 38.44 80.84 38.53 80.84 38.65L81.02 38.83C81.44 38.83 81.78 38.77 82.02 38.65H82.03ZM82.85 46.2C82.85 45.96 82.73 45.84 82.49 45.84C82.55 45.84 82.49 45.86 82.31 45.89C82.13 45.92 82.04 46 82.04 46.12C82.04 46.18 82.05 46.23 82.09 46.26C82.12 46.29 82.14 46.34 82.14 46.4C82.26 46.4 82.35 46.42 82.41 46.45C82.47 46.48 82.56 46.5 82.68 46.5C82.8 46.5 82.85 46.49 82.82 46.45C82.79 46.42 82.8 46.35 82.87 46.22L82.85 46.2ZM89.95 22.54C89.83 22.42 89.65 22.36 89.4 22.36C88.67 22.36 88.22 22.56 88.03 22.95C87.85 23.35 87.7 23.72 87.57 24.09V24.27C87.57 24.45 87.54 24.6 87.48 24.73C87.42 24.85 87.36 24.97 87.3 25.09C87.3 25.82 87.12 26.35 86.75 26.68C86.39 27.01 86.2 27.51 86.2 28.18C86.2 28.36 86.21 28.54 86.25 28.73C86.28 28.91 86.3 29.09 86.3 29.28C86.18 29.58 86.04 29.86 85.89 30.1C85.74 30.34 85.6 30.62 85.48 30.92V31.38C85.48 31.99 85.36 32.47 85.12 32.84C84.88 33.2 84.66 33.63 84.48 34.11V34.47C84.48 35.08 84.36 35.59 84.12 36.02C83.88 36.45 83.7 36.9 83.57 37.39C83.45 37.63 83.34 37.94 83.25 38.3C83.16 38.66 83.05 39.03 82.93 39.39C82.81 39.81 82.72 40.24 82.66 40.66C82.66 41.02 82.83 41.33 83.16 41.57C83.49 41.81 83.72 42.06 83.84 42.3H85.39C86.42 42.3 87.39 42.39 88.3 42.57C89.21 42.75 90.18 42.84 91.21 42.84H92.12C92.42 42.84 92.73 42.78 93.03 42.66C93.21 42.48 93.44 42.36 93.71 42.3C93.98 42.24 94.26 42.2 94.53 42.16C94.8 42.13 95.04 42.05 95.26 41.93C95.47 41.81 95.58 41.6 95.58 41.29C95.58 40.98 95.49 40.49 95.31 39.79C95.13 39.09 94.9 38.35 94.63 37.56C94.36 36.77 94.1 36.03 93.86 35.33C93.62 34.63 93.4 34.16 93.22 33.92C93.22 33.25 93.08 32.69 92.81 32.24C92.54 31.78 92.37 31.25 92.31 30.65C91.95 30.16 91.76 29.56 91.76 28.83C91.76 28.1 91.52 27.59 91.03 27.28C91.03 27.16 91.01 26.99 90.98 26.78C90.95 26.57 90.93 26.34 90.93 26.1C90.93 25.74 91.01 25.46 91.16 25.28C91.31 25.1 91.46 24.96 91.62 24.87C91.77 24.78 91.92 24.69 92.08 24.6C92.23 24.51 92.31 24.37 92.31 24.19C92.01 24.19 91.75 24.27 91.54 24.42C91.33 24.57 91.1 24.71 90.86 24.83C90.31 24.71 90.05 24.39 90.09 23.87C90.12 23.36 90.07 22.91 89.95 22.55V22.54ZM86.31 17.35C86.31 17.23 86.25 17.17 86.13 17.17H85.4C85.4 17.29 85.31 17.38 85.13 17.44C84.95 17.5 84.86 17.59 84.86 17.71C84.86 17.77 84.92 17.8 85.04 17.8H85.31C85.79 17.8 86.13 17.65 86.31 17.34V17.35ZM86.22 22.17C86.22 22.05 86.13 21.99 85.95 21.99C85.71 21.99 85.59 22.05 85.59 22.17C85.59 22.41 85.62 22.57 85.68 22.63C85.86 22.63 86.04 22.48 86.23 22.17H86.22ZM88.49 13.43C88.19 13.13 87.91 12.97 87.67 12.97C87.55 12.97 87.4 13 87.21 13.06C87.03 13.12 86.88 13.18 86.75 13.24C86.75 13.42 86.87 13.57 87.11 13.7H87.75C88.11 13.7 88.36 13.61 88.48 13.43H88.49ZM91.04 19.99C90.92 19.69 90.72 19.51 90.45 19.44C90.18 19.38 89.86 19.35 89.49 19.35H88.12C87.82 19.47 87.53 19.56 87.26 19.62C86.99 19.68 86.85 20.05 86.85 20.71C86.91 20.71 86.97 20.73 87.03 20.76C87.09 20.79 87.15 20.81 87.21 20.81C87.69 20.81 88.1 20.72 88.44 20.54C88.77 20.36 89.18 20.27 89.67 20.27C90.09 20.27 90.38 20.35 90.53 20.5C90.68 20.65 90.79 20.83 90.85 21.05C90.91 21.26 91 21.45 91.12 21.6C91.24 21.75 91.48 21.83 91.85 21.83C91.97 21.83 92.17 21.8 92.44 21.74C92.71 21.68 92.85 21.59 92.85 21.47C92.85 20.86 92.62 20.55 92.17 20.51C91.71 20.48 91.34 20.31 91.03 20.01L91.04 19.99ZM87.85 48.47C87.85 48.35 87.79 48.29 87.67 48.29C87.37 48.29 87.21 48.38 87.21 48.56C87.21 48.62 87.24 48.68 87.3 48.74C87.6 48.74 87.79 48.65 87.85 48.47ZM92.31 14.89C92.25 14.77 92.17 14.72 92.08 14.75C91.99 14.78 91.91 14.74 91.85 14.61H91.3C91 14.61 90.83 14.7 90.8 14.88C90.77 15.06 90.66 15.21 90.48 15.34C90.54 15.58 90.72 15.7 91.03 15.7H91.85C91.97 15.58 92.05 15.46 92.08 15.34C92.11 15.22 92.19 15.07 92.31 14.88V14.89ZM94.77 17.71C94.59 17.59 94.41 17.5 94.22 17.44C94.04 17.38 93.79 17.35 93.49 17.35C93.37 17.35 93.23 17.38 93.08 17.44C92.93 17.5 92.85 17.62 92.85 17.8C92.85 17.86 92.88 17.92 92.94 17.98H93.21C93.33 17.98 93.47 18 93.62 18.03C93.77 18.06 93.91 18.08 94.03 18.08C94.51 18.08 94.76 17.96 94.76 17.72L94.77 17.71ZM95.41 14.16C95.41 13.86 95.35 13.69 95.23 13.66C95.11 13.63 94.99 13.61 94.87 13.61C94.51 13.61 94.23 13.7 94.05 13.88L93.41 14.52C93.47 14.64 93.71 14.7 94.14 14.7H94.5C94.62 14.7 94.74 14.67 94.86 14.61H94.95C95.07 14.61 95.15 14.56 95.18 14.47C95.21 14.38 95.28 14.27 95.41 14.15V14.16ZM95.68 47.02C95.56 46.9 95.41 46.84 95.22 46.84C95.1 46.84 94.95 46.87 94.76 46.93C94.58 46.99 94.43 47.02 94.3 47.02H94.12C93.69 47.14 93.48 47.26 93.48 47.38C93.9 47.8 94.48 48.02 95.21 48.02C95.51 48.02 95.67 47.9 95.67 47.66V47.02H95.68ZM95.95 20.35C95.83 20.17 95.63 20.08 95.36 20.08H94.5C94.38 20.08 94.32 20.14 94.32 20.26C94.32 20.44 94.41 20.55 94.59 20.58C94.77 20.61 94.92 20.63 95.05 20.63C95.18 20.63 95.47 20.54 95.96 20.36L95.95 20.35ZM96.87 25.45C96.81 25.33 96.69 25.27 96.51 25.27H95.69C95.69 25.39 95.66 25.44 95.6 25.41C95.54 25.38 95.51 25.43 95.51 25.55V25.64H96.33C96.63 25.64 96.81 25.58 96.88 25.46L96.87 25.45ZM96.68 36.37C96.56 36.25 96.44 36.19 96.32 36.19C96.08 36.19 95.96 36.25 95.96 36.37C96.08 36.49 96.17 36.55 96.23 36.55C96.29 36.55 96.44 36.49 96.69 36.37H96.68ZM97.14 45.56C97.02 45.56 96.96 45.53 96.96 45.47C96.96 45.41 96.9 45.38 96.78 45.38C96.66 45.5 96.6 45.59 96.6 45.65C96.6 45.83 96.66 45.92 96.78 45.92C97.02 45.92 97.14 45.86 97.14 45.74V45.56ZM107.51 47.2C107.33 46.9 107.02 46.74 106.6 46.74C106.05 46.74 105.49 46.85 104.92 47.06C104.34 47.27 103.72 47.38 103.05 47.38C102.38 47.38 101.81 47.29 101.32 47.11C100.83 46.93 100.26 46.84 99.59 46.84C99.23 46.84 98.86 46.9 98.5 47.02L98.41 46.93C98.35 46.99 98.32 47.05 98.32 47.11C98.32 47.54 98.62 47.75 99.23 47.75H99.59C100.01 47.93 100.38 48.02 100.68 48.02C101.16 48.02 101.64 47.94 102.09 47.79C102.55 47.64 103.01 47.56 103.5 47.56C103.74 47.56 104.11 47.62 104.59 47.74C104.83 47.8 105.05 47.86 105.23 47.92C105.59 47.8 106.02 47.72 106.5 47.69C106.98 47.66 107.32 47.49 107.5 47.19L107.51 47.2ZM100.51 43.83H99.24V43.92C99.24 44.04 99.21 44.1 99.15 44.1C99.09 44.1 99.06 44.22 99.06 44.46C99.24 44.64 99.54 44.73 99.97 44.73C100.15 44.73 100.39 44.64 100.7 44.46V44C100.7 43.94 100.64 43.88 100.52 43.82L100.51 43.83ZM99.96 40.65H99.41V40.74C99.41 40.86 99.44 40.92 99.5 40.92H99.86C99.86 40.86 99.87 40.82 99.91 40.78C99.94 40.75 99.96 40.7 99.96 40.64V40.65ZM103.78 42.19C103.54 42.13 103.35 42.08 103.23 42.05C103.11 42.02 102.96 42 102.77 42C102.65 42 102.34 42.06 101.86 42.18V42.27C101.86 42.33 101.83 42.35 101.77 42.32C101.71 42.29 101.68 42.34 101.68 42.46C101.68 42.58 101.79 42.67 102 42.73C102.21 42.79 102.41 42.82 102.59 42.82C102.83 42.82 103.09 42.81 103.36 42.77C103.63 42.74 103.77 42.57 103.77 42.27V42.18L103.78 42.19ZM103.33 36.64C103.33 36.52 103.18 36.46 102.87 36.46C102.51 36.46 102.32 36.55 102.32 36.73C102.32 36.79 102.33 36.82 102.37 36.82C102.41 36.82 102.42 36.88 102.42 37C102.6 36.88 102.8 36.86 103.01 36.95C103.22 37.04 103.33 36.94 103.33 36.63V36.64ZM103.33 33.64C103.33 33.52 103.27 33.46 103.15 33.46H102.69V33.55C102.69 33.67 102.72 33.73 102.78 33.73C102.9 33.73 102.99 33.72 103.05 33.68C103.11 33.65 103.2 33.63 103.32 33.63L103.33 33.64ZM103.05 45.2V45.11C103.05 44.99 102.99 44.93 102.87 44.93C102.87 45.17 102.9 45.29 102.96 45.29L103.05 45.2ZM105.06 53.57C105.06 53.51 105.04 53.48 105.01 53.48C104.98 53.48 104.96 53.45 104.96 53.39V53.3C104.78 53.3 104.69 53.39 104.69 53.57V53.66C104.69 53.72 104.75 53.75 104.87 53.75C104.93 53.75 104.95 53.72 104.92 53.66C104.89 53.6 104.93 53.57 105.06 53.57ZM105.88 44.29L105.79 44.11C105.73 44.17 105.7 44.23 105.7 44.29C105.7 44.35 105.73 44.38 105.79 44.38L105.88 44.29ZM109.88 53.12C109.76 52.88 109.39 52.76 108.79 52.76C108.79 52.88 108.77 52.94 108.74 52.94C108.71 52.94 108.69 52.97 108.69 53.03C108.69 53.15 108.77 53.24 108.92 53.3C109.07 53.36 109.18 53.39 109.24 53.39C109.48 53.39 109.7 53.3 109.88 53.12Z" fill="#2B388F"/>
<path d="M123.62 3.42999H139.64L155.48 26.73L171.23 3.42999H187.25V64.14H167.86V42.3L155.48 60.5L143.01 42.3V64.14H123.62V3.42999ZM135.09 56.85V15.07L155.48 44.74L175.78 15.07V56.85H178.15V10.71H175.78L155.48 40.65L135.09 10.71H132.72V56.85H135.09Z" fill="#2B388F"/>
<path d="M220.52 61.88C216.38 65.32 211.91 67.04 207.12 67.04C202.33 67.04 198.52 65.35 195.86 61.96C193.92 59.49 192.95 56.66 192.95 53.46C192.95 52.25 193.1 50.97 193.39 49.61L198.98 23.46C200 18.62 202.54 14.5 206.61 11.11C210.68 7.71997 215.18 6.02997 220.12 6.02997C225.06 6.02997 228.52 7.74997 231.23 11.19C233.26 13.76 234.28 16.64 234.28 19.83C234.28 20.99 234.13 22.2 233.84 23.46C232.82 28.21 230.26 32.3 226.14 35.74C222.02 39.18 217.54 40.9 212.7 40.9H203.98L202.09 49.62C201.94 50.3 201.87 50.93 201.87 51.51C201.87 53.16 202.35 54.59 203.32 55.8C204.67 57.5 206.56 58.34 208.99 58.34C211.42 58.34 213.59 57.48 215.67 55.76C217.75 54.04 219.03 52 219.52 49.62C219.76 48.41 220.4 47.38 221.44 46.53C222.48 45.68 223.61 45.26 224.82 45.26C226.03 45.26 226.96 45.68 227.62 46.53C228.27 47.38 228.48 48.41 228.24 49.62C227.22 54.37 224.64 58.46 220.5 61.9L220.52 61.88ZM205.81 32.17H214.53C216.9 32.17 219.11 31.32 221.14 29.63C223.9 27.35 225.28 24.72 225.28 21.71C225.28 19.77 224.6 18.13 223.25 16.77C221.89 15.41 220.22 14.74 218.24 14.74C215.82 14.74 213.59 15.59 211.56 17.28C209.53 18.98 208.24 21.03 207.71 23.45L205.82 32.17H205.81Z" fill="#2B388F"/>
<path d="M0.960007 11.14C0.480007 11.14 0 10.76 0 10.18C0 9.13002 1.24 9.16001 2.23 9.03001C2.33 5.56001 3.19 2.66001 3.22 2.56001C3.38 2.15001 3.76 1.89001 4.14 1.89001C4.71 1.89001 5.10001 2.37002 5.10001 2.85002C5.10001 3.26002 4.27 5.46001 4.14 8.81001C5.7 8.68001 7.45001 8.59001 9.24001 8.59001C9.75001 8.59001 10.2 9.04002 10.2 9.55002C10.2 10.06 9.75001 10.51 9.24001 10.51C7.49001 10.51 5.7 10.64 4.17 10.76C4.46 17.48 7.2 19.11 9.87 19.11C10.38 19.11 10.83 19.56 10.83 20.07C10.83 20.58 10.38 21.03 9.87 21.03C5.95 21.03 2.63999 18.13 2.25999 10.96C1.77999 11.02 1.37 11.15 0.949997 11.15L0.960007 11.14Z" fill="#2B388F"/>
<path d="M18.8 17.2C19.15 17.2 19.63 16.75 21 14.33C22.21 12.2 23.2 10.51 25.17 10.51C27.5 10.51 27.72 12.96 27.72 15.29C27.72 19.05 28.23 19.11 28.93 19.11H28.99C29.5 19.11 29.95 19.56 29.95 20.07C29.95 20.58 29.5 21.03 28.99 21.03C26.57 21.03 25.8 19.05 25.8 15.3C25.8 12.53 25.39 12.43 25.16 12.43C24.59 12.43 23.98 12.97 22.64 15.3C21.46 17.34 20.66 19.12 18.79 19.12C17.74 19.12 16.91 18.32 16.4 17.3C14.49 19.4 12.26 21.03 9.87003 21.03C9.36003 21.03 8.91003 20.58 8.91003 20.07C8.91003 19.56 9.36003 19.11 9.87003 19.11C11.56 19.11 13.76 17.55 15.7 15.19C15.41 13.88 15.29 12.42 15.29 10.51C15.29 5.35001 16.31 0 19.75 0C21.88 0 22.62 2.10001 22.62 3.82001C22.62 7.17001 20.49 12.07 17.81 15.64C18.22 16.98 18.77 17.2 18.8 17.2ZM19.75 1.90001C18.73 1.90001 17.2 4.83 17.2 10.5C17.2 11.42 17.23 12.25 17.3 12.98C19.34 9.79 20.71 6.07 20.71 3.8C20.71 2.33 20.17 1.89 19.75 1.89V1.90001Z" fill="#2B388F"/>
<path d="M42.37 19.11C42.37 19.46 42.15 19.81 41.83 19.97C40.14 20.8 38.96 21.02 37.59 21.02C36.35 21.02 35.26 20.64 34.4 19.94C32.65 20.61 30.74 21.02 28.98 21.02C28.47 21.02 28.02 20.57 28.02 20.06C28.02 19.55 28.47 19.1 28.98 19.1C30.25 19.1 31.72 18.85 33.12 18.37C32.71 17.54 32.48 16.59 32.48 15.6C32.48 12.92 34.42 10.5 37.26 10.5C39.04 10.5 40.45 11.9 40.45 13.69C40.45 15.98 38.6 17.74 36.5 18.95C36.82 19.05 37.2 19.11 37.58 19.11C38.76 19.11 39.49 19.01 40.99 18.25C41.12 18.19 41.28 18.15 41.4 18.15C41.88 18.15 42.36 18.53 42.36 19.11H42.37ZM37.27 12.42C35.65 12.42 34.4 13.82 34.4 15.61C34.4 16.41 34.59 17.11 34.91 17.65C37.2 16.5 38.54 14.97 38.54 13.7C38.54 12.94 38.03 12.43 37.27 12.43V12.42Z" fill="#2B388F"/>
<path d="M111.49 71.02C112.39 71.03 113.25 71.22 114.06 71.58C114.87 71.94 115.57 72.43 116.17 73.05C116.77 73.67 117.24 74.39 117.59 75.2C117.94 76.02 118.1 76.9 118.09 77.84C118.08 78.76 117.89 79.62 117.53 80.42C117.17 81.22 116.68 81.92 116.07 82.52C115.46 83.12 114.75 83.59 113.93 83.93C113.11 84.27 112.23 84.43 111.29 84.42C110.37 84.41 109.5 84.23 108.7 83.88C107.89 83.54 107.19 83.06 106.59 82.45C105.99 81.84 105.52 81.13 105.18 80.31C104.84 79.49 104.68 78.6 104.69 77.65C104.7 76.73 104.89 75.87 105.24 75.07C105.59 74.27 106.07 73.58 106.68 72.99C107.29 72.4 108.01 71.93 108.83 71.58C109.65 71.23 110.54 71.05 111.48 71.02H111.49ZM111.43 74.64C111.01 74.64 110.61 74.71 110.24 74.86C109.87 75.01 109.54 75.22 109.25 75.5C108.96 75.77 108.73 76.1 108.56 76.47C108.39 76.85 108.3 77.25 108.29 77.7C108.29 78.12 108.36 78.53 108.52 78.91C108.68 79.29 108.9 79.63 109.18 79.92C109.46 80.21 109.79 80.44 110.15 80.61C110.52 80.78 110.91 80.87 111.34 80.88C111.76 80.88 112.17 80.81 112.55 80.65C112.93 80.49 113.26 80.27 113.54 79.99C113.82 79.71 114.05 79.38 114.22 79C114.39 78.62 114.48 78.22 114.49 77.8C114.47 76.95 114.17 76.23 113.61 75.63C113.05 75.03 112.32 74.71 111.44 74.66L111.43 74.64Z" fill="#2B388F"/>
<path d="M127.02 66.99C127.56 66.99 128 67.15 128.37 67.45C128.73 67.75 128.93 68.2 128.96 68.79C128.96 69.27 128.78 69.67 128.43 70C128.08 70.33 127.65 70.51 127.13 70.53C126.74 70.54 126.44 70.68 126.21 70.93C125.98 71.18 125.87 71.49 125.86 71.84L125.82 74.55C126.67 74.6 127.25 74.8 127.57 75.14C127.89 75.49 128.04 75.91 128.04 76.41C128.04 76.91 127.87 77.32 127.55 77.65C127.23 77.98 126.64 78.15 125.77 78.18L125.69 83.74C125.69 84.28 125.59 84.79 125.4 85.29C125.22 85.79 124.97 86.23 124.65 86.62C124.33 87.01 123.95 87.36 123.51 87.67C123.07 87.98 122.57 88.21 122.02 88.37C121.69 88.48 121.34 88.52 120.99 88.51C120.64 88.49 120.32 88.42 120.04 88.27C119.76 88.13 119.51 87.93 119.32 87.66C119.12 87.4 119.01 87.06 119 86.66C119 86.18 119.18 85.77 119.53 85.44C119.88 85.1 120.29 84.93 120.77 84.92C121.14 84.92 121.45 84.8 121.7 84.53C121.95 84.27 122.08 83.97 122.09 83.64L122.17 78.13C121.3 78.12 120.72 77.94 120.43 77.61C120.14 77.27 119.98 76.84 119.95 76.3C119.95 75.82 120.12 75.41 120.44 75.08C120.76 74.74 121.35 74.55 122.22 74.51L122.26 71.77C122.26 71.14 122.4 70.54 122.65 69.96C122.9 69.38 123.24 68.87 123.67 68.42C124.1 67.97 124.6 67.62 125.18 67.36C125.75 67.1 126.37 66.98 127.01 66.99H127.02Z" fill="#2B388F"/>
<path d="M141.14 84.88C140.46 84.87 139.82 84.73 139.22 84.46C138.62 84.19 138.11 83.84 137.67 83.4C137.23 82.96 136.89 82.45 136.64 81.86C136.39 81.28 136.27 80.66 136.28 80.01L136.38 73.2C136.36 72.96 136.41 72.73 136.51 72.51C136.61 72.29 136.75 72.1 136.92 71.93C137.09 71.77 137.28 71.64 137.51 71.55C137.73 71.46 137.97 71.42 138.23 71.42C138.71 71.42 139.12 71.6 139.45 71.92C139.79 72.25 139.97 72.63 140 73.08L139.9 79.94C139.91 80.31 140.04 80.62 140.29 80.86C140.54 81.1 140.83 81.23 141.18 81.23C141.49 81.23 141.78 81.12 142.04 80.9C142.3 80.67 142.44 80.38 142.47 80.01L142.57 73.09C142.57 72.63 142.77 72.24 143.14 71.92C143.51 71.6 143.93 71.45 144.39 71.45C144.89 71.45 145.31 71.64 145.67 72C146.02 72.36 146.2 72.78 146.19 73.28L146.09 80.06C146.09 80.47 146.21 80.78 146.48 80.99C146.74 81.21 147.03 81.32 147.35 81.32C147.72 81.32 148.03 81.21 148.28 80.97C148.53 80.73 148.66 80.44 148.67 80.09L148.77 73.37C148.77 72.89 148.96 72.47 149.33 72.12C149.7 71.77 150.12 71.59 150.6 71.6C151.08 71.6 151.5 71.78 151.87 72.12C152.23 72.46 152.41 72.85 152.41 73.29L152.31 80.24C152.31 80.9 152.16 81.53 151.88 82.12C151.6 82.71 151.24 83.21 150.78 83.63C150.32 84.05 149.79 84.38 149.19 84.62C148.59 84.86 147.96 84.97 147.32 84.97C146.14 84.95 145.11 84.58 144.24 83.85C143.79 84.21 143.3 84.48 142.78 84.64C142.25 84.81 141.71 84.89 141.16 84.88H141.14Z" fill="#2B388F"/>
<path d="M156.09 71.7901C156.57 71.7901 156.97 71.9801 157.29 72.3301C157.61 72.6801 157.78 73.1101 157.81 73.6101L157.66 83.41C157.66 83.91 157.49 84.3201 157.17 84.6501C156.85 84.9801 156.42 85.1501 155.89 85.1801C155.41 85.1801 155.01 85.0201 154.68 84.7201C154.35 84.4201 154.16 84.0001 154.09 83.4701L154.24 73.4501C154.28 72.9701 154.48 72.5801 154.84 72.2701C155.19 71.9601 155.61 71.8001 156.09 71.7901ZM156.15 67.5601C156.63 67.5601 157.04 67.7501 157.37 68.1201C157.71 68.4801 157.87 68.9101 157.86 69.3901C157.86 69.8701 157.68 70.2901 157.33 70.6401C156.98 70.9901 156.57 71.17 156.09 71.16C155.56 71.13 155.12 70.96 154.78 70.63C154.44 70.3 154.28 69.8401 154.29 69.2501C154.32 68.7701 154.51 68.3701 154.88 68.0401C155.25 67.7101 155.67 67.5501 156.15 67.5601Z" fill="#2B388F"/>
<path d="M166.3 71.78C167.19 71.79 168.03 71.97 168.84 72.3C169.65 72.63 170.35 73.1 170.95 73.69C171.55 74.28 172.03 74.98 172.39 75.77C172.75 76.57 172.92 77.43 172.91 78.35L172.83 83.47C172.83 83.95 172.65 84.36 172.3 84.71C171.95 85.06 171.53 85.23 171.03 85.24C170.53 85.24 170.11 85.07 169.75 84.74C169.4 84.41 169.22 84 169.23 83.5L169.3 78.52C169.3 78.1 169.23 77.69 169.08 77.31C168.93 76.93 168.71 76.6 168.43 76.32C168.15 76.04 167.82 75.81 167.44 75.64C167.06 75.47 166.65 75.38 166.21 75.37C165.8 75.37 165.42 75.44 165.04 75.59C164.67 75.74 164.34 75.94 164.06 76.2C163.78 76.45 163.55 76.76 163.38 77.13C163.21 77.5 163.12 77.88 163.11 78.29L163.04 83.33C163.04 83.81 162.84 84.23 162.47 84.58C162.1 84.93 161.67 85.11 161.19 85.1C160.71 85.1 160.29 84.92 159.92 84.58C159.55 84.24 159.38 83.83 159.38 83.35L159.45 78.37C159.48 77.45 159.67 76.58 160.03 75.78C160.39 74.98 160.86 74.27 161.47 73.67C162.08 73.07 162.79 72.6 163.61 72.26C164.43 71.92 165.32 71.76 166.27 71.77L166.3 71.78Z" fill="#2B388F"/>
<path d="M181.36 72C182.25 72.01 183.09 72.19 183.9 72.52C184.71 72.86 185.41 73.32 186.01 73.91C186.61 74.5 187.09 75.2 187.45 75.99C187.81 76.79 187.98 77.65 187.96 78.57L187.88 83.69C187.88 84.17 187.7 84.58 187.35 84.93C187 85.28 186.58 85.45 186.08 85.46C185.58 85.46 185.16 85.29 184.8 84.96C184.45 84.63 184.27 84.22 184.28 83.72L184.35 78.74C184.35 78.32 184.28 77.91 184.13 77.53C183.98 77.15 183.76 76.82 183.48 76.54C183.2 76.26 182.87 76.03 182.49 75.86C182.11 75.69 181.7 75.6 181.26 75.59C180.85 75.59 180.47 75.66 180.09 75.81C179.71 75.96 179.39 76.16 179.11 76.42C178.83 76.67 178.6 76.98 178.43 77.35C178.26 77.72 178.17 78.1 178.16 78.51L178.09 83.55C178.09 84.03 177.89 84.45 177.52 84.8C177.15 85.15 176.72 85.33 176.24 85.32C175.76 85.32 175.34 85.14 174.97 84.8C174.61 84.46 174.43 84.05 174.43 83.57L174.5 78.59C174.53 77.67 174.72 76.8 175.08 76C175.43 75.19 175.91 74.49 176.52 73.89C177.13 73.29 177.84 72.82 178.66 72.48C179.48 72.14 180.36 71.98 181.32 71.99L181.36 72Z" fill="#2B388F"/>
<path d="M191.62 72.32C192.1 72.32 192.5 72.51 192.82 72.86C193.14 73.22 193.31 73.64 193.34 74.14L193.19 83.94C193.19 84.44 193.02 84.85 192.7 85.18C192.38 85.51 191.95 85.68 191.42 85.71C190.94 85.71 190.54 85.55 190.21 85.25C189.88 84.95 189.69 84.53 189.62 84L189.77 73.98C189.81 73.5 190.01 73.11 190.37 72.8C190.72 72.49 191.14 72.33 191.62 72.32ZM191.68 68.09C192.16 68.09 192.57 68.28 192.9 68.65C193.24 69.01 193.4 69.44 193.39 69.92C193.39 70.4 193.21 70.82 192.86 71.17C192.51 71.52 192.1 71.7 191.62 71.69C191.09 71.66 190.65 71.49 190.31 71.16C189.97 70.83 189.81 70.37 189.82 69.78C189.85 69.3 190.04 68.9 190.41 68.57C190.78 68.24 191.2 68.08 191.68 68.09Z" fill="#2B388F"/>
<path d="M201.83 72.3101C202.72 72.3201 203.56 72.5001 204.37 72.8301C205.18 73.1601 205.88 73.6301 206.48 74.2201C207.08 74.8101 207.56 75.5101 207.92 76.3001C208.28 77.1001 208.45 77.96 208.44 78.88L208.36 84.0001C208.36 84.4801 208.18 84.8901 207.83 85.2401C207.48 85.5901 207.06 85.7601 206.56 85.7701C206.06 85.7701 205.64 85.6001 205.28 85.2701C204.93 84.9401 204.75 84.5301 204.76 84.0301L204.83 79.0501C204.83 78.6301 204.76 78.2201 204.61 77.8401C204.46 77.4601 204.24 77.1301 203.96 76.8501C203.68 76.5701 203.35 76.3401 202.97 76.1701C202.59 76.0001 202.18 75.9101 201.74 75.9001C201.33 75.9001 200.95 75.9701 200.57 76.1201C200.2 76.2701 199.87 76.4701 199.59 76.7301C199.31 76.9801 199.08 77.29 198.91 77.66C198.74 78.03 198.65 78.4101 198.64 78.8201L198.57 83.8601C198.57 84.3401 198.37 84.7601 198 85.1101C197.63 85.4601 197.2 85.64 196.72 85.63C196.24 85.62 195.82 85.4501 195.45 85.1101C195.08 84.7701 194.91 84.36 194.91 83.88L194.98 78.9001C195.01 77.9801 195.2 77.1101 195.56 76.3101C195.92 75.5101 196.39 74.8001 197 74.2001C197.61 73.6001 198.32 73.1301 199.14 72.7901C199.96 72.4501 200.85 72.2901 201.8 72.3001L201.83 72.3101Z" fill="#2B388F"/>
<path d="M217.27 91.05H216.38C215.92 91.07 215.51 91.25 215.15 91.6C214.78 91.95 214.34 92.11 213.83 92.11C213.32 92.11 212.89 91.91 212.52 91.54C212.17 91.2 211.99 90.8 211.97 90.33C211.95 89.86 212.1 89.45 212.42 89.11C212.98 88.42 213.8 87.92 214.88 87.62C215.36 87.48 215.88 87.4 216.43 87.39L218.48 87.42C218.76 87.39 218.98 87.27 219.15 87.07C219.57 86.47 219.71 85.91 219.59 85.39V85.36C219.22 85.56 218.8 85.7201 218.32 85.8401C217.85 85.9601 217.22 86.02 216.45 86.01C215.47 86 214.57 85.8201 213.76 85.4701C212.94 85.1301 212.24 84.65 211.66 84.05C211.08 83.45 210.63 82.74 210.31 81.91C209.99 81.08 209.84 80.18 209.85 79.2C209.86 78.3 210.06 77.44 210.44 76.64C210.82 75.83 211.32 75.1301 211.95 74.5301C212.58 73.9301 213.29 73.46 214.1 73.11C214.91 72.76 215.75 72.59 216.64 72.61C217.56 72.62 218.43 72.81 219.23 73.17C220.04 73.53 220.74 74.02 221.34 74.64C221.94 75.26 222.4 75.98 222.73 76.79C223.06 77.61 223.22 78.48 223.2 79.4C223.18 80.65 222.9 81.76 222.35 82.71C222.87 83.44 223.12 84.61 223.1 86.24C223.11 86.78 222.99 87.36 222.73 87.99C222.47 88.62 222.13 89.1601 221.71 89.5901C221.29 90.0301 220.79 90.37 220.21 90.63C219.63 90.89 219.01 91.0301 218.35 91.0601H217.41L217.24 91.04L217.27 91.05ZM216.61 76.21C216.2 76.21 215.82 76.29 215.44 76.46C215.07 76.63 214.74 76.86 214.45 77.14C214.16 77.42 213.92 77.75 213.74 78.11C213.56 78.48 213.47 78.86 213.46 79.27C213.46 79.68 213.53 80.07 213.68 80.45C213.83 80.83 214.04 81.17 214.31 81.45C214.58 81.74 214.91 81.98 215.28 82.16C215.66 82.34 216.06 82.4301 216.51 82.4401C216.95 82.4401 217.37 82.37 217.76 82.21C218.15 82.05 218.49 81.8201 218.77 81.5301C219.05 81.2401 219.27 80.91 219.44 80.54C219.6 80.17 219.69 79.78 219.69 79.35C219.69 78.93 219.61 78.52 219.44 78.14C219.27 77.76 219.04 77.43 218.76 77.15C218.48 76.87 218.15 76.6401 217.77 76.4701C217.39 76.3001 217 76.21 216.6 76.2L216.61 76.21Z" fill="#2B388F"/>
</svg>
