<svg width="41" height="41" viewBox="0 0 41 41" fill="none" xmlns="http://www.w3.org/2000/svg">
<path fill-rule="evenodd" clip-rule="evenodd" d="M18.6111 31.2858C16.8819 34.2612 13.6601 36.2609 9.97937 36.2609C4.47285 36.2609 0 31.7881 0 26.2816C0 20.7751 4.47285 16.3022 9.97937 16.3022C10.9261 16.3022 11.839 16.4326 12.7085 16.679C11.1 14.9063 10.1195 12.5539 10.1195 9.97937C10.1195 4.47285 14.5923 0 20.0988 0C25.6054 0 30.0782 4.47285 30.0782 9.97937C30.0782 12.5587 29.0977 14.9111 27.4892 16.679C28.3586 16.4326 29.2715 16.3022 30.2183 16.3022C35.7248 16.3022 40.1977 20.7751 40.1977 26.2816C40.1977 31.7881 35.7248 36.2609 30.2183 36.2609C26.5328 36.2609 23.311 34.2612 21.5866 31.2858C21.5866 32.5465 21.8232 33.8023 22.2966 34.9906C23.0308 36.8213 24.2287 38.4297 25.7696 39.6566C25.8903 39.7532 26.0063 39.845 26.1222 39.9368C26.2913 40.0721 26.354 40.2942 26.2816 40.4971C26.2091 40.7 26.0208 40.8352 25.8082 40.8352H14.3943C14.1817 40.8352 13.9885 40.7 13.9209 40.4971C13.8484 40.2942 13.9161 40.0721 14.0803 39.9368C14.1914 39.845 14.3121 39.7532 14.4329 39.6566C15.9738 38.4249 17.1717 36.8164 17.9059 34.9906C18.3841 33.8072 18.6208 32.5465 18.6159 31.2858H18.6111Z" fill="#74FAFD"/>
</svg>
