<svg width="45" height="44" viewBox="0 0 45 44" fill="none" xmlns="http://www.w3.org/2000/svg">
<path d="M35.7695 4.59092C31.1023 1.02092 25.2937 -0.549074 19.424 0.170926C13.5543 0.890926 8.31637 3.80093 4.67837 8.38093C1.04037 12.9609 -0.559533 18.6509 0.174181 24.4209C0.907896 30.1809 3.87332 35.3209 8.54055 38.8909C13.2078 42.4609 19.0164 44.0309 24.8861 43.3209C30.7558 42.6009 35.9937 39.6909 39.6317 35.1109C43.2697 30.5309 44.8696 24.8409 44.1359 19.0709C43.4022 13.3109 40.4367 8.17092 35.7695 4.60092V4.59092ZM24.6823 41.7009C13.4625 43.0709 3.20074 35.2209 1.80465 24.2109C0.408553 13.2009 8.40808 3.13092 19.6278 1.76092C30.8475 0.390922 41.1093 8.24093 42.5054 19.2509C43.9015 30.2609 35.902 40.3309 24.6823 41.7009Z" fill="#E2475A"/>
<path d="M24.03 36.5009C15.735 37.5109 8.14306 31.7109 7.11382 23.5709C7.05268 23.1309 7.37877 22.7209 7.82715 22.6709C8.27553 22.6109 8.69334 22.9309 8.74429 23.3709C9.66143 30.6309 16.4279 35.8009 23.816 34.8909C31.2143 33.9909 36.4828 27.3509 35.5554 20.1009C35.4943 19.6609 35.8204 19.2509 36.2688 19.2009C36.7172 19.1509 37.135 19.4609 37.1859 19.9009C38.2151 28.0409 32.3047 35.4909 24.0096 36.5009H24.03Z" fill="#E2475A"/>
</svg>
