<svg width="42" height="45" viewBox="0 0 42 45" fill="none" xmlns="http://www.w3.org/2000/svg">
<g style="mix-blend-mode:multiply">
<path d="M32.1216 5.98002C31.8566 6.35002 31.5917 6.71001 31.3369 7.05001C31.2758 7.14001 31.2146 7.23002 31.1433 7.32002C31.0312 7.48002 30.9191 7.65001 30.7866 7.80001C30.7458 7.86001 30.7051 7.91001 30.6643 7.97001C30.6032 7.92001 30.542 7.88001 30.4707 7.84001C30.593 7.65001 30.7255 7.47001 30.8477 7.28001L30.9497 7.13002C31.1535 6.84002 31.3573 6.55001 31.5611 6.25001C31.9279 5.73001 32.305 5.20001 32.7024 4.69001C32.9572 4.34001 33.2221 4.00001 33.4973 3.67001C33.5177 3.64001 33.5584 3.63001 33.589 3.64001C33.6094 3.64001 33.6196 3.67001 33.6298 3.69001C33.6298 3.71001 33.6297 3.74002 33.6196 3.76002C33.1814 4.50002 32.6718 5.21001 32.1827 5.89001L32.1216 5.97001V5.98002Z" fill="#1F2E33"/>
<path d="M29.2275 28.72C29.2275 28.72 29.2581 28.7 29.2683 28.71C29.5027 28.85 29.788 29.02 30.053 29.21C30.1141 29.25 30.1753 29.29 30.2466 29.33C30.4402 29.45 30.6644 29.58 30.7459 29.79C30.7459 29.81 30.7459 29.84 30.7357 29.86C30.7153 29.88 30.695 29.89 30.6746 29.89C30.6236 29.89 30.5727 29.87 30.5217 29.85C30.3893 29.79 30.2772 29.69 30.1651 29.58C30.1141 29.53 30.0632 29.48 30.0122 29.44C29.7676 29.25 29.5332 29.04 29.2377 28.75C29.2275 28.74 29.2275 28.72 29.2377 28.71L29.2275 28.72Z" fill="#1F2E33"/>
<path d="M31.3475 30.5C31.3475 30.5 31.2965 30.45 31.266 30.42C31.2456 30.4 31.2354 30.37 31.215 30.34C31.2048 30.31 31.1844 30.28 31.1641 30.26V30.24C31.1641 30.24 31.1743 30.23 31.1844 30.24C31.1844 30.24 31.2252 30.25 31.2558 30.26C31.2762 30.26 31.2965 30.26 31.3169 30.27C31.3577 30.28 31.3883 30.31 31.429 30.33C31.429 30.33 31.4494 30.34 31.4494 30.35C31.5615 30.42 31.643 30.5 31.7347 30.61C31.7551 30.63 31.7551 30.66 31.7347 30.69C31.7144 30.71 31.694 30.72 31.6634 30.71L31.6226 30.69C31.5207 30.65 31.4392 30.6 31.3679 30.53C31.3577 30.53 31.3475 30.51 31.3373 30.5H31.3475Z" fill="#1F2E33"/>
<path d="M33.8335 32.45C33.5278 32.21 33.2221 31.97 32.9571 31.75C32.8858 31.69 32.8145 31.64 32.7329 31.58C32.4986 31.41 32.254 31.23 32.1113 30.98C32.1113 30.98 32.1113 30.97 32.1113 30.96C32.1113 30.96 32.1215 30.95 32.1317 30.96C32.1725 30.97 32.2234 30.99 32.2642 31.01C32.4578 31.09 32.631 31.23 32.8043 31.36C32.8654 31.41 32.9368 31.46 32.9979 31.51L33.1508 31.62C33.3953 31.8 33.6501 31.98 33.9048 32.17L34.0475 32.27C34.6182 32.7 35.2092 33.14 35.7493 33.64C35.7799 33.67 35.7799 33.71 35.7595 33.74C35.7391 33.77 35.7086 33.79 35.6678 33.77C35.6678 33.77 35.6678 33.77 35.6576 33.77C35.036 33.39 34.4551 32.94 33.8947 32.51L33.8335 32.46V32.45Z" fill="#1F2E33"/>
<path d="M9.2647 13.52C9.2647 13.52 9.30545 13.49 9.33602 13.5C9.34621 13.5 9.3564 13.5 9.36659 13.51C9.45831 13.55 9.52965 13.59 9.60098 13.65V13.66C9.5806 13.72 9.56022 13.78 9.53984 13.83H9.52964C9.42774 13.76 9.34622 13.68 9.2647 13.58C9.24432 13.56 9.25451 13.52 9.2647 13.5V13.52Z" fill="#1F2E33"/>
<path d="M7.16537 11.75C7.45071 11.97 7.73603 12.2 8.00098 12.42L8.03155 12.45C8.10289 12.51 8.17422 12.56 8.25575 12.62C8.49013 12.79 8.72451 12.97 8.87737 13.21V13.23C8.87737 13.23 8.86717 13.23 8.85698 13.23C8.81622 13.22 8.76528 13.2 8.72451 13.18C8.5309 13.1 8.35766 12.96 8.18442 12.83C8.12328 12.78 8.06213 12.73 8.00098 12.69L7.84813 12.58C7.60356 12.4 7.34879 12.22 7.10422 12.04L6.96155 11.93C6.39088 11.51 5.79984 11.06 5.25974 10.56C5.22917 10.53 5.22918 10.49 5.24956 10.46C5.26994 10.43 5.31071 10.41 5.35147 10.43C5.9629 10.8 6.54375 11.25 7.09403 11.68L7.16537 11.74V11.75Z" fill="#1F2E33"/>
<path d="M34.3431 19.54H34.3329C34.3329 19.48 34.3329 19.43 34.3125 19.37L34.3227 19.36C34.4246 19.34 34.5265 19.33 34.6386 19.34C34.6692 19.34 34.6895 19.37 34.6895 19.4C34.6895 19.43 34.6692 19.45 34.6488 19.46C34.5367 19.51 34.4348 19.55 34.3329 19.56L34.3431 19.54Z" fill="#1F2E33"/>
<path d="M37.5229 18.96H37.4516C37.0848 19.04 36.7179 19.1 36.3612 19.16H36.3307C36.2389 19.18 36.1472 19.2 36.0453 19.22C35.7498 19.28 35.4543 19.34 35.1791 19.29C35.1791 19.29 35.1689 19.28 35.1689 19.27C35.1689 19.27 35.1689 19.26 35.1791 19.25C35.4135 19.11 35.6887 19.06 35.9536 19.01C36.0351 18.99 36.1167 18.98 36.188 18.96C36.2695 18.94 36.3408 18.93 36.4224 18.91C36.7077 18.85 37.0134 18.78 37.309 18.72L37.4822 18.68C38.1955 18.53 38.9394 18.38 39.6731 18.32C39.7241 18.32 39.7547 18.36 39.7547 18.4C39.7547 18.43 39.7241 18.46 39.6935 18.47C38.97 18.68 38.2363 18.82 37.5229 18.95V18.96Z" fill="#1F2E33"/>
<path d="M8.57173 24.54C8.5004 24.56 8.42906 24.58 8.34754 24.6C8.11316 24.67 7.84821 24.75 7.66478 24.67C7.66478 24.67 7.62402 24.64 7.62402 24.61C7.62402 24.58 7.62402 24.56 7.65459 24.54C7.80745 24.4 8.04183 24.38 8.24564 24.36C8.32717 24.36 8.39849 24.35 8.45963 24.34C8.77554 24.29 9.09145 24.26 9.40736 24.23H9.48888C9.48888 24.23 9.51945 24.23 9.51945 24.25C9.51945 24.26 9.50926 24.27 9.49907 24.28C9.44811 24.3 9.39716 24.31 9.33602 24.33C9.09144 24.4 8.83669 24.48 8.58193 24.54H8.57173Z" fill="#1F2E33"/>
<path d="M6.71732 24.65C6.71732 24.65 6.80902 24.65 6.84979 24.65C6.88036 24.65 6.90074 24.65 6.93131 24.67C6.96188 24.67 6.98227 24.69 7.01284 24.68C7.01284 24.68 7.03322 24.68 7.03322 24.7C7.03322 24.7 7.03323 24.71 7.02304 24.72C7.00266 24.72 6.98226 24.74 6.96188 24.76C6.9415 24.77 6.93132 24.79 6.91094 24.8C6.87018 24.82 6.81922 24.84 6.77846 24.85C6.76827 24.85 6.75808 24.85 6.74789 24.85C6.62561 24.88 6.51351 24.9 6.38103 24.89C6.38103 24.89 6.37084 24.89 6.36065 24.89C6.34027 24.89 6.33008 24.86 6.33008 24.83C6.33008 24.8 6.34028 24.78 6.37085 24.77C6.49313 24.71 6.59503 24.68 6.69694 24.67C6.70713 24.67 6.72752 24.67 6.73771 24.67L6.71732 24.65Z" fill="#1F2E33"/>
<path d="M3.46651 25.24L3.55822 25.22C3.93527 25.15 4.30213 25.09 4.67918 25.03C4.77089 25.01 4.86261 25 4.95433 24.98C5.24985 24.92 5.54537 24.86 5.82051 24.91C5.82051 24.91 5.83069 24.92 5.83069 24.93C5.83069 24.93 5.8307 24.94 5.82051 24.95C5.58613 25.09 5.31099 25.14 5.04604 25.19C4.96451 25.21 4.88298 25.22 4.80146 25.24L4.61804 25.28C4.31233 25.35 3.99642 25.42 3.68052 25.48L3.50727 25.52C2.79393 25.67 2.05004 25.82 1.30614 25.89C1.29594 25.89 1.27555 25.89 1.26536 25.89C1.23479 25.88 1.22461 25.85 1.22461 25.81C1.22461 25.78 1.25518 25.75 1.28575 25.74C1.99908 25.53 2.73279 25.39 3.44613 25.26L3.46651 25.24Z" fill="#1F2E33"/>
<path d="M22.0233 35.57C21.901 35.42 21.8908 35.17 21.8908 34.95C21.8908 34.87 21.8908 34.79 21.8908 34.72C21.8602 34.39 21.85 34.05 21.8398 33.72V33.64C21.8398 33.64 21.8398 33.62 21.85 33.61C21.8704 33.6 21.8908 33.61 21.8908 33.63C21.901 33.69 21.9112 33.75 21.9316 33.8C21.9825 34.05 22.0437 34.32 22.0844 34.58C22.0946 34.65 22.115 34.73 22.1354 34.82C22.1863 35.06 22.2475 35.34 22.1557 35.54C22.1557 35.56 22.1354 35.57 22.115 35.58C22.0946 35.58 22.0742 35.58 22.064 35.58C22.064 35.58 22.0437 35.57 22.0335 35.56L22.0233 35.57Z" fill="#1F2E33"/>
<path d="M22.1352 36.22C22.1352 36.22 22.1556 36.26 22.1658 36.28C22.176 36.3 22.1862 36.31 22.1964 36.33C22.2168 36.37 22.2269 36.42 22.2371 36.47C22.2371 36.48 22.2371 36.5 22.2371 36.51C22.2575 36.64 22.2677 36.76 22.2473 36.9C22.2473 36.92 22.2371 36.94 22.2167 36.95C22.1964 36.96 22.176 36.96 22.1556 36.95C22.1556 36.95 22.1352 36.93 22.125 36.92C22.0741 36.79 22.0537 36.68 22.0537 36.58C22.0537 36.57 22.0537 36.55 22.0537 36.54C22.0537 36.49 22.0537 36.44 22.0537 36.39C22.0537 36.36 22.0639 36.33 22.0741 36.3C22.0741 36.27 22.0945 36.25 22.0945 36.22C22.0945 36.22 22.0945 36.21 22.0945 36.2C22.0945 36.2 22.1148 36.2 22.125 36.2L22.1352 36.22Z" fill="#1F2E33"/>
<path d="M22.2777 37.47C22.4 37.71 22.4305 38 22.4611 38.28C22.4611 38.36 22.4815 38.45 22.4917 38.53V38.63C22.5528 38.98 22.6038 39.34 22.6547 39.7L22.6751 39.88C22.7668 40.63 22.8687 41.41 22.8891 42.19C22.8891 42.22 22.8789 42.25 22.8585 42.26C22.8382 42.28 22.8076 42.28 22.7872 42.26C22.7872 42.26 22.7566 42.23 22.7464 42.21C22.5834 41.47 22.5019 40.7 22.4305 39.96V39.86C22.3796 39.49 22.349 39.12 22.3083 38.68C22.3083 38.58 22.2879 38.49 22.2777 38.39C22.2369 38.08 22.1961 37.77 22.2675 37.47V37.46H22.2879L22.2777 37.47Z" fill="#1F2E33"/>
<path d="M18.9761 8.62999C19.0984 8.77999 19.1086 9.02999 19.1086 9.24999C19.1086 9.32999 19.1086 9.41 19.1086 9.48C19.1391 9.81 19.1493 10.14 19.1595 10.46V10.56C19.1595 10.56 19.1595 10.58 19.1493 10.59C19.1493 10.59 19.1289 10.59 19.1188 10.59C19.1188 10.59 19.1086 10.58 19.0984 10.57C19.0882 10.51 19.078 10.45 19.0576 10.4C19.0067 10.15 18.9455 9.88 18.9047 9.62C18.8946 9.55 18.8742 9.46999 18.8538 9.37999C18.8029 9.13999 18.7417 8.85999 18.8334 8.65999C18.8538 8.61999 18.8946 8.6 18.9251 8.62C18.9251 8.62 18.9455 8.62999 18.9557 8.63999L18.9761 8.62999Z" fill="#1F2E33"/>
<path d="M18.8742 7.99C18.8742 7.99 18.8742 7.99001 18.8742 7.98001C18.8742 7.96001 18.8538 7.93999 18.8436 7.91999C18.8334 7.89999 18.8232 7.89 18.813 7.87C18.7927 7.82 18.7825 7.77 18.7723 7.72C18.7723 7.71 18.7723 7.7 18.7723 7.69C18.7519 7.56 18.7417 7.44 18.7621 7.3C18.7621 7.28 18.7723 7.25999 18.7927 7.24999C18.8232 7.22999 18.864 7.24999 18.8742 7.27999C18.9251 7.40999 18.9455 7.52 18.9455 7.62C18.9455 7.63 18.9455 7.65 18.9455 7.66C18.9455 7.71 18.9455 7.75 18.9455 7.8C18.9455 7.83 18.9353 7.85999 18.9251 7.88999C18.9251 7.91999 18.9047 7.94 18.9047 7.97C18.9047 7.97 18.9047 7.98 18.9047 7.99C18.9047 7.99 18.8946 7.99 18.8844 7.99H18.8742Z" fill="#1F2E33"/>
<path d="M18.7321 6.74002C18.6098 6.50002 18.5792 6.21003 18.5487 5.93003C18.5487 5.84003 18.5283 5.76003 18.5181 5.68003L18.4875 5.50002C18.4366 5.18002 18.3958 4.85002 18.3551 4.52002L18.3347 4.33002C18.243 3.58002 18.141 2.81002 18.1309 2.03002C18.1309 2.00002 18.141 1.97003 18.1614 1.96003C18.1818 1.94003 18.2124 1.94002 18.2328 1.95002C18.2532 1.95002 18.2735 1.98003 18.2735 2.01003C18.4366 2.75003 18.5181 3.52002 18.5894 4.27002V4.36002C18.6404 4.77002 18.6812 5.18003 18.7117 5.54003C18.7117 5.64003 18.7321 5.73002 18.7423 5.83002C18.7831 6.14002 18.8238 6.45002 18.7627 6.75002C18.7627 6.75002 18.7627 6.76003 18.7525 6.76003C18.7525 6.76003 18.7423 6.76003 18.7321 6.76003V6.74002Z" fill="#1F2E33"/>
<path d="M24.3158 7.90999H24.3362C24.3464 7.90999 24.3566 7.92999 24.3464 7.93999C24.2648 8.25999 24.1935 8.58999 24.1222 8.90999C24.0305 9.30999 23.9387 9.72998 23.8266 10.14C23.7757 10.33 23.7349 10.51 23.684 10.7C23.633 10.89 23.5923 11.08 23.5413 11.27C23.5209 11.35 23.5006 11.44 23.4802 11.52C23.4088 11.83 23.3375 12.15 23.1745 12.43C23.1541 12.46 23.1133 12.47 23.0827 12.46C23.0827 12.46 23.042 12.43 23.042 12.4C23.042 12.12 23.1235 11.85 23.1948 11.59C23.2152 11.53 23.2254 11.47 23.2458 11.41C23.3069 11.21 23.3579 11.01 23.419 10.81C23.4802 10.61 23.5413 10.39 23.6025 10.18C23.7247 9.74999 23.8572 9.30998 23.9897 8.88998C24.0916 8.56998 24.1935 8.23998 24.2852 7.91998C24.2852 7.91998 24.2852 7.90999 24.2954 7.89999L24.3158 7.90999Z" fill="#1F2E33"/>
<path d="M24.6116 7.16001C24.6116 7.16001 24.6116 7.16 24.6014 7.17C24.6014 7.17 24.6014 7.17 24.5912 7.17C24.5912 7.17 24.5811 7.16002 24.5811 7.15002C24.5811 7.11002 24.5811 7.07001 24.5811 7.02001C24.5811 6.98001 24.5811 6.93001 24.5811 6.89001C24.5811 6.83001 24.6014 6.77001 24.6116 6.71001C24.6116 6.69001 24.6116 6.67002 24.6218 6.65002C24.6626 6.48002 24.7237 6.32 24.7747 6.2C24.7951 6.16 24.8256 6.15001 24.8562 6.16001C24.8766 6.16001 24.8868 6.19001 24.8868 6.22001C24.8664 6.38001 24.846 6.54001 24.795 6.68001C24.7747 6.76001 24.7441 6.85 24.7135 6.92C24.6932 6.96 24.6728 7.00002 24.6524 7.04002C24.632 7.08002 24.6116 7.11002 24.5912 7.15002L24.6116 7.16001Z" fill="#1F2E33"/>
<path d="M25.712 2.52C25.926 1.7 26.1502 0.860009 26.4355 0.0400085C26.4355 0.0200085 26.4559 0 26.4763 0C26.4967 0 26.5171 0 26.5374 0C26.568 0.01 26.5782 0.0400018 26.5782 0.0800018C26.4253 0.930002 26.1808 1.78001 25.9566 2.60001L25.926 2.7C25.8139 3.12 25.6814 3.54001 25.5592 3.98001C25.5286 4.08001 25.498 4.19 25.4776 4.3C25.3961 4.63 25.3044 4.98001 25.1312 5.26001C25.1312 5.26001 25.1108 5.27001 25.1108 5.26001C25.1108 5.26001 25.1108 5.26001 25.1006 5.24001C25.1006 4.94001 25.1821 4.62001 25.2636 4.32001C25.284 4.23001 25.3146 4.14 25.335 4.05L25.3655 3.91C25.4573 3.52 25.5592 3.12001 25.6611 2.73001L25.712 2.53V2.52Z" fill="#1F2E33"/>
<path d="M30.481 24.27C30.6645 24.32 30.8377 24.36 31.0211 24.41C31.2147 24.46 31.4287 24.52 31.6224 24.57C32.03 24.67 32.4274 24.79 32.8248 24.9C33.1204 24.98 33.4159 25.07 33.7216 25.15C33.7216 25.15 33.742 25.17 33.7318 25.19C33.7318 25.2 33.7114 25.21 33.7012 25.21C33.3955 25.14 33.0898 25.08 32.7841 25.03C32.407 24.96 32.03 24.88 31.6529 24.8C31.4797 24.76 31.3064 24.72 31.1332 24.69C30.96 24.65 30.7766 24.61 30.6033 24.57C30.5218 24.55 30.4403 24.54 30.3587 24.52C30.1346 24.47 29.9002 24.43 29.6964 24.34C29.6352 24.31 29.5843 24.29 29.5333 24.25C29.5027 24.23 29.5027 24.2 29.5129 24.17C29.5129 24.14 29.5435 24.12 29.5741 24.11C29.839 24.09 30.0836 24.16 30.3282 24.23C30.3791 24.24 30.4403 24.26 30.4912 24.27H30.481Z" fill="#1F2E33"/>
<path d="M34.6394 25.55C34.6394 25.55 34.6292 25.55 34.619 25.55C34.5885 25.54 34.5579 25.52 34.5273 25.5C34.4968 25.48 34.4662 25.46 34.4356 25.45C34.4356 25.45 34.4356 25.45 34.4254 25.45C34.4254 25.45 34.4152 25.44 34.4254 25.43C34.4254 25.43 34.4356 25.41 34.4458 25.42C34.4866 25.42 34.5273 25.42 34.5681 25.42C34.6089 25.42 34.6496 25.42 34.6904 25.42C34.7413 25.42 34.8025 25.43 34.8534 25.44C34.8738 25.44 34.8942 25.44 34.9146 25.45C35.0267 25.47 35.1489 25.51 35.2814 25.57C35.3018 25.57 35.312 25.58 35.3324 25.59C35.363 25.6 35.3731 25.64 35.3629 25.66C35.3629 25.68 35.3324 25.71 35.3018 25.71C35.149 25.71 35.0063 25.68 34.8636 25.64C34.7821 25.62 34.7006 25.59 34.6496 25.57L34.6394 25.55Z" fill="#1F2E33"/>
<path d="M38.5722 26.55C38.1646 26.45 37.7468 26.34 37.3901 26.24C37.2984 26.21 37.1965 26.19 37.0946 26.17C36.8704 26.12 36.636 26.07 36.422 25.97C36.3405 25.94 36.2692 25.9 36.208 25.86C36.208 25.86 36.208 25.85 36.208 25.84C36.208 25.84 36.208 25.83 36.2284 25.83C36.5137 25.8 36.8092 25.87 37.0844 25.94C37.1659 25.96 37.2576 25.98 37.3392 26L37.5124 26.04C37.8589 26.11 38.2155 26.19 38.5722 26.27L38.7658 26.31C39.5301 26.48 40.3148 26.67 41.0689 26.92C41.1096 26.93 41.1198 26.98 41.1096 27.02C41.1096 27.05 41.0689 27.08 41.0281 27.08C40.2332 26.97 39.4486 26.77 38.6843 26.58L38.5824 26.55H38.5722Z" fill="#1F2E33"/>
<path d="M10.6301 19.84C10.4467 19.79 10.2531 19.74 10.0697 19.69C9.87604 19.64 9.68243 19.59 9.48881 19.54C9.08119 19.44 8.67356 19.32 8.28632 19.21C7.9908 19.13 7.69528 19.04 7.39976 18.96C7.39976 18.96 7.37938 18.94 7.38957 18.92C7.38957 18.91 7.40995 18.9 7.42014 18.9C7.71567 18.96 8.03157 19.02 8.32709 19.08C8.70414 19.15 9.09137 19.23 9.47861 19.31C9.65185 19.35 9.82508 19.39 9.98813 19.42C10.1614 19.46 10.3448 19.5 10.518 19.54C10.5996 19.56 10.6811 19.57 10.7626 19.59C10.9868 19.63 11.2212 19.68 11.425 19.77C11.4861 19.8 11.5371 19.82 11.588 19.86C11.6186 19.88 11.6186 19.91 11.6084 19.94C11.6084 19.97 11.5778 19.99 11.5473 20C11.2823 20.02 11.0378 19.95 10.7932 19.89C10.7422 19.88 10.6811 19.86 10.6301 19.85V19.84Z" fill="#1F2E33"/>
<path d="M5.83045 18.57C5.83045 18.57 5.79989 18.56 5.77951 18.55C5.74894 18.54 5.73875 18.5 5.74894 18.48C5.74894 18.45 5.77951 18.43 5.81008 18.43C5.97313 18.43 6.1056 18.46 6.24826 18.5C6.32979 18.52 6.40113 18.55 6.46227 18.57C6.50303 18.59 6.54379 18.61 6.57436 18.63C6.60494 18.65 6.6355 18.67 6.66608 18.68C6.66608 18.68 6.66607 18.68 6.67626 18.68C6.67626 18.68 6.68645 18.69 6.67626 18.7C6.67626 18.7 6.66608 18.72 6.65589 18.72C6.61513 18.72 6.57436 18.72 6.53359 18.72C6.49283 18.72 6.45208 18.72 6.41131 18.72C6.35017 18.72 6.29922 18.7 6.23808 18.69C6.2177 18.69 6.19732 18.69 6.17694 18.69C6.06484 18.67 5.95275 18.63 5.81008 18.57H5.83045Z" fill="#1F2E33"/>
<path d="M0.0933461 17.04C0.888203 17.15 1.67286 17.35 2.42696 17.54L2.53905 17.57C2.93648 17.67 3.32372 17.77 3.72115 17.88C3.81287 17.91 3.91477 17.93 4.01667 17.95C4.24086 18 4.47525 18.06 4.68925 18.15C4.77077 18.18 4.84211 18.22 4.90325 18.26C4.90325 18.26 4.90325 18.27 4.90325 18.28C4.90325 18.28 4.90325 18.29 4.88287 18.3C4.59753 18.33 4.302 18.25 4.01667 18.19C3.93515 18.17 3.84343 18.15 3.76191 18.13L3.62944 18.1C3.27278 18.02 2.89573 17.94 2.52887 17.86L2.32506 17.81C1.57097 17.64 0.786301 17.46 0.0322057 17.2C0.0322057 17.2 -0.00855493 17.14 0.00163555 17.1C0.00163555 17.07 0.0423838 17.04 0.0831457 17.04H0.0933461Z" fill="#1F2E33"/>
<path d="M28.6981 16.68C28.8815 16.47 29.1159 16.33 29.3401 16.19C29.3911 16.16 29.442 16.13 29.493 16.1C29.656 15.99 29.8293 15.89 29.9923 15.79C30.1757 15.68 30.3592 15.56 30.5528 15.44C30.9196 15.21 31.3069 14.98 31.6737 14.76C31.9489 14.6 32.2342 14.43 32.5195 14.26C32.5399 14.25 32.5603 14.26 32.5603 14.28C32.5603 14.28 32.5603 14.3 32.5501 14.31C32.2852 14.49 32.01 14.69 31.7451 14.87C31.3884 15.12 31.0215 15.38 30.6547 15.62C30.4814 15.74 30.298 15.86 30.1248 15.97C29.9923 16.06 29.8496 16.16 29.707 16.25C29.6458 16.29 29.5847 16.33 29.5235 16.38C29.279 16.55 29.0344 16.72 28.7592 16.8C28.7491 16.8 28.7389 16.8 28.7185 16.8C28.6981 16.8 28.6777 16.77 28.6777 16.74C28.6777 16.72 28.6777 16.7 28.6981 16.68Z" fill="#1F2E33"/>
<path d="M33.6807 13.71C33.6093 13.76 33.5278 13.8 33.4667 13.83C33.4259 13.85 33.3851 13.86 33.3444 13.87C33.3036 13.88 33.2629 13.89 33.2323 13.91H33.2221C33.2221 13.91 33.2221 13.91 33.2119 13.89C33.2119 13.89 33.2119 13.88 33.2119 13.87C33.2425 13.84 33.2731 13.81 33.3036 13.78C33.3342 13.75 33.3648 13.71 33.3953 13.69C33.4463 13.65 33.4972 13.62 33.538 13.58C33.5584 13.57 33.5686 13.56 33.589 13.54C33.7316 13.44 33.8743 13.37 33.9966 13.32C34.0373 13.3 34.0679 13.33 34.0781 13.37C34.0781 13.39 34.0781 13.41 34.0577 13.43C33.9354 13.54 33.8132 13.63 33.6909 13.71H33.6807Z" fill="#1F2E33"/>
<path d="M37.1968 11.48L37.0949 11.54C36.7178 11.78 36.3306 12.02 35.9943 12.22C35.9026 12.27 35.8211 12.33 35.7294 12.39C35.4542 12.57 35.1587 12.77 34.853 12.85C34.853 12.85 34.853 12.85 34.8428 12.84C34.8428 12.84 34.8428 12.83 34.8428 12.82C35.0466 12.59 35.3115 12.41 35.5663 12.25C35.6478 12.2 35.7192 12.15 35.8007 12.1L35.872 12.05C36.2287 11.81 36.6057 11.55 36.9726 11.31L37.0949 11.23C37.7776 10.78 38.4808 10.32 39.2145 9.93002C39.2349 9.92002 39.2553 9.92002 39.2756 9.93002C39.296 9.94002 39.3164 9.97001 39.3164 10C39.3164 10.03 39.3164 10.05 39.2858 10.07C38.6133 10.59 37.8897 11.05 37.1968 11.49V11.48Z" fill="#1F2E33"/>
<path d="M9.37676 29.25C9.37676 29.25 9.45828 29.3 9.49905 29.32C9.47866 29.33 9.45829 29.34 9.43791 29.35C9.16276 29.51 8.87742 29.68 8.60228 29.85C8.60228 29.85 8.5921 29.85 8.58191 29.85C8.58191 29.85 8.56152 29.83 8.56152 29.82C8.56152 29.81 8.56152 29.8 8.57171 29.79C8.83666 29.61 9.11181 29.42 9.37676 29.23V29.25Z" fill="#1F2E33"/>
<path d="M7.43063 30.41C7.50196 30.37 7.5733 30.33 7.64464 30.29C7.6854 30.27 7.72616 30.26 7.76692 30.25C7.80768 30.24 7.84844 30.23 7.87901 30.21C7.8892 30.21 7.8994 30.21 7.8994 30.22C7.8994 30.22 7.8994 30.23 7.8994 30.24C7.86883 30.27 7.83825 30.3 7.80767 30.33C7.7771 30.36 7.74653 30.4 7.71596 30.42C7.6752 30.46 7.62425 30.49 7.5733 30.53C7.55292 30.54 7.54272 30.55 7.52234 30.57C7.38987 30.67 7.23701 30.74 7.11473 30.79C7.09435 30.79 7.08415 30.79 7.06377 30.79C7.06377 30.79 7.0332 30.76 7.0332 30.74C7.0332 30.72 7.03321 30.7 7.05359 30.68C7.17587 30.57 7.29816 30.48 7.42045 30.4L7.43063 30.41Z" fill="#1F2E33"/>
<path d="M5.66759 31.49L5.77969 31.42C6.13636 31.19 6.50322 30.97 6.88026 30.74C6.97198 30.69 7.0535 30.63 7.14521 30.57C7.42035 30.39 7.71588 30.19 8.02159 30.11C8.02159 30.11 8.04198 30.11 8.04198 30.13C8.04198 30.13 8.04198 30.14 8.04198 30.15C7.83817 30.38 7.57321 30.56 7.31845 30.72C7.23692 30.77 7.16559 30.82 7.08407 30.87C6.69683 31.13 6.30959 31.4 5.91216 31.66L5.78988 31.74C5.10711 32.19 4.40397 32.65 3.67025 33.04C3.64987 33.04 3.6295 33.05 3.60911 33.04C3.58873 33.03 3.56836 33 3.56836 32.97C3.56836 32.94 3.56836 32.92 3.59893 32.9C4.26131 32.38 4.98483 31.93 5.67778 31.49H5.66759Z" fill="#1F2E33"/>
<path d="M25.885 31.6C25.885 31.6 25.9156 31.65 25.9258 31.67C26.0175 31.85 26.1194 32.04 26.2111 32.23C26.4149 32.61 26.5984 33 26.7818 33.38C26.9245 33.66 27.0569 33.96 27.2098 34.24C27.2098 34.25 27.2098 34.26 27.2098 34.27C27.2098 34.28 27.1894 34.28 27.1792 34.27C27.1792 34.27 27.1792 34.27 27.169 34.27C27.006 33.99 26.8429 33.72 26.6901 33.45C26.4761 33.09 26.2519 32.72 26.0481 32.35C25.9462 32.17 25.8443 31.99 25.7424 31.81C25.722 31.78 25.7118 31.75 25.6914 31.72C25.7627 31.68 25.8239 31.64 25.8952 31.6H25.885Z" fill="#1F2E33"/>
<path d="M27.5261 34.96C27.5261 34.96 27.5771 35.02 27.6076 35.05C27.6382 35.08 27.6688 35.11 27.6892 35.14C27.7197 35.19 27.7503 35.24 27.7809 35.29C27.7809 35.31 27.8013 35.32 27.8115 35.34C27.9032 35.48 27.9541 35.64 27.9949 35.75C27.9949 35.78 27.9949 35.8 27.9745 35.82C27.9541 35.84 27.9337 35.84 27.9134 35.84C27.9134 35.84 27.893 35.84 27.893 35.82C27.8013 35.7 27.7197 35.58 27.6484 35.45C27.6178 35.39 27.5873 35.32 27.5465 35.24C27.5261 35.2 27.5159 35.15 27.5159 35.11C27.5159 35.07 27.5057 35.03 27.4854 34.99V34.97C27.4854 34.97 27.5057 34.97 27.5159 34.97L27.5261 34.96Z" fill="#1F2E33"/>
<path d="M28.4128 36.61C28.6268 36.81 28.7695 37.08 28.9122 37.34C28.9529 37.42 28.9937 37.5 29.0446 37.58C29.2688 37.97 29.493 38.37 29.7172 38.78L29.7783 38.89C30.1656 39.59 30.563 40.31 30.8891 41.07C30.8993 41.1 30.8891 41.13 30.8687 41.15C30.8484 41.17 30.8076 41.19 30.7872 41.17C30.7872 41.17 30.7668 41.16 30.7566 41.15C30.3083 40.48 29.921 39.75 29.544 39.04L29.4828 38.92C29.2892 38.56 29.1058 38.2 28.902 37.8C28.851 37.71 28.8103 37.62 28.7491 37.52C28.5963 37.24 28.4332 36.94 28.3721 36.63C28.3721 36.63 28.3721 36.62 28.3721 36.61C28.3721 36.61 28.3823 36.61 28.3925 36.61H28.4128Z" fill="#1F2E33"/>
<path d="M14.3294 10.73C14.1969 10.45 14.0542 10.16 13.9014 9.87C13.9014 9.86 13.9014 9.84999 13.9014 9.83999C13.9116 9.82999 13.9319 9.82999 13.9421 9.83999C14.1052 10.12 14.2682 10.39 14.4211 10.66C14.6351 11.02 14.8593 11.39 15.0631 11.76C15.165 11.94 15.2669 12.12 15.3586 12.29C15.4401 12.43 15.5217 12.57 15.6032 12.72C15.6337 12.78 15.6745 12.84 15.7051 12.91C15.8477 13.16 16.0006 13.41 16.0617 13.69C16.0617 13.71 16.0617 13.74 16.0312 13.76C16.0108 13.78 15.9802 13.79 15.9598 13.78C15.9598 13.78 15.9496 13.78 15.9496 13.77C15.7662 13.59 15.6439 13.35 15.5318 13.12C15.5013 13.07 15.4809 13.01 15.4503 12.96C15.3586 12.79 15.2669 12.61 15.1752 12.44C15.0835 12.26 14.9816 12.07 14.8898 11.88C14.686 11.5 14.5026 11.11 14.3192 10.73H14.3294Z" fill="#1F2E33"/>
<path d="M13.127 8.29001C13.127 8.29001 13.1881 8.26001 13.2187 8.29001C13.3206 8.41001 13.3919 8.53 13.4632 8.67C13.4938 8.73 13.5244 8.8 13.5652 8.88C13.5855 8.92 13.5957 8.97001 13.5957 9.01001C13.5957 9.05001 13.6161 9.09 13.6263 9.13V9.15001C13.6263 9.15001 13.6161 9.15001 13.6059 9.15001C13.5855 9.12001 13.555 9.08999 13.5244 9.05999C13.4938 9.02999 13.4632 9 13.4429 8.97C13.4123 8.92 13.3817 8.88 13.3511 8.83C13.341 8.81 13.3308 8.79 13.3206 8.78C13.2391 8.64 13.1779 8.49001 13.1372 8.37001C13.1372 8.35001 13.1371 8.32 13.1575 8.3L13.127 8.29001Z" fill="#1F2E33"/>
<path d="M12.699 7.5C12.485 7.3 12.3424 7.03001 12.1997 6.76001C12.1589 6.68001 12.1182 6.6 12.0672 6.52C11.843 6.12 11.6188 5.72 11.3946 5.33L11.3335 5.22C10.9463 4.52 10.5488 3.80001 10.2227 3.04001C10.2126 3.01001 10.2227 2.98 10.2431 2.96C10.2635 2.93 10.3043 2.92 10.3246 2.94C10.3348 2.94 10.345 2.95 10.3552 2.96C10.8036 3.64 11.1908 4.37 11.5679 5.07L11.629 5.18001C11.8328 5.56001 12.0265 5.94 12.2099 6.3C12.2507 6.39 12.3016 6.48 12.3526 6.57C12.5054 6.85 12.6685 7.15 12.7296 7.47C12.7296 7.47 12.7296 7.48 12.7296 7.49C12.7296 7.49 12.7194 7.49 12.7092 7.49L12.699 7.5Z" fill="#1F2E33"/>
<path d="M26.5678 9.14999C26.5678 9.14999 26.578 9.14998 26.5882 9.15998C26.5882 9.15998 26.6493 9.26999 26.6289 9.31999C26.5066 9.57999 26.3742 9.77998 26.2315 9.93998C26.2315 9.94998 26.2111 9.94998 26.2009 9.93998C26.1907 9.93998 26.1806 9.91998 26.1907 9.90998C26.2213 9.69998 26.2926 9.46998 26.4047 9.21998C26.4353 9.15998 26.5066 9.10998 26.5678 9.13998V9.14999Z" fill="#1F2E33"/>
<path d="M26.8431 8.75C26.8431 8.75 26.8329 8.75 26.8227 8.75C26.8125 8.75 26.8125 8.74001 26.8125 8.73001C26.8125 8.72001 26.8125 8.69 26.8125 8.67C26.8125 8.65 26.8125 8.63 26.8125 8.61C26.8125 8.57 26.8329 8.53001 26.8431 8.49001V8.47C26.894 8.35 26.945 8.25 27.0265 8.16C27.0469 8.14 27.0774 8.13 27.108 8.14C27.1284 8.14 27.1386 8.17 27.1386 8.2C27.1182 8.33 27.0774 8.42001 27.0265 8.52001C26.9959 8.57001 26.9755 8.61 26.9348 8.66C26.9246 8.68 26.9042 8.69001 26.8838 8.71001C26.8634 8.72001 26.8533 8.73 26.8329 8.75H26.8431Z" fill="#1F2E33"/>
<path d="M27.2915 7.76C27.2915 7.76 27.2812 7.76 27.2812 7.74C27.2914 7.52 27.3933 7.31 27.4851 7.1C27.5156 7.04 27.536 6.97999 27.5666 6.91999C27.6889 6.63999 27.8213 6.32999 27.9538 6.02999L27.9844 5.96C28.2392 5.4 28.4735 4.88 28.7996 4.37C28.82 4.34 28.8506 4.32999 28.8812 4.33999C28.9117 4.34999 28.9423 4.39 28.9219 4.44C28.7283 5.01 28.4735 5.55 28.2086 6.08L28.1373 6.23001C28.0252 6.46001 27.9029 6.69999 27.7908 6.91999C27.7602 6.97999 27.7296 7.04 27.6991 7.1C27.6787 7.15 27.6583 7.19 27.6277 7.24C27.536 7.42 27.4443 7.60999 27.3016 7.74999C27.3016 7.74999 27.2914 7.74999 27.2812 7.74999L27.2915 7.76Z" fill="#1F2E33"/>
<path d="M9.31583 16.85C9.31583 16.85 9.29545 16.87 9.28526 16.87C9.11203 16.85 8.91839 16.8 8.71458 16.71C8.6942 16.7 8.66364 16.69 8.64326 16.68C8.58212 16.65 8.54135 16.58 8.57192 16.51C8.57192 16.51 8.57193 16.49 8.58212 16.49C8.61269 16.44 8.68402 16.41 8.72479 16.43C8.95917 16.54 9.1426 16.67 9.28526 16.81C9.28526 16.81 9.29545 16.84 9.28526 16.85H9.31583Z" fill="#1F2E33"/>
<path d="M8.19476 16.28C8.19476 16.28 8.16419 16.28 8.13362 16.28C8.11324 16.28 8.09285 16.28 8.08266 16.28C8.0419 16.28 8.01133 16.26 7.97057 16.25H7.95018C7.95018 16.25 7.90942 16.23 7.88904 16.22C7.80752 16.18 7.73618 16.14 7.66485 16.07C7.64447 16.05 7.63428 16.02 7.65467 15.99C7.66486 15.97 7.68523 15.95 7.71581 15.96C7.83809 15.98 7.91962 16.01 8.01134 16.06C8.0521 16.09 8.09286 16.11 8.13362 16.14C8.154 16.15 8.16418 16.17 8.17437 16.19C8.18457 16.21 8.19476 16.22 8.21515 16.24C8.21515 16.24 8.21515 16.25 8.21515 16.26C8.21515 16.26 8.20495 16.27 8.19476 16.27V16.28Z" fill="#1F2E33"/>
<path d="M6.84945 15.74C6.79849 15.72 6.73736 15.69 6.68641 15.66C6.63546 15.64 6.5845 15.61 6.53354 15.59C6.44183 15.55 6.33993 15.5 6.24821 15.46C6.0444 15.37 5.87118 15.29 5.71832 15.23L5.65716 15.2C5.14764 14.97 4.6585 14.74 4.19993 14.44C4.16936 14.42 4.15917 14.38 4.17955 14.35C4.19993 14.32 4.2305 14.29 4.27126 14.3C4.47507 14.36 4.69927 14.45 4.93365 14.55C5.21898 14.67 5.50431 14.81 5.76926 14.95L5.91193 15.02C6.12593 15.13 6.33993 15.24 6.55393 15.35C6.60488 15.38 6.65583 15.4 6.70678 15.43C6.74754 15.45 6.78832 15.47 6.82908 15.49C7.00232 15.57 7.17555 15.66 7.28765 15.81C7.28765 15.81 7.28765 15.82 7.28765 15.83C7.28765 15.83 7.27745 15.84 7.26726 15.84C7.10421 15.84 6.95136 15.78 6.83926 15.73L6.84945 15.74Z" fill="#1F2E33"/>
<path d="M31.6943 27.41C31.6943 27.41 31.7147 27.39 31.7249 27.39C31.8981 27.41 32.0918 27.46 32.2956 27.55C32.316 27.55 32.3363 27.57 32.3567 27.58C32.4179 27.61 32.4586 27.68 32.4281 27.75C32.4281 27.76 32.4179 27.77 32.4077 27.78C32.3771 27.83 32.3058 27.85 32.265 27.83C32.0306 27.71 31.8472 27.59 31.7045 27.45C31.7045 27.45 31.6943 27.42 31.7045 27.41H31.6943Z" fill="#1F2E33"/>
<path d="M33.2943 28.3C33.2127 28.29 33.1414 28.27 33.0803 28.24C33.0803 28.24 33.0293 28.21 32.9987 28.2H32.9885C32.9885 28.2 32.9172 28.14 32.8764 28.12C32.8561 28.11 32.8459 28.09 32.8357 28.07C32.8255 28.05 32.8153 28.04 32.7949 28.02V28C32.7949 28 32.8051 27.99 32.8153 27.99C32.8255 27.99 32.8561 27.99 32.8764 27.99C32.8968 27.99 32.9172 27.99 32.9274 27.99C32.9682 27.99 32.9987 28.01 33.0395 28.02H33.0599C33.172 28.07 33.2637 28.12 33.3452 28.2C33.3656 28.22 33.3656 28.25 33.3554 28.28C33.3452 28.3 33.3248 28.32 33.2943 28.31V28.3Z" fill="#1F2E33"/>
<path d="M34.1597 28.53C34.2107 28.55 34.2718 28.58 34.3228 28.6C34.3737 28.62 34.4247 28.65 34.4756 28.67H34.496C34.5877 28.72 34.6795 28.76 34.7712 28.8C34.9852 28.89 35.138 28.96 35.2909 29.03L35.3622 29.06C35.8514 29.28 36.3507 29.51 36.8093 29.82C36.8398 29.84 36.85 29.88 36.8297 29.91C36.8093 29.94 36.7787 29.97 36.7379 29.96C36.5239 29.89 36.3099 29.81 36.0654 29.71C35.78 29.59 35.5049 29.45 35.2297 29.32L35.0871 29.25C34.8731 29.14 34.6591 29.03 34.4451 28.92C34.3941 28.89 34.3432 28.86 34.282 28.84C34.2413 28.82 34.2005 28.8 34.1597 28.78C33.9865 28.7 33.8133 28.61 33.7012 28.46C33.7012 28.46 33.7012 28.45 33.7012 28.44C33.7012 28.44 33.7114 28.43 33.7216 28.43C33.8846 28.43 34.0375 28.49 34.1597 28.54V28.53Z" fill="#1F2E33"/>
<path d="M10.0596 32.07C10.0596 32.07 10.0902 32.07 10.1004 32.09C10.1004 32.09 10.1004 32.11 10.1004 32.12C9.98826 32.32 9.82522 32.52 9.60103 32.73C9.57046 32.76 9.5195 32.77 9.47874 32.75C9.47874 32.75 9.42779 32.72 9.40741 32.68C9.38703 32.62 9.4074 32.57 9.44817 32.52C9.66217 32.32 9.86598 32.17 10.0596 32.07Z" fill="#1F2E33"/>
<path d="M8.73523 33.16C8.73523 33.16 8.79637 33.11 8.82694 33.09C8.85751 33.07 8.8779 33.06 8.90847 33.06C8.93904 33.06 8.95943 33.04 8.97981 33.03C8.99 33.03 9.01038 33.03 9.01038 33.04C9.01038 33.04 9.01038 33.05 9.01038 33.06C9.01038 33.07 8.99 33.1 8.97981 33.13C8.97981 33.15 8.95943 33.18 8.94924 33.19C8.92886 33.23 8.89827 33.26 8.85751 33.3C8.85751 33.3 8.83714 33.32 8.83714 33.33C8.75562 33.42 8.67409 33.48 8.56199 33.55C8.54161 33.55 8.53142 33.55 8.51104 33.55C8.49066 33.55 8.48047 33.53 8.48047 33.51C8.48047 33.49 8.48047 33.47 8.48047 33.46C8.5518 33.35 8.62314 33.27 8.70466 33.2C8.70466 33.2 8.72504 33.19 8.73523 33.18V33.16Z" fill="#1F2E33"/>
<path d="M7.67499 34.43C7.61385 34.49 7.55269 34.55 7.49155 34.61C7.30812 34.8 7.11451 35 6.92089 35.19C6.86994 35.24 6.81899 35.29 6.76804 35.34C6.4827 35.62 6.17698 35.91 5.87127 36.19C5.77956 36.16 5.68784 36.14 5.58594 36.13C5.90184 35.8 6.22794 35.49 6.57441 35.16L6.59478 35.14C6.86993 34.89 7.14507 34.64 7.37946 34.42C7.43041 34.37 7.49155 34.32 7.54251 34.26C7.72594 34.08 7.90937 33.9 8.13356 33.82C8.13356 33.82 8.13355 33.82 8.14374 33.82C8.14374 33.82 8.15393 33.84 8.14374 33.84C8.06222 34.03 7.90937 34.17 7.7667 34.31C7.73613 34.34 7.69536 34.38 7.66479 34.41L7.67499 34.43Z" fill="#1F2E33"/>
<path d="M30.9505 12.15H30.9301C30.9301 12.15 30.9199 12.15 30.9199 12.13C30.9199 12.13 30.9199 12.11 30.9199 12.1C31.032 11.9 31.1951 11.7 31.4192 11.49C31.4498 11.46 31.5008 11.45 31.5415 11.47C31.5415 11.47 31.5925 11.5 31.6129 11.54C31.6332 11.6 31.6129 11.65 31.5721 11.7C31.3581 11.9 31.1543 12.05 30.9607 12.15H30.9505Z" fill="#1F2E33"/>
<path d="M32.2648 11.06C32.2648 11.06 32.2037 11.11 32.1731 11.13C32.1527 11.15 32.1222 11.16 32.0916 11.16C32.061 11.16 32.0406 11.18 32.0101 11.19C32.0101 11.19 31.9999 11.19 31.9897 11.19C31.9897 11.19 31.9897 11.19 31.9795 11.18C31.9795 11.18 31.9795 11.17 31.9795 11.16C31.9795 11.15 31.9999 11.12 32.0101 11.09C32.0203 11.07 32.0304 11.04 32.0406 11.03C32.061 10.99 32.0916 10.96 32.1222 10.92C32.1222 10.92 32.1425 10.9 32.1527 10.89C32.2343 10.8 32.3158 10.73 32.4279 10.67C32.4483 10.67 32.4585 10.67 32.4686 10.67C32.489 10.67 32.4992 10.69 32.4992 10.71C32.4992 10.73 32.4992 10.75 32.4992 10.76C32.4279 10.87 32.3565 10.95 32.275 11.02C32.275 11.02 32.2546 11.03 32.2445 11.04L32.2648 11.06Z" fill="#1F2E33"/>
<path d="M34.425 9.05998H34.4148C34.1498 9.31998 33.8849 9.55999 33.6301 9.78999C33.5792 9.83999 33.518 9.88998 33.4671 9.94998C33.2837 10.13 33.1002 10.31 32.876 10.39C32.876 10.39 32.876 10.39 32.8659 10.39C32.8659 10.39 32.8659 10.39 32.8659 10.37C32.9474 10.18 33.1002 10.04 33.2429 9.89999C33.2735 9.86999 33.3142 9.82999 33.3448 9.79999C33.3957 9.74999 33.4467 9.68998 33.5078 9.63998C33.7015 9.43998 33.9053 9.23999 34.0989 9.03999C34.1498 8.98999 34.2008 8.93998 34.2518 8.88998C34.7001 8.44998 35.1689 7.98999 35.6784 7.59999C35.6988 7.57999 35.7294 7.57999 35.7497 7.59999C35.7701 7.60999 35.7905 7.62999 35.7905 7.64999C35.7905 7.65999 35.7905 7.68999 35.7701 7.70999C35.3523 8.19999 34.904 8.62999 34.425 9.06999V9.05998Z" fill="#1F2E33"/>
<path d="M9.01026 8.19001C9.23445 8.46001 9.43825 8.73001 9.64206 8.98001C9.68282 9.03001 9.73377 9.09001 9.78473 9.15001C9.93758 9.33001 10.1006 9.52001 10.1618 9.74001V9.76001C10.1618 9.76001 10.1516 9.76001 10.1414 9.76001C9.96816 9.68001 9.84587 9.54 9.72359 9.39C9.69302 9.35 9.66245 9.32 9.63188 9.28C9.57073 9.21 9.50959 9.14001 9.43825 9.07001C9.27521 8.89001 9.11216 8.71 8.9593 8.53C8.91854 8.48 8.86758 8.43001 8.82682 8.38001C8.43958 7.93001 8.03196 7.46001 7.69568 6.94001C7.6753 6.91001 7.6855 6.86 7.70588 6.84C7.73645 6.81 7.77721 6.80001 7.79759 6.83001C8.23578 7.24001 8.61282 7.69 9.00006 8.17V8.19001H9.01026Z" fill="#1F2E33"/>
<path d="M29.2997 32.53C29.2997 32.53 29.3201 32.52 29.3303 32.53C29.5137 32.64 29.6869 32.8 29.8805 33.02C29.9111 33.05 29.9111 33.11 29.8907 33.15C29.8703 33.19 29.8602 33.21 29.8194 33.22C29.7888 33.23 29.7481 33.23 29.7175 33.22C29.6971 33.22 29.6869 33.2 29.6665 33.18C29.4933 32.97 29.3608 32.76 29.2793 32.56C29.2793 32.55 29.2793 32.54 29.2793 32.53H29.2997Z" fill="#1F2E33"/>
<path d="M30.502 34.14C30.4001 34.07 30.3288 34 30.2677 33.92C30.2677 33.92 30.2575 33.9 30.2473 33.89C30.2269 33.86 30.2065 33.83 30.1861 33.79C30.1759 33.76 30.1658 33.74 30.1556 33.71C30.1556 33.68 30.1454 33.65 30.125 33.63V33.61C30.125 33.61 30.1352 33.61 30.1454 33.61L30.176 33.63C30.176 33.63 30.1963 33.63 30.2065 33.64H30.2371C30.2371 33.64 30.2575 33.66 30.2677 33.67C30.2982 33.69 30.3288 33.72 30.3594 33.75C30.3594 33.75 30.3798 33.77 30.3899 33.78C30.4715 33.86 30.5224 33.95 30.5836 34.06C30.5836 34.08 30.5836 34.11 30.5734 34.12C30.553 34.14 30.5224 34.15 30.502 34.14Z" fill="#1F2E33"/>
<path d="M31.9894 36.04C31.7754 35.78 31.5614 35.51 31.3576 35.25C31.3168 35.2 31.2659 35.14 31.2149 35.08C31.0621 34.9 30.899 34.71 30.8379 34.49V34.47C30.8379 34.47 30.8481 34.47 30.8583 34.47C31.0315 34.55 31.1538 34.69 31.2761 34.84C31.3066 34.88 31.3372 34.91 31.3678 34.95C31.4188 35.01 31.4697 35.07 31.5308 35.13C31.7041 35.32 31.8773 35.51 32.0404 35.71C32.0811 35.76 32.1321 35.81 32.1728 35.86C32.5601 36.31 32.9677 36.78 33.304 37.3C33.3244 37.33 33.3142 37.37 33.304 37.4C33.2836 37.43 33.253 37.44 33.2225 37.43C33.2225 37.43 33.2123 37.43 33.2021 37.42C32.7537 37.01 32.3868 36.55 31.9894 36.07V36.04Z" fill="#1F2E33"/>
<path d="M19.3937 36.54C19.4345 36.77 19.4446 37.04 19.4243 37.32C19.4243 37.36 19.4039 37.4 19.3733 37.42C19.3427 37.44 19.2918 37.45 19.251 37.43C19.2001 37.41 19.1797 37.36 19.1797 37.3C19.2001 37.02 19.2612 36.76 19.3427 36.53C19.3427 36.53 19.3427 36.52 19.3529 36.51C19.3631 36.51 19.3937 36.51 19.3937 36.53V36.54Z" fill="#1F2E33"/>
<path d="M19.1699 37.98C19.1699 37.98 19.1699 37.97 19.1801 37.97C19.1903 37.97 19.2005 37.97 19.2107 37.98C19.2107 38 19.2209 38.03 19.2311 38.05C19.2311 38.07 19.2515 38.1 19.2515 38.12C19.2515 38.17 19.2515 38.21 19.2515 38.26C19.2515 38.27 19.2515 38.29 19.2515 38.3C19.2515 38.41 19.2311 38.51 19.1903 38.64C19.1903 38.66 19.1699 38.67 19.1597 38.68C19.1495 38.68 19.1292 38.68 19.1088 38.68C19.0884 38.68 19.0782 38.66 19.068 38.64C19.0476 38.51 19.0476 38.4 19.068 38.29C19.068 38.24 19.0884 38.18 19.0986 38.13C19.0986 38.1 19.119 38.08 19.1292 38.06C19.1394 38.04 19.1495 38.02 19.1597 38L19.1699 37.98Z" fill="#1F2E33"/>
<path d="M19.2819 37.35C19.2819 37.35 19.2819 37.35 19.2819 37.36C19.343 37.55 19.3328 37.75 19.3125 37.95C19.3125 38 19.3125 38.05 19.3125 38.1C19.3125 38.19 19.3125 38.29 19.3023 38.39C19.2921 38.65 19.2819 38.91 19.2615 39.17C19.2615 39.24 19.2615 39.32 19.2513 39.39C19.2106 40.02 19.1596 40.67 19.0373 41.31C19.0373 41.33 19.0169 41.35 18.9966 41.37C18.9762 41.38 18.9456 41.39 18.9252 41.37C18.9048 41.35 18.8946 41.34 18.8946 41.31C18.8743 40.67 18.9354 40.05 18.9864 39.39C19.0169 39.04 19.0577 38.71 19.0985 38.32C19.0985 38.25 19.1086 38.17 19.1188 38.09C19.1392 37.84 19.1596 37.58 19.2615 37.36C19.2615 37.35 19.2819 37.34 19.2819 37.35Z" fill="#1F2E33"/>
<path d="M21.6256 6.79001C21.6256 6.79001 21.7071 6.76001 21.7479 6.79001C21.7988 6.81001 21.8192 6.86 21.8192 6.92C21.7988 7.2 21.7377 7.46 21.6562 7.69C21.6562 7.69 21.6562 7.7 21.646 7.71C21.646 7.71 21.6358 7.71 21.6256 7.71C21.6256 7.71 21.6154 7.7 21.6052 7.69C21.5645 7.46 21.5543 7.19 21.5746 6.91C21.5746 6.87 21.595 6.82999 21.6256 6.80999V6.79001Z" fill="#1F2E33"/>
<path d="M21.8292 6.24001C21.8292 6.24001 21.8291 6.25 21.819 6.25C21.819 6.25 21.8088 6.25 21.7986 6.25C21.7986 6.25 21.7986 6.25001 21.7986 6.24001C21.7986 6.22001 21.7884 6.19 21.7782 6.17C21.7782 6.15 21.7578 6.12001 21.7578 6.10001C21.7578 6.05001 21.7578 6 21.7578 5.95V5.92C21.7578 5.82 21.7782 5.71 21.819 5.58C21.819 5.56 21.8393 5.55001 21.8495 5.54001C21.8597 5.54001 21.8801 5.54001 21.9005 5.54001C21.9209 5.54001 21.931 5.56 21.931 5.58C21.9514 5.71 21.9514 5.82 21.931 5.94C21.931 6 21.9107 6.05001 21.9005 6.10001C21.9005 6.13001 21.8801 6.15 21.8699 6.17C21.8597 6.19 21.8495 6.21001 21.8393 6.23001L21.8292 6.24001Z" fill="#1F2E33"/>
<path d="M21.9008 5.07998C21.9008 5.07998 21.9008 5.07999 21.9008 5.06999C21.8397 4.88999 21.8499 4.67999 21.8703 4.47999C21.8703 4.42999 21.8703 4.37998 21.8703 4.32998C21.8703 4.23998 21.8703 4.13998 21.8805 4.04998C21.8906 3.78998 21.9008 3.52999 21.9212 3.25999C21.9212 3.18999 21.9212 3.11998 21.9314 3.04998C21.9722 2.41998 22.0231 1.75999 22.1454 1.11999C22.1454 1.09999 22.1658 1.07998 22.1862 1.05998C22.2066 1.04998 22.2371 1.03998 22.2575 1.05998C22.2779 1.05998 22.2881 1.08999 22.2881 1.11999C22.3085 1.75999 22.2473 2.37999 22.1862 3.03999C22.1556 3.41999 22.1148 3.77998 22.0741 4.10998C22.0741 4.17998 22.0639 4.25998 22.0537 4.32998C22.0333 4.57998 22.0129 4.84998 21.911 5.05998C21.911 5.06998 21.8907 5.07999 21.8907 5.06999L21.9008 5.07998Z" fill="#1F2E33"/>
<path d="M6.90027 21.77C6.90027 21.77 6.92066 21.79 6.91047 21.8C6.91047 21.81 6.90028 21.82 6.89009 21.83C6.6659 21.89 6.42133 21.92 6.14619 21.91C6.12581 21.91 6.11561 21.91 6.10542 21.91C6.04427 21.88 6.03408 21.82 6.05446 21.76C6.06465 21.71 6.11561 21.65 6.18694 21.65C6.45189 21.65 6.69647 21.7 6.91047 21.77H6.90027Z" fill="#1F2E33"/>
<path d="M5.47344 21.75C5.47344 21.75 5.42248 21.77 5.4021 21.78C5.36134 21.78 5.3104 21.79 5.26964 21.79H5.23907C5.13716 21.79 5.04543 21.79 4.92315 21.75C4.90277 21.75 4.89258 21.72 4.89258 21.69C4.89258 21.66 4.91296 21.64 4.94353 21.63C5.06582 21.6 5.16773 21.59 5.27982 21.6C5.33077 21.6 5.38172 21.61 5.43267 21.63C5.45305 21.63 5.47345 21.65 5.49383 21.66C5.51421 21.67 5.53459 21.68 5.55497 21.69C5.55497 21.69 5.56515 21.7 5.56515 21.71C5.56515 21.71 5.56515 21.73 5.54477 21.73C5.52439 21.73 5.50401 21.74 5.47344 21.76V21.75Z" fill="#1F2E33"/>
<path d="M0.714616 21.51C1.31585 21.45 1.8967 21.47 2.51832 21.49H2.5387C2.90556 21.5 3.26222 21.53 3.53737 21.54C3.6087 21.54 3.68004 21.54 3.75137 21.54C3.97556 21.54 4.19976 21.54 4.39338 21.63C4.40357 21.63 4.42394 21.64 4.43413 21.65C4.43413 21.65 4.44432 21.66 4.43413 21.67C4.43413 21.67 4.43414 21.68 4.42395 21.69C4.24052 21.77 4.05709 21.76 3.86347 21.76C3.81252 21.76 3.77176 21.76 3.7208 21.76C3.64947 21.76 3.57813 21.76 3.5068 21.76C3.25203 21.76 2.97689 21.76 2.71194 21.76C2.64061 21.76 2.56928 21.76 2.49795 21.76C1.9069 21.76 1.29546 21.75 0.704415 21.65C0.704415 21.65 0.694236 21.65 0.684046 21.65C0.653474 21.64 0.633085 21.6 0.643275 21.56C0.643275 21.53 0.673844 21.51 0.704415 21.5L0.714616 21.51Z" fill="#1F2E33"/>
<path d="M34.8225 22.57C34.5576 22.57 34.313 22.52 34.099 22.45C34.099 22.45 34.0786 22.43 34.0888 22.42C34.0888 22.41 34.099 22.39 34.1092 22.39C34.3334 22.33 34.5779 22.3 34.8531 22.31C34.8735 22.31 34.8836 22.31 34.8938 22.31C34.955 22.34 34.9652 22.4 34.9448 22.46C34.9346 22.51 34.8836 22.57 34.8123 22.57H34.8225Z" fill="#1F2E33"/>
<path d="M35.5768 22.6C35.5768 22.6 35.5666 22.6 35.5564 22.6C35.5462 22.6 35.5259 22.58 35.5157 22.58C35.4953 22.57 35.4749 22.56 35.4545 22.55C35.4545 22.55 35.4443 22.54 35.4443 22.53C35.4443 22.53 35.4443 22.52 35.4647 22.51C35.4851 22.51 35.5055 22.5 35.536 22.48C35.5564 22.47 35.5768 22.46 35.6074 22.45C35.6583 22.45 35.6991 22.44 35.75 22.44H35.7806C35.8825 22.44 35.9742 22.44 36.0965 22.48C36.1271 22.48 36.1373 22.51 36.1373 22.54C36.1373 22.57 36.1169 22.59 36.0863 22.6C35.964 22.63 35.8621 22.64 35.75 22.63C35.6991 22.63 35.6481 22.62 35.5972 22.61L35.5768 22.6Z" fill="#1F2E33"/>
<path d="M40.2846 22.71C39.6732 22.77 39.0923 22.75 38.4809 22.73H38.4605C38.1242 22.72 37.7777 22.7 37.4618 22.68C37.3905 22.68 37.3192 22.68 37.2478 22.68C37.0236 22.68 36.7995 22.68 36.6058 22.59C36.6058 22.59 36.5753 22.58 36.5651 22.57C36.5651 22.57 36.5549 22.56 36.5651 22.55C36.5651 22.55 36.5651 22.54 36.5753 22.53C36.7485 22.45 36.9421 22.46 37.1357 22.46C37.1867 22.46 37.2275 22.46 37.2784 22.46C37.3497 22.46 37.4313 22.46 37.5026 22.46C37.7574 22.46 38.0325 22.46 38.2873 22.46C38.3484 22.46 38.4197 22.46 38.4911 22.46C39.0923 22.46 39.7038 22.47 40.305 22.57C40.3458 22.57 40.3763 22.62 40.3661 22.67C40.3661 22.7 40.3356 22.72 40.305 22.73L40.2846 22.71Z" fill="#1F2E33"/>
<path d="M7.04356 27.46H7.07413C7.07413 27.46 7.15567 27.43 7.19643 27.42C7.21681 27.42 7.24737 27.42 7.26776 27.42C7.28814 27.42 7.30851 27.42 7.3289 27.42C7.33909 27.42 7.34928 27.42 7.34928 27.44V27.46C7.3289 27.47 7.31872 27.49 7.30853 27.51C7.29834 27.53 7.27795 27.55 7.25757 27.56C7.21681 27.59 7.17604 27.61 7.12509 27.63C7.03338 27.68 6.93147 27.71 6.81937 27.72C6.81937 27.72 6.79899 27.72 6.7888 27.72C6.76842 27.72 6.74805 27.69 6.74805 27.67C6.74805 27.65 6.74805 27.63 6.76843 27.62C6.87034 27.54 6.95185 27.5 7.04356 27.47V27.46Z" fill="#1F2E33"/>
<path d="M4.62768 28.4L4.78053 28.34C5.00472 28.25 5.23911 28.17 5.4633 28.09C5.52444 28.07 5.59576 28.04 5.65691 28.02C5.69767 28 5.74863 27.99 5.78939 27.97C5.97282 27.9 6.15625 27.82 6.34987 27.83C6.34987 27.83 6.34987 27.83 6.34987 27.85C6.34987 27.85 6.34987 27.86 6.34987 27.87C6.19701 28.03 5.98301 28.11 5.7792 28.2C5.71806 28.22 5.66711 28.25 5.60597 28.27H5.59577C5.32062 28.4 5.0353 28.53 4.76016 28.64L4.68882 28.67C4.14872 28.9 3.6392 29.11 3.0991 29.25C3.07872 29.25 3.06854 29.25 3.05835 29.25C3.03797 29.24 3.01758 29.21 3.01758 29.18C3.01758 29.15 3.03797 29.12 3.05835 29.1C3.56787 28.81 4.09778 28.6 4.61749 28.4H4.62768Z" fill="#1F2E33"/>
<path d="M33.9664 16.8H33.946C33.946 16.8 33.8645 16.83 33.8136 16.84C33.7932 16.84 33.7626 16.84 33.7422 16.84C33.7219 16.84 33.7015 16.84 33.6811 16.84C33.6811 16.84 33.6811 16.84 33.6709 16.84C33.6709 16.84 33.6709 16.84 33.6709 16.82C33.6709 16.82 33.6709 16.8 33.6811 16.8C33.7015 16.79 33.7117 16.77 33.7219 16.75C33.732 16.73 33.7524 16.71 33.7728 16.7C33.8136 16.67 33.8543 16.65 33.9053 16.63C33.997 16.58 34.0989 16.55 34.211 16.54C34.2416 16.54 34.2721 16.56 34.2721 16.6C34.2721 16.62 34.2721 16.64 34.2518 16.65C34.1499 16.73 34.0683 16.77 33.9766 16.8H33.9664Z" fill="#1F2E33"/>
<path d="M36.3818 15.86L36.2187 15.92C35.9946 16.01 35.7602 16.09 35.536 16.17C35.4748 16.19 35.4035 16.22 35.3424 16.24C35.3016 16.26 35.2506 16.27 35.2099 16.29C35.0264 16.36 34.843 16.44 34.6494 16.43C34.6494 16.43 34.6494 16.43 34.6494 16.41C34.6494 16.41 34.6494 16.4 34.6494 16.39C34.8023 16.23 35.0163 16.15 35.2201 16.07C35.2812 16.05 35.3322 16.02 35.3933 16C35.6685 15.88 35.964 15.75 36.2493 15.62L36.3207 15.59C36.8607 15.36 37.3703 15.15 37.9205 15.01C37.9409 15.01 37.9511 15.01 37.9613 15.01C37.9817 15.02 38.0021 15.05 38.0021 15.08C38.0021 15.11 37.9817 15.14 37.9613 15.16C37.4518 15.44 36.9219 15.65 36.4022 15.86H36.3818Z" fill="#1F2E33"/>
<path d="M16.4591 8.97001C16.4591 8.97001 16.5101 9.01001 16.5203 9.04001C16.5916 9.28001 16.6324 9.52 16.6426 9.75C16.6426 9.76 16.6426 9.77 16.6324 9.78C16.6324 9.78 16.612 9.78 16.6018 9.78C16.6018 9.78 16.6018 9.78 16.5916 9.78C16.4693 9.59 16.3674 9.38001 16.2961 9.15001C16.2757 9.10001 16.2961 9.04001 16.3369 9.01001C16.3776 8.97001 16.4388 8.96001 16.4795 8.97001H16.4591Z" fill="#1F2E33"/>
<path d="M16.1534 7.92C16.2247 8.02 16.2553 8.1 16.2756 8.2V8.23001C16.2756 8.23001 16.3062 8.32 16.3062 8.36C16.3062 8.39 16.3062 8.41001 16.3062 8.43001C16.3062 8.45001 16.3062 8.48 16.3062 8.5C16.3062 8.5 16.3062 8.51001 16.3062 8.52001C16.3062 8.52001 16.296 8.52001 16.2858 8.52001C16.2858 8.50001 16.2654 8.49001 16.2451 8.48001C16.2247 8.47001 16.2145 8.45001 16.2043 8.43001C16.1839 8.39001 16.1636 8.35001 16.1432 8.30001C16.1024 8.20001 16.082 8.10001 16.082 7.98001C16.082 7.96001 16.0922 7.93 16.1126 7.92C16.1432 7.9 16.1737 7.90001 16.1941 7.93001L16.1534 7.92Z" fill="#1F2E33"/>
<path d="M15.97 7.51002C15.97 7.51002 15.9598 7.51002 15.9496 7.51002C15.807 7.36002 15.7458 7.14002 15.6745 6.93002C15.6541 6.87002 15.6337 6.81001 15.6133 6.75001L15.593 6.68002C15.5012 6.41002 15.3993 6.14002 15.3178 5.87002L15.2974 5.81001C15.114 5.25001 14.9408 4.72002 14.8389 4.15002C14.8389 4.12002 14.8389 4.10001 14.8592 4.08001C14.8796 4.06001 14.9102 4.05002 14.9408 4.07002C14.9611 4.07002 14.9713 4.09001 14.9713 4.11001C15.2057 4.63001 15.379 5.19002 15.542 5.73002L15.593 5.88001C15.6643 6.13001 15.7356 6.39001 15.807 6.64001L15.8477 6.79002C15.8477 6.79002 15.8783 6.88002 15.8885 6.93002C15.9496 7.12002 16.0006 7.31002 15.9802 7.51002C15.9802 7.51002 15.9802 7.52001 15.9802 7.53001L15.97 7.51002Z" fill="#1F2E33"/>
<path d="M24.5399 35.29C24.5399 35.29 24.4889 35.25 24.4787 35.22C24.4074 34.98 24.3666 34.74 24.3564 34.51C24.3564 34.5 24.3564 34.49 24.3666 34.48C24.3768 34.48 24.3972 34.48 24.4074 34.48C24.5297 34.67 24.6316 34.88 24.7029 35.11C24.7233 35.16 24.7029 35.22 24.6622 35.25C24.6214 35.29 24.5704 35.3 24.5195 35.29H24.5399Z" fill="#1F2E33"/>
<path d="M24.8662 36.36C24.8662 36.36 24.8458 36.35 24.8458 36.34C24.7745 36.24 24.7439 36.16 24.7235 36.06C24.7235 36.05 24.7235 36.04 24.7235 36.03C24.7235 35.99 24.7031 35.95 24.7031 35.9C24.7031 35.87 24.7031 35.85 24.7031 35.82C24.7031 35.8 24.7031 35.77 24.7031 35.75C24.7031 35.75 24.7031 35.74 24.7031 35.73C24.7031 35.73 24.7235 35.73 24.7337 35.73C24.7337 35.75 24.7541 35.76 24.7745 35.78C24.7948 35.79 24.805 35.81 24.8152 35.83C24.8356 35.87 24.856 35.92 24.8764 35.96C24.9171 36.06 24.9375 36.16 24.9375 36.28C24.9375 36.3 24.9273 36.33 24.9069 36.34C24.8866 36.35 24.8662 36.36 24.856 36.34L24.8662 36.36Z" fill="#1F2E33"/>
<path d="M25.029 36.75H25.0493C25.192 36.91 25.2532 37.12 25.3245 37.33C25.3449 37.39 25.3653 37.45 25.3856 37.51V37.54C25.4977 37.82 25.5996 38.1 25.6914 38.39L25.7117 38.45C25.8952 39.01 26.0684 39.54 26.1703 40.12C26.1703 40.15 26.1703 40.17 26.1499 40.19C26.1295 40.21 26.099 40.22 26.0684 40.2C26.0684 40.2 26.0378 40.18 26.0378 40.16C25.7933 39.64 25.6302 39.08 25.4672 38.54L25.4162 38.39C25.3449 38.16 25.2837 37.92 25.2226 37.69C25.2022 37.62 25.1818 37.55 25.1614 37.48C25.1513 37.43 25.1309 37.38 25.1207 37.34C25.0595 37.15 25.0086 36.96 25.029 36.76C25.029 36.76 25.029 36.75 25.029 36.74V36.75Z" fill="#1F2E33"/>
<path d="M10.3858 18.81C10.3858 17.86 10.7628 17.05 11.0889 16.54C11.7004 15.57 12.7398 14.9 14.0136 14.68C14.0951 14.67 14.1665 14.66 14.248 14.66C14.9104 14.58 15.6033 14.66 16.174 14.86C16.979 14.16 18.2325 13.81 19.6387 13.88C20.2094 13.91 20.7699 14.03 21.2488 14.24C21.4832 14.34 21.6972 14.46 21.8908 14.6C22.0641 14.72 22.2169 14.86 22.3494 15.01C22.9099 14.26 23.4296 13.55 23.9391 12.82C23.8168 12.11 23.6844 11.41 23.5519 10.73C23.022 8.25002 24.306 6.56001 25.8448 6.18001L26.1708 6.10001C26.7313 5.96001 27.3631 6.02001 27.944 6.27001C28.0561 6.32001 28.1682 6.37001 28.2701 6.43001C29.605 5.33001 31.1234 5.38 32.0304 5.78C32.0813 5.8 32.1323 5.82001 32.1832 5.85001L32.4788 6C33.1921 6.36 33.7627 7.04001 34.0175 7.87001C34.3538 8.95002 34.1806 10.18 33.5386 11.33C32.7946 12.67 31.9998 14.02 31.1744 15.34C31.1948 15.83 31.1948 16.31 31.1744 16.75C31.0928 19.44 30.7769 21.84 30.2165 23.9C30.675 24.02 31.1336 24.13 31.5922 24.23C31.6228 24.23 31.6533 24.24 31.6839 24.25C31.7552 24.27 31.8367 24.3 31.8979 24.33C31.9183 24.33 31.9387 24.35 31.959 24.35C33.1004 24.85 33.6099 25.96 33.8137 26.59C33.9156 26.78 33.9564 26.99 33.936 27.2C33.936 27.28 33.9156 27.36 33.8952 27.43C33.6608 28.56 33.1513 29.55 32.7437 30.29C32.2342 31.2 31.5922 32.09 30.7769 33.03C29.9311 34.01 28.9528 34.82 27.7606 35.76C27.6892 35.82 27.6077 35.86 27.5262 35.9C26.9453 36.28 26.2931 36.52 25.7327 36.7C24.9174 36.97 24.0614 37.16 23.3379 37.31C22.808 37.42 22.2679 37.52 21.7482 37.62H21.7176C21.5546 37.66 21.4017 37.69 21.2488 37.72C21.1571 37.74 21.0654 37.75 20.9635 37.77C20.7597 37.8 20.5559 37.84 20.403 37.89C20.3419 37.96 20.2807 38.03 20.2298 38.09C20.0871 38.26 19.9546 38.44 19.812 38.63C19.812 38.63 19.812 38.64 19.8018 38.65V38.68C19.598 39.04 19.4451 39.42 19.2821 39.82L19.2209 39.96C18.9458 40.62 18.8745 40.88 18.7827 41.2C18.7012 41.47 18.6095 41.79 18.3853 42.38C18.1713 42.95 18.0185 43.39 17.8656 43.8C17.7637 44.07 17.5701 44.29 17.3051 44.4C17.0402 44.51 16.7243 44.51 16.4593 44.4C16.0925 44.24 15.8479 43.89 15.8275 43.5L15.6033 43.04L5.63704 38.75C5.41285 38.8 5.17847 38.78 4.96447 38.68C4.69951 38.57 4.50589 38.36 4.40399 38.11C4.30208 37.86 4.32246 37.59 4.43456 37.33L4.69952 36.76C5.41285 35.21 5.71856 34.57 6.47265 32.79C6.5236 32.68 6.56437 32.57 6.61532 32.46C6.75798 32.14 6.90065 31.8 7.01275 31.48C6.87008 30.94 6.81913 30.41 6.78855 29.9C6.70703 28.78 6.76818 27.63 6.97199 26.49C6.97199 26.46 6.98219 26.43 6.99238 26.39C6.99238 26.39 6.99238 26.38 6.99238 26.37C7.52228 24.15 8.60247 21.92 10.2024 19.74C10.2635 19.44 10.3246 19.13 10.3858 18.83V18.81Z" fill="white"/>
<path d="M20.108 19.08C23.3689 15.1 25.8045 11.64 27.7814 8.19001C28.8005 6.38001 30.5227 5.95001 31.7048 6.47001C31.7455 6.49001 31.7761 6.50001 31.8168 6.52001L32.1124 6.67C32.6423 6.93 33.0703 7.45 33.2639 8.09C33.539 8.97 33.3862 9.99001 32.8461 10.97C30.5328 15.15 27.8527 19.18 24.8669 22.94C24.2249 23.73 23.0632 23.97 22.0442 23.53C21.8302 23.44 21.6264 23.32 21.4531 23.17L20.6175 22.49C19.6188 21.67 19.3743 20.02 20.108 19.1V19.08Z" fill="white"/>
<path d="M20.546 19.42C19.9651 20.14 20.2097 21.43 20.974 22.05C21.2491 22.28 21.5345 22.5 21.8096 22.73C22.5739 23.36 23.8171 23.35 24.4388 22.58C27.4144 18.84 30.0639 14.86 32.367 10.69C33.3045 9.02001 32.7542 7.58001 31.8676 7.14001C31.7657 7.09001 31.6638 7.04001 31.5619 6.99001C30.6651 6.55001 29.1875 6.80001 28.2602 8.44001C26.0183 12.36 23.3993 15.92 20.5358 19.41L20.546 19.42Z" fill="#1F2E33"/>
<path d="M26.0893 7.19999C26.2014 7.16999 26.3135 7.15001 26.4154 7.12001C27.3733 6.88001 28.7796 7.66001 29.1872 9.62001C29.6356 11.65 30.1858 14.29 30.0839 16.71C29.982 20.19 29.4623 23.29 28.4433 25.75C28.0458 26.7 27.037 27.29 26.0791 27.03C25.7326 26.93 25.3861 26.84 25.0295 26.74C24.0716 26.47 23.348 25.46 23.6945 24.58C25.0702 21.05 25.6511 18.27 25.2944 14.69C25.1008 13.29 24.8664 11.9 24.5811 10.51C24.1735 8.61001 25.111 7.43999 26.0791 7.19999H26.0893Z" fill="#1F2E33"/>
<path d="M24.6624 26.92C24.7541 26.96 24.856 27 24.9579 27.02L26.0075 27.31C27.0979 27.61 28.2698 26.99 28.7386 25.86C29.7372 23.46 30.2977 20.38 30.3996 16.72C30.5117 14.18 29.9003 11.39 29.4926 9.55C29.2277 8.3 28.5449 7.36001 27.6176 6.96001C27.1896 6.78001 26.7412 6.73 26.3438 6.83L26.0177 6.91C24.8356 7.2 23.8675 8.56 24.2955 10.58C24.5707 11.94 24.8152 13.34 24.9987 14.73C25.3248 18.04 24.8967 20.68 23.4191 24.48C23.0217 25.49 23.7554 26.54 24.6726 26.94L24.6624 26.92ZM27.373 7.51001C28.1169 7.83001 28.6672 8.62001 28.8914 9.68001C29.2888 11.49 29.8901 14.23 29.778 16.7C29.6761 20.3 29.1258 23.3 28.1577 25.64C27.8112 26.47 26.9348 26.96 26.1604 26.74L25.1108 26.45C25.0394 26.43 24.9681 26.41 24.8967 26.38C24.2446 26.1 23.7146 25.35 23.9694 24.69C25.4674 20.85 25.926 18.04 25.5897 14.67C25.3961 13.25 25.1617 11.84 24.8764 10.46C24.4789 8.61001 25.4165 7.68 26.1502 7.5L26.4763 7.42C26.7412 7.35 27.0571 7.39 27.3527 7.52L27.373 7.51001Z" fill="white"/>
<path d="M8.24579 31.81C7.08408 34.24 6.52359 35.36 5.37207 37.79L16.979 42.79C18.1204 40.59 18.3344 39.41 19.4859 37.22C20.7597 36.9 22.0335 36.58 23.3175 36.28C24.3365 35.94 25.3556 35.6 26.3848 35.27C26.9046 34.9 27.4345 34.54 27.9644 34.17C28.5146 33.68 29.0751 33.19 29.6254 32.71C30.4305 31.46 31.2355 30.2 32.0405 28.95C32.2342 28.46 32.4278 27.97 32.6214 27.48C32.6214 27.16 32.6214 26.84 32.6214 26.51C32.2851 26.18 31.9488 25.84 31.6125 25.51C30.9094 25.16 28.6777 24.8 27.9746 24.46C28.5045 23.91 27.1797 22.76 25.2639 21.75C25.1926 21.71 25.0906 21.29 25.0703 21.36C24.9582 21.74 24.3773 21.59 24.4996 21.12C24.52 21.06 24.092 21.21 24.0206 21.18C23.5621 21 23.0831 20.85 22.5838 20.73C21.7584 20.46 21.9927 16.53 21.9927 16.53C21.738 16.23 21.4832 15.94 21.2284 15.64C20.9227 15.47 20.6068 15.3 20.2909 15.12C19.6387 15.1 18.9967 15.07 18.3547 15.05C18.0592 15.21 17.7535 15.37 17.458 15.54C17.0096 15.69 16.5612 15.84 16.1128 15.99C15.5931 15.83 15.0836 15.68 14.5639 15.52C14.1155 15.77 13.6671 16.01 13.2187 16.26C12.9436 16.43 12.6787 16.59 12.4035 16.76C12.057 17.45 11.7207 18.14 11.3743 18.83C11.3131 19.27 11.252 19.7 11.1908 20.14C10.2941 21.54 9.40751 22.94 8.53112 24.35C8.31712 25.41 8.09293 26.47 7.87893 27.54C8.01141 28.96 8.1235 30.38 8.23559 31.79L8.24579 31.81Z" fill="#1F2E33"/>
<path d="M26.9252 34.68C27.9035 33.92 28.8512 33.12 29.6664 32.2C30.3492 31.43 30.9504 30.6 31.4599 29.72C31.9491 28.87 32.3771 27.96 32.5503 26.99C32.6115 26.63 33.2331 26.76 33.1617 27.12C32.9783 28.12 32.5503 29.05 32.0612 29.92C31.5415 30.85 30.8893 31.72 30.1861 32.53C29.3301 33.51 28.3111 34.35 27.2818 35.15C26.9863 35.38 26.65 34.89 26.9354 34.67L26.9252 34.68Z" fill="white"/>
<path d="M32.54 27.12C32.4076 26.58 32.0203 25.75 31.3885 25.54C31.2255 25.49 31.093 25.36 31.1236 25.2C31.1439 25.06 31.3172 24.93 31.4802 24.98C32.4381 25.3 32.9578 26.26 33.1617 27.11C33.2024 27.27 33.0394 27.4 32.8865 27.41C32.7031 27.41 32.5808 27.29 32.54 27.13V27.12Z" fill="white"/>
<path d="M31.3781 25.53C30.0125 25.23 28.6266 24.83 27.3019 24.37C26.9146 24.24 27.1592 23.72 27.5464 23.86C28.8203 24.31 30.145 24.68 31.4698 24.97C31.8672 25.06 31.7755 25.62 31.3781 25.53Z" fill="white"/>
<path d="M27.3126 24.37C26.3241 24.04 25.4681 23.43 24.5408 22.97C24.1739 22.79 24.4083 22.28 24.7752 22.46C25.7025 22.92 26.5585 23.53 27.5572 23.86C27.7202 23.91 27.7814 24.12 27.7202 24.25C27.6489 24.4 27.4757 24.43 27.3126 24.37Z" fill="white"/>
<path d="M29.9206 29.08C28.3309 29.49 26.5883 29 25.3145 27.94C24.0407 26.88 23.1745 25.23 23.2152 23.68C23.2152 23.31 23.8471 23.42 23.8369 23.79C23.8063 25.15 24.6113 26.59 25.7017 27.52C26.7921 28.45 28.3309 28.89 29.7066 28.53C30.0836 28.43 30.3078 28.98 29.9308 29.08H29.9206Z" fill="white"/>
<path d="M23.205 23.68C23.2866 22.96 23.8878 21.91 24.8457 22.5C24.9884 22.59 24.9986 22.8 24.9069 22.91C24.7948 23.04 24.6113 23.02 24.4687 22.93C24.3362 22.84 24.2037 22.96 24.1222 23.04C23.9286 23.24 23.8572 23.52 23.8267 23.79C23.7859 24.15 23.1643 24.05 23.205 23.68Z" fill="white"/>
<path d="M27.2914 35.13C26.7615 35.52 26.1195 35.77 25.4876 35.98C24.7336 36.23 23.9591 36.41 23.1846 36.57C22.4917 36.71 21.7885 36.84 21.0956 36.97C20.7185 37.04 20.2905 37.08 19.9338 37.25C19.7912 37.32 19.6077 37.21 19.5466 37.08C19.4855 36.92 19.5772 36.78 19.7198 36.72C20.0765 36.55 20.5249 36.51 20.9019 36.43C21.5745 36.3 22.2369 36.18 22.9095 36.04C23.6737 35.88 24.4278 35.7 25.1717 35.47C25.7934 35.27 26.4252 35.03 26.9449 34.65C27.2404 34.43 27.5869 34.91 27.2914 35.13Z" fill="white"/>
<path d="M7.8382 31.57C7.63439 31.01 7.58344 30.41 7.54268 29.83C7.47135 28.75 7.53249 27.66 7.71592 26.6C7.77706 26.24 8.38849 26.31 8.31715 26.67C8.13372 27.68 8.0624 28.72 8.13373 29.75C8.15411 30.1 8.19487 30.45 8.25601 30.8C8.27639 30.92 8.30697 31.04 8.32735 31.17C8.33754 31.22 8.34773 31.26 8.36811 31.31C8.38849 31.39 8.35792 31.28 8.38849 31.36C8.51078 31.71 7.97069 31.93 7.8484 31.58L7.8382 31.57Z" fill="white"/>
<path d="M7.73586 26.52C8.29633 24.16 9.48862 21.93 10.9561 19.98C11.1802 19.69 11.6898 20.04 11.4656 20.34C10.0185 22.25 8.85681 24.43 8.30652 26.74C8.26576 26.89 8.06195 26.95 7.91928 26.89C7.74604 26.83 7.70529 26.67 7.73586 26.52Z" fill="white"/>
<path d="M10.9051 20.12C10.9866 19.71 11.0681 19.29 11.1599 18.88C11.1904 18.73 11.3127 18.61 11.4961 18.63C11.649 18.65 11.812 18.8 11.7815 18.95C11.7 19.36 11.6082 19.78 11.5267 20.19C11.4961 20.34 11.3739 20.46 11.1904 20.43C11.0376 20.41 10.8745 20.26 10.9051 20.11V20.12Z" fill="white"/>
<path d="M19.6689 23.02C19.9746 21.89 20.3109 20.76 20.6573 19.64C20.8306 19.06 21.014 18.48 21.1974 17.91C21.3197 17.52 21.5032 17.14 21.5847 16.74C21.656 16.38 22.2878 16.48 22.2165 16.84C22.135 17.24 21.9617 17.62 21.8394 18C21.656 18.58 21.4726 19.16 21.2892 19.74C20.9223 20.91 20.637 21.88 20.3109 23.06C20.2701 23.21 19.9848 23.47 19.8421 23.41C19.6689 23.34 19.6281 23.18 19.6689 23.03V23.02Z" fill="white"/>
<path d="M21.5645 16.65C21.6154 15.64 20.4843 15.25 19.5366 15.2C18.5583 15.14 17.2335 15.43 16.7953 16.25C16.6221 16.57 16.0311 16.34 16.2043 16.01C16.775 14.92 18.3035 14.56 19.5875 14.63C20.2295 14.66 20.9021 14.84 21.432 15.21C21.9823 15.59 22.2167 16.17 22.1963 16.75C22.1759 17.12 21.5441 17.01 21.5645 16.65Z" fill="white"/>
<path d="M20.2911 23.11C20.0669 23.6 19.6797 23.97 19.1294 24.14C18.4364 24.36 17.6925 24.18 17.02 23.91C16.6531 23.76 16.8671 23.24 17.2441 23.39C17.7537 23.6 18.2938 23.75 18.8339 23.62C19.2619 23.51 19.5472 23.23 19.7204 22.86C19.8733 22.53 20.4541 22.77 20.3013 23.11H20.2911Z" fill="white"/>
<path d="M16.9483 23.88C16.6324 23.7 16.3675 23.47 16.1841 23.17C15.9191 22.75 15.8885 22.27 15.9395 21.81C15.9803 21.45 16.6019 21.54 16.5611 21.9C16.5203 22.25 16.5305 22.6 16.7241 22.93C16.8566 23.15 17.1012 23.31 17.3254 23.44C17.4681 23.52 17.4782 23.74 17.3865 23.84C17.2744 23.97 17.1012 23.96 16.9585 23.88H16.9483Z" fill="white"/>
<path d="M15.9291 21.81C16.0106 21.38 16.0514 20.94 16.1023 20.51C16.1839 19.82 16.2552 19.13 16.3163 18.44C16.3571 18.01 16.4182 17.58 16.3673 17.14C16.3469 16.95 16.3062 16.76 16.2552 16.58C16.2348 16.52 16.2246 16.47 16.1941 16.41C16.1941 16.39 16.1737 16.37 16.1737 16.35C16.1737 16.35 16.1737 16.33 16.1635 16.33C16.2042 16.4 16.2756 16.44 16.3775 16.46C16.2042 16.42 16.0718 16.3 16.0921 16.13C16.1023 15.99 16.2654 15.85 16.4284 15.89C16.7545 15.97 16.8259 16.31 16.8972 16.57C17.0093 16.99 17.05 17.43 17.0093 17.85C16.9278 18.68 16.8462 19.52 16.7545 20.35C16.6934 20.87 16.6424 21.39 16.5507 21.9C16.4794 22.26 15.868 22.17 15.9291 21.81Z" fill="white"/>
<path d="M16.2248 16.48C16.0923 16.22 15.7255 16.1 15.4401 16.03C15.0121 15.93 14.5739 15.94 14.1663 16.03C13.7791 16.11 13.6568 15.54 14.044 15.46C14.8898 15.29 16.3471 15.4 16.7955 16.28C16.9687 16.63 16.398 16.83 16.2248 16.48Z" fill="white"/>
<path d="M14.2685 15.99C12.7603 16.26 11.731 17.56 11.782 18.96C11.7922 19.33 11.1706 19.25 11.1604 18.88C11.14 18.19 11.3846 17.51 11.7514 16.94C12.2609 16.13 13.1373 15.6 14.1564 15.42C14.5538 15.35 14.6659 15.92 14.2786 15.99H14.2685Z" fill="white"/>
<path d="M16.5515 21.9C16.419 22.65 15.9808 23.29 15.1452 23.44C14.4522 23.57 13.6981 23.24 13.2192 22.74C12.944 22.46 13.423 22.12 13.6981 22.4C14.0242 22.73 14.493 22.92 14.9617 22.87C15.5528 22.81 15.8483 22.29 15.94 21.79C16.0012 21.43 16.6228 21.52 16.5617 21.88L16.5515 21.9Z" fill="white"/>
<path d="M13.2187 22.75C12.5767 21.92 12.6277 20.74 12.6583 19.8C12.6684 19.43 13.2901 19.51 13.2799 19.88C13.2595 20.34 13.2595 20.8 13.3206 21.25C13.3614 21.64 13.4429 22.07 13.6977 22.41C13.9321 22.72 13.4531 23.05 13.2187 22.75Z" fill="white"/>
<path d="M12.6582 19.8C12.6582 19.4 12.6582 19.01 12.6582 18.61C12.6582 18.24 13.2798 18.32 13.2798 18.69C13.2798 19.09 13.2798 19.48 13.2798 19.88C13.2798 20.25 12.6582 20.16 12.6582 19.8Z" fill="white"/>
<path d="M16.3881 42.89L17.2951 40.86C17.4174 40.59 18.5179 38.11 18.681 37.86C18.9459 37.46 19.272 37.02 19.6491 36.71C19.9446 36.48 20.3216 36.92 20.0261 37.16C19.9854 37.19 19.9548 37.22 19.9242 37.25C19.8631 37.31 19.965 37.2 19.9038 37.27C19.8835 37.29 19.8529 37.32 19.8325 37.35C19.7612 37.43 19.6898 37.51 19.6185 37.59C19.4555 37.78 19.3026 37.98 19.1599 38.19C19.1395 38.21 19.1294 38.24 19.1192 38.26C19.0682 38.34 19.1396 38.22 19.0886 38.31C18.8644 38.74 18.681 39.2 18.4976 39.66C17.9778 40.92 18.1205 40.83 17.6517 42.11C17.4785 42.59 17.3053 43.06 17.132 43.54C17.0097 43.88 16.4697 43.68 16.5919 43.34L16.3779 42.9L16.3881 42.89Z" fill="white"/>
<path d="M5.12755 37.62C6.0345 35.65 6.31983 35.05 7.17583 33.05C7.41021 32.49 7.68535 31.93 7.83821 31.34C7.87897 31.19 8.08278 31.13 8.22545 31.19C8.3885 31.25 8.43945 31.41 8.39869 31.56C8.29678 31.93 8.14393 32.29 7.99107 32.65C7.7465 33.24 7.49174 33.83 7.22679 34.41C6.6765 35.65 6.73765 35.5 6.17717 36.73C6.01412 37.1 5.84088 37.46 5.66765 37.82C5.51479 38.15 4.97469 37.94 5.12755 37.61V37.62Z" fill="white"/>
<path d="M15.2675 31.73C16.205 29.42 18.7322 27.78 21.4022 27.68C22.8288 27.63 24.2555 28 25.5701 28.6C25.9369 28.77 25.6923 29.28 25.3255 29.11C23.6644 28.35 21.7996 28.01 20.0672 28.45C18.7628 28.78 17.6317 29.51 16.7859 30.47C16.368 30.94 16.0623 31.4 15.828 31.97C15.6853 32.31 15.135 32.07 15.2675 31.74V31.73Z" fill="white"/>
<path d="M26.538 28.73C26.5788 28.74 26.6909 28.78 26.538 28.73C26.5176 28.73 26.4361 28.73 26.5176 28.73C26.4769 28.73 26.4361 28.73 26.3953 28.73C26.1813 28.75 25.9368 28.89 25.7533 29.03C25.631 29.13 25.417 29.07 25.3253 28.94C25.2234 28.8 25.2642 28.64 25.3865 28.54C25.7533 28.25 26.2832 28.03 26.7826 28.2C26.9456 28.25 27.0068 28.46 26.9456 28.59C26.8743 28.74 26.7011 28.77 26.538 28.71V28.73Z" fill="white"/>
<path d="M24.1729 23.63C24.3359 24.15 24.8964 24.7 25.3652 24.95C25.6097 25.08 25.8951 25.15 26.16 25.1C26.5574 25.02 26.4861 24.71 26.6899 24.55C26.751 24.5 26.8326 24.52 26.853 24.6C26.9039 24.76 26.639 25.14 26.374 25.22C26.0683 25.32 25.7116 25.2 25.4365 25.08C24.9168 24.85 24.2646 24.1 24.1831 23.64L24.1729 23.63Z" fill="white"/>
<path d="M17.2131 23.01C16.938 22.33 17.05 21.52 17.5698 21.12C17.8143 20.93 18.0997 20.92 18.385 20.97C18.7315 21.03 19.241 21.23 19.3939 21.56C19.455 21.68 19.3939 21.74 19.3021 21.7C19.1493 21.64 18.8334 21.36 18.5073 21.24C18.2423 21.15 17.957 21.12 17.6921 21.21C17.0908 21.41 16.9583 22.36 17.2029 23.02L17.2131 23.01Z" fill="white"/>
<path d="M13.9319 22.26C13.7281 21.77 13.616 20.97 14.0847 20.56C14.2682 20.4 14.4516 20.32 14.6962 20.33C14.9815 20.35 15.3076 20.45 15.5929 20.64C15.6643 20.69 15.6031 20.81 15.5114 20.81C15.277 20.81 15.114 20.67 14.8898 20.61C14.6758 20.55 14.4414 20.54 14.2376 20.65C13.7179 20.93 13.7077 21.76 13.9319 22.26Z" fill="white"/>
</g>
</svg>
