<svg width="45" height="28" viewBox="0 0 45 28" fill="none" xmlns="http://www.w3.org/2000/svg">
<path d="M2.45139 12.7137C2.16606 11.3037 1.89092 10.0337 1.62597 8.9037C1.22854 7.2837 0.780151 5.59372 0.280818 4.05372C0.168722 3.70372 0.0464322 3.2337 0.00567034 3.0037C-0.0350916 2.7737 0.148346 2.79372 0.413299 3.05372C1.67692 4.34372 2.94054 5.63372 4.23473 6.89372C4.49968 7.15372 4.74424 7.52371 4.78501 7.73371C4.82577 7.94371 4.84616 8.40372 4.85635 8.77372C4.88692 9.64372 4.99901 10.8237 5.20282 12.2937C5.52891 14.6537 5.9773 17.0037 6.43587 19.3437C6.53778 19.8837 6.60911 20.2437 6.69064 20.6537C6.76197 21.0137 6.82311 21.0037 6.8333 20.6437C6.88425 17.2437 6.83329 13.7837 7.2511 10.4037C7.29186 10.0437 7.56702 9.94372 7.85235 10.1737C8.72873 10.9037 9.35034 11.3637 10.2165 11.9137C10.5324 12.1137 10.8789 12.5537 10.9808 12.9037C11.8674 15.8537 12.6215 18.8437 13.4469 21.8137C13.5488 22.1637 13.6507 22.1837 13.6813 21.8437C13.6915 21.6637 13.7119 21.4737 13.7322 21.2337C13.8749 19.8537 13.9157 18.4437 13.8851 17.0837C13.8749 16.5237 13.8443 15.9937 13.7832 15.4937C13.7526 15.2437 13.7119 14.9937 13.6711 14.7637C13.61 14.4037 13.5386 13.9837 13.5386 13.8237C13.5386 13.6637 13.824 13.6237 14.1806 13.7137C15.5054 14.0237 16.3308 13.8937 17.5639 13.8437C17.9409 13.8337 18.2364 13.9737 18.2364 14.1437C18.2364 14.3137 18.104 14.7137 17.9613 15.0437C17.8798 15.2337 17.8084 15.4337 17.7371 15.6437C17.5842 16.0837 17.4722 16.5937 17.3499 17.0937C17.1664 17.8537 16.9219 19.1337 16.6977 20.8637C16.4123 23.1137 16.2493 24.4637 15.9742 26.3437C15.9232 26.7037 15.5767 27.0137 15.1997 27.0437C14.4048 27.0937 13.8036 27.1437 13.0087 27.2237C12.6419 27.2537 12.2444 27.0037 12.1323 26.6537C11.2152 23.7537 10.5732 20.7637 9.89044 17.8037C9.80892 17.4437 9.72739 17.4537 9.70701 17.8237C9.56434 20.8437 9.49301 23.8837 9.24844 26.9037C9.21787 27.2737 8.89177 27.5837 8.51472 27.6137C7.73006 27.6737 7.1492 27.7037 6.36453 27.7137C5.98749 27.7137 5.63082 27.4337 5.54929 27.0737C4.80539 23.6037 3.95958 20.5237 3.30739 17.2237C3.01187 15.6537 2.71634 14.1237 2.43101 12.7237L2.45139 12.7137Z" fill="#E2475A"/>
<path d="M24.4021 26.8937C22.9041 27.0237 21.7118 26.7237 20.8354 25.9937C19.959 25.2637 19.4088 24.1337 19.1744 22.5937C19.0317 21.6537 18.94 20.9137 18.889 20.3837C18.8381 19.8337 18.7973 19.0837 18.7667 18.1437C18.7158 16.6037 19.0521 15.4437 19.796 14.6737C20.5399 13.9037 21.6812 13.5437 23.2098 13.5037C24.7384 13.4637 25.9408 13.7437 26.807 14.4137C27.6732 15.0837 28.2031 16.1337 28.4171 17.6137C28.5496 18.5137 28.6413 19.2337 28.6821 19.7637C28.7228 20.2837 28.7534 21.0037 28.784 21.9137C28.8247 23.4137 28.4783 24.5937 27.7445 25.4437C27.0108 26.2837 25.9001 26.7737 24.3919 26.9037L24.4021 26.8937ZM24.1779 24.3737C24.6874 24.3337 25.0441 24.1537 25.2581 23.8137C25.4619 23.4837 25.574 22.9637 25.5638 22.2637C25.5638 21.6337 25.5128 20.9137 25.4415 20.1037C25.3702 19.3037 25.2886 18.5737 25.1867 17.9337C25.0746 17.2237 24.881 16.7237 24.6161 16.4237C24.3511 16.1237 23.9639 15.9937 23.4442 16.0037C22.9143 16.0237 22.5372 16.1837 22.3334 16.5037C22.1296 16.8237 22.0175 17.3537 22.0277 18.0737C22.0379 18.7237 22.0888 19.4637 22.1602 20.2837C22.2315 21.1037 22.3232 21.8337 22.4251 22.4637C22.5372 23.1637 22.741 23.6737 23.006 23.9737C23.2709 24.2737 23.6582 24.4037 24.1881 24.3637L24.1779 24.3737Z" fill="#E2475A"/>
<path d="M30.2816 17.9037C30.0676 17.3237 29.8536 16.8037 29.6498 16.3437C29.3747 15.7637 29.0384 15.1637 28.6613 14.5537C28.4677 14.2437 28.2741 13.8537 28.2435 13.6837C28.213 13.5137 28.4881 13.3337 28.855 13.2637C30.088 13.0437 30.9236 12.8337 32.1974 12.2337C32.5337 12.0737 32.8292 12.0637 32.8598 12.2237C32.8904 12.3837 32.8904 12.8037 32.8904 13.1737C32.8904 13.8937 32.9515 14.6737 33.0738 15.5237C33.2471 16.6437 33.5324 17.9637 33.94 19.4937C34.0011 19.7237 34.0419 19.9037 34.0827 20.0837C34.1642 20.4037 34.2559 20.3737 34.2865 20.0137C34.5616 17.0437 34.8266 14.0637 35.1527 11.0937C35.1934 10.7337 35.4686 10.2537 35.7641 10.0337C36.5284 9.4537 37.0583 8.98371 37.8022 8.26371C38.0672 8.00371 38.3729 8.07371 38.485 8.42371C39.4429 11.4837 40.0135 14.6737 40.6454 17.8137C40.7167 18.1737 40.788 18.1637 40.8084 17.8037C40.8288 17.4237 40.839 17.0937 40.8593 16.5837C40.9816 14.3537 40.9918 12.0837 40.9409 9.86371C40.9205 8.98371 40.8899 8.20371 40.8288 7.54371C40.7982 7.19371 40.7676 6.87369 40.7269 6.59369C40.6759 6.23369 40.6148 5.78372 40.6148 5.58372C40.6148 5.38372 40.8084 4.99372 41.0326 4.71372C42.1637 3.31372 43.2235 1.8037 44.1713 0.283697C44.3649 -0.0263029 44.5177 -0.096287 44.5279 0.143713C44.5279 0.373713 44.4872 0.8637 44.426 1.2237C44.3343 1.7737 44.263 2.3837 44.1815 3.0337C44.0795 3.9537 44.0082 4.97371 43.9267 6.07371C43.7535 8.71371 43.6515 11.4137 43.5598 14.0837C43.4477 17.2437 43.3866 20.4237 43.0197 23.5637C42.979 23.9237 42.6427 24.2837 42.2758 24.3537C41.4911 24.5037 40.9103 24.5937 40.1154 24.7037C39.7486 24.7537 39.3715 24.5137 39.2798 24.1537C38.5563 21.3537 37.9856 18.5037 37.364 15.6837C37.2825 15.3237 37.201 15.3337 37.1704 15.6937C36.9666 18.6437 36.773 21.5937 36.3959 24.5237C36.345 24.8837 36.0087 25.2137 35.6316 25.2537C34.847 25.3437 34.2559 25.4137 33.4713 25.5037C33.1044 25.5537 32.707 25.3037 32.5847 24.9637C31.9732 23.1537 31.5758 21.9037 30.9032 19.8237C30.6892 19.1437 30.4752 18.5137 30.2612 17.9437L30.2816 17.9037Z" fill="#E2475A"/>
</svg>
