<svg width="19" height="22" viewBox="0 0 19 22" fill="none" xmlns="http://www.w3.org/2000/svg">
<path d="M5.67609 14.1407L10.2007 20.5107L12.9929 20.0607L14.1953 19.8707L13.0948 19.4907H13.054L10.6592 18.4307C10.3637 18.3007 10.0988 18.1407 9.87459 17.9407C9.6504 17.7407 9.48734 17.5107 9.38544 17.2407C9.27334 16.9307 9.28353 16.6407 9.38544 16.3507C9.46696 16.1107 9.60964 15.8707 9.78288 15.6207L9.80325 15.5907L9.82362 15.5707L11.0159 14.2707L7.87723 14.2907H7.84666H7.83649C7.58173 14.2707 7.32696 14.2007 7.09258 14.0707C6.86839 13.9507 6.67477 13.7907 6.52191 13.5807C6.36906 13.3707 6.28754 13.1307 6.24678 12.8907C6.20602 12.6407 6.22639 12.3707 6.29772 12.1307L6.30792 12.0907L7.40848 9.21071L5.74743 9.86072H5.72706L5.68629 9.88071C5.38057 9.95071 5.10542 10.0007 4.85066 9.99071C4.53476 9.98071 4.25962 9.89071 3.99466 9.68071C3.77047 9.50071 3.60744 9.26071 3.49534 8.99071C3.38325 8.71071 3.3119 8.41071 3.29152 8.09071L3.1183 5.52071V5.48071L3.13867 4.3307L2.53743 5.37071L1.14134 7.79071L5.66592 14.1607L5.67609 14.1407ZM9.56886 21.3007L4.87106 14.6907L0.173252 8.0807L0 7.8307L0.152866 7.57071L1.70181 4.89072L3.25078 2.21071L4.18829 0.570709L4.15772 2.45071L4.10678 5.46071L4.26983 8.00072C4.28002 8.22072 4.32078 8.42071 4.39211 8.59071C4.45325 8.73071 4.52456 8.84072 4.62647 8.92072C4.6978 8.98072 4.78953 9.01071 4.89143 9.01071C5.0341 9.01071 5.21752 8.9907 5.42133 8.9407L8.08106 7.90071L9.1001 7.50072L8.71286 8.51071L7.23526 12.3607C7.20469 12.4807 7.19447 12.6107 7.20466 12.7207C7.21485 12.8207 7.25563 12.9207 7.31677 13.0107C7.37791 13.1007 7.45945 13.1707 7.55116 13.2107C7.65307 13.2707 7.77533 13.3007 7.9078 13.3107L12.1063 13.2807H13.2069L12.4731 14.0807L10.5675 16.1707C10.4554 16.3407 10.3637 16.5007 10.3128 16.6307C10.2822 16.7207 10.272 16.8107 10.3128 16.9007C10.3535 17.0207 10.4351 17.1307 10.5472 17.2307C10.6796 17.3507 10.863 17.4607 11.0669 17.5507L13.4413 18.5907L16.3353 19.5807L18.1391 20.2007L16.2538 20.5007L13.1559 20.9907L10.058 21.4807L9.75228 21.5307L9.57906 21.2907L9.56886 21.3007Z" fill="#E2475A"/>
<path fill-rule="evenodd" clip-rule="evenodd" d="M18.5268 19.3807C18.1497 18.8507 17.4058 18.7207 16.8657 19.0907C16.3256 19.4607 16.1932 20.1907 16.5702 20.7207C16.9472 21.2507 17.6912 21.3807 18.2313 21.0107C18.7713 20.6407 18.9038 19.9107 18.5268 19.3807Z" fill="#E2475A"/>
<path fill-rule="evenodd" clip-rule="evenodd" d="M14.9291 12.2007C14.5521 11.6707 13.8082 11.5407 13.2681 11.9107C12.728 12.2807 12.5955 13.0107 12.9725 13.5407C13.3496 14.0707 14.0935 14.2007 14.6336 13.8307C15.1737 13.4607 15.3062 12.7307 14.9291 12.2007Z" fill="#E2475A"/>
<path fill-rule="evenodd" clip-rule="evenodd" d="M5.12542 0.500725C5.50246 1.03072 5.36998 1.76071 4.82988 2.13071C4.28979 2.50071 3.54588 2.37072 3.16883 1.84072C2.79178 1.31072 2.92427 0.580716 3.46436 0.210716C4.00446 -0.159284 4.74837 -0.0292751 5.12542 0.500725Z" fill="#E2475A"/>
<path fill-rule="evenodd" clip-rule="evenodd" d="M10.7309 6.30073C11.1079 6.83073 10.9754 7.56074 10.4354 7.93074C9.89526 8.30074 9.15135 8.17074 8.7743 7.64074C8.39725 7.11074 8.52974 6.38074 9.06983 6.01074C9.60993 5.64074 10.3538 5.77073 10.7309 6.30073Z" fill="#E2475A"/>
<path d="M12.2589 18.7807L12.5748 16.7407L9.05911 11.7807L5.54341 6.83073L3.49512 6.42075L3.68874 5.48074L5.93062 5.93074L6.12425 5.97075L6.22616 6.12074L9.86416 11.2407L13.492 16.3507L13.6041 16.5007L13.5735 16.6907L13.2168 18.9207L12.2589 18.7807Z" fill="#E2475A"/>
</svg>
