<svg width="24" height="23" viewBox="0 0 24 23" fill="none" xmlns="http://www.w3.org/2000/svg">
<path d="M13.7554 0.208304C7.48828 -0.981696 1.42494 3.04829 0.212272 9.19829C-1.00039 15.3483 3.10636 21.2983 9.3735 22.4883C15.6406 23.6783 21.704 19.6483 22.9167 13.4983C24.1293 7.3483 20.0226 1.3983 13.7554 0.208304ZM9.66903 20.9983C4.23751 19.9683 0.681024 14.8083 1.73064 9.47831C2.78026 4.14831 8.03857 0.6583 13.4701 1.6883C18.9016 2.7183 22.4581 7.8783 21.4084 13.2083C20.3588 18.5383 15.1006 22.0283 9.66903 20.9983Z" fill="#E2475A"/>
<path d="M2.5459 9.3983L5.27694 9.91829C5.50113 8.96829 5.93933 8.10829 6.53038 7.38829L4.43111 5.5983C3.53435 6.6683 2.87199 7.9583 2.5459 9.3983Z" fill="#E2475A"/>
<path d="M5.38859 13.1883C5.11344 12.3083 5.03194 11.3483 5.1848 10.3883L2.45376 9.86829C2.20918 11.3283 2.33146 12.7583 2.75946 14.0883L5.38859 13.1983V13.1883Z" fill="#E2475A"/>
<path d="M13.4389 17.4083C12.5421 17.6783 11.5638 17.7583 10.5856 17.6083L10.0557 20.2883C11.5435 20.5283 13.0007 20.4083 14.356 19.9883L13.4491 17.4083H13.4389Z" fill="#E2475A"/>
<path d="M13.5514 2.49829L13.0215 5.1783C13.9896 5.3983 14.866 5.82829 15.5997 6.40829L17.4237 4.3483C16.3334 3.4683 15.0188 2.81829 13.5514 2.49829Z" fill="#E2475A"/>
<path d="M9.68862 5.2883C10.5854 5.0183 11.5637 4.93831 12.542 5.08831L13.0719 2.4083C11.5841 2.1683 10.1268 2.2883 8.77148 2.7083L9.67845 5.2883H9.68862Z" fill="#E2475A"/>
<path d="M9.5765 20.1983L10.1064 17.5183C9.1383 17.2983 8.26192 16.8683 7.52821 16.2883L5.7041 18.3483C6.79448 19.2283 8.10907 19.8783 9.5765 20.1983Z" fill="#E2475A"/>
<path d="M7.16209 15.9683C6.45895 15.3183 5.90865 14.5183 5.55198 13.6383L2.92285 14.5283C3.43238 15.8683 4.26799 17.0683 5.33799 18.0283L7.16209 15.9683Z" fill="#E2475A"/>
<path d="M16.2719 15.6683C15.6095 16.3583 14.7942 16.8983 13.8975 17.2483L14.8044 19.8283C16.17 19.3283 17.3928 18.5083 18.3711 17.4583L16.2719 15.6683Z" fill="#E2475A"/>
<path d="M6.85607 7.01828C7.51845 6.32828 8.33371 5.78828 9.23047 5.43828L8.3235 2.85828C6.95798 3.35828 5.73512 4.17829 4.75684 5.22829L6.85607 7.01828Z" fill="#E2475A"/>
<path d="M17.7393 9.50829C18.0144 10.3883 18.0959 11.3483 17.943 12.3083L20.6741 12.8283C20.9187 11.3683 20.7964 9.93828 20.3684 8.60828L17.7393 9.49828V9.50829Z" fill="#E2475A"/>
<path d="M15.9766 6.72829C16.6797 7.37829 17.23 8.17827 17.5866 9.05827L20.2158 8.16827C19.7063 6.82827 18.8707 5.62827 17.8007 4.66827L15.9766 6.72829Z" fill="#E2475A"/>
<path d="M20.5821 13.2983L17.8511 12.7783C17.6269 13.7283 17.1887 14.5883 16.5977 15.3083L18.6969 17.0983C19.5937 16.0283 20.256 14.7383 20.5821 13.2983Z" fill="#E2475A"/>
<path d="M16.5684 12.2483C16.6194 11.8783 16.3646 11.5183 15.9876 11.4383C15.7226 11.3783 15.4679 11.4683 15.2946 11.6383L13.3075 11.1083C12.7368 10.9583 12.37 10.4283 12.4413 9.84832L12.6859 7.84832C12.91 7.75832 13.0935 7.54832 13.1342 7.28832C13.1954 6.91832 12.9508 6.54832 12.5839 6.45832C12.1559 6.34832 11.7382 6.61831 11.6566 7.02831C11.6057 7.27831 11.6974 7.52832 11.8604 7.68832L11.3203 9.63831C11.1675 10.1983 10.6274 10.5583 10.0363 10.4883L7.99823 10.2483C7.90652 10.0283 7.69252 9.84831 7.42757 9.80831C7.05052 9.74831 6.67349 9.98832 6.58177 10.3483C6.46968 10.7683 6.74483 11.1783 7.16264 11.2583C7.4174 11.3083 7.67217 11.2183 7.83521 11.0583L9.82234 11.5883C10.393 11.7383 10.7599 12.2683 10.6885 12.8483L10.444 14.8483C10.2198 14.9383 10.0364 15.1483 9.99559 15.4083C9.93445 15.7783 10.179 16.1483 10.5459 16.2383C10.9739 16.3483 11.3917 16.0783 11.4732 15.6683C11.5241 15.4183 11.4324 15.1683 11.2694 15.0083L11.8095 13.0583C11.9624 12.4983 12.5024 12.1383 13.0935 12.2083L15.1316 12.4483C15.2233 12.6683 15.4271 12.8383 15.6819 12.8883C16.0997 12.9683 16.5175 12.6883 16.5684 12.2583V12.2483ZM11.4325 12.0383C11.0452 11.9683 10.7905 11.5983 10.8618 11.2183C10.9331 10.8383 11.3101 10.5883 11.6974 10.6583C12.0846 10.7283 12.3394 11.0983 12.268 11.4783C12.1967 11.8583 11.8197 12.1083 11.4325 12.0383Z" fill="#E2475A"/>
</svg>
