<svg width="55" height="62" viewBox="0 0 55 62" fill="none" xmlns="http://www.w3.org/2000/svg">
<path d="M38.3868 49.41C42.5445 45.54 47.0283 41.86 50.5339 37.4C52.2459 35.22 53.6623 32.74 54.1922 30.02C54.5795 28.06 54.4674 26.17 53.9375 24.33C53.8865 24.22 53.8356 24.11 53.7846 24C52.8879 22.21 51.8892 20.38 50.7275 18.68C49.0562 17.9 47.385 17.13 45.7138 16.35C40.486 16.03 35.2787 16.43 30.4892 18.65C29.0625 20.14 28.2575 22.01 27.1365 23.72C25.9952 21.7 24.6602 19.79 23.1317 18.03C22.4285 17.22 21.6744 16.42 20.8694 15.68C19.0147 14.45 16.8238 13.68 14.592 13.34C12.4317 13.01 10.2509 13.09 8.10071 13.41C6.38872 14.12 4.6869 14.88 3.01566 15.67C2.1189 16.53 1.29347 17.46 0.661664 18.52C0.600521 18.62 0.53938 18.73 0.488428 18.83C-0.000714849 20.48 -0.0924229 22.22 0.0808152 23.95C0.162339 24.21 0.254058 24.48 0.355962 24.74C1.8132 28.45 3.89205 32.03 5.83843 35.5C7.77462 38.97 9.84329 42.36 12.0546 45.67C15.8761 51.38 20.1459 56.8 24.9048 61.79C29.0829 57.45 33.6686 53.49 38.2238 49.54C38.2849 49.49 38.3359 49.44 38.397 49.39L38.3868 49.41ZM41.7497 33.54C42.6668 33.62 43.4821 34.2 43.7266 35.09C43.961 35.95 43.6451 36.91 42.9216 37.45C42.4324 37.82 41.8006 37.96 41.2096 37.85C40.7001 37.78 40.2211 37.53 39.8848 37.13C38.662 35.67 39.7625 33.35 41.7497 33.53V33.54ZM32.7617 32.47C33.5565 32.03 34.6062 32.15 35.2889 32.74C35.8188 33.19 36.0124 33.86 35.9105 34.51C35.9105 34.85 35.8188 35.19 35.615 35.5C35.136 36.25 34.1781 36.57 33.312 36.41C31.4165 36.05 31.1414 33.38 32.7515 32.48L32.7617 32.47ZM23.2132 34.24C24.1813 33.71 25.1494 33.18 26.1073 32.65C27.2282 32.03 28.2269 33.72 27.1161 34.34C26.5251 34.67 25.9239 34.99 25.3328 35.32C25.9442 35.9 26.576 36.45 27.2588 36.97C28.2677 37.74 26.8512 39.11 25.8525 38.35C24.8335 37.57 23.8858 36.72 23.0196 35.78C22.6018 35.33 22.6425 34.57 23.2234 34.25L23.2132 34.24ZM18.4339 32.47C19.2287 32.03 20.2783 32.15 20.9611 32.74C21.491 33.19 21.6846 33.86 21.5827 34.51C21.5827 34.85 21.491 35.19 21.2872 35.5C20.8082 36.25 19.8503 36.57 18.9841 36.41C17.0887 36.05 16.8136 33.38 18.4237 32.48L18.4339 32.47ZM13.9806 38.24C13.4303 38.49 12.7679 38.49 12.1871 38.24C10.2407 37.37 10.4853 34.53 12.5132 33.93C14.694 33.28 16.4773 35.97 14.9385 37.65C14.6736 37.93 14.3475 38.14 13.9806 38.25V38.24ZM29.1339 48.46C26.413 49.05 23.5902 48.55 21.2872 46.99C20.2376 46.28 21.2362 44.58 22.2961 45.3C24.1609 46.57 26.3824 47.06 28.6141 46.58C29.8676 46.31 30.3975 48.19 29.1441 48.46H29.1339ZM37.6633 40.46C37.4493 40.16 37.2659 39.85 37.1232 39.53C36.9296 39.63 36.736 39.73 36.5423 39.82C36.522 39.82 36.5118 39.84 36.4914 39.85C36.308 39.94 36.1245 40.02 35.9411 40.11C35.9105 40.12 35.8799 40.14 35.8494 40.15C35.6761 40.23 35.4927 40.3 35.3195 40.38C35.2787 40.4 35.238 40.41 35.2074 40.43C35.0341 40.5 34.8609 40.57 34.6877 40.63C34.6367 40.65 34.5959 40.67 34.545 40.68C34.382 40.74 34.2087 40.8 34.0355 40.86C33.9845 40.88 33.9336 40.9 33.8724 40.92C33.7094 40.98 33.5463 41.03 33.3731 41.08C33.312 41.1 33.261 41.12 33.1999 41.14C33.0368 41.19 32.8738 41.24 32.7107 41.28C32.6496 41.3 32.5884 41.32 32.5171 41.33C32.3541 41.37 32.2012 41.42 32.0381 41.46C31.9668 41.48 31.9057 41.5 31.8343 41.51C31.6815 41.55 31.5184 41.58 31.3656 41.62C31.2942 41.64 31.2229 41.65 31.1516 41.67C30.9987 41.7 30.8459 41.73 30.693 41.76C30.6217 41.77 30.5401 41.79 30.4688 41.8C30.3159 41.83 30.1631 41.85 30.0102 41.88C29.9287 41.89 29.8472 41.91 29.7657 41.92C29.6128 41.94 29.4701 41.97 29.3173 41.99C29.2358 42 29.1542 42.01 29.0727 42.02C28.93 42.04 28.7772 42.06 28.6345 42.07C28.553 42.07 28.4613 42.09 28.3798 42.1C28.2371 42.11 28.0944 42.13 27.9416 42.14C27.8499 42.14 27.7582 42.15 27.6766 42.16C27.534 42.16 27.3913 42.18 27.2486 42.19C27.1569 42.19 27.0652 42.19 26.9735 42.2C26.8308 42.2 26.6983 42.21 26.5557 42.21C26.464 42.21 26.362 42.21 26.2703 42.21C26.1379 42.21 25.9952 42.21 25.8627 42.21C25.7608 42.21 25.6691 42.21 25.5672 42.21C25.4347 42.21 25.2921 42.21 25.1596 42.21C25.0577 42.21 24.9558 42.21 24.864 42.2C24.7316 42.2 24.5991 42.19 24.4666 42.18C24.3647 42.18 24.2628 42.17 24.1609 42.16C24.0284 42.16 23.896 42.14 23.7737 42.13C23.6718 42.13 23.5597 42.11 23.4578 42.1C23.3253 42.09 23.203 42.07 23.0807 42.06C22.9686 42.05 22.8667 42.03 22.7546 42.02C22.6323 42 22.51 41.99 22.3776 41.97C22.2655 41.95 22.1636 41.94 22.0515 41.92C21.9292 41.9 21.8069 41.88 21.6846 41.86C21.5725 41.84 21.4604 41.82 21.3483 41.8C21.226 41.78 21.114 41.76 20.9917 41.73C20.8796 41.71 20.7675 41.68 20.6554 41.66C20.5433 41.63 20.421 41.61 20.3089 41.58C20.1968 41.55 20.0745 41.52 19.9624 41.49C19.8503 41.46 19.7382 41.43 19.6261 41.4C19.5039 41.37 19.3918 41.33 19.2695 41.3C19.1574 41.27 19.0555 41.24 18.9434 41.21C18.8211 41.17 18.6988 41.14 18.5867 41.1C18.4848 41.07 18.3727 41.04 18.2708 41C18.1485 40.96 18.0262 40.91 17.8938 40.87C17.7919 40.84 17.7001 40.8 17.5982 40.77C17.4658 40.72 17.3333 40.67 17.211 40.62C17.1193 40.59 17.0276 40.55 16.9359 40.52C16.7932 40.46 16.6403 40.4 16.4977 40.34C16.4263 40.31 16.355 40.28 16.2735 40.25C16.0595 40.16 15.8353 40.06 15.6213 39.96C14.4596 39.42 15.4786 37.74 16.6301 38.27C16.8238 38.36 17.0276 38.45 17.2212 38.54C17.2925 38.57 17.3639 38.6 17.4352 38.63C17.5677 38.68 17.69 38.74 17.8224 38.79C17.9142 38.83 18.0059 38.86 18.0976 38.89C18.2097 38.93 18.3218 38.97 18.4237 39.01C18.5256 39.05 18.6377 39.08 18.7396 39.12C18.8415 39.15 18.9332 39.19 19.0351 39.22C19.1574 39.26 19.2695 39.29 19.3918 39.33C19.4835 39.36 19.565 39.38 19.6567 39.41C19.7892 39.45 19.9115 39.48 20.044 39.52C20.1255 39.54 20.207 39.56 20.2783 39.59C20.421 39.63 20.5535 39.66 20.6961 39.69C20.7675 39.71 20.8388 39.73 20.9102 39.74C21.0528 39.77 21.1955 39.8 21.3483 39.83C21.4197 39.84 21.4808 39.86 21.5521 39.87C21.705 39.9 21.8579 39.93 22.0107 39.95C22.0719 39.96 22.133 39.97 22.184 39.98C22.347 40.01 22.5101 40.03 22.6629 40.05C22.7139 40.05 22.7648 40.07 22.8158 40.07C22.989 40.09 23.1521 40.11 23.3253 40.13C23.3661 40.13 23.417 40.14 23.4578 40.15C23.631 40.17 23.8144 40.18 23.9877 40.2C24.0284 40.2 24.059 40.2 24.0998 40.21C24.2832 40.22 24.4666 40.24 24.6501 40.25C24.6806 40.25 24.7112 40.25 24.7418 40.25C24.9354 40.25 25.1188 40.27 25.3124 40.27C25.3328 40.27 25.3634 40.27 25.3838 40.27C25.5774 40.27 25.771 40.27 25.9748 40.27C25.9952 40.27 26.0156 40.27 26.036 40.27C26.2398 40.27 26.4436 40.27 26.6474 40.26C26.6576 40.26 26.6678 40.26 26.6881 40.26C26.892 40.26 27.106 40.24 27.3098 40.23C27.3098 40.23 27.3199 40.23 27.3301 40.23C27.5441 40.22 27.748 40.2 27.962 40.18C27.962 40.18 27.962 40.18 27.9721 40.18C30.9783 39.91 33.9234 39.03 36.5729 37.58C36.5016 36.93 36.5321 36.26 36.6544 35.59C36.8888 34.35 38.8046 34.88 38.5702 36.11C38.3359 37.32 38.662 38.46 39.3651 39.46C40.0988 40.49 38.3766 41.47 37.6429 40.45L37.6633 40.46Z" fill="#00B26C"/>
<path d="M18.9838 36.39C19.85 36.56 20.7977 36.23 21.2869 35.48C21.4805 35.17 21.5722 34.83 21.5824 34.49C21.6843 33.85 21.4907 33.17 20.9608 32.72C20.278 32.13 19.2284 32.01 18.4335 32.45C16.8132 33.35 17.0884 36.01 18.994 36.38L18.9838 36.39Z" fill="#030305"/>
<path d="M33.312 36.39C34.1781 36.56 35.1259 36.23 35.615 35.48C35.8086 35.17 35.9003 34.83 35.9105 34.49C36.0124 33.85 35.8188 33.17 35.2889 32.72C34.6061 32.13 33.5565 32.01 32.7617 32.45C31.1414 33.35 31.4165 36.01 33.3221 36.38L33.312 36.39Z" fill="#030305"/>
<path d="M39.3751 39.48C38.6719 38.49 38.3458 37.34 38.5802 36.13C38.8146 34.9 36.8988 34.37 36.6644 35.61C36.5319 36.28 36.5115 36.94 36.5829 37.6C33.9232 39.05 30.9781 39.93 27.9821 40.2C27.9821 40.2 27.9821 40.2 27.9719 40.2C27.7579 40.22 27.5541 40.24 27.3401 40.25C27.3401 40.25 27.3299 40.25 27.3197 40.25C27.1159 40.26 26.9019 40.27 26.6981 40.28C26.6879 40.28 26.6777 40.28 26.6574 40.28C26.4535 40.28 26.2497 40.29 26.0459 40.29C26.0255 40.29 26.0052 40.29 25.9848 40.29C25.7912 40.29 25.5975 40.29 25.3937 40.29C25.3733 40.29 25.3428 40.29 25.3224 40.29C25.1288 40.29 24.9453 40.28 24.7517 40.27C24.7212 40.27 24.6906 40.27 24.66 40.27C24.4766 40.26 24.2932 40.25 24.1097 40.23C24.069 40.23 24.0384 40.23 23.9976 40.22C23.8244 40.21 23.641 40.19 23.4677 40.17C23.427 40.17 23.376 40.16 23.3352 40.15C23.162 40.13 22.999 40.11 22.8257 40.09C22.7748 40.09 22.7238 40.07 22.6729 40.07C22.5098 40.05 22.3468 40.02 22.1939 40C22.1328 40 22.0716 39.98 22.0207 39.97C21.8678 39.94 21.715 39.92 21.5621 39.89C21.4908 39.88 21.4296 39.86 21.3583 39.85C21.2156 39.82 21.073 39.79 20.9201 39.76C20.8488 39.74 20.7774 39.73 20.7061 39.71C20.5634 39.68 20.431 39.64 20.2883 39.61C20.2068 39.59 20.1252 39.57 20.0539 39.54C19.9214 39.5 19.7992 39.47 19.6667 39.43C19.575 39.4 19.4934 39.38 19.4017 39.35C19.2794 39.31 19.1572 39.28 19.0451 39.24C18.9432 39.21 18.8514 39.17 18.7495 39.14C18.6476 39.1 18.5355 39.07 18.4336 39.03C18.3215 38.99 18.2095 38.95 18.1075 38.91C18.0158 38.87 17.9241 38.84 17.8324 38.81C17.6999 38.76 17.5776 38.7 17.4452 38.65C17.3738 38.62 17.3025 38.59 17.2312 38.56C17.0274 38.47 16.8337 38.39 16.6401 38.29C15.4886 37.75 14.4797 39.44 15.6313 39.98C15.8453 40.08 16.0593 40.18 16.2834 40.27C16.3548 40.3 16.4261 40.33 16.5076 40.36C16.6503 40.42 16.8032 40.48 16.9458 40.54C17.0375 40.58 17.1292 40.61 17.221 40.64C17.3534 40.69 17.4859 40.74 17.6082 40.79C17.7101 40.83 17.8018 40.86 17.9037 40.89C18.026 40.93 18.1483 40.98 18.2808 41.02C18.3827 41.05 18.4948 41.09 18.5967 41.12C18.719 41.16 18.8413 41.2 18.9534 41.23C19.0655 41.26 19.1673 41.29 19.2794 41.32C19.4017 41.35 19.5138 41.39 19.6361 41.42C19.7482 41.45 19.8603 41.48 19.9724 41.51C20.0845 41.54 20.2068 41.57 20.3189 41.6C20.431 41.63 20.5533 41.65 20.6653 41.68C20.7774 41.7 20.8895 41.73 21.0016 41.75C21.1239 41.77 21.236 41.8 21.3583 41.82C21.4704 41.84 21.5825 41.86 21.6946 41.88C21.8169 41.9 21.9392 41.92 22.0614 41.94C22.1735 41.96 22.2754 41.98 22.3875 41.99C22.5098 42.01 22.6321 42.02 22.7646 42.04C22.8767 42.05 22.9786 42.07 23.0907 42.08C23.213 42.09 23.3454 42.11 23.4677 42.12C23.5696 42.13 23.6817 42.14 23.7836 42.15C23.9161 42.16 24.0384 42.17 24.1709 42.18C24.2728 42.18 24.3747 42.2 24.4766 42.2C24.6091 42.2 24.7415 42.21 24.874 42.22C24.9759 42.22 25.0778 42.22 25.1695 42.23C25.302 42.23 25.4447 42.23 25.5772 42.23C25.6791 42.23 25.7708 42.23 25.8727 42.23C26.0052 42.23 26.1478 42.23 26.2803 42.23C26.372 42.23 26.4739 42.23 26.5656 42.23C26.7083 42.23 26.8408 42.23 26.9834 42.22C27.0752 42.22 27.1669 42.22 27.2586 42.21C27.4013 42.21 27.5439 42.19 27.6866 42.18C27.7783 42.18 27.87 42.17 27.9515 42.16C28.0942 42.15 28.2369 42.14 28.3897 42.12C28.4713 42.12 28.563 42.1 28.6445 42.09C28.7872 42.07 28.94 42.06 29.0827 42.04C29.1642 42.03 29.2457 42.02 29.3273 42.01C29.4801 41.99 29.6228 41.97 29.7756 41.94C29.8572 41.93 29.9387 41.91 30.0202 41.9C30.1731 41.87 30.3259 41.85 30.4788 41.82C30.5501 41.81 30.6316 41.79 30.703 41.78C30.8558 41.75 31.0087 41.72 31.1615 41.69C31.2329 41.67 31.3042 41.66 31.3755 41.64C31.5284 41.6 31.6914 41.57 31.8443 41.53C31.9156 41.51 31.9768 41.5 32.0481 41.48C32.2112 41.44 32.364 41.4 32.5271 41.35C32.5882 41.33 32.6494 41.31 32.7207 41.3C32.8837 41.25 33.0468 41.21 33.2098 41.16C33.271 41.14 33.3321 41.12 33.3831 41.1C33.5461 41.05 33.7092 40.99 33.8824 40.94C33.9334 40.92 33.9843 40.9 34.0455 40.88C34.2187 40.82 34.3817 40.76 34.555 40.7C34.6059 40.68 34.6467 40.66 34.6976 40.65C34.8709 40.58 35.0441 40.52 35.2174 40.45C35.2581 40.43 35.2989 40.42 35.3294 40.4C35.5129 40.33 35.6861 40.25 35.8594 40.17C35.8899 40.16 35.9205 40.14 35.9511 40.13C36.1345 40.05 36.3179 39.96 36.5013 39.87C36.5217 39.87 36.5319 39.85 36.5523 39.84C36.7459 39.75 36.9395 39.65 37.1332 39.55C37.286 39.87 37.4694 40.18 37.6733 40.48C38.3968 41.5 40.1292 40.53 39.3955 39.49L39.3751 39.48Z" fill="#030305"/>
<path d="M25.8528 38.35C26.8515 39.11 28.268 37.74 27.2591 36.97C26.5865 36.46 25.9445 35.91 25.3331 35.32C25.9242 34.99 26.5254 34.67 27.1164 34.34C28.2374 33.73 27.2285 32.04 26.1076 32.65C25.1395 33.18 24.1714 33.71 23.2135 34.24C22.6326 34.56 22.5919 35.32 23.0097 35.77C23.8861 36.71 24.8236 37.56 25.8426 38.34L25.8528 38.35Z" fill="#030305"/>
<path d="M14.9594 7.67C14.9594 7.61 14.9492 7.56 14.939 7.5C14.3581 5 13.7773 2.5 13.1862 0C12.5137 0.05 11.8513 0.0999939 11.1787 0.149994C11.7596 2.63999 12.3404 5.13 12.9213 7.62C13.604 7.62 14.2766 7.64 14.9594 7.67Z" fill="#FFEADC"/>
<path d="M25.9438 8.86998C25.689 6.01998 25.4241 3.17999 25.1693 0.329987C24.507 0.369987 23.8548 0.419986 23.1924 0.469986C23.437 3.20999 23.6917 5.95998 23.9363 8.69998C24.6089 8.74998 25.2712 8.80998 25.9438 8.86998Z" fill="#FFEADC"/>
<path d="M36.7152 9.39999C36.8783 6.39999 37.0413 3.4 37.2146 0.389999C36.5522 0.319999 35.9 0.249993 35.2376 0.179993C35.2376 0.189993 35.2376 0.210001 35.2376 0.220001C35.0746 3.22 34.9115 6.20999 34.7383 9.20999C35.4007 9.27999 36.0529 9.36 36.7152 9.44C36.7152 9.42 36.7152 9.41 36.7152 9.39V9.39999Z" fill="#FFEADC"/>
<path d="M50.7581 2.21001C50.1365 1.99001 49.5149 1.77002 48.9035 1.55002C48.8933 1.58002 48.8729 1.61001 48.8627 1.64001C47.8334 4.17001 46.8144 6.71002 45.7852 9.24002C46.3966 9.47002 47.0182 9.71002 47.6296 9.94002C48.6691 7.36002 49.7187 4.78001 50.7581 2.21001Z" fill="#FFEADC"/>
<path d="M28.6037 46.57C26.372 47.05 24.1505 46.57 22.2856 45.29C21.236 44.57 20.2373 46.26 21.2768 46.98C23.5798 48.55 26.4026 49.04 29.1234 48.45C30.3768 48.18 29.8469 46.3 28.5935 46.57H28.6037Z" fill="#030305"/>
<path d="M41.2097 37.86C41.8008 37.96 42.4326 37.82 42.9217 37.46C43.635 36.92 43.951 35.96 43.7268 35.1C43.4822 34.2 42.6669 33.63 41.7498 33.55C39.7729 33.37 38.6621 35.69 39.8849 37.15C40.2212 37.55 40.7002 37.8 41.2097 37.87V37.86Z" fill="#FF7EA9"/>
<path d="M12.5134 33.92C10.4855 34.52 10.2512 37.37 12.1873 38.23C12.7682 38.49 13.4306 38.48 13.9809 38.23C14.3477 38.11 14.6738 37.91 14.9388 37.63C16.4674 35.95 14.6942 33.27 12.5134 33.91V33.92Z" fill="#FF7EA9"/>
</svg>
