<svg width="58" height="69" viewBox="0 0 58 69" fill="none" xmlns="http://www.w3.org/2000/svg">
<path d="M19.1785 41.7C17.762 39.95 16.2539 38.27 14.6743 36.65C14.6438 38.22 14.6132 39.8 14.5724 41.37C14.5724 41.43 14.5521 41.48 14.5215 41.53C16.6309 42.72 18.8524 43.72 21.1759 44.42C20.9007 44.07 20.6663 43.63 20.4319 43.31C20.0141 42.76 19.5963 42.23 19.1683 41.69L19.1785 41.7Z" fill="#FFEADC"/>
<path d="M20.7787 25.86C18.8018 28.39 16.9369 31 15.1943 33.69C18.7406 37.15 21.9201 40.95 24.6919 45.03C24.7428 45.11 24.753 45.18 24.7428 45.25C28.3095 45.81 31.9984 45.63 35.4938 44.78C39.3356 43.84 42.8309 42.08 45.939 39.69C49.0879 37.26 52.0329 34.56 55.0187 31.94C51.554 30.12 47.9058 28.65 44.1353 27.56C36.6759 25.42 28.7986 24.74 21.0743 25.62C20.9927 25.62 20.9214 25.64 20.8399 25.65C20.8501 25.72 20.8399 25.79 20.7787 25.86ZM37.593 31.12C38.2554 29 40.426 28.24 42.4743 28.07C42.6271 28.06 42.7596 28.19 42.8004 28.32C42.9736 28.87 43.1876 29.41 43.3914 29.95C43.4424 30.08 43.3608 30.27 43.2283 30.32C42.4029 30.7 41.445 30.49 40.64 31.01C39.998 31.42 39.5394 32.43 40.3954 32.92C40.7623 33.13 41.2412 33.17 41.6488 33.27C42.9023 33.6 44.2066 34.36 44.5225 35.69C45.1136 38.17 41.9953 40.27 40.0999 41.21C39.947 41.29 39.7228 41.25 39.6413 41.08C39.356 40.52 39.091 39.97 38.877 39.38C38.8261 39.25 38.9178 39.07 39.0401 39.01C39.9368 38.56 40.803 38.01 41.4858 37.28C41.9749 36.76 42.2603 36.03 41.3839 35.71C41.0374 35.58 40.6502 35.53 40.2935 35.43C38.2656 34.83 36.9408 33.24 37.6032 31.1L37.593 31.12ZM28.2789 32.72C28.6356 30.44 30.5106 28.98 32.6303 28.28C32.8137 28.22 32.9869 28.36 33.0481 28.52C33.2621 29.08 33.4659 29.63 33.6799 30.19C33.7512 30.37 33.5984 30.54 33.4353 30.6C32.4672 30.92 31.4685 31.45 30.9692 32.37C30.4495 33.32 30.6737 34.46 31.5806 35.07C32.7525 35.86 34.1894 36.01 35.0963 37.19C36.0339 38.42 35.9829 40.08 35.239 41.39C34.4136 42.84 32.8544 43.59 31.3259 44.15C31.2036 44.2 30.9998 44.11 30.9488 43.99C30.7043 43.41 30.368 42.89 30.154 42.3C30.0928 42.12 30.2355 41.95 30.3985 41.89C31.4583 41.52 32.671 41.06 33.1704 39.98C33.8327 38.55 32.3551 38.08 31.3055 37.65C31.2953 37.65 31.2749 37.64 31.2647 37.63C31.2545 37.63 31.2342 37.63 31.224 37.62C29.1757 36.71 27.9222 34.99 28.2891 32.71L28.2789 32.72ZM24.8753 30.77C25.1097 34 25.3339 37.23 25.5683 40.47C25.5785 40.65 25.395 40.8 25.2218 40.8C24.6919 40.8 24.0193 40.72 23.5098 40.9C23.3161 40.97 23.1837 40.86 23.1327 40.72C23.1123 40.68 23.092 40.63 23.092 40.57C22.8678 37.36 22.6334 34.15 22.4092 30.94C22.4092 30.81 22.5315 30.64 22.664 30.62C23.2958 30.53 23.9174 30.47 24.5492 30.43C24.7428 30.42 24.8753 30.6 24.8855 30.77H24.8753ZM23.4792 26.93C24.9161 26.95 24.9059 29.08 23.5302 29.19C23.5098 29.19 23.4792 29.19 23.4486 29.19C23.4181 29.19 23.3977 29.19 23.3671 29.19C21.9914 29.05 22.0322 26.92 23.4792 26.93Z" fill="#FFEADC"/>
<path d="M12.1472 38.88C12.1778 37.58 12.1982 36.29 12.2287 34.99C12.2797 32.44 12.3306 29.88 12.3918 27.33C11.709 27.53 11.0364 27.75 10.3741 27.99C7.47996 29.03 4.68776 30.59 2.69043 32.91C5.717 35.41 8.77414 37.9 12.0758 40.04C12.0555 39.66 12.1472 39.17 12.1574 38.88H12.1472Z" fill="#FFEADC"/>
<path d="M14.8271 29.8C15.5201 28.79 16.2334 27.8 16.9672 26.81C17.1404 26.57 17.2831 26.34 17.4461 26.14C16.5901 26.29 15.7341 26.47 14.8883 26.66C14.8883 26.69 14.8883 26.71 14.8883 26.74C14.8679 27.76 14.8475 28.78 14.8271 29.79V29.8Z" fill="#FFEADC"/>
<path d="M1.52857 37.31C3.41381 41.11 5.63534 44.75 8.42753 47.97C15.3978 56.02 26.8519 61.36 37.3787 56.82C48.0277 52.22 53.3166 41.35 57.9532 31.58C56.7202 28.7 55.0897 25.99 53.3166 23.39C51.4619 20.67 49.4952 17.98 47.4163 15.42C45.4597 13.02 42.9121 10.58 39.5798 10.5C36.594 10.43 33.9751 12 31.5803 13.63C30.7651 14.55 30.011 15.54 29.2874 16.53C27.2086 15.36 26.1691 12.82 24.3756 11.31C24.2228 11.18 24.0699 11.06 23.9171 10.95C22.3885 10.3 20.6051 10.25 19.046 10.92C17.5887 11.55 16.3863 12.64 15.2959 13.76C14.0934 14.98 12.9521 16.27 11.8413 17.58C7.50019 22.68 3.72971 28.23 0 33.77C0 33.84 0.0305689 33.92 0.0611404 34.01C0.519712 35.12 1.00886 36.23 1.52857 37.33V37.31ZM10.3637 27.99C11.0261 27.75 11.6987 27.53 12.3814 27.33C12.4935 27.3 12.6056 27.26 12.7279 27.23C13.3291 27.06 13.9406 26.9 14.552 26.75C14.6641 26.72 14.7762 26.7 14.8781 26.67C15.7239 26.47 16.5799 26.3 17.4359 26.15C17.6091 26.12 17.7824 26.09 17.9556 26.06C18.8014 25.92 19.6472 25.8 20.493 25.69C20.6051 25.68 20.7274 25.66 20.8395 25.65C20.921 25.65 20.9924 25.63 21.0739 25.62C28.7881 24.74 36.6755 25.41 44.135 27.56C47.9156 28.65 51.5536 30.11 55.0184 31.94C52.0326 34.56 49.0875 37.27 45.9387 39.69C42.8306 42.08 39.3352 43.85 35.4934 44.78C31.9981 45.63 28.299 45.81 24.7425 45.25C24.6304 45.23 24.5183 45.22 24.396 45.2C24.2737 45.18 24.1616 45.16 24.0393 45.14C23.2852 45 22.5413 44.82 21.7974 44.62C21.5834 44.56 21.3796 44.5 21.1758 44.43C18.8524 43.73 16.6411 42.73 14.5214 41.54C14.4195 41.49 14.3278 41.43 14.2259 41.38C13.8998 41.2 13.5839 41.01 13.268 40.82C12.9929 40.65 12.7177 40.48 12.4426 40.3C12.3101 40.22 12.1776 40.13 12.0553 40.04C8.75362 37.9 5.69647 35.41 2.6699 32.91C4.66723 30.58 7.45943 29.03 10.3535 27.99H10.3637Z" fill="#FF5A15"/>
<path d="M12.1467 38.88C12.1467 39.17 12.0448 39.66 12.0652 40.04C12.1977 40.12 12.32 40.21 12.4524 40.3C12.7276 40.47 13.0027 40.65 13.2779 40.82C13.5938 41.01 13.9199 41.2 14.2358 41.38C14.3377 41.44 14.4294 41.49 14.5313 41.54C14.5618 41.49 14.5721 41.44 14.5822 41.38C14.6128 39.81 14.6434 38.23 14.6841 36.66C16.2636 38.27 17.7719 39.95 19.1883 41.71C19.6163 42.24 20.0443 42.78 20.4519 43.33C20.6863 43.64 20.9207 44.09 21.1959 44.44C21.3997 44.5 21.6136 44.57 21.8175 44.63C22.5512 44.83 23.2951 45.01 24.0594 45.15C24.1817 45.17 24.2938 45.19 24.416 45.21C24.5281 45.23 24.6402 45.25 24.7625 45.26C24.7727 45.19 24.7625 45.12 24.7116 45.04C21.9296 40.96 18.7603 37.16 15.214 33.7C16.9566 31.01 18.8215 28.4 20.7984 25.87C20.8596 25.8 20.8698 25.72 20.8596 25.66C20.7475 25.67 20.6252 25.69 20.5131 25.7C19.6673 25.8 18.8215 25.93 17.9757 26.07C17.8024 26.1 17.6292 26.13 17.4559 26.16C17.2929 26.36 17.1604 26.59 16.977 26.83C16.2433 27.81 15.53 28.81 14.837 29.82C14.8574 28.8 14.8778 27.78 14.8981 26.77C14.8981 26.74 14.8981 26.72 14.8981 26.69C14.7861 26.72 14.6739 26.74 14.572 26.77C13.9606 26.92 13.3492 27.08 12.7479 27.25C12.6358 27.28 12.5238 27.32 12.4015 27.35C12.3505 29.9 12.2996 32.46 12.2384 35.01C12.2078 36.31 12.1875 37.6 12.1569 38.9L12.1467 38.88Z" fill="#030305"/>
<path d="M22.3984 30.94C22.6226 34.15 22.857 37.36 23.0812 40.57C23.0812 40.63 23.1016 40.68 23.1219 40.72C23.1729 40.86 23.3156 40.97 23.499 40.9C23.9983 40.72 24.6709 40.8 25.211 40.8C25.3842 40.8 25.5677 40.65 25.5575 40.47C25.3231 37.24 25.0989 34.01 24.8645 30.77C24.8543 30.6 24.7218 30.42 24.5282 30.43C23.8964 30.46 23.2646 30.53 22.643 30.62C22.5105 30.64 22.3781 30.8 22.3882 30.94H22.3984Z" fill="#030305"/>
<path d="M31.2232 37.63C31.2232 37.63 31.2538 37.63 31.264 37.64C31.2742 37.64 31.2844 37.65 31.3048 37.66C32.3544 38.09 33.8218 38.57 33.1696 39.99C32.6703 41.06 31.4576 41.53 30.3978 41.9C30.2348 41.96 30.0921 42.13 30.1532 42.31C30.3672 42.9 30.7035 43.42 30.9481 44C30.9991 44.12 31.2029 44.2 31.3251 44.16C32.8435 43.6 34.4027 42.84 35.2383 41.4C35.9822 40.09 36.0331 38.43 35.0956 37.2C34.1988 36.02 32.7518 35.87 31.5799 35.08C30.673 34.47 30.4488 33.33 30.9685 32.38C31.4678 31.46 32.4665 30.92 33.4346 30.61C33.5976 30.56 33.7403 30.38 33.6791 30.2C33.4651 29.64 33.2613 29.09 33.0473 28.53C32.9862 28.37 32.8231 28.23 32.6295 28.29C30.5099 28.99 28.6451 30.45 28.2782 32.73C27.9215 35.01 29.1749 36.73 31.213 37.64L31.2232 37.63Z" fill="#030305"/>
<path d="M40.2827 35.44C40.6496 35.53 41.0266 35.59 41.3731 35.72C42.2495 36.04 41.9641 36.76 41.475 37.29C40.7922 38.02 39.9261 38.57 39.0293 39.02C38.907 39.08 38.8255 39.26 38.8662 39.39C39.0802 39.98 39.3452 40.53 39.6305 41.09C39.7121 41.26 39.9363 41.29 40.0891 41.22C41.9845 40.28 45.1028 38.18 44.5118 35.7C44.1959 34.37 42.9017 33.61 41.6381 33.28C41.2304 33.17 40.7515 33.14 40.3846 32.93C39.5286 32.44 39.9974 31.43 40.6292 31.02C41.4343 30.5 42.3921 30.71 43.2176 30.33C43.3399 30.27 43.4214 30.09 43.3806 29.96C43.187 29.42 42.9628 28.88 42.7896 28.33C42.7488 28.2 42.6163 28.07 42.4635 28.08C40.4152 28.25 38.2344 29.02 37.5822 31.13C36.9199 33.27 38.2446 34.86 40.2725 35.46L40.2827 35.44Z" fill="#030305"/>
<path d="M23.3667 29.19C23.3667 29.19 23.4177 29.19 23.4483 29.19C23.4788 29.19 23.4992 29.19 23.5298 29.19C24.9157 29.08 24.9259 26.95 23.4788 26.93C22.042 26.91 21.991 29.04 23.3667 29.19Z" fill="#030305"/>
<path d="M20.1667 7C20.1667 6.95 20.1667 6.9 20.1463 6.84C19.647 4.56 19.1477 2.28 18.6483 0C18.0369 0.04 17.4356 0.0799951 16.8242 0.119995C17.3236 2.39 17.8229 4.65999 18.3121 6.92999C18.9337 6.93999 19.5451 6.97 20.1667 7Z" fill="#030305"/>
<path d="M30.1432 8.23C29.9394 5.64 29.7356 3.04999 29.542 0.459991C28.9407 0.489991 28.3395 0.529992 27.7383 0.569992C27.9319 3.06999 28.1255 5.56 28.3191 8.06C28.9305 8.11 29.5318 8.16999 30.1432 8.23999V8.23Z" fill="#030305"/>
<path d="M39.9263 8.82999C40.1098 6.09999 40.3034 3.36999 40.4868 0.649994C39.8856 0.579994 39.2945 0.509993 38.6933 0.429993C38.6933 0.439993 38.6933 0.459986 38.6933 0.469986C38.5099 3.18999 38.3162 5.92 38.1328 8.64C38.7341 8.71 39.3251 8.79 39.9263 8.87C39.9263 8.85999 39.9263 8.83999 39.9263 8.82999Z" fill="#030305"/>
<path d="M39.1621 61.45C39.1621 61.5 39.1723 61.55 39.1927 61.61C39.7837 63.87 40.385 66.13 40.976 68.38C41.5773 68.32 42.1887 68.25 42.7899 68.19C42.1989 65.94 41.6078 63.69 41.0168 61.45C40.3952 61.46 39.7837 61.46 39.1621 61.45Z" fill="#030305"/>
<path d="M29.1445 60.63C29.4502 63.21 29.7662 65.79 30.0719 68.37C30.6731 68.32 31.2642 68.26 31.8654 68.19C31.5699 65.7 31.2743 63.22 30.9686 60.73C30.3572 60.7 29.7458 60.67 29.1445 60.63Z" fill="#030305"/>
<path d="M19.3414 60.41C19.27 63.14 19.1987 65.88 19.1172 68.61C19.7184 68.66 20.3197 68.71 20.9209 68.75C20.9209 68.74 20.9209 68.72 20.9209 68.71C20.9923 65.98 21.0636 63.25 21.1451 60.53C20.5439 60.48 19.9426 60.43 19.3414 60.37C19.3414 60.38 19.3414 60.4 19.3414 60.41Z" fill="#030305"/>
</svg>
