<svg width="74" height="148" viewBox="0 0 74 148" fill="none" xmlns="http://www.w3.org/2000/svg">
<g style="mix-blend-mode:multiply">
<path d="M71.4175 130.346C70.0775 128.176 67.8575 126.526 65.3175 126.076C62.7275 125.626 60.2775 126.506 58.4275 128.336C56.9375 129.806 55.9875 131.626 55.1775 133.516C55.5275 128.686 55.6575 123.546 51.5775 120.346C49.3875 118.626 46.4675 118.396 43.9175 119.426C41.3575 120.456 39.4575 122.616 38.3175 125.096C37.6775 126.496 37.2775 127.956 37.0175 129.446C36.7675 128.326 36.4675 127.216 36.0975 126.126C35.2675 123.656 34.0375 121.046 31.6975 119.676C29.2575 118.256 26.0775 118.706 23.8375 120.316C21.5075 121.986 20.0775 124.626 19.3375 127.346C18.8875 129.006 18.6775 130.716 18.7075 132.436C18.1875 131.396 17.5875 130.396 16.8375 129.486C15.1275 127.406 12.5475 125.806 9.77753 125.896C7.16753 125.976 4.83753 127.536 3.32753 129.606C1.54753 132.036 1.06752 135.206 1.25752 138.156C1.46752 141.336 2.24752 144.626 4.23752 147.176H70.5175C70.5175 147.176 70.5375 147.146 70.5475 147.126C72.8775 141.946 74.6575 135.596 71.4275 130.366L71.4175 130.346ZM10.3575 136.986C10.1575 137.176 9.90753 137.276 9.65753 137.296C9.59753 137.306 9.54752 137.316 9.48752 137.306C9.05752 137.256 8.68753 137.066 8.46753 136.676C8.28753 136.366 8.22753 135.966 8.35753 135.626C8.63753 134.896 9.56752 134.586 10.2275 135.026C10.8875 135.466 10.9275 136.446 10.3575 136.986ZM12.8175 142.636C12.6175 142.826 12.3675 142.926 12.1175 142.946C12.0575 142.956 12.0075 142.966 11.9475 142.956C11.5175 142.906 11.1475 142.716 10.9275 142.326C10.7475 142.016 10.6875 141.616 10.8175 141.276C11.0975 140.546 12.0275 140.236 12.6875 140.676C13.3475 141.116 13.3875 142.096 12.8175 142.636ZM26.5775 129.106C26.3975 128.796 26.3375 128.396 26.4675 128.056C26.7475 127.326 27.6775 127.016 28.3375 127.456C28.9975 127.896 29.0375 128.876 28.4675 129.416C28.2675 129.606 28.0175 129.706 27.7675 129.726C27.7075 129.736 27.6575 129.746 27.5975 129.736C27.1675 129.686 26.7975 129.496 26.5775 129.106ZM27.5675 135.446C27.3875 135.136 27.3275 134.736 27.4575 134.396C27.7375 133.666 28.6675 133.356 29.3275 133.796C29.9875 134.236 30.0275 135.216 29.4575 135.756C29.2575 135.946 29.0075 136.046 28.7575 136.066C28.6975 136.076 28.6475 136.086 28.5875 136.076C28.1575 136.026 27.7875 135.836 27.5675 135.446ZM30.3575 142.386C30.1575 142.576 29.9075 142.676 29.6575 142.696C29.5975 142.706 29.5475 142.716 29.4875 142.706C29.0575 142.656 28.6875 142.466 28.4675 142.076C28.2875 141.766 28.2275 141.366 28.3575 141.026C28.6375 140.296 29.5675 139.986 30.2275 140.426C30.8875 140.866 30.9275 141.846 30.3575 142.386ZM45.5575 141.936C45.3275 142.326 44.9675 142.516 44.5375 142.566C44.4775 142.566 44.4175 142.566 44.3675 142.556C44.1175 142.536 43.8775 142.436 43.6675 142.246C43.0975 141.716 43.1375 140.726 43.7975 140.286C44.4575 139.846 45.3875 140.166 45.6675 140.886C45.7975 141.226 45.7375 141.626 45.5575 141.936ZM46.4575 135.296C46.2275 135.686 45.8675 135.876 45.4375 135.926C45.3775 135.926 45.3175 135.926 45.2675 135.916C45.0175 135.896 44.7775 135.796 44.5675 135.606C43.9975 135.076 44.0375 134.086 44.6975 133.646C45.3575 133.206 46.2875 133.526 46.5675 134.246C46.6975 134.586 46.6375 134.986 46.4575 135.296ZM47.4375 128.956C47.2075 129.346 46.8475 129.536 46.4175 129.586C46.3575 129.586 46.2975 129.586 46.2475 129.576C45.9975 129.556 45.7575 129.456 45.5475 129.266C44.9775 128.736 45.0175 127.746 45.6775 127.306C46.3375 126.866 47.2675 127.186 47.5475 127.906C47.6775 128.246 47.6175 128.646 47.4375 128.956ZM63.0975 142.186C62.8675 142.576 62.5075 142.766 62.0775 142.816C62.0175 142.816 61.9575 142.816 61.9075 142.806C61.6575 142.786 61.4175 142.686 61.2075 142.496C60.6375 141.966 60.6775 140.976 61.3375 140.536C61.9975 140.096 62.9275 140.416 63.2075 141.136C63.3375 141.476 63.2775 141.876 63.0975 142.186ZM65.5675 136.536C65.3375 136.926 64.9775 137.116 64.5475 137.166C64.4875 137.166 64.4275 137.166 64.3775 137.156C64.1275 137.136 63.8875 137.036 63.6775 136.846C63.1075 136.316 63.1475 135.326 63.8075 134.886C64.4675 134.446 65.3975 134.766 65.6775 135.486C65.8075 135.826 65.7475 136.226 65.5675 136.536Z" fill="#009A4C"/>
<path d="M10.2172 135.036C9.55717 134.596 8.62716 134.916 8.34716 135.636C8.21716 135.976 8.27716 136.376 8.45716 136.686C8.68716 137.076 9.04717 137.266 9.47717 137.316C9.53717 137.316 9.59716 137.316 9.64716 137.306C9.89716 137.286 10.1372 137.186 10.3472 136.996C10.9172 136.466 10.8772 135.476 10.2172 135.036Z" fill="#EDE8D4"/>
<path d="M27.777 129.716C28.027 129.696 28.267 129.596 28.477 129.406C29.047 128.876 29.007 127.886 28.347 127.446C27.687 127.006 26.757 127.326 26.477 128.046C26.347 128.386 26.407 128.786 26.587 129.096C26.817 129.486 27.177 129.676 27.607 129.726C27.667 129.726 27.727 129.726 27.777 129.716Z" fill="#EDE8D4"/>
<path d="M28.7673 136.056C29.0173 136.036 29.2573 135.936 29.4673 135.746C30.0373 135.216 29.9973 134.226 29.3373 133.786C28.6773 133.346 27.7473 133.666 27.4673 134.386C27.3373 134.726 27.3973 135.126 27.5773 135.436C27.8073 135.826 28.1673 136.016 28.5973 136.066C28.6573 136.066 28.7173 136.066 28.7673 136.056Z" fill="#EDE8D4"/>
<path d="M30.2279 140.426C29.5679 139.986 28.6379 140.306 28.3579 141.026C28.2279 141.366 28.2879 141.766 28.4679 142.076C28.6979 142.466 29.0579 142.656 29.4879 142.706C29.5479 142.706 29.6079 142.706 29.6579 142.696C29.9079 142.676 30.1479 142.576 30.3579 142.386C30.9279 141.856 30.8879 140.866 30.2279 140.426Z" fill="#EDE8D4"/>
<path d="M45.6779 127.306C45.0179 127.746 44.9779 128.726 45.5479 129.266C45.7479 129.456 45.9979 129.556 46.2479 129.576C46.3079 129.586 46.3579 129.596 46.4179 129.586C46.8479 129.536 47.2179 129.346 47.4379 128.956C47.6179 128.646 47.6779 128.246 47.5479 127.906C47.2679 127.176 46.3379 126.866 45.6779 127.306Z" fill="#EDE8D4"/>
<path d="M44.6974 133.646C44.0374 134.086 43.9974 135.066 44.5674 135.606C44.7674 135.796 45.0174 135.896 45.2674 135.916C45.3274 135.926 45.3774 135.936 45.4374 135.926C45.8674 135.876 46.2374 135.686 46.4574 135.296C46.6374 134.986 46.6974 134.586 46.5674 134.246C46.2874 133.516 45.3574 133.206 44.6974 133.646Z" fill="#EDE8D4"/>
<path d="M43.798 140.286C43.138 140.726 43.098 141.706 43.668 142.246C43.868 142.436 44.118 142.536 44.368 142.556C44.428 142.566 44.478 142.576 44.538 142.566C44.968 142.516 45.338 142.326 45.558 141.936C45.738 141.626 45.798 141.226 45.668 140.886C45.388 140.156 44.458 139.846 43.798 140.286Z" fill="#EDE8D4"/>
<path d="M12.6879 140.686C12.0279 140.246 11.0979 140.566 10.8179 141.286C10.6879 141.626 10.7479 142.026 10.9279 142.336C11.1579 142.726 11.5179 142.916 11.9479 142.966C12.0079 142.966 12.0679 142.966 12.1179 142.956C12.3679 142.936 12.6079 142.836 12.8179 142.646C13.3879 142.116 13.3479 141.126 12.6879 140.686Z" fill="#EDE8D4"/>
<path d="M63.8078 134.886C63.1478 135.326 63.1077 136.306 63.6777 136.846C63.8777 137.036 64.1278 137.136 64.3778 137.156C64.4378 137.166 64.4877 137.176 64.5477 137.166C64.9777 137.116 65.3478 136.926 65.5678 136.536C65.7478 136.226 65.8077 135.826 65.6777 135.486C65.3977 134.756 64.4678 134.446 63.8078 134.886Z" fill="#EDE8D4"/>
<path d="M61.337 140.536C60.677 140.976 60.637 141.956 61.207 142.496C61.407 142.686 61.6571 142.786 61.9071 142.806C61.9671 142.816 62.017 142.826 62.077 142.816C62.507 142.766 62.8771 142.576 63.0971 142.186C63.2771 141.876 63.337 141.476 63.207 141.136C62.927 140.406 61.997 140.096 61.337 140.536Z" fill="#EDE8D4"/>
</g>
<g style="mix-blend-mode:multiply">
<path d="M22.7761 73.0757C23.8061 72.9557 24.8561 72.8857 25.9061 72.8757L25.4161 64.8957C23.5561 65.2557 21.6461 65.4157 19.7461 65.3657L19.9761 73.5057C20.1661 73.4857 20.3461 73.4657 20.5361 73.4457C21.2761 73.2957 22.0261 73.1757 22.7761 73.0857V73.0757Z" fill="#FF55AF"/>
<path d="M21.0061 110.586L22.0261 147.346C22.5461 147.306 23.0661 147.276 23.5861 147.236C25.7261 147.076 27.8561 147.016 29.9961 146.946C30.1461 146.946 30.2861 146.946 30.4361 146.936L28.1661 109.956C25.8261 110.506 23.4061 110.716 20.9961 110.596L21.0061 110.586Z" fill="#FF55AF"/>
<path d="M23.1361 27.6557L22.6961 20.5057C21.3061 20.6757 19.8961 20.6957 18.4961 20.5657L18.7061 28.1957C19.4361 28.0457 20.1761 27.9257 20.9261 27.8357C21.6561 27.7457 22.3861 27.6857 23.1361 27.6557Z" fill="#FF55AF"/>
<path d="M13.0259 84.9457C11.2259 86.8557 10.1759 89.2957 10.2159 91.9357C10.2559 94.4357 11.236 96.9157 12.876 98.7957C14.596 100.766 17.046 102.056 19.596 102.556C19.996 102.636 20.386 102.696 20.786 102.736L20.176 80.6757C17.526 81.5857 14.9659 82.8857 13.0259 84.9357V84.9457Z" fill="#009A4C"/>
<path d="M9.16592 84.5657C7.02592 87.1157 5.88592 90.2857 6.14592 93.6157C6.38592 96.7657 7.80591 99.8357 10.0259 102.096C12.3459 104.456 15.5359 105.906 18.8059 106.356C19.5059 106.456 20.2059 106.496 20.9059 106.506L20.8259 103.706C19.6459 103.596 18.4659 103.336 17.3159 102.916C14.6859 101.946 12.4059 100.176 10.9559 97.7657C9.57591 95.4857 8.97591 92.6757 9.40591 90.0357C9.87591 87.1957 11.5559 84.7557 13.7859 82.9757C14.7959 82.1657 15.8959 81.5057 17.0559 80.9457C17.0959 80.8757 17.1659 80.8157 17.2559 80.7657C17.9559 80.4057 18.6659 80.0857 19.3959 79.8157C19.6459 79.7257 19.9059 79.6357 20.1559 79.5557L20.1059 77.8357C19.4259 78.0657 18.7559 78.3157 18.0959 78.5857C14.7459 79.9357 11.5259 81.7957 9.17591 84.5857L9.16592 84.5657Z" fill="#009A4C"/>
<path d="M15.926 106.946C12.536 105.916 9.51599 103.846 7.49599 100.916C5.58599 98.1357 4.606 94.6257 4.956 91.2557C5.336 87.6257 7.286 84.4157 9.956 81.9957C11.176 80.8957 12.516 79.9757 13.936 79.1857C13.986 79.0957 14.056 79.0057 14.176 78.9457C15.026 78.4457 15.906 77.9857 16.816 77.5857C17.866 77.1257 18.946 76.7357 20.056 76.4257L19.976 73.5057C16.746 73.9057 13.596 74.9657 10.836 76.7457C6.906 79.2857 3.85599 83.2057 2.54599 87.7157C1.16599 92.4457 1.846 97.7857 4.506 101.966C7.066 105.996 11.366 108.606 15.926 109.806C17.586 110.246 19.296 110.506 21.016 110.596L20.936 107.706C19.266 107.706 17.596 107.456 15.936 106.956L15.926 106.946Z" fill="#009A4C"/>
<path d="M37.4763 75.8157C34.0663 73.7057 29.9363 72.8457 25.9062 72.8757L26.0762 75.6757C26.8462 75.7057 27.6063 75.7757 28.3663 75.8957C32.0363 76.5057 35.5663 78.2657 37.9563 81.1557C40.2763 83.9557 41.5462 87.6957 40.9962 91.3257C40.4262 95.1557 38.2063 98.5957 35.5363 101.316C33.3763 103.516 30.7763 105.256 27.9463 106.356L28.1663 109.936C33.7763 108.626 38.8863 105.426 42.0963 100.476C44.6363 96.5557 45.7762 91.7957 44.9562 87.1657C44.1362 82.5357 41.4863 78.2957 37.4563 75.8057L37.4763 75.8157Z" fill="#009A4C"/>
<path d="M28.5663 79.0057C31.4263 79.6557 34.1262 81.2057 35.8862 83.5957C37.5862 85.9157 38.4063 88.9157 37.8063 91.7557C37.1763 94.7457 35.2663 97.3557 33.0363 99.3757C31.4763 100.786 29.6663 101.916 27.7363 102.666L27.8862 105.096C31.1362 103.746 34.0362 101.506 36.2462 98.7057C38.4762 95.8857 40.1863 92.4257 39.8963 88.7457C39.6363 85.3657 37.7863 82.1458 35.1263 80.0658C32.5763 78.0658 29.3763 77.0157 26.1562 76.8757L26.2663 78.6757C27.0363 78.7157 27.8063 78.8257 28.5663 78.9957V79.0057Z" fill="#009A4C"/>
<path d="M33.7062 97.3657C35.5962 95.2457 37.0962 92.6057 37.0462 89.6857C36.9962 87.0057 35.6862 84.3857 33.6962 82.6257C31.6662 80.8257 29.0162 79.8357 26.3262 79.6557L27.6762 101.686C29.9662 100.736 32.0462 99.2357 33.7062 97.3657Z" fill="#009A4C"/>
<path d="M26.1768 79.6357C25.0168 79.5657 23.8568 79.6557 22.7168 79.8557C22.6568 79.9157 22.5867 79.9557 22.4967 79.9757C21.7767 80.1657 21.0468 80.3757 20.3368 80.6157C20.2868 80.6357 20.2268 80.6557 20.1768 80.6657L20.7868 102.726C23.1568 102.966 25.5068 102.566 27.6668 101.666L26.3168 79.6357C26.2668 79.6357 26.2168 79.6357 26.1668 79.6257L26.1768 79.6357Z" fill="#46262F"/>
<path d="M26.2667 78.6857L26.1567 76.8857C25.9067 76.8757 25.6467 76.8657 25.3967 76.8657C23.9167 76.8657 22.4667 77.0657 21.0367 77.4057C20.9667 77.4857 20.8767 77.5457 20.7667 77.5757C20.5467 77.6457 20.3167 77.7257 20.0967 77.8057L20.1467 79.5257C22.1167 78.8857 24.1967 78.5657 26.2667 78.6857Z" fill="#46262F"/>
<path d="M20.8164 103.696L20.8964 106.496C23.3164 106.516 25.6764 106.016 27.8864 105.106L27.7364 102.676C25.5364 103.536 23.1764 103.916 20.8164 103.696Z" fill="#46262F"/>
<path d="M26.0766 75.6757L25.9066 72.8757C24.8466 72.8757 23.7966 72.9557 22.7766 73.0757C22.0266 73.1657 21.2766 73.2857 20.5366 73.4357C20.3466 73.4557 20.1666 73.4757 19.9766 73.4957L20.0566 76.4157C22.0166 75.8757 24.0466 75.6057 26.0766 75.6657V75.6757Z" fill="#46262F"/>
<path d="M20.9268 107.696L21.0068 110.586C23.4168 110.706 25.8368 110.496 28.1768 109.946L27.9568 106.366C25.7168 107.236 23.3368 107.716 20.9268 107.706V107.696Z" fill="#46262F"/>
<path d="M27.0867 33.2957C29.9467 33.9457 32.6467 35.4957 34.4067 37.8857C36.1067 40.2057 36.9267 43.2057 36.3267 46.0457C35.6967 49.0357 33.7867 51.6457 31.5567 53.6657C29.6567 55.3857 27.3867 56.6857 24.9667 57.3957L25.1067 59.7457C28.9067 58.5057 32.3267 56.0357 34.8367 52.8557C37.0667 50.0357 38.7767 46.5757 38.4867 42.8957C38.2267 39.5157 36.3767 36.2957 33.7167 34.2157C30.9667 32.0557 27.4567 31.0057 23.9867 31.0157C23.7767 31.0157 23.5567 31.0157 23.3467 31.0257L23.4667 32.9557C24.6767 32.9157 25.8967 33.0257 27.0867 33.2957Z" fill="#009A4C"/>
<path d="M26.966 30.0457C30.636 30.6557 34.166 32.4157 36.556 35.3057C38.876 38.1057 40.146 41.8457 39.596 45.4757C39.026 49.3057 36.806 52.7457 34.136 55.4657C31.626 58.0257 28.526 59.9457 25.176 60.9857L25.416 64.8957C31.376 63.7357 36.876 60.4557 40.266 55.2357C42.806 51.3157 43.946 46.5557 43.126 41.9257C42.306 37.2957 39.656 33.0557 35.626 30.5657C31.956 28.2957 27.446 27.4657 23.126 27.6457L23.256 29.8157C24.486 29.7657 25.726 29.8357 26.956 30.0357L26.966 30.0457Z" fill="#009A4C"/>
<path d="M32.2166 51.6457C34.1066 49.5257 35.6066 46.8857 35.5566 43.9657C35.5066 41.2857 34.1966 38.6657 32.2066 36.9057C30.1366 35.0757 27.4266 34.0757 24.6866 33.9257C24.2966 33.9057 23.9066 33.8957 23.5166 33.9057L24.8966 56.4357C27.6866 55.5557 30.2466 53.8657 32.2166 51.6457Z" fill="#009A4C"/>
<path d="M18.8467 34.9057C16.1467 35.8157 13.5167 37.1257 11.5367 39.2257C9.73669 41.1357 8.68669 43.5757 8.72669 46.2157C8.76669 48.7157 9.74668 51.1957 11.3867 53.0757C13.1067 55.0457 15.5567 56.3357 18.1067 56.8357C18.5767 56.9257 19.0367 56.9957 19.5067 57.0357L18.8867 34.8857C18.8867 34.8857 18.8567 34.8957 18.8367 34.9057H18.8467Z" fill="#009A4C"/>
<path d="M15.8265 57.1857C13.1965 56.2157 10.9165 54.4457 9.4665 52.0357C8.0865 49.7557 7.48652 46.9457 7.91652 44.3057C8.38652 41.4657 10.0665 39.0257 12.2965 37.2457C13.3065 36.4357 14.4065 35.7757 15.5665 35.2157C15.6065 35.1457 15.6765 35.0857 15.7665 35.0357C16.4665 34.6757 17.1765 34.3557 17.9065 34.0857C18.2265 33.9657 18.5465 33.8557 18.8765 33.7557L18.8265 31.9157C18.1065 32.1657 17.3965 32.4257 16.6865 32.7057C13.3365 34.0557 10.1165 35.9157 7.76651 38.7057C5.62651 41.2557 4.4865 44.4257 4.7465 47.7557C4.9865 50.9057 6.40651 53.9757 8.62651 56.2357C10.9465 58.5957 14.1365 60.0457 17.4065 60.4957C18.1465 60.5957 18.8965 60.6457 19.6265 60.6457L19.5565 58.0057C18.3065 57.9057 17.0565 57.6457 15.8365 57.1957L15.8265 57.1857Z" fill="#009A4C"/>
<path d="M14.5264 61.0957C11.1364 60.0657 8.11638 57.9957 6.09638 55.0657C4.18638 52.2857 3.20639 48.7757 3.55639 45.4057C3.93639 41.7757 5.88639 38.5657 8.55639 36.1457C9.77639 35.0457 11.1164 34.1257 12.5364 33.3357C12.5864 33.2457 12.6564 33.1557 12.7764 33.0957C13.6264 32.5957 14.5064 32.1357 15.4164 31.7357C16.5064 31.2557 17.6364 30.8557 18.7764 30.5457L18.7064 28.2057H18.6864C15.2564 28.5457 11.9064 29.6257 8.98638 31.5057C5.05638 34.0457 2.00639 37.9657 0.696388 42.4757C-0.683612 47.2057 -0.00362086 52.5457 2.65638 56.7257C5.21638 60.7557 9.51638 63.3657 14.0764 64.5657C15.9264 65.0557 17.8364 65.3257 19.7564 65.3757L19.6564 61.8557C17.9464 61.8557 16.2264 61.6157 14.5264 61.1057V61.0957Z" fill="#009A4C"/>
<path d="M23.2661 29.8257L23.136 27.6557C22.396 27.6857 21.6561 27.7457 20.9261 27.8357C20.1861 27.9257 19.4461 28.0457 18.7061 28.1957L18.776 30.5357C20.246 30.1357 21.7561 29.8957 23.2661 29.8257Z" fill="#46262F"/>
<path d="M19.5459 57.9957L19.6159 60.6357C21.4959 60.6357 23.3359 60.3257 25.1059 59.7557L24.9659 57.4057C23.2159 57.9257 21.3759 58.1457 19.5459 58.0057V57.9957Z" fill="#46262F"/>
<path d="M19.3564 31.7257C19.1764 31.7857 18.9964 31.8457 18.8164 31.9057L18.8664 33.7457C20.3564 33.2757 21.9064 32.9957 23.4564 32.9557L23.3364 31.0257C22.0764 31.0757 20.8364 31.2557 19.6264 31.5557C19.5564 31.6357 19.4664 31.6957 19.3564 31.7257Z" fill="#46262F"/>
<path d="M24.8965 56.4357L23.5165 33.9057C22.7465 33.9257 21.9865 34.0057 21.2265 34.1457C21.1665 34.2057 21.0965 34.2457 21.0065 34.2657C20.2965 34.4557 19.5965 34.6557 18.8965 34.8957L19.5165 57.0457C21.3465 57.2057 23.1665 56.9757 24.8965 56.4357Z" fill="#46262F"/>
<path d="M25.4165 64.8957L25.1765 60.9857C23.3865 61.5357 21.5265 61.8357 19.6465 61.8457L19.7465 65.3657C21.6465 65.4157 23.5565 65.2657 25.4165 64.8957Z" fill="#46262F"/>
<path d="M16.7366 18.8057C14.4566 18.2157 12.4966 17.0257 11.2066 15.4557C9.91657 13.8857 9.29657 11.9357 9.51657 10.1257C9.73657 8.26572 10.8866 6.45572 12.7566 5.03572C13.4966 4.47572 14.3366 3.97572 15.3266 3.51572C15.3666 3.45572 15.4166 3.41572 15.4966 3.37572C16.0866 3.08572 16.6466 2.84573 17.2066 2.63573C19.7266 1.70573 22.3266 1.40572 24.7366 1.75572C27.2966 2.12572 29.5266 3.16571 31.0166 4.68571C32.6166 6.30571 33.3766 8.40572 33.0466 10.3057C32.6366 12.6857 30.8966 14.5957 29.5166 15.7857C27.5466 17.4757 25.1266 18.5757 22.6066 19.0157L22.6966 20.4957C26.9066 19.9857 30.8766 18.1157 33.2666 15.0257C34.9266 12.8757 35.6866 10.2657 35.1766 7.74573C34.6666 5.21573 32.9666 2.91572 30.3766 1.56572C27.6066 0.125718 24.0866 -0.224284 20.8766 0.125716C20.3866 0.175716 19.9066 0.245723 19.4266 0.335723C17.2066 0.535723 15.0366 1.13571 13.1466 2.18571C10.5966 3.58571 8.60657 5.74571 7.73657 8.21571C6.82657 10.8057 7.24658 13.7257 8.94658 15.9957C10.5866 18.1857 13.3566 19.5957 16.2966 20.2357C17.0166 20.3957 17.7566 20.5057 18.4966 20.5757L18.4566 19.1457C17.8766 19.0757 17.2966 18.9657 16.7366 18.8257V18.8057Z" fill="#009A4C"/>
<path d="M29.8166 9.22571C29.6766 7.83571 28.7766 6.4557 27.3966 5.5457C26.0566 4.6557 24.3066 4.1657 22.4766 4.1557C21.7566 4.1557 21.0266 4.2257 20.2866 4.3757C20.2466 4.4057 20.1966 4.4357 20.1366 4.4557C19.6066 4.6057 19.1766 4.73571 18.7866 4.86571C16.7966 5.53571 15.3266 6.35571 14.2966 7.39571C13.1966 8.49571 12.6666 9.8557 12.7966 11.2157C12.9266 12.5357 13.6466 13.8457 14.7666 14.8157C15.9066 15.7857 17.4766 16.4357 19.2066 16.6457C22.4166 17.0257 25.7866 15.8057 27.9966 13.4457C29.3366 12.0157 29.9466 10.6057 29.8066 9.2357L29.8166 9.22571Z" fill="#009A4C"/>
<path d="M22.5468 18.0457V18.2257C25.3267 17.7057 27.9468 16.3257 29.8768 14.2757C31.5868 12.4457 32.3668 10.6357 32.1968 8.88574C32.0168 7.09574 30.8568 5.33574 29.0968 4.16574C27.3768 3.02574 25.1368 2.39574 22.7968 2.38574C21.8767 2.38574 20.9367 2.47574 19.9967 2.66574C19.9467 2.70574 19.8868 2.74573 19.8068 2.76573C19.1268 2.95573 18.5767 3.11574 18.0767 3.28574C15.5267 4.13574 13.6467 5.19574 12.3267 6.52574C10.9267 7.93574 10.2468 9.67574 10.4068 11.4157C10.5668 13.1057 11.4867 14.7857 12.9367 16.0257C14.3467 17.2357 16.2967 18.0557 18.4367 18.3457V18.2257L22.5468 18.0557V18.0457ZM17.7368 16.9657C15.9568 16.5057 14.4268 15.5757 13.4168 14.3557C12.4068 13.1257 11.9268 11.6057 12.0968 10.1857C12.2668 8.73573 13.1668 7.32573 14.6268 6.21573C15.2068 5.77573 15.8667 5.38574 16.6367 5.02574C16.6667 4.98574 16.7068 4.94574 16.7668 4.91574C17.2268 4.68574 17.6667 4.50574 18.1067 4.33574C20.0667 3.61574 22.1068 3.37574 23.9868 3.64574C25.9868 3.93574 27.7268 4.74574 28.8968 5.92574C30.1468 7.19574 30.7368 8.83573 30.4768 10.3157C30.1568 12.1757 28.7967 13.6657 27.7167 14.5957C25.7967 16.2457 23.3368 17.1757 20.8468 17.2757C19.7968 17.3157 18.7468 17.2157 17.7368 16.9457V16.9657Z" fill="#009A4C"/>
<path d="M22.5565 18.2257V18.0457L18.4365 18.2157V18.3357C18.4965 18.3357 18.5565 18.3557 18.6265 18.3557C19.9365 18.5157 21.2665 18.4557 22.5665 18.2157L22.5565 18.2257Z" fill="#46262F"/>
<path d="M22.6961 20.4957L22.606 19.0157C21.986 19.1257 21.356 19.1957 20.716 19.2157C19.956 19.2457 19.2061 19.2157 18.4561 19.1257L18.496 20.5557C19.886 20.6857 21.3061 20.6657 22.6961 20.4957Z" fill="#46262F"/>
<path d="M39.6064 45.4757C40.1564 41.8357 38.8864 38.1057 36.5664 35.3057C34.1764 32.4157 30.6364 30.6557 26.9764 30.0457C25.7464 29.8457 24.5064 29.7757 23.2764 29.8257L23.3464 31.0257C23.5564 31.0257 23.7764 31.0157 23.9864 31.0157C27.4664 31.0057 30.9664 32.0657 33.7164 34.2157C36.3664 36.2957 38.2264 39.5157 38.4864 42.8957C38.7764 46.5857 37.0664 50.0357 34.8364 52.8557C32.3264 56.0357 28.9064 58.5057 25.1064 59.7457L25.1864 60.9757C28.5364 59.9357 31.6364 58.0157 34.1464 55.4557C36.8164 52.7357 39.0364 49.2857 39.6064 45.4657V45.4757Z" fill="#EDE8D4"/>
<path d="M17.3968 60.4857C14.1368 60.0457 10.9368 58.5957 8.61682 56.2257C6.40682 53.9757 4.97681 50.9057 4.73681 47.7457C4.48681 44.4157 5.62681 41.2457 7.75681 38.6957C10.1068 35.8957 13.3268 34.0457 16.6768 32.6957C17.3768 32.4157 18.0968 32.1557 18.8168 31.9057L18.7768 30.5257C17.6268 30.8357 16.4968 31.2357 15.4168 31.7157C14.5068 32.1157 13.6368 32.5757 12.7768 33.0757C12.6668 33.1457 12.5868 33.2257 12.5368 33.3157C11.1168 34.1057 9.77682 35.0257 8.55682 36.1257C5.87682 38.5457 3.92682 41.7557 3.55682 45.3857C3.20682 48.7557 4.17681 52.2657 6.09681 55.0457C8.10681 57.9757 11.1268 60.0557 14.5268 61.0757C16.2268 61.5857 17.9468 61.8257 19.6568 61.8257L19.6268 60.6257C18.8868 60.6257 18.1468 60.5757 17.4068 60.4757L17.3968 60.4857Z" fill="#EDE8D4"/>
<path d="M19.6165 60.6357L19.6465 61.8357C21.5265 61.8357 23.3865 61.5357 25.1765 60.9757L25.0965 59.7457C23.3365 60.3257 21.4864 60.6357 19.6064 60.6257L19.6165 60.6357Z" fill="#FF55AF"/>
<path d="M19.3564 31.7257C19.4664 31.6857 19.5564 31.6257 19.6264 31.5557C20.8464 31.2557 22.0864 31.0757 23.3364 31.0257L23.2664 29.8257C21.7464 29.8857 20.2464 30.1357 18.7764 30.5357L18.8164 31.9157C18.9964 31.8557 19.1764 31.7957 19.3564 31.7357V31.7257Z" fill="#FF55AF"/>
<path d="M24.6861 33.9157C27.4261 34.0657 30.1361 35.0657 32.2061 36.8957C34.1961 38.6557 35.5061 41.2857 35.5561 43.9557C35.6061 46.8757 34.106 49.5157 32.216 51.6357C30.246 53.8457 27.6861 55.5457 24.8961 56.4257L24.9561 57.3957C27.3761 56.6757 29.6361 55.3857 31.5461 53.6657C33.7761 51.6457 35.6861 49.0357 36.3161 46.0457C36.9161 43.2057 36.0961 40.2057 34.3961 37.8857C32.6461 35.4957 29.946 33.9457 27.076 33.2957C25.886 33.0257 24.6661 32.9257 23.4561 32.9557L23.5161 33.9057C23.9061 33.8957 24.2961 33.9057 24.6861 33.9257V33.9157Z" fill="#EDE8D4"/>
<path d="M15.7565 35.0357C15.6665 35.0857 15.6065 35.1457 15.5565 35.2157C14.3965 35.7757 13.2965 36.4357 12.2865 37.2457C10.0665 39.0257 8.37653 41.4657 7.90653 44.3057C7.47653 46.9457 8.07653 49.7557 9.45653 52.0357C10.9065 54.4357 13.1865 56.2157 15.8165 57.1857C17.0365 57.6357 18.2865 57.8957 19.5365 57.9957L19.5065 57.0457C19.0365 57.0057 18.5765 56.9357 18.1065 56.8457C15.5565 56.3457 13.1065 55.0557 11.3865 53.0857C9.74653 51.2057 8.76654 48.7257 8.72654 46.2257C8.68654 43.5857 9.72654 41.1457 11.5365 39.2357C13.5165 37.1357 16.1465 35.8257 18.8465 34.9157C18.8665 34.9157 18.8765 34.9057 18.8965 34.8957L18.8665 33.7557C18.5365 33.8557 18.2165 33.9657 17.8965 34.0857C17.1665 34.3557 16.4565 34.6757 15.7565 35.0357Z" fill="#EDE8D4"/>
<path d="M21.0062 34.2657C21.0962 34.2457 21.1762 34.1957 21.2262 34.1457C21.9862 34.0057 22.7462 33.9257 23.5162 33.9057L23.4562 32.9557C21.8962 33.0057 20.3562 33.2857 18.8662 33.7457L18.8962 34.8857C19.5962 34.6557 20.2962 34.4457 21.0062 34.2557V34.2657Z" fill="#FF55AF"/>
<path d="M19.5166 57.0457L19.5466 57.9957C21.3766 58.1357 23.2066 57.9157 24.9666 57.3957L24.9066 56.4257C23.1766 56.9657 21.3566 57.1957 19.5266 57.0357L19.5166 57.0457Z" fill="#FF55AF"/>
<path d="M19.5968 102.556C17.0468 102.056 14.5968 100.766 12.8768 98.7957C11.2368 96.9157 10.2568 94.4357 10.2168 91.9357C10.1768 89.2957 11.2168 86.8557 13.0268 84.9457C14.9668 82.8957 17.5268 81.5857 20.1768 80.6857L20.1468 79.5357C19.8868 79.6157 19.6368 79.7057 19.3868 79.7957C18.6568 80.0657 17.9468 80.3857 17.2468 80.7457C17.1568 80.7957 17.0968 80.8557 17.0468 80.9257C15.8868 81.4857 14.7868 82.1457 13.7768 82.9557C11.5568 84.7357 9.86677 87.1757 9.39677 90.0157C8.96677 92.6557 9.56677 95.4657 10.9468 97.7457C12.3968 100.146 14.6768 101.926 17.3068 102.896C18.4568 103.316 19.6368 103.576 20.8168 103.686L20.7868 102.726C20.3868 102.686 19.9968 102.626 19.5968 102.546V102.556Z" fill="#EDE8D4"/>
<path d="M33.6966 82.6157C35.6866 84.3757 36.9966 87.0057 37.0466 89.6757C37.0966 92.5957 35.5966 95.2357 33.7066 97.3557C32.0366 99.2257 29.9666 100.726 27.6766 101.676L27.7366 102.676C29.6666 101.926 31.4766 100.796 33.0366 99.3857C35.2666 97.3657 37.1766 94.7557 37.8066 91.7657C38.4066 88.9257 37.5866 85.9257 35.8866 83.6057C34.1366 81.2157 31.4366 79.6657 28.5666 79.0157C27.8066 78.8457 27.0366 78.7357 26.2666 78.6957L26.3266 79.6557C29.0166 79.8357 31.6666 80.8257 33.6966 82.6257V82.6157Z" fill="#EDE8D4"/>
<path d="M27.7359 102.676L27.6759 101.676C25.5159 102.576 23.1559 102.976 20.7959 102.736L20.8259 103.696C23.1759 103.916 25.5459 103.536 27.7459 102.676H27.7359Z" fill="#FF55AF"/>
<path d="M20.3365 80.6257C21.0465 80.3857 21.7665 80.1757 22.4965 79.9857C22.5865 79.9657 22.6665 79.9157 22.7165 79.8657C23.8565 79.6557 25.0065 79.5757 26.1765 79.6457C26.2265 79.6457 26.2765 79.6457 26.3265 79.6557L26.2665 78.6957C24.1965 78.5757 22.1165 78.8957 20.1465 79.5357L20.1765 80.6857C20.2265 80.6657 20.2865 80.6457 20.3365 80.6357V80.6257Z" fill="#FF55AF"/>
<path d="M33.0462 10.3057C33.3762 8.40572 32.6162 6.30571 31.0162 4.68571C29.5162 3.16571 27.2862 2.12572 24.7362 1.75572C22.3262 1.40572 19.7262 1.71573 17.2062 2.63573C16.6362 2.84573 16.0762 3.08572 15.4962 3.37572C15.4262 3.41572 15.3662 3.45571 15.3262 3.51571C14.3362 3.97571 13.4962 4.47572 12.7562 5.03572C10.8862 6.45572 9.73622 8.26572 9.51622 10.1257C9.30622 11.9457 9.91622 13.8857 11.2062 15.4557C12.4862 17.0257 14.4562 18.2157 16.7362 18.8057C17.3062 18.9557 17.8762 19.0557 18.4562 19.1257L18.4362 18.3357C16.2962 18.0457 14.3462 17.2257 12.9362 16.0157C11.4962 14.7757 10.5762 13.0957 10.4062 11.4057C10.2362 9.66571 10.9162 7.92571 12.3262 6.51571C13.6462 5.19571 15.5262 4.13572 18.0762 3.27572C18.5762 3.10572 19.1262 2.94572 19.8062 2.75572C19.8762 2.73572 19.9462 2.70571 19.9962 2.65571C20.9362 2.46571 21.8762 2.37572 22.7962 2.37572C25.1362 2.37572 27.3762 3.01571 29.0962 4.15571C30.8662 5.32571 32.0162 7.08572 32.1962 8.87572C32.3662 10.6257 31.5862 12.4357 29.8762 14.2657C27.9462 16.3257 25.3362 17.7057 22.5562 18.2157L22.6062 19.0057C25.1262 18.5657 27.5462 17.4657 29.5162 15.7757C30.9062 14.5857 32.6362 12.6757 33.0462 10.2957V10.3057Z" fill="#EDE8D4"/>
<path d="M18.6165 18.3657C18.5565 18.3657 18.4965 18.3457 18.4365 18.3457L18.4565 19.1357C19.2065 19.2257 19.9665 19.2557 20.7165 19.2257C21.3465 19.1957 21.9765 19.1257 22.6065 19.0257L22.5565 18.2357C21.2565 18.4757 19.9265 18.5257 18.6165 18.3757V18.3657Z" fill="#FF55AF"/>
<path d="M27.7166 14.6057C28.7966 13.6757 30.1567 12.1857 30.4767 10.3257C30.7367 8.84571 30.1366 7.19571 28.8966 5.93571C27.7266 4.75571 25.9866 3.93571 23.9866 3.65571C22.1066 3.38571 20.0666 3.62571 18.1066 4.34571C17.6666 4.50571 17.2266 4.69572 16.7666 4.92572C16.7066 4.95572 16.6666 4.98572 16.6366 5.03572C15.8666 5.39572 15.2066 5.78572 14.6266 6.22572C13.1666 7.33572 12.2666 8.74572 12.0966 10.1957C11.9266 11.6157 12.4167 13.1357 13.4167 14.3657C14.4167 15.5857 15.9566 16.5157 17.7366 16.9757C18.7566 17.2357 19.8066 17.3457 20.8466 17.3057C23.3266 17.2057 25.7966 16.2657 27.7166 14.6257V14.6057ZM19.2066 16.6257C17.4766 16.4157 15.8966 15.7657 14.7666 14.7957C13.6366 13.8257 12.9166 12.5157 12.7966 11.1957C12.6666 9.83572 13.1966 8.47571 14.2966 7.37571C15.3266 6.34571 16.7966 5.51571 18.7866 4.84571C19.1766 4.71571 19.6066 4.58571 20.1366 4.43571C20.1966 4.41571 20.2466 4.39571 20.2866 4.35571C21.0166 4.20571 21.7566 4.13572 22.4766 4.13572C24.3066 4.13572 26.0566 4.63572 27.3966 5.52572C28.7766 6.43572 29.6766 7.81571 29.8166 9.20571C29.9466 10.5757 29.3366 11.9857 28.0066 13.4157C25.7966 15.7757 22.4266 16.9957 19.2166 16.6157L19.2066 16.6257Z" fill="#EDE8D4"/>
<path d="M18.7965 106.346C15.5365 105.906 12.3365 104.456 10.0165 102.086C7.80646 99.8357 6.37645 96.7657 6.13645 93.6057C5.88645 90.2757 7.02646 87.1057 9.15646 84.5557C11.5065 81.7557 14.7265 79.9057 18.0765 78.5557C18.7365 78.2857 19.4065 78.0457 20.0865 77.8057L20.0465 76.4157C18.9365 76.7257 17.8565 77.1157 16.8065 77.5757C15.8965 77.9757 15.0265 78.4357 14.1665 78.9357C14.0565 79.0057 13.9765 79.0857 13.9265 79.1757C12.5065 79.9657 11.1665 80.8857 9.94647 81.9857C7.26647 84.4057 5.31647 87.6157 4.94647 91.2457C4.59647 94.6157 5.56646 98.1257 7.48646 100.906C9.49646 103.836 12.5165 105.916 15.9165 106.936C17.5765 107.436 19.2465 107.676 20.9165 107.686L20.8865 106.486C20.1865 106.486 19.4965 106.436 18.7865 106.336L18.7965 106.346Z" fill="#EDE8D4"/>
<path d="M35.1267 80.0757C37.7767 82.1557 39.6367 85.3757 39.8967 88.7557C40.1867 92.4457 38.4767 95.8957 36.2467 98.7157C34.0367 101.506 31.1367 103.756 27.8867 105.106L27.9667 106.366C30.7867 105.266 33.3967 103.526 35.5567 101.326C38.2267 98.6057 40.4467 95.1557 41.0167 91.3357C41.5667 87.6957 40.2967 83.9657 37.9767 81.1657C35.5867 78.2757 32.0467 76.5157 28.3867 75.9057C27.6267 75.7757 26.8567 75.7057 26.0967 75.6857L26.1667 76.8957C29.3867 77.0357 32.5867 78.0857 35.1367 80.0857L35.1267 80.0757Z" fill="#EDE8D4"/>
<path d="M20.0566 76.4157L20.0966 77.8057C20.3166 77.7257 20.5366 77.6557 20.7666 77.5757C20.8766 77.5357 20.9666 77.4757 21.0366 77.4057C22.4566 77.0557 23.9166 76.8657 25.3966 76.8657C25.6466 76.8657 25.9066 76.8657 26.1566 76.8857L26.0866 75.6757C24.0566 75.6057 22.0266 75.8757 20.0666 76.4257L20.0566 76.4157Z" fill="#FF55AF"/>
<path d="M20.8967 106.496L20.9267 107.696C23.3367 107.706 25.7167 107.236 27.9567 106.356L27.8767 105.096C25.6767 106.006 23.3067 106.506 20.8867 106.486L20.8967 106.496Z" fill="#FF55AF"/>
</g>
</svg>
