<svg width="280" height="278" viewBox="0 0 280 278" fill="none" xmlns="http://www.w3.org/2000/svg">
<path d="M205.867 170.242L199.959 166.272L154.252 135.569L147.577 131.088L148.518 129.704L155.193 134.191L200.9 164.893L206.808 168.857L205.867 170.242Z" fill="#F05A28"/>
<path d="M136.349 131.483H140.106V117.483H136.349V131.483ZM140.946 133.151H134.669V115.815H141.786V133.151H140.946Z" fill="#F05A28"/>
<path d="M140.028 115.815L142.1 112.001L141.198 110.461C140.879 109.916 140.454 109.488 139.95 109.204C139.451 108.92 138.863 108.765 138.225 108.765C137.586 108.765 136.998 108.915 136.5 109.204C136.002 109.488 135.57 109.916 135.251 110.461L134.35 112.001L136.422 115.815H140.028ZM143.802 112.379L141.266 117.044L141.025 117.483H135.43L135.19 117.044L132.653 112.379L132.429 111.967L132.664 111.567L133.801 109.621C134.266 108.82 134.91 108.192 135.666 107.758C136.427 107.325 137.295 107.091 138.225 107.091C139.154 107.091 140.022 107.325 140.784 107.758C141.54 108.192 142.184 108.826 142.649 109.621L143.786 111.567L144.021 111.967L143.797 112.379H143.802Z" fill="#F05A28"/>
<path d="M179.351 95.076H192.987L195.098 90.7059L196.011 88.8155L194.376 89.9886L194.314 90.0275L190.45 92.3516C189.974 92.6352 189.47 92.852 188.961 92.9632C188.457 93.0744 187.953 93.08 187.471 92.9521C186.917 92.802 186.508 92.4962 186.178 92.0681C185.909 91.7122 185.707 91.2785 185.511 90.7837L185.483 90.717L185.472 90.6725L184.766 87.6923L181.703 92.1125L181.67 92.157L181.653 92.1793C181.367 92.5129 181.014 92.802 180.606 93.0022C180.219 93.1968 179.788 93.308 179.334 93.308C178.881 93.308 178.45 93.1968 178.063 93.0022C177.66 92.802 177.302 92.5129 177.022 92.1793L177.005 92.157L176.971 92.1125L173.908 87.6923L173.202 90.6725L173.191 90.717L173.163 90.7837C172.967 91.2841 172.766 91.7178 172.497 92.0681C172.172 92.4962 171.763 92.802 171.203 92.9521C170.722 93.08 170.218 93.0744 169.714 92.9688C169.21 92.852 168.7 92.6407 168.224 92.3572L164.36 90.0331L164.298 89.9942L162.663 88.821L163.576 90.7114L165.687 95.0816H179.351V95.076ZM193.514 96.744H164.662L164.433 96.2659L162.092 91.4231L159.751 86.5803L158.323 83.628L161 85.5517L165.284 88.6264L169.114 90.9283C169.445 91.1284 169.781 91.273 170.094 91.3397C170.346 91.3897 170.587 91.4009 170.794 91.3397C170.951 91.3008 171.074 91.2007 171.181 91.0617C171.332 90.8615 171.466 90.5836 171.595 90.25L172.721 85.4795L173.152 83.6447L174.227 85.1959L178.326 91.1173C178.472 91.2841 178.64 91.4231 178.825 91.5176C178.982 91.5955 179.161 91.64 179.351 91.64C179.542 91.64 179.721 91.5955 179.878 91.5176C180.062 91.4287 180.23 91.2841 180.376 91.1173L184.475 85.1959L185.55 83.6447L185.982 85.4795L187.107 90.2444C187.242 90.578 187.37 90.8615 187.522 91.0617C187.628 91.2007 187.751 91.3008 187.908 91.3397C188.115 91.3953 188.356 91.3897 188.608 91.3397C188.922 91.273 189.258 91.1284 189.588 90.9283L193.418 88.6264L197.702 85.5517L200.379 83.628L198.951 86.5803L196.61 91.4231L194.27 96.2659L194.04 96.744H193.514Z" fill="#F05A28"/>
<path d="M196.599 96.744H162.109L161.431 98.9735H197.271L196.594 96.744H196.599ZM161.487 95.076H197.848L198.027 95.6709L199.209 99.5685L199.534 100.642H159.174L159.499 99.5685L160.681 95.6709L160.86 95.076H161.487Z" fill="#F05A28"/>
<path fill-rule="evenodd" clip-rule="evenodd" d="M199.573 82.2435C198.436 82.2435 197.512 83.1609 197.512 84.2896C197.512 85.4183 198.436 86.3357 199.573 86.3357C200.71 86.3357 201.634 85.4183 201.634 84.2896C201.634 83.1609 200.71 82.2435 199.573 82.2435Z" fill="#F05A28"/>
<path fill-rule="evenodd" clip-rule="evenodd" d="M185.679 80.1418C184.542 80.1418 183.618 81.0593 183.618 82.1879C183.618 83.3166 184.542 84.234 185.679 84.234C186.816 84.234 187.74 83.3166 187.74 82.1879C187.74 81.0593 186.816 80.1418 185.679 80.1418Z" fill="#F05A28"/>
<path fill-rule="evenodd" clip-rule="evenodd" d="M159.13 82.2435C160.266 82.2435 161.19 83.1609 161.19 84.2896C161.19 85.4183 160.266 86.3357 159.13 86.3357C157.993 86.3357 157.069 85.4183 157.069 84.2896C157.069 83.1609 157.993 82.2435 159.13 82.2435Z" fill="#F05A28"/>
<path fill-rule="evenodd" clip-rule="evenodd" d="M173.029 80.1418C174.166 80.1418 175.09 81.0593 175.09 82.1879C175.09 83.3166 174.166 84.234 173.029 84.234C171.892 84.234 170.968 83.3166 170.968 82.1879C170.968 81.0593 171.892 80.1418 173.029 80.1418Z" fill="#F05A28"/>
<path d="M195.798 99.7131L196.605 106.468L196.638 106.763L196.476 107.013L195.227 108.943C195.866 110.06 196.358 111.022 196.851 111.984C197.406 113.074 197.96 114.164 198.682 115.387L198.89 115.737L198.738 116.11L198.643 116.354C198.078 117.778 197.865 118.311 196.224 118.172H193.682C193.295 118.172 192.926 118.078 192.601 117.905C192.276 117.733 191.996 117.477 191.783 117.155L190.982 115.937L192.388 115.025L193.189 116.243C193.25 116.332 193.318 116.399 193.396 116.443C193.474 116.488 193.575 116.51 193.682 116.51H196.33C196.728 116.549 196.834 116.365 197.03 115.876C196.358 114.72 195.854 113.724 195.35 112.735C194.796 111.65 194.242 110.561 193.525 109.337L193.262 108.893L193.542 108.465L194.897 106.363L194.124 99.9021L195.793 99.7075H195.798V99.7131Z" fill="#F05A28"/>
<path d="M187.376 100.086C185.875 104.322 181.395 106.991 177.089 109.56C173.774 111.539 170.559 113.457 169.17 115.859C168.426 117.144 168.532 119.662 168.616 121.642C168.644 122.253 168.666 122.82 168.666 123.226H166.986C166.986 122.726 166.964 122.237 166.942 121.703C166.846 119.512 166.729 116.732 167.72 115.025C169.333 112.245 172.726 110.221 176.232 108.131C180.281 105.712 184.498 103.199 185.797 99.524L187.376 100.08V100.086Z" fill="#F05A28"/>
<path d="M168.336 128.241C168.358 127.869 168.224 127.635 168.039 127.541C167.955 127.496 167.86 127.474 167.759 127.474C167.647 127.474 167.53 127.496 167.418 127.541C167.076 127.685 166.779 128.075 166.74 128.742V128.892C166.74 129.476 166.942 129.937 167.283 130.249C167.647 130.582 168.174 130.782 168.79 130.816H168.986C169.663 130.816 170.296 130.532 170.766 130.071C171.248 129.598 171.573 128.948 171.612 128.236V127.98C171.612 126.913 171.231 125.956 170.587 125.261C169.954 124.566 169.064 124.121 168.05 124.066H167.826C166.695 124.066 165.648 124.538 164.858 125.3C164.063 126.073 163.531 127.146 163.47 128.33C163.47 128.425 163.458 128.542 163.458 128.686C163.458 130.176 164.002 131.516 164.903 132.5C165.799 133.473 167.054 134.107 168.476 134.185C168.554 134.185 168.661 134.185 168.79 134.185C170.369 134.185 171.842 133.523 172.945 132.45C174.048 131.377 174.776 129.904 174.882 128.275V109.432H176.562V128.319C176.439 130.393 175.515 132.272 174.121 133.635C172.715 135.002 170.828 135.853 168.795 135.853C168.683 135.853 168.549 135.853 168.392 135.842C166.51 135.736 164.853 134.908 163.671 133.618C162.495 132.339 161.784 130.599 161.784 128.681C161.784 128.558 161.79 128.408 161.801 128.236C161.89 126.623 162.607 125.167 163.694 124.11C164.786 123.048 166.253 122.387 167.838 122.387C167.922 122.387 168.028 122.387 168.151 122.398C169.618 122.481 170.912 123.126 171.836 124.133C172.754 125.133 173.303 126.484 173.303 127.975C173.303 128.069 173.303 128.18 173.292 128.319C173.23 129.465 172.721 130.499 171.948 131.249C171.17 132.011 170.122 132.478 168.991 132.478H168.969L168.728 132.467H168.706C167.698 132.411 166.802 132.061 166.152 131.455C165.48 130.827 165.071 129.954 165.071 128.881V128.859L165.082 128.658V128.636C165.161 127.23 165.911 126.357 166.785 125.99C167.11 125.851 167.462 125.789 167.804 125.795C168.157 125.795 168.504 125.89 168.812 126.045C169.551 126.423 170.083 127.196 170.016 128.319L168.342 128.225V128.236L168.336 128.241Z" fill="#F05A28"/>
<path d="M180.387 100.141C178.802 103.727 174.535 106.913 170.358 110.032C167.356 112.273 164.399 114.48 162.669 116.677C160.636 119.256 160.378 121.92 164.125 124.828L163.094 126.14C158.34 122.448 158.704 119.012 161.347 115.659C163.218 113.291 166.258 111.017 169.35 108.709C173.348 105.723 177.436 102.665 178.847 99.4851L180.382 100.147H180.387V100.141Z" fill="#F05A28"/>
<path d="M172.446 100.175C171.013 103.094 168.398 104.973 165.894 106.763C162.008 109.549 158.43 112.117 161.325 118.389L159.802 119.079C156.335 111.567 160.451 108.615 164.92 105.412C167.25 103.744 169.691 101.993 170.94 99.4406L172.446 100.169V100.175Z" fill="#F05A28"/>
<path d="M172.889 111.784V125.973H171.209V111.784H172.889Z" fill="#F05A28"/>
<path d="M167.558 100.047C166.93 102.121 165.273 103.238 163.654 104.328C161.706 105.64 159.813 106.919 160.798 110.116L159.197 110.6C157.853 106.235 160.25 104.617 162.719 102.955C164.091 102.026 165.497 101.081 165.956 99.574L167.563 100.052H167.558V100.047Z" fill="#F05A28"/>
<path d="M195.429 117.349V123.421H193.749V117.349H195.429Z" fill="#F05A28"/>
<path d="M192.276 108.754C191.688 110.044 190.854 110.872 189.93 111.322C189.325 111.617 188.686 111.745 188.059 111.739C187.438 111.739 186.821 111.589 186.261 111.339C185.298 110.905 184.475 110.149 184.005 109.198L183.624 108.431L184.458 108.209C186.883 107.558 189.314 107.347 191.755 107.77L192.657 107.925L192.281 108.754H192.276ZM189.308 110.055C189.733 109.849 190.142 109.51 190.495 109.021C188.938 108.87 187.37 108.993 185.808 109.332C186.099 109.632 186.452 109.877 186.844 110.055C187.23 110.227 187.656 110.327 188.076 110.333C188.49 110.333 188.916 110.249 189.314 110.06H189.308V110.055Z" fill="#F05A28"/>
<path d="M189.521 126.857C189.678 126.056 190.226 125.567 190.921 125.356C191.274 125.25 191.671 125.228 192.063 125.278C192.444 125.328 192.83 125.45 193.172 125.634C193.956 126.062 194.561 126.829 194.566 127.886V128.108C194.51 129.187 194.046 130.115 193.329 130.766C192.618 131.411 191.66 131.794 190.613 131.8H190.383C189.252 131.744 188.227 131.222 187.488 130.427C186.76 129.643 186.301 128.581 186.295 127.435C186.295 127.307 186.295 127.191 186.301 127.091C186.379 125.595 186.995 124.277 187.958 123.326C188.933 122.37 190.254 121.786 191.722 121.775C191.834 121.775 191.94 121.775 192.03 121.775C193.911 121.87 195.367 122.715 196.336 123.938C197.042 124.828 197.49 125.917 197.663 127.046C197.837 128.169 197.736 129.353 197.35 130.454C196.767 132.111 195.541 133.568 193.609 134.341C192.69 134.708 191.75 134.869 190.82 134.819C189.89 134.769 188.972 134.508 188.093 134.046L179.189 129.337L175.174 127.213L175.963 125.745L179.978 127.869L188.882 132.578C189.538 132.923 190.221 133.118 190.904 133.156C191.587 133.195 192.287 133.073 192.982 132.795C194.415 132.222 195.334 131.138 195.765 129.909C196.056 129.075 196.134 128.164 196 127.296C195.871 126.434 195.535 125.623 195.02 124.972C194.331 124.105 193.301 123.51 191.951 123.443H191.727C190.719 123.443 189.806 123.849 189.134 124.505C188.457 125.172 188.02 126.106 187.964 127.168V127.424H187.958C187.958 128.136 188.25 128.803 188.709 129.298C189.157 129.782 189.778 130.098 190.45 130.132H190.613C191.218 130.132 191.772 129.904 192.175 129.537C192.578 129.17 192.842 128.642 192.875 128.025V127.863C192.875 127.513 192.646 127.246 192.354 127.091C192.192 127.002 192.013 126.946 191.839 126.924C191.677 126.901 191.52 126.913 191.386 126.952C191.268 126.985 191.173 127.063 191.15 127.168L189.504 126.857H189.521Z" fill="#F05A28"/>
<path d="M184.654 128.419L175.638 123.649L176.422 122.181L185.444 126.952L184.654 128.419Z" fill="#F05A28"/>
<path d="M163.246 100.13C162.999 100.714 162.786 101.37 162.691 102.043C162.602 102.693 162.613 103.366 162.803 104.017L161.196 104.478C160.933 103.577 160.91 102.671 161.034 101.809C161.151 100.975 161.409 100.18 161.706 99.4796L163.246 100.125V100.13Z" fill="#F05A28"/>
<path d="M194.04 121.191C192.556 119.913 190.534 121.002 188.406 122.153C186.48 123.193 184.481 124.272 182.381 124.06C181.586 123.982 180.858 123.732 180.258 123.365C179.614 122.971 179.094 122.437 178.78 121.825C178.461 121.208 178.36 120.485 178.45 119.774C178.522 119.218 178.718 118.667 179.026 118.194C179.346 117.7 179.782 117.277 180.326 116.999C180.897 116.704 181.58 116.571 182.358 116.671H182.381C183.831 116.905 184.57 117.655 184.822 118.506C185.002 119.112 184.906 119.757 184.638 120.296C184.363 120.835 183.904 121.28 183.344 121.503C182.571 121.803 181.653 121.692 180.818 120.841L182.022 119.679C182.297 119.963 182.549 120.018 182.734 119.946C182.902 119.879 183.047 119.729 183.142 119.546C183.238 119.357 183.271 119.145 183.221 118.962C183.142 118.684 182.818 118.422 182.14 118.311C181.737 118.261 181.39 118.328 181.104 118.467C180.83 118.611 180.606 118.828 180.443 119.079C180.27 119.351 180.158 119.662 180.113 119.985C180.062 120.368 180.113 120.747 180.27 121.058C180.449 121.397 180.746 121.703 181.132 121.936C181.53 122.181 182.017 122.348 182.549 122.398C184.139 122.559 185.909 121.603 187.611 120.685C190.26 119.256 192.78 117.894 195.138 119.929L194.04 121.186V121.191Z" fill="#F05A28"/>
<path d="M183.03 105.412C182.644 107.191 181.709 109.916 180.202 111.984C179.077 113.535 177.632 114.742 175.84 115.009L175.594 113.363C176.876 113.174 177.962 112.234 178.847 111.017C180.197 109.159 181.042 106.691 181.39 105.067L183.03 105.412Z" fill="#F05A28"/>
<path d="M192.534 90.4501L189.902 87.9648H179.29H168.672L166.068 90.4278L164.914 89.2213L167.759 86.5247L168.006 86.2968H168.342H179.29H190.238H190.574L190.814 86.5247L193.687 89.2435L192.534 90.4501Z" fill="#F05A28"/>
<path d="M148.439 129.654L154.347 133.618L200.054 164.326L206.73 168.807L205.789 170.186L199.114 165.705L153.406 135.002L147.498 131.033L148.439 129.654Z" fill="#F05A28"/>
<path d="M162.165 124.444L152.074 130.221C151.648 130.465 151.211 130.666 150.78 130.816C148.904 131.477 146.966 131.327 145.23 130.538C143.534 129.765 142.027 128.38 140.963 126.551C140.616 125.951 140.314 125.311 140.078 124.639L141.658 124.083C141.87 124.672 142.122 125.222 142.414 125.723C143.298 127.246 144.536 128.397 145.925 129.025C147.274 129.637 148.775 129.754 150.22 129.242C150.562 129.125 150.903 128.964 151.234 128.775L161.325 122.998L162.159 124.438L162.165 124.444Z" fill="#F05A28"/>
<path d="M188.16 133.101C185.898 137.693 186.816 141.241 187.796 145.005L187.891 145.361L188.49 147.662L186.581 146.239L171.601 135.064L172.603 133.735L185.69 143.498C184.89 140.101 184.526 136.704 186.659 132.372L188.166 133.101H188.16Z" fill="#F05A28"/>
<path d="M191.285 136.114L199.959 141.102L201.079 141.747L200.026 142.497C198.839 143.342 197.568 146.128 196.582 149.681C195.602 153.222 194.947 157.481 194.964 161.351H193.29C193.267 157.331 193.95 152.917 194.964 149.242C195.832 146.106 196.974 143.465 198.167 141.997L190.434 137.554L191.274 136.114H191.285Z" fill="#F05A28"/>
<path d="M219.688 90.9505L216.082 85.2404L212.475 90.9505V152.044H219.688V90.9505ZM216.787 83.2332L221.234 90.2722L221.362 90.4779V153.706H210.79V90.4779L210.918 90.2722L215.365 83.2332L216.076 82.1101L216.787 83.2332Z" fill="#F05A28"/>
<path d="M215.242 152.878V83.678H216.922V152.878H215.242Z" fill="#F05A28"/>
<path d="M216.21 152.044H225.915C226.638 151.994 227.293 151.666 227.774 151.182C228.25 150.698 228.547 150.053 228.547 149.358V149.219C228.514 148.608 228.239 148.068 227.814 147.685C227.382 147.295 226.789 147.056 226.122 147.056H225.96C225.456 147.084 225.002 147.307 224.672 147.64C224.353 147.963 224.157 148.391 224.151 148.852C224.157 148.93 224.174 149.002 224.19 149.069C224.274 149.358 224.459 149.581 224.683 149.725C224.918 149.875 225.21 149.948 225.473 149.931C225.546 149.931 225.613 149.914 225.674 149.898C225.921 149.831 226.055 149.72 226.094 149.614C226.106 149.581 226.111 149.542 226.106 149.514C226.106 149.486 226.083 149.453 226.055 149.419C225.971 149.314 225.781 149.247 225.501 149.269L225.372 147.607C226.262 147.535 226.946 147.863 227.354 148.357C227.562 148.608 227.696 148.902 227.758 149.214C227.814 149.525 227.791 149.848 227.69 150.153C227.483 150.743 226.979 151.271 226.134 151.504C225.96 151.554 225.775 151.582 225.59 151.599C224.98 151.638 224.33 151.477 223.787 151.132C223.233 150.782 222.779 150.237 222.578 149.525C222.527 149.336 222.488 149.13 222.477 148.925V148.875C222.477 147.963 222.858 147.112 223.479 146.484C224.09 145.867 224.935 145.455 225.87 145.405H226.1L226.122 145.394C227.214 145.394 228.206 145.794 228.939 146.456C229.678 147.123 230.16 148.063 230.216 149.13V149.358C230.222 150.498 229.74 151.56 228.962 152.35C228.194 153.128 227.13 153.645 225.954 153.712H216.205V152.044H216.21Z" fill="#F05A28"/>
<path d="M216.21 153.712H206.461C205.285 153.645 204.221 153.128 203.454 152.35C202.675 151.56 202.194 150.504 202.194 149.358V149.336L202.205 149.153V149.13C202.266 148.063 202.742 147.123 203.482 146.456C204.215 145.794 205.206 145.394 206.298 145.394H206.321L206.528 145.405H206.55C207.486 145.455 208.331 145.867 208.942 146.484C209.563 147.112 209.95 147.957 209.95 148.875V148.925C209.933 149.136 209.894 149.336 209.843 149.525C209.642 150.237 209.194 150.782 208.634 151.137C208.09 151.482 207.441 151.643 206.83 151.605C206.646 151.593 206.466 151.56 206.287 151.51C205.447 151.276 204.938 150.754 204.73 150.159C204.624 149.853 204.602 149.531 204.663 149.219C204.719 148.908 204.859 148.613 205.066 148.363C205.475 147.868 206.158 147.54 207.049 147.612L206.92 149.275C206.634 149.253 206.45 149.319 206.366 149.425C206.338 149.458 206.321 149.492 206.315 149.525C206.315 149.553 206.315 149.592 206.326 149.625C206.366 149.736 206.5 149.842 206.746 149.909C206.808 149.925 206.881 149.936 206.948 149.942C207.217 149.959 207.502 149.886 207.738 149.736C207.962 149.592 208.146 149.369 208.23 149.08C208.247 149.014 208.264 148.941 208.27 148.863C208.27 148.402 208.068 147.974 207.749 147.651C207.418 147.318 206.959 147.095 206.461 147.068H206.298C205.632 147.068 205.044 147.307 204.607 147.696C204.182 148.079 203.907 148.619 203.874 149.23V149.369C203.874 150.064 204.17 150.709 204.646 151.193C205.122 151.677 205.783 152.005 206.506 152.055H216.21V153.723V153.712Z" fill="#F05A28"/>
<path d="M200.105 158.933L207.609 152.255L207.85 152.038H224.79V154.068C224.79 155.074 224.375 155.991 223.703 156.653C223.031 157.315 222.113 157.732 221.099 157.732H214.553C214.536 157.943 214.514 158.149 214.48 158.349C214.234 160.011 213.59 161.44 212.598 162.458C211.574 163.508 210.196 164.115 208.516 164.092C208.202 164.092 207.883 164.064 207.575 164.02L207.822 162.374C208.079 162.413 208.32 162.435 208.538 162.435C209.72 162.452 210.689 162.03 211.4 161.307C212.139 160.545 212.632 159.439 212.822 158.115C212.884 157.715 212.918 157.309 212.918 156.898L212.929 156.075H221.099C221.654 156.075 222.158 155.847 222.522 155.485C222.886 155.124 223.11 154.624 223.11 154.073V153.712H208.482L201.219 160.172L200.105 158.933Z" fill="#F05A28"/>
<path d="M215.544 156.069H223.233C223.524 156.069 223.787 156.186 223.983 156.375C224.174 156.575 224.291 156.836 224.291 157.12V158.682C224.291 159.4 223.994 160.056 223.518 160.528C223.042 161.001 222.382 161.296 221.659 161.296H215.544C214.822 161.296 214.166 161.001 213.69 160.528C213.214 160.056 212.918 159.4 212.918 158.682C212.918 157.965 213.214 157.309 213.69 156.836C214.166 156.358 214.827 156.069 215.544 156.069ZM222.611 157.737H215.544C215.281 157.737 215.046 157.843 214.872 158.01C214.704 158.182 214.598 158.421 214.598 158.677C214.598 158.938 214.704 159.172 214.878 159.344C215.051 159.516 215.286 159.622 215.55 159.622H221.665C221.928 159.622 222.163 159.516 222.337 159.344C222.51 159.172 222.617 158.938 222.617 158.677V157.732H222.611V157.737Z" fill="#F05A28"/>
<path d="M215.544 163.186H221.659C221.922 163.186 222.158 163.08 222.331 162.908C222.505 162.736 222.611 162.502 222.611 162.241V161.296H215.544C215.281 161.296 215.046 161.401 214.872 161.568C214.704 161.74 214.598 161.98 214.598 162.235C214.598 162.497 214.704 162.73 214.878 162.902C215.051 163.075 215.286 163.18 215.55 163.18H215.544V163.186ZM221.659 164.854H215.544C214.822 164.854 214.166 164.559 213.69 164.087C213.214 163.614 212.918 162.958 212.918 162.241C212.918 161.524 213.214 160.868 213.69 160.395C214.166 159.917 214.827 159.628 215.544 159.628H224.291V162.241C224.291 162.958 223.994 163.614 223.518 164.087C223.042 164.559 222.382 164.854 221.659 164.854Z" fill="#F05A28"/>
<path d="M213.696 163.186H222.443V165.799C222.443 166.516 222.146 167.173 221.67 167.645C221.194 168.118 220.534 168.412 219.811 168.412H213.696C212.974 168.412 212.318 168.118 211.842 167.645C211.366 167.173 211.07 166.516 211.07 165.799C211.07 165.082 211.366 164.426 211.842 163.953C212.318 163.475 212.979 163.186 213.696 163.186ZM220.763 164.854H213.696C213.433 164.854 213.198 164.96 213.024 165.126C212.856 165.299 212.75 165.538 212.75 165.794C212.75 166.055 212.856 166.289 213.03 166.461C213.203 166.633 213.438 166.739 213.702 166.739H219.817C220.08 166.739 220.315 166.633 220.489 166.461C220.662 166.289 220.769 166.055 220.769 165.794V164.848H220.763V164.854Z" fill="#F05A28"/>
<path d="M196.056 149.386L205.537 155.419L204.63 156.82L195.149 150.787L196.056 149.386Z" fill="#F05A28"/>
<path d="M154.504 127.413C156.1 128.375 158.066 129.531 160.154 130.76C170.279 136.704 183.411 144.421 190.327 151.994C190.221 149.764 190.473 147.651 190.915 145.689C191.537 142.948 192.539 140.501 193.48 138.444L195.009 139.128C194.102 141.113 193.138 143.459 192.55 146.056C191.974 148.591 191.75 151.382 192.265 154.346C193.715 156.325 194.678 158.277 194.97 160.172L193.312 160.417C191.906 151.349 172.85 140.156 159.298 132.195C157.321 131.033 155.456 129.937 153.636 128.836L154.504 127.413Z" fill="#F05A28"/>
<path d="M217.957 168.412H214.2V182.412H217.957V168.412ZM213.36 166.744H219.637V184.08H212.52V166.744H213.36Z" fill="#F05A28"/>
<path d="M214.278 184.08L212.206 187.895L213.108 189.435C213.427 189.98 213.853 190.408 214.357 190.691C214.855 190.975 215.443 191.131 216.082 191.131C216.72 191.131 217.308 190.98 217.806 190.691C218.305 190.408 218.736 189.98 219.055 189.435L219.957 187.895L217.885 184.08H214.278ZM210.504 187.511L213.041 182.846L213.282 182.407H218.876L219.117 182.846L221.654 187.511L221.878 187.917L221.642 188.323L220.506 190.269C220.041 191.069 219.397 191.698 218.641 192.131C217.879 192.565 217.011 192.799 216.082 192.799C215.152 192.799 214.284 192.565 213.522 192.131C212.766 191.698 212.122 191.064 211.658 190.269L210.521 188.323L210.286 187.917L210.51 187.511H210.504Z" fill="#F05A28"/>
<path d="M216.793 131.133L221.234 138.172L219.817 139.056L215.37 132.017L216.793 131.133Z" fill="#F05A28"/>
<path d="M199.562 140.99C199.595 140.99 210.795 141.38 210.795 131.65H212.475C212.475 143.103 199.556 142.658 199.522 142.653L199.562 140.99Z" fill="#F05A28"/>
<path fill-rule="evenodd" clip-rule="evenodd" d="M142.47 89.9719C142.335 89.9719 142.201 89.9719 142.066 89.9886C142.414 89.377 142.61 88.6653 142.61 87.9147C142.61 85.5684 140.694 83.6669 138.331 83.6669C135.968 83.6669 134.053 85.5684 134.053 87.9147C134.053 88.6653 134.249 89.377 134.596 89.9886C134.462 89.9775 134.327 89.9719 134.193 89.9719C131.69 89.9719 129.662 91.9846 129.662 94.47C129.662 96.9553 131.69 98.968 134.193 98.968C136.041 98.968 137.626 97.8727 138.331 96.2992C139.037 97.8727 140.622 98.968 142.47 98.968C144.973 98.968 147 96.9553 147 94.47C147 91.9846 144.973 89.9719 142.47 89.9719ZM133.661 103.066L138.331 99.3683L143.002 103.066H133.661Z" fill="#FADB5A"/>
<path d="M125.49 132.956C119.902 123.682 111.014 117.127 100.458 114.497C89.9023 111.867 78.9487 113.468 69.6079 119.017C60.2671 124.566 53.6647 133.39 51.0159 143.871C48.3671 154.351 49.9799 165.226 55.5687 174.495C61.1575 183.769 70.0447 190.324 80.6007 192.954C91.1567 195.584 102.11 193.977 111.451 188.434C120.792 182.885 127.394 174.061 130.043 163.581C132.698 153.1 131.079 142.225 125.49 132.951V132.956ZM81.3399 190.041C61.1743 185.009 48.8879 164.626 53.9559 144.604C59.0239 124.583 79.5535 112.384 99.7192 117.416C119.885 122.448 132.171 142.831 127.103 162.852C122.035 182.874 101.506 195.073 81.3399 190.041Z" fill="#F3583F"/>
<path d="M127.103 162.852C122.035 182.874 101.506 195.073 81.34 190.041C61.1744 185.009 48.888 164.626 53.956 144.604C59.024 124.583 79.5536 112.384 99.7192 117.416C119.885 122.448 132.171 142.831 127.103 162.852Z" fill="#FADB5A"/>
<path d="M83.7367 180.578C68.8239 176.858 59.7407 161.785 63.4871 146.984C63.6887 146.178 64.5119 145.689 65.3239 145.894C66.1359 146.095 66.6287 146.912 66.4215 147.718C63.0839 160.912 71.1815 174.345 84.4703 177.664C97.7591 180.978 111.289 172.938 114.632 159.744C114.834 158.938 115.657 158.449 116.469 158.655C117.281 158.855 117.774 159.672 117.566 160.478C113.82 175.285 98.6383 184.303 83.7311 180.583L83.7367 180.578Z" fill="#F3583F"/>
<path d="M90.9555 139.015C92.5506 132.71 91.5773 127.034 88.7817 126.337C85.986 125.64 82.4266 130.185 80.8316 136.49C79.2365 142.795 80.2098 148.471 83.0054 149.169C85.8011 149.866 89.3604 145.32 90.9555 139.015Z" fill="#F3583F"/>
<path d="M107.228 143.269C108.823 136.965 107.85 131.288 105.054 130.591C102.259 129.894 98.6995 134.44 97.1044 140.745C95.5094 147.049 96.4826 152.726 99.2783 153.423C102.074 154.12 105.633 149.574 107.228 143.269Z" fill="#F3583F"/>
<path d="M176.372 148.452C172.402 140.084 165.385 133.757 156.621 130.632C147.857 127.507 138.387 127.952 129.959 131.9C121.531 135.842 115.158 142.809 112.011 151.51C108.864 160.211 109.312 169.613 113.288 177.976C117.258 186.343 124.275 192.671 133.039 195.795C141.803 198.92 151.273 198.47 159.701 194.528C168.129 190.586 174.502 183.619 177.649 174.918C180.796 166.211 180.348 156.814 176.372 148.446V148.452ZM133.913 193.377C117.163 187.4 108.433 169.013 114.447 152.383C120.467 135.753 138.986 127.085 155.736 133.056C172.486 139.033 181.216 157.42 175.202 174.05C169.182 190.68 150.662 199.348 133.913 193.377Z" fill="#F3583F"/>
<path d="M175.202 174.05C169.182 190.68 150.662 199.348 133.913 193.377C117.163 187.4 108.433 169.013 114.447 152.383C120.467 135.753 138.986 127.085 155.736 133.056C172.486 139.033 181.216 157.42 175.202 174.05Z" fill="#17172E"/>
<path d="M136.758 185.515C124.37 181.095 117.919 167.501 122.365 155.202C122.606 154.535 123.351 154.184 124.023 154.423C124.695 154.662 125.048 155.402 124.807 156.069C120.842 167.028 126.593 179.149 137.637 183.085C148.674 187.022 160.882 181.312 164.847 170.347C165.088 169.68 165.833 169.33 166.505 169.569C167.177 169.808 167.53 170.547 167.289 171.215C162.837 183.513 149.145 189.918 136.758 185.504V185.515Z" fill="#F3583F"/>
<path d="M146.438 150.719C148.333 145.483 147.985 140.566 145.663 139.738C143.34 138.909 139.921 142.483 138.027 147.719C136.132 152.956 136.479 157.872 138.802 158.701C141.124 159.529 144.543 155.956 146.438 150.719Z" fill="#F3583F"/>
<path d="M159.946 155.71C161.841 150.473 161.494 145.557 159.171 144.728C156.849 143.9 153.43 147.473 151.535 152.71C149.64 157.946 149.987 162.863 152.31 163.691C154.633 164.52 158.052 160.946 159.946 155.71Z" fill="#F3583F"/>
</svg>
