<svg width="266" height="266" viewBox="0 0 266 266" fill="none" xmlns="http://www.w3.org/2000/svg">
<g clip-path="url(#clip0_85_701)">
<g style="mix-blend-mode:multiply">
<path d="M154.535 71.9133C154.184 72.69 153.827 73.4506 153.492 74.1634C153.407 74.3443 153.327 74.5305 153.242 74.7273C153.098 75.0677 152.944 75.4082 152.774 75.7327C152.721 75.8497 152.662 75.9667 152.609 76.0838C152.487 76.0093 152.354 75.9508 152.215 75.9189C152.375 75.5305 152.54 75.1422 152.705 74.7592L152.838 74.456C153.098 73.8496 153.364 73.2379 153.641 72.6261C154.114 71.5356 154.609 70.4239 155.152 69.3494C155.487 68.6206 155.843 67.8918 156.226 67.1897C156.258 67.1258 156.317 67.0992 156.375 67.1099C156.412 67.1205 156.444 67.1471 156.466 67.1844C156.487 67.2216 156.487 67.2695 156.466 67.312C155.934 68.8334 155.263 70.3175 154.614 71.7484L154.535 71.924V71.9133Z" fill="#1F2E33"/>
<path d="M157.375 114.878C157.386 114.852 157.418 114.836 157.444 114.846C157.923 115.022 158.492 115.235 159.046 115.495C159.168 115.554 159.296 115.602 159.439 115.655C159.833 115.804 160.28 115.974 160.508 116.325C160.535 116.363 160.535 116.416 160.514 116.464C160.492 116.511 160.455 116.538 160.407 116.543C160.317 116.549 160.221 116.543 160.125 116.522C159.865 116.464 159.62 116.304 159.386 116.155C159.269 116.081 159.163 116.011 159.051 115.953C158.551 115.687 158.04 115.373 157.397 114.948C157.375 114.932 157.365 114.905 157.375 114.878Z" fill="#1F2E33"/>
<path d="M161.854 117.442C161.796 117.41 161.737 117.373 161.684 117.331C161.641 117.293 161.599 117.246 161.567 117.203C161.53 117.155 161.492 117.113 161.455 117.081C161.439 117.07 161.439 117.054 161.445 117.038C161.45 117.022 161.466 117.011 161.487 117.017C161.519 117.027 161.572 117.027 161.625 117.027C161.668 117.027 161.711 117.027 161.742 117.027C161.817 117.038 161.886 117.07 161.955 117.097C161.971 117.102 161.987 117.107 162.008 117.118C162.237 117.208 162.418 117.325 162.61 117.49C162.647 117.522 162.657 117.581 162.636 117.634C162.615 117.682 162.567 117.714 162.519 117.703L162.45 117.687C162.248 117.639 162.083 117.581 161.939 117.485C161.918 117.469 161.891 117.458 161.87 117.442H161.854Z" fill="#1F2E33"/>
<path d="M167.046 120.161C166.403 119.825 165.764 119.48 165.216 119.182C165.067 119.102 164.918 119.028 164.754 118.948C164.269 118.708 163.769 118.464 163.408 118.065C163.397 118.054 163.392 118.038 163.397 118.022C163.402 118.006 163.418 118.001 163.434 118.001C163.519 118.006 163.605 118.022 163.695 118.043C164.073 118.129 164.44 118.32 164.796 118.501C164.934 118.575 165.067 118.639 165.195 118.703L165.509 118.852C166.02 119.091 166.546 119.341 167.062 119.597L167.349 119.74C168.541 120.325 169.77 120.932 170.919 121.677C170.993 121.724 170.999 121.804 170.977 121.863C170.956 121.921 170.897 121.969 170.818 121.953C170.818 121.953 170.802 121.953 170.796 121.948C169.541 121.469 168.328 120.841 167.153 120.23L167.03 120.166L167.046 120.161Z" fill="#1F2E33"/>
<path d="M115.815 93.8187C115.836 93.7655 115.884 93.7389 115.932 93.7496C115.953 93.7496 115.974 93.7602 115.995 93.7602C116.176 93.8028 116.33 93.8559 116.469 93.9357H116.479V93.957C116.463 94.0687 116.453 94.1858 116.437 94.2975V94.3241L116.41 94.3134C116.198 94.223 116.017 94.1113 115.841 93.9517C115.799 93.9145 115.799 93.8506 115.815 93.8081V93.8187Z" fill="#1F2E33"/>
<path d="M111.394 91.2867C111.985 91.5952 112.581 91.9144 113.155 92.2282L113.224 92.2655C113.373 92.3452 113.528 92.4197 113.687 92.4995C114.171 92.7389 114.671 92.9836 115.028 93.3772C115.038 93.3879 115.038 93.4091 115.033 93.4198C115.028 93.4357 115.012 93.4411 114.996 93.4411C114.911 93.4304 114.825 93.4198 114.735 93.3985C114.352 93.3134 113.985 93.1219 113.629 92.9357C113.496 92.8666 113.368 92.7974 113.24 92.7389L112.916 92.5846C112.41 92.3452 111.884 92.1006 111.373 91.8452L111.075 91.6963C109.889 91.1111 108.66 90.5047 107.511 89.7653C107.437 89.7175 107.431 89.6377 107.453 89.5791C107.479 89.5153 107.543 89.4621 107.634 89.494C108.878 89.9675 110.081 90.5898 111.246 91.1963L111.4 91.276L111.394 91.2867Z" fill="#1F2E33"/>
<path d="M163.37 96.1646H163.349V96.1487C163.323 96.0423 163.296 95.9412 163.259 95.8401V95.8189L163.269 95.8082C163.45 95.7284 163.631 95.6752 163.839 95.6486C163.892 95.6433 163.945 95.6859 163.95 95.7444C163.956 95.7923 163.94 95.8348 163.902 95.8614C163.711 96.005 163.546 96.0902 163.37 96.154V96.1646Z" fill="#1F2E33"/>
<path d="M168.924 93.989L168.796 94.0421C168.163 94.2922 167.514 94.5369 166.892 94.7709L166.839 94.7922C166.679 94.8507 166.52 94.9199 166.349 94.989C165.844 95.2018 165.323 95.4199 164.801 95.4305H164.791C164.791 95.4305 164.769 95.4146 164.764 95.4039C164.764 95.3933 164.764 95.3773 164.775 95.3667C165.147 95.0262 165.631 94.8347 166.094 94.6486C166.238 94.59 166.376 94.5369 166.509 94.4783C166.642 94.4198 166.78 94.3613 166.913 94.3028C167.413 94.0847 167.935 93.856 168.445 93.6432L168.754 93.5155C169.998 92.9942 171.28 92.457 172.594 92.074C172.679 92.0527 172.759 92.1112 172.765 92.2016C172.765 92.2655 172.738 92.324 172.679 92.3559C171.456 93.0049 170.169 93.5102 168.919 93.9996L168.924 93.989Z" fill="#1F2E33"/>
<path d="M118.49 114.394C118.368 114.447 118.24 114.517 118.097 114.596C117.703 114.809 117.256 115.054 116.884 114.969C116.841 114.958 116.804 114.926 116.788 114.878C116.772 114.83 116.783 114.777 116.81 114.74C117.033 114.426 117.453 114.304 117.826 114.203C117.964 114.166 118.092 114.128 118.209 114.08C118.762 113.868 119.331 113.703 119.879 113.543L120.033 113.501C120.065 113.49 120.097 113.511 120.097 113.548C120.097 113.575 120.086 113.596 120.065 113.607C119.975 113.655 119.884 113.703 119.788 113.751C119.368 113.974 118.932 114.203 118.49 114.4V114.394Z" fill="#1F2E33"/>
<path d="M115.171 115.251C115.251 115.224 115.331 115.203 115.411 115.187C115.464 115.176 115.512 115.187 115.559 115.187C115.607 115.192 115.655 115.197 115.703 115.187C115.719 115.187 115.74 115.198 115.74 115.219C115.74 115.235 115.735 115.251 115.724 115.256C115.687 115.283 115.661 115.315 115.629 115.346C115.602 115.373 115.581 115.405 115.549 115.432C115.48 115.49 115.395 115.527 115.315 115.57C115.299 115.58 115.278 115.586 115.256 115.596C115.049 115.703 114.841 115.767 114.602 115.793C114.591 115.793 114.581 115.793 114.57 115.793C114.527 115.783 114.496 115.745 114.49 115.698C114.485 115.65 114.501 115.607 114.538 115.58C114.746 115.432 114.921 115.336 115.102 115.277C115.123 115.272 115.15 115.261 115.171 115.256V115.251Z" fill="#1F2E33"/>
<path d="M109.495 117.469L109.65 117.41C110.304 117.155 110.947 116.91 111.612 116.666C111.772 116.607 111.926 116.538 112.096 116.469C112.602 116.256 113.128 116.038 113.644 116.027H113.655C113.655 116.027 113.676 116.043 113.682 116.059C113.682 116.07 113.682 116.086 113.666 116.096C113.293 116.437 112.809 116.628 112.346 116.809C112.203 116.868 112.065 116.921 111.932 116.98L111.623 117.118C111.091 117.352 110.543 117.591 110.001 117.82L109.703 117.948C108.458 118.469 107.165 119.006 105.851 119.389C105.825 119.395 105.804 119.4 105.782 119.389C105.729 119.379 105.687 119.325 105.681 119.262C105.676 119.198 105.708 119.139 105.766 119.113C106.979 118.469 108.266 117.964 109.501 117.474L109.495 117.469Z" fill="#1F2E33"/>
<path d="M146.774 130.044C146.492 129.81 146.396 129.347 146.311 128.948C146.279 128.799 146.252 128.656 146.215 128.533C146.04 127.927 145.901 127.305 145.774 126.698L145.742 126.544C145.742 126.544 145.742 126.501 145.758 126.491C145.784 126.464 145.827 126.469 145.843 126.507C145.885 126.608 145.928 126.714 145.97 126.815C146.162 127.267 146.353 127.73 146.518 128.209C146.561 128.337 146.625 128.48 146.689 128.634C146.869 129.06 147.082 129.544 146.986 129.959C146.976 129.996 146.955 130.033 146.928 130.055C146.901 130.076 146.864 130.081 146.832 130.076C146.811 130.076 146.795 130.065 146.779 130.049L146.774 130.044Z" fill="#1F2E33"/>
<path d="M147.21 131.214C147.231 131.257 147.258 131.284 147.29 131.315C147.317 131.342 147.343 131.369 147.364 131.406C147.412 131.48 147.45 131.565 147.481 131.651C147.492 131.672 147.497 131.698 147.508 131.72C147.598 131.948 147.646 132.172 147.668 132.433C147.668 132.47 147.657 132.507 147.63 132.534C147.604 132.56 147.567 132.571 147.529 132.565C147.503 132.56 147.481 132.544 147.465 132.518C147.332 132.294 147.253 132.108 147.205 131.906C147.2 131.885 147.194 131.858 147.189 131.837C147.168 131.746 147.146 131.661 147.136 131.571C147.13 131.512 147.136 131.459 147.136 131.406C147.141 131.353 147.146 131.299 147.136 131.252C147.136 131.241 147.136 131.23 147.146 131.22C147.162 131.204 147.189 131.204 147.199 131.22L147.21 131.214Z" fill="#1F2E33"/>
<path d="M147.917 133.459C148.215 133.858 148.375 134.379 148.529 134.885C148.577 135.034 148.619 135.188 148.673 135.332L148.731 135.507C148.944 136.135 149.167 136.784 149.375 137.427L149.481 137.747C149.917 139.098 150.375 140.497 150.683 141.928C150.694 141.986 150.683 142.039 150.651 142.077C150.62 142.114 150.572 142.13 150.524 142.119C150.481 142.109 150.449 142.077 150.428 142.034C149.88 140.72 149.455 139.332 149.045 137.991L148.992 137.821C148.79 137.151 148.593 136.486 148.369 135.688C148.322 135.518 148.263 135.342 148.205 135.161C148.029 134.613 147.843 134.044 147.853 133.475C147.853 133.464 147.853 133.454 147.864 133.443C147.88 133.433 147.901 133.433 147.912 133.449L147.917 133.459Z" fill="#1F2E33"/>
<path d="M131.667 81.4032C131.949 81.6426 132.044 82.1 132.13 82.5043C132.161 82.6532 132.188 82.7916 132.225 82.9192C132.401 83.5097 132.534 84.1214 132.661 84.7119L132.704 84.9034C132.704 84.9034 132.704 84.9459 132.688 84.9619C132.677 84.9778 132.656 84.9832 132.64 84.9778C132.624 84.9778 132.614 84.9619 132.603 84.9459C132.56 84.8448 132.518 84.7385 132.475 84.6374C132.284 84.1852 132.092 83.7225 131.927 83.2437C131.885 83.1107 131.821 82.9724 131.757 82.8235C131.576 82.3979 131.364 81.9085 131.459 81.4936C131.475 81.4138 131.544 81.3659 131.614 81.3819C131.635 81.3819 131.651 81.3925 131.667 81.4085V81.4032Z" fill="#1F2E33"/>
<path d="M131.246 80.2542C131.246 80.2542 131.23 80.2436 131.225 80.2382C131.204 80.1957 131.172 80.1691 131.145 80.1319C131.119 80.1053 131.092 80.0787 131.071 80.0467C131.018 79.967 130.986 79.8765 130.954 79.7914C130.948 79.7755 130.938 79.7542 130.933 79.7382C130.842 79.5095 130.794 79.2914 130.773 79.0254C130.773 78.9882 130.784 78.9509 130.81 78.9243C130.858 78.8765 130.938 78.8818 130.975 78.9403C131.108 79.169 131.188 79.3499 131.236 79.5467C131.241 79.5733 131.246 79.5946 131.252 79.6212C131.273 79.7063 131.294 79.7967 131.305 79.8872C131.31 79.9457 131.305 79.9989 131.3 80.0574C131.3 80.1106 131.289 80.1638 131.3 80.2116C131.3 80.2223 131.3 80.2329 131.289 80.2436C131.284 80.2542 131.268 80.2595 131.257 80.2542H131.246Z" fill="#1F2E33"/>
<path d="M130.544 78.0041C130.544 78.0041 130.528 77.9988 130.523 77.9881C130.225 77.5892 130.065 77.0679 129.911 76.5625C129.863 76.4082 129.815 76.254 129.768 76.1104L129.656 75.7806C129.459 75.2007 129.252 74.605 129.06 74.0092L128.948 73.6687C128.512 72.3229 128.06 70.9292 127.752 69.5036C127.741 69.4451 127.752 69.3919 127.783 69.3547C127.815 69.3175 127.863 69.3015 127.911 69.3121C127.954 69.3228 127.986 69.3547 128.007 69.3972C128.56 70.7165 128.98 72.1102 129.39 73.456L129.438 73.6156C129.661 74.355 129.879 75.105 130.06 75.7433C130.108 75.9135 130.167 76.0891 130.225 76.27C130.406 76.8179 130.587 77.387 130.581 77.9562C130.581 77.9668 130.576 77.9775 130.566 77.9881C130.555 77.9934 130.544 77.9988 130.539 77.9934L130.544 78.0041Z" fill="#1F2E33"/>
<path d="M141.082 78.2009C141.082 78.2009 141.114 78.1849 141.13 78.1902C141.156 78.1956 141.167 78.2168 141.167 78.2434C141.14 78.8658 141.119 79.5041 141.103 80.1159C141.082 80.8925 141.055 81.6957 141.013 82.483C140.991 82.8394 140.975 83.2065 140.954 83.5575C140.938 83.9193 140.917 84.2916 140.896 84.6587C140.885 84.8182 140.88 84.9831 140.874 85.148C140.853 85.7491 140.832 86.3662 140.64 86.9247C140.619 86.9939 140.545 87.0205 140.491 87.0045C140.444 86.9939 140.412 86.962 140.406 86.9141C140.305 86.4087 140.353 85.8768 140.401 85.3661C140.412 85.2544 140.422 85.1374 140.433 85.0257C140.465 84.6374 140.497 84.2384 140.534 83.8554C140.566 83.4565 140.603 83.0469 140.635 82.6373C140.699 81.7968 140.789 80.951 140.874 80.1318C140.938 79.5094 141.007 78.8711 141.066 78.2434C141.066 78.2275 141.077 78.2115 141.087 78.2062L141.082 78.2009Z" fill="#1F2E33"/>
<path d="M141.354 76.7061C141.354 76.7061 141.348 76.7274 141.338 76.7327C141.327 76.7327 141.322 76.7381 141.311 76.7327C141.311 76.7327 141.284 76.7168 141.284 76.7008C141.284 76.621 141.263 76.5412 141.247 76.4561C141.231 76.3763 141.215 76.2912 141.21 76.2114C141.205 76.0944 141.21 75.9774 141.21 75.8604C141.21 75.8231 141.21 75.7859 141.21 75.7487C141.21 75.4188 141.279 75.0997 141.332 74.8656C141.348 74.7912 141.417 74.7592 141.465 74.7699C141.513 74.7805 141.54 74.8178 141.545 74.8709C141.572 75.1795 141.577 75.472 141.545 75.7593C141.529 75.9242 141.508 76.0838 141.487 76.2221C141.471 76.3125 141.444 76.3923 141.412 76.4721C141.385 76.5519 141.359 76.621 141.343 76.7008L141.354 76.7061Z" fill="#1F2E33"/>
<path d="M141.688 67.7695C141.784 66.1843 141.88 64.5459 142.119 62.9394C142.119 62.9022 142.146 62.865 142.172 62.8437C142.204 62.8171 142.247 62.8118 142.289 62.8171C142.348 62.8331 142.385 62.8756 142.385 62.9448C142.407 64.5778 142.279 66.2215 142.157 67.8174L142.141 68.0089C142.077 68.8281 142.008 69.6526 141.933 70.493C141.917 70.6899 141.906 70.892 141.891 71.1048C141.853 71.7484 141.816 72.4134 141.603 72.9932C141.598 73.0091 141.582 73.0198 141.566 73.0198C141.555 73.0198 141.545 73.0091 141.539 72.9932C141.417 72.4346 141.46 71.8229 141.502 71.2324C141.513 71.0569 141.529 70.876 141.534 70.7005L141.545 70.4345C141.577 69.6845 141.614 68.9132 141.662 68.1525L141.683 67.7588L141.688 67.7695Z" fill="#1F2E33"/>
<path d="M158.067 106.245C158.407 106.266 158.753 106.293 159.088 106.314C159.466 106.341 159.854 106.373 160.242 106.394C161.008 106.436 161.785 106.511 162.535 106.585C163.094 106.639 163.673 106.692 164.237 106.734H164.243C164.269 106.74 164.28 106.772 164.28 106.798C164.28 106.825 164.253 106.846 164.232 106.846C163.657 106.83 163.072 106.83 162.508 106.83C161.806 106.83 161.083 106.83 160.37 106.798C160.04 106.788 159.71 106.777 159.386 106.766C159.061 106.756 158.721 106.75 158.391 106.734C158.242 106.729 158.088 106.729 157.934 106.729C157.508 106.724 157.072 106.724 156.662 106.628C156.545 106.601 156.434 106.569 156.327 106.527C156.274 106.506 156.253 106.442 156.258 106.389C156.258 106.325 156.295 106.282 156.343 106.266C156.811 106.139 157.29 106.176 157.753 106.213C157.859 106.218 157.96 106.229 158.067 106.234V106.245Z" fill="#1F2E33"/>
<path d="M166.057 107.155C166.057 107.155 166.03 107.155 166.019 107.149C165.955 107.133 165.892 107.107 165.828 107.085C165.764 107.064 165.705 107.038 165.647 107.022C165.636 107.022 165.631 107.022 165.62 107.022C165.604 107.022 165.594 107 165.594 106.979C165.594 106.963 165.61 106.947 165.626 106.947C165.7 106.947 165.769 106.92 165.849 106.899C165.924 106.878 165.998 106.857 166.073 106.851C166.174 106.841 166.275 106.841 166.376 106.841C166.413 106.841 166.455 106.841 166.493 106.841C166.706 106.841 166.934 106.867 167.2 106.926C167.232 106.931 167.264 106.942 167.296 106.947C167.36 106.963 167.386 107.022 167.381 107.069C167.381 107.117 167.344 107.171 167.28 107.181C167.003 107.218 166.737 107.229 166.471 107.213C166.317 107.202 166.168 107.181 166.051 107.16L166.057 107.155Z" fill="#1F2E33"/>
<path d="M173.53 107.623C172.749 107.575 171.956 107.516 171.27 107.468C171.089 107.458 170.908 107.447 170.716 107.442C170.286 107.426 169.844 107.41 169.429 107.314C169.27 107.277 169.131 107.234 168.998 107.181C168.988 107.176 168.977 107.16 168.977 107.144C168.977 107.128 168.988 107.112 169.004 107.112C169.514 106.958 170.068 106.99 170.605 107.022C170.764 107.032 170.935 107.038 171.094 107.043H171.424C172.078 107.064 172.754 107.08 173.419 107.107L173.786 107.123C175.227 107.181 176.717 107.234 178.174 107.452C178.254 107.463 178.286 107.543 178.281 107.612C178.275 107.676 178.233 107.74 178.158 107.74C176.68 107.809 175.185 107.724 173.738 107.639L173.546 107.628L173.53 107.623Z" fill="#1F2E33"/>
<path d="M120.544 105.006C120.187 104.984 119.831 104.958 119.485 104.931C119.118 104.904 118.746 104.878 118.373 104.857C117.607 104.814 116.825 104.74 116.075 104.665C115.517 104.612 114.942 104.559 114.373 104.516H114.368C114.368 104.516 114.331 104.484 114.331 104.452C114.331 104.426 114.357 104.404 114.378 104.404C114.948 104.42 115.522 104.42 116.081 104.42C116.788 104.42 117.522 104.42 118.246 104.447C118.57 104.458 118.9 104.468 119.214 104.474C119.544 104.484 119.889 104.49 120.224 104.505C120.373 104.505 120.528 104.511 120.677 104.511C121.102 104.511 121.538 104.516 121.948 104.612C122.065 104.638 122.177 104.67 122.283 104.713C122.336 104.734 122.358 104.798 122.352 104.851C122.352 104.915 122.315 104.963 122.262 104.974C121.794 105.101 121.315 105.064 120.852 105.027C120.746 105.021 120.645 105.011 120.538 105.006H120.544Z" fill="#1F2E33"/>
<path d="M111.405 104.335C111.373 104.33 111.341 104.319 111.309 104.314C111.245 104.298 111.218 104.24 111.224 104.186C111.224 104.128 111.266 104.085 111.32 104.075C111.612 104.032 111.867 104.027 112.128 104.043C112.277 104.053 112.426 104.075 112.548 104.096C112.628 104.112 112.703 104.138 112.777 104.17C112.841 104.197 112.899 104.218 112.958 104.234C112.963 104.234 112.974 104.234 112.985 104.234C113 104.234 113.011 104.255 113.011 104.271C113.011 104.293 112.995 104.303 112.979 104.309C112.91 104.309 112.83 104.335 112.756 104.357C112.681 104.378 112.607 104.399 112.532 104.404C112.426 104.415 112.32 104.415 112.219 104.415C112.181 104.415 112.144 104.415 112.112 104.415C111.899 104.415 111.681 104.394 111.405 104.33V104.335Z" fill="#1F2E33"/>
<path d="M100.463 103.516C101.942 103.447 103.431 103.532 104.867 103.617L105.075 103.628C105.825 103.67 106.57 103.729 107.336 103.787C107.516 103.803 107.703 103.809 107.899 103.814C108.325 103.83 108.772 103.846 109.181 103.942C109.341 103.979 109.479 104.021 109.612 104.075C109.623 104.075 109.634 104.096 109.634 104.112C109.634 104.128 109.623 104.138 109.607 104.144C109.096 104.293 108.538 104.261 108.006 104.234C107.846 104.224 107.681 104.218 107.522 104.213H107.272C106.591 104.192 105.889 104.176 105.197 104.149L104.809 104.133C103.378 104.075 101.894 104.016 100.447 103.809H100.436C100.362 103.787 100.335 103.713 100.34 103.644C100.346 103.58 100.388 103.516 100.463 103.511V103.516Z" fill="#1F2E33"/>
<path d="M152.13 92.8559C152.386 92.4091 152.763 92.0633 153.12 91.7282C153.199 91.6537 153.285 91.5739 153.364 91.4995C153.63 91.2494 153.896 90.9941 154.162 90.7494C154.455 90.4781 154.753 90.1962 155.045 89.9143C155.63 89.3557 156.237 88.8025 156.827 88.2759C157.274 87.8769 157.732 87.462 158.173 87.0524C158.2 87.0258 158.242 87.0471 158.253 87.0843C158.253 87.1003 158.253 87.1216 158.237 87.1375C157.811 87.5684 157.391 88.0205 156.982 88.4514C156.428 89.0366 155.859 89.643 155.279 90.2122C155.003 90.4888 154.721 90.7707 154.455 91.0473C154.242 91.2654 154.024 91.4888 153.801 91.7069C153.705 91.8027 153.609 91.9037 153.513 91.9995C153.136 92.3931 152.747 92.7974 152.279 93.0474C152.258 93.058 152.237 93.0634 152.21 93.058C152.167 93.0474 152.13 93.0102 152.114 92.9676C152.098 92.9304 152.104 92.8931 152.125 92.8559H152.13Z" fill="#1F2E33"/>
<path d="M160.104 85.6321C159.987 85.7385 159.859 85.8449 159.764 85.9194C159.7 85.9726 159.625 86.0098 159.551 86.0471C159.482 86.0843 159.418 86.1162 159.359 86.1588C159.349 86.1641 159.343 86.1694 159.333 86.1641C159.322 86.1641 159.311 86.1481 159.306 86.1375C159.306 86.1268 159.306 86.1109 159.317 86.1003C159.365 86.0417 159.407 85.9673 159.45 85.8928C159.487 85.8236 159.53 85.7492 159.583 85.6853C159.652 85.5949 159.732 85.5151 159.806 85.43C159.833 85.4034 159.859 85.3768 159.881 85.3502C160.093 85.1162 160.333 84.9406 160.535 84.8023C160.593 84.7598 160.673 84.797 160.695 84.8608C160.705 84.8981 160.695 84.9406 160.673 84.9725C160.492 85.2172 160.306 85.43 160.104 85.6215V85.6321Z" fill="#1F2E33"/>
<path d="M165.668 80.2967L165.514 80.4457C164.918 81.0202 164.301 81.5947 163.769 82.0894C163.631 82.2224 163.493 82.3553 163.344 82.5043C162.902 82.9405 162.45 83.3926 161.923 83.6586C161.918 83.6586 161.913 83.6586 161.907 83.6586C161.897 83.6586 161.886 83.648 161.881 83.6373C161.881 83.6267 161.881 83.616 161.881 83.6054C162.157 83.1054 162.583 82.6905 162.993 82.2968C163.115 82.1798 163.243 82.0575 163.36 81.9351L163.477 81.8128C164.041 81.2383 164.62 80.6425 165.2 80.068L165.397 79.8712C166.472 78.8073 167.583 77.7008 168.764 76.7327C168.796 76.7061 168.828 76.6955 168.865 76.7061C168.913 76.7167 168.956 76.7593 168.972 76.8125C168.982 76.8604 168.972 76.9082 168.94 76.9455C167.908 78.1423 166.764 79.2382 165.658 80.2967H165.668Z" fill="#1F2E33"/>
<path d="M121.618 122.81C121.698 122.847 121.778 122.879 121.863 122.905C121.831 122.932 121.799 122.964 121.767 122.99C121.325 123.389 120.873 123.799 120.432 124.209C120.421 124.219 120.405 124.225 120.389 124.219C120.368 124.219 120.352 124.198 120.347 124.177C120.347 124.155 120.347 124.139 120.363 124.123C120.783 123.693 121.208 123.246 121.618 122.81Z" fill="#1F2E33"/>
<path d="M118.501 125.624C118.618 125.517 118.735 125.416 118.841 125.336C118.91 125.283 118.98 125.251 119.054 125.214C119.123 125.182 119.187 125.145 119.251 125.102C119.267 125.086 119.293 125.102 119.299 125.118C119.299 125.129 119.299 125.145 119.293 125.156C119.246 125.214 119.203 125.288 119.16 125.363C119.123 125.432 119.081 125.507 119.033 125.57C118.964 125.656 118.884 125.741 118.809 125.82C118.783 125.847 118.756 125.879 118.73 125.906C118.517 126.14 118.283 126.315 118.075 126.453C118.049 126.469 118.022 126.48 117.99 126.469C117.953 126.459 117.921 126.432 117.91 126.39C117.9 126.352 117.91 126.31 117.932 126.273C118.113 126.028 118.299 125.815 118.501 125.624Z" fill="#1F2E33"/>
<path d="M115.714 128.241L115.895 128.071C116.464 127.523 117.044 126.98 117.639 126.427C117.783 126.294 117.916 126.161 118.065 126.012C118.507 125.576 118.959 125.124 119.48 124.863C119.496 124.852 119.517 124.863 119.528 124.884C119.528 124.895 119.528 124.905 119.528 124.916C119.251 125.416 118.826 125.826 118.416 126.225C118.294 126.342 118.166 126.464 118.049 126.586H118.044C117.443 127.209 116.826 127.842 116.203 128.459L116.006 128.656C114.932 129.725 113.825 130.826 112.639 131.794C112.607 131.821 112.575 131.826 112.538 131.821C112.49 131.81 112.448 131.768 112.432 131.714C112.421 131.666 112.432 131.619 112.464 131.581C113.485 130.395 114.623 129.305 115.719 128.251L115.714 128.241Z" fill="#1F2E33"/>
<path d="M152.354 121.379C152.386 121.421 152.418 121.464 152.45 121.501C152.684 121.81 152.928 122.123 153.173 122.432C153.668 123.06 154.152 123.714 154.62 124.347C154.971 124.82 155.333 125.31 155.694 125.783C155.71 125.799 155.71 125.82 155.694 125.842C155.678 125.863 155.657 125.874 155.636 125.868C155.625 125.868 155.62 125.863 155.615 125.852C155.232 125.4 154.833 124.943 154.444 124.506C153.928 123.921 153.396 123.315 152.891 122.698C152.646 122.4 152.396 122.102 152.152 121.815C152.114 121.767 152.072 121.719 152.035 121.671C152.146 121.575 152.253 121.48 152.354 121.373V121.379Z" fill="#1F2E33"/>
<path d="M156.519 127.007C156.572 127.06 156.641 127.102 156.705 127.145C156.769 127.188 156.833 127.23 156.886 127.283C156.966 127.358 157.04 127.438 157.11 127.523C157.136 127.549 157.157 127.576 157.184 127.608C157.392 127.837 157.551 128.102 157.663 128.31C157.684 128.352 157.684 128.4 157.657 128.443C157.631 128.485 157.588 128.501 157.546 128.496C157.53 128.496 157.514 128.485 157.498 128.47C157.28 128.283 157.094 128.081 156.923 127.863C156.844 127.762 156.764 127.645 156.668 127.501C156.62 127.432 156.588 127.347 156.556 127.273C156.524 127.198 156.503 127.129 156.461 127.065C156.45 127.055 156.45 127.033 156.461 127.023C156.471 127.001 156.498 127.001 156.508 127.012L156.519 127.007Z" fill="#1F2E33"/>
<path d="M158.716 129.741H158.727C159.173 130.033 159.535 130.486 159.886 130.922C159.993 131.055 160.099 131.188 160.205 131.315C160.748 131.954 161.301 132.613 161.854 133.284L162.009 133.47C162.956 134.624 163.94 135.816 164.796 137.098C164.828 137.146 164.828 137.204 164.796 137.257C164.764 137.31 164.7 137.342 164.652 137.332C164.652 137.332 164.61 137.316 164.594 137.3C163.541 136.209 162.583 134.996 161.652 133.826L161.498 133.635C161.025 133.039 160.562 132.438 160.051 131.768C159.934 131.613 159.812 131.464 159.684 131.305C159.301 130.837 158.902 130.353 158.679 129.789C158.679 129.778 158.679 129.762 158.684 129.751C158.695 129.741 158.705 129.736 158.721 129.741H158.716Z" fill="#1F2E33"/>
<path d="M123.991 86.9088C123.645 86.4354 123.283 85.946 122.916 85.4726C122.906 85.4566 122.906 85.43 122.916 85.414C122.932 85.3821 122.975 85.3768 122.996 85.3981C123.379 85.8555 123.778 86.3077 124.166 86.7439C124.682 87.329 125.214 87.9355 125.72 88.5525C125.959 88.8451 126.209 89.143 126.448 89.4302C126.64 89.6589 126.842 89.8983 127.039 90.1324C127.124 90.2334 127.214 90.3398 127.299 90.4409C127.65 90.8452 128.007 91.2601 128.22 91.7654C128.241 91.808 128.23 91.8612 128.198 91.9037C128.166 91.9463 128.119 91.9729 128.076 91.9623C128.076 91.9623 128.055 91.9569 128.044 91.9463C127.645 91.675 127.342 91.2814 127.049 90.8984C126.98 90.8079 126.911 90.7175 126.842 90.6324C126.613 90.3452 126.384 90.0473 126.166 89.76C125.932 89.4568 125.693 89.1376 125.448 88.8344C124.948 88.2067 124.464 87.5524 123.996 86.9194L123.991 86.9088Z" fill="#1F2E33"/>
<path d="M120.953 82.8182C120.991 82.7597 121.06 82.749 121.113 82.7916C121.331 82.9831 121.523 83.1799 121.687 83.398C121.767 83.4991 121.847 83.6161 121.943 83.7597C121.991 83.8342 122.023 83.9086 122.049 83.9884C122.081 84.0629 122.108 84.1321 122.15 84.1959C122.156 84.2065 122.156 84.2225 122.15 84.2385C122.145 84.2491 122.129 84.2544 122.118 84.2544C122.118 84.2544 122.108 84.2544 122.102 84.2491C122.049 84.1959 121.985 84.1533 121.916 84.1108C121.852 84.0682 121.788 84.0257 121.73 83.9778C121.65 83.9086 121.581 83.8235 121.512 83.7437C121.485 83.7118 121.459 83.6852 121.432 83.6533C121.225 83.4299 121.076 83.1693 120.953 82.9512C120.932 82.9086 120.932 82.8607 120.959 82.8182H120.953Z" fill="#1F2E33"/>
<path d="M119.895 81.5149H119.884C119.432 81.2224 119.07 80.7702 118.724 80.334C118.623 80.201 118.512 80.068 118.405 79.9404L118.384 79.9138C117.847 79.2808 117.293 78.6265 116.756 77.9669L116.607 77.786C115.655 76.6317 114.676 75.4348 113.814 74.1528C113.783 74.105 113.783 74.0465 113.814 73.9933C113.846 73.9401 113.905 73.9081 113.958 73.9188C113.979 73.9188 114.001 73.9347 114.017 73.9507C115.07 75.0412 116.033 76.254 116.958 77.4243L117.107 77.6105C117.607 78.2435 118.097 78.8818 118.559 79.4776C118.671 79.6265 118.793 79.7755 118.921 79.9297C119.309 80.3978 119.708 80.8819 119.932 81.4511C119.932 81.4617 119.932 81.4777 119.926 81.4883C119.916 81.499 119.905 81.5043 119.895 81.5043V81.5149Z" fill="#1F2E33"/>
<path d="M145.593 79.7116C145.593 79.7116 145.614 79.7169 145.63 79.7222H145.646C145.736 79.7595 145.795 79.8925 145.768 79.9935C145.635 80.5148 145.476 80.9298 145.274 81.2702C145.258 81.2915 145.236 81.3074 145.215 81.3021C145.194 81.3021 145.178 81.2808 145.178 81.2542C145.157 80.8606 145.21 80.4085 145.327 79.9137C145.359 79.7914 145.465 79.6797 145.593 79.7063V79.7116Z" fill="#1F2E33"/>
<path d="M145.96 78.8658C145.96 78.8658 145.939 78.8871 145.923 78.8871C145.907 78.8871 145.896 78.8658 145.896 78.8499C145.896 78.8233 145.885 78.7807 145.88 78.7329C145.87 78.6903 145.864 78.6531 145.859 78.6265C145.859 78.552 145.864 78.4722 145.88 78.3977V78.3605C145.923 78.1211 145.992 77.9243 146.098 77.7222C146.125 77.6743 146.183 77.6477 146.231 77.6583C146.274 77.669 146.306 77.7062 146.306 77.7594C146.306 77.9988 146.284 78.1903 146.215 78.3871C146.183 78.4828 146.151 78.5786 146.109 78.669C146.088 78.7116 146.061 78.7435 146.034 78.7701C146.008 78.7967 145.981 78.8286 145.965 78.8658H145.96Z" fill="#1F2E33"/>
<path d="M146.417 76.8764C146.417 76.8764 146.391 76.8604 146.391 76.8444C146.332 76.4348 146.439 76.004 146.54 75.5891C146.572 75.4667 146.598 75.355 146.625 75.238C146.742 74.6901 146.875 74.0677 147.013 73.4613L147.045 73.3283C147.306 72.2112 147.556 71.158 147.949 70.1047C147.976 70.0409 148.029 70.0037 148.093 70.0196C148.157 70.0356 148.215 70.0994 148.205 70.1845C148.066 71.3016 147.779 72.3974 147.502 73.456L147.423 73.7645C147.3 74.2326 147.167 74.706 147.04 75.1635C147.008 75.2858 146.971 75.4029 146.939 75.5252C146.912 75.6157 146.891 75.7114 146.864 75.8018C146.768 76.1742 146.673 76.5572 146.449 76.8551C146.439 76.8657 146.428 76.871 146.417 76.871V76.8764Z" fill="#1F2E33"/>
<path d="M117.092 99.9467C117.092 99.9467 117.07 99.984 117.049 99.984C116.725 100.016 116.357 99.9839 115.969 99.8935C115.921 99.8829 115.879 99.8722 115.831 99.8616C115.719 99.835 115.618 99.718 115.65 99.5744C115.65 99.5584 115.661 99.5424 115.666 99.5265V99.5158C115.703 99.4201 115.82 99.3509 115.916 99.3722C116.379 99.4999 116.762 99.6701 117.065 99.8776C117.086 99.8935 117.097 99.9201 117.086 99.9467H117.092Z" fill="#1F2E33"/>
<path d="M114.868 99.2765C114.868 99.2765 114.804 99.2871 114.761 99.2977C114.724 99.3084 114.692 99.319 114.666 99.319C114.596 99.3243 114.522 99.319 114.453 99.3031H114.421C114.384 99.2924 114.341 99.2818 114.304 99.2765C114.139 99.2392 113.99 99.1754 113.846 99.0796C113.804 99.053 113.777 98.9892 113.793 98.936C113.804 98.8881 113.841 98.8562 113.889 98.8562C114.107 98.8456 114.283 98.8669 114.458 98.936C114.549 98.9733 114.634 99.0052 114.714 99.0477C114.751 99.069 114.777 99.1009 114.809 99.1275C114.836 99.1541 114.857 99.186 114.889 99.202C114.905 99.2073 114.91 99.2233 114.905 99.2392C114.905 99.2605 114.884 99.2711 114.868 99.2711V99.2765Z" fill="#1F2E33"/>
<path d="M112.24 98.7499C112.134 98.7233 112.022 98.6967 111.921 98.6701C111.82 98.6435 111.714 98.6169 111.618 98.5903H111.602C111.416 98.5424 111.224 98.4998 111.033 98.4573C110.623 98.3615 110.293 98.2817 109.99 98.2073L109.868 98.1754C108.857 97.92 107.905 97.6806 106.958 97.2817C106.9 97.2551 106.868 97.1913 106.889 97.1221C106.905 97.053 106.963 96.9891 107.043 96.9998C107.442 97.0476 107.868 97.1221 108.341 97.2285C108.9 97.3562 109.458 97.5157 110.001 97.67L110.283 97.7498C110.714 97.8668 111.144 97.9998 111.565 98.1328C111.671 98.1647 111.772 98.1966 111.879 98.2285C111.958 98.2551 112.049 98.2764 112.129 98.303C112.464 98.3935 112.809 98.4892 113.081 98.7233C113.091 98.7339 113.097 98.7445 113.091 98.7605C113.091 98.7765 113.075 98.7871 113.065 98.7924C112.772 98.8509 112.474 98.7977 112.246 98.7499H112.24Z" fill="#1F2E33"/>
<path d="M161.386 111.607C161.386 111.607 161.408 111.57 161.429 111.57C161.754 111.538 162.121 111.57 162.52 111.66C162.562 111.671 162.605 111.681 162.647 111.692C162.759 111.724 162.86 111.841 162.828 111.979C162.823 112.001 162.817 112.022 162.807 112.038C162.775 112.134 162.658 112.203 162.562 112.181H162.557C162.083 112.048 161.711 111.884 161.408 111.676C161.386 111.66 161.376 111.633 161.386 111.607Z" fill="#1F2E33"/>
<path d="M164.588 112.697C164.434 112.708 164.306 112.697 164.184 112.665C164.131 112.655 164.072 112.639 164.025 112.618L163.998 112.607C163.918 112.575 163.844 112.548 163.769 112.506C163.732 112.485 163.705 112.453 163.679 112.426C163.652 112.4 163.631 112.373 163.599 112.352C163.583 112.346 163.578 112.325 163.583 112.309C163.583 112.293 163.604 112.277 163.62 112.282C163.642 112.282 163.684 112.272 163.727 112.256C163.764 112.245 163.796 112.235 163.822 112.229C163.892 112.224 163.961 112.229 164.03 112.245H164.067C164.285 112.282 164.461 112.352 164.642 112.469C164.684 112.495 164.705 112.559 164.695 112.618C164.684 112.665 164.647 112.697 164.599 112.697H164.588Z" fill="#1F2E33"/>
<path d="M166.238 112.809C166.344 112.836 166.456 112.862 166.557 112.889C166.658 112.915 166.764 112.942 166.865 112.969L166.903 112.979C167.089 113.022 167.27 113.059 167.451 113.102C167.865 113.197 168.185 113.272 168.483 113.346L168.621 113.384C169.578 113.623 170.573 113.873 171.509 114.272C171.573 114.299 171.6 114.362 171.584 114.431C171.568 114.501 171.509 114.564 171.429 114.554C171.025 114.506 170.6 114.431 170.132 114.325C169.578 114.197 169.025 114.038 168.483 113.889L168.19 113.809C167.764 113.687 167.334 113.554 166.913 113.426C166.807 113.394 166.701 113.357 166.594 113.325C166.509 113.298 166.424 113.272 166.339 113.251C166.004 113.16 165.658 113.059 165.387 112.83C165.376 112.82 165.376 112.804 165.376 112.793C165.376 112.777 165.392 112.767 165.403 112.767C165.695 112.708 165.993 112.761 166.227 112.814L166.238 112.809Z" fill="#1F2E33"/>
<path d="M123.858 127.773C123.858 127.773 123.916 127.762 123.932 127.789C123.938 127.805 123.938 127.821 123.932 127.837C123.794 128.241 123.565 128.672 123.246 129.14C123.204 129.204 123.108 129.241 123.033 129.225C122.964 129.209 122.922 129.193 122.89 129.124C122.837 129.023 122.842 128.916 122.911 128.821C123.22 128.379 123.544 128.028 123.863 127.773H123.858Z" fill="#1F2E33"/>
<path d="M121.847 130.246C121.89 130.193 121.938 130.134 121.991 130.087C122.033 130.049 122.076 130.023 122.124 129.996C122.172 129.97 122.214 129.943 122.246 129.906C122.262 129.89 122.294 129.895 122.305 129.916C122.305 129.927 122.305 129.938 122.305 129.948C122.294 129.975 122.283 130.033 122.273 130.081C122.262 130.129 122.257 130.177 122.246 130.204C122.219 130.283 122.172 130.358 122.129 130.432C122.118 130.448 122.102 130.47 122.092 130.491C121.985 130.677 121.852 130.831 121.666 130.991C121.64 131.012 121.613 131.017 121.586 131.012C121.555 131.007 121.528 130.98 121.512 130.948C121.496 130.916 121.496 130.879 121.512 130.842C121.602 130.608 121.698 130.438 121.82 130.283C121.836 130.267 121.847 130.251 121.863 130.236L121.847 130.246Z" fill="#1F2E33"/>
<path d="M120.379 132.959C120.294 133.092 120.203 133.23 120.118 133.363C119.847 133.778 119.57 134.209 119.288 134.624C119.214 134.736 119.139 134.842 119.065 134.954C118.639 135.582 118.208 136.215 117.74 136.832C117.565 136.816 117.384 136.81 117.203 136.821C117.655 136.092 118.145 135.406 118.655 134.688L118.682 134.651C119.081 134.087 119.496 133.534 119.852 133.055C119.932 132.943 120.012 132.831 120.097 132.709C120.363 132.321 120.639 131.922 121.001 131.698C121.007 131.698 121.017 131.693 121.028 131.693C121.044 131.693 121.06 131.714 121.054 131.736C120.969 132.108 120.751 132.422 120.544 132.725C120.491 132.799 120.437 132.879 120.389 132.954L120.379 132.959Z" fill="#1F2E33"/>
<path d="M154.594 83.7118C154.594 83.7118 154.567 83.7278 154.551 83.7224C154.535 83.7171 154.524 83.7065 154.519 83.6958C154.514 83.6799 154.514 83.6639 154.519 83.648C154.663 83.2437 154.886 82.8181 155.205 82.35C155.248 82.2862 155.344 82.2436 155.418 82.2596C155.487 82.2755 155.53 82.2915 155.567 82.3607C155.62 82.4617 155.61 82.5681 155.546 82.6639C155.232 83.1054 154.907 83.4618 154.594 83.7118Z" fill="#1F2E33"/>
<path d="M156.599 81.2383C156.556 81.2915 156.508 81.35 156.46 81.3979C156.418 81.4351 156.375 81.4617 156.327 81.4883C156.279 81.5149 156.237 81.5415 156.2 81.5787C156.189 81.584 156.178 81.5894 156.168 81.584C156.157 81.584 156.146 81.5734 156.146 81.5628C156.146 81.5521 156.146 81.5415 156.146 81.5309C156.157 81.5096 156.168 81.4457 156.178 81.3979C156.189 81.35 156.194 81.3021 156.205 81.2755C156.232 81.1957 156.279 81.1213 156.322 81.0468C156.333 81.0255 156.349 81.0042 156.359 80.983C156.471 80.7915 156.599 80.6372 156.79 80.4776C156.817 80.4563 156.843 80.451 156.87 80.4563C156.902 80.4616 156.928 80.4882 156.944 80.5202C156.96 80.5521 156.96 80.5893 156.944 80.6266C156.854 80.8606 156.758 81.0308 156.636 81.1851C156.62 81.201 156.609 81.217 156.593 81.233L156.599 81.2383Z" fill="#1F2E33"/>
<path d="M159.796 76.7966L159.774 76.8285C159.381 77.3817 158.982 77.919 158.609 78.4243C158.53 78.5307 158.45 78.6477 158.365 78.7701C158.099 79.1584 157.822 79.5573 157.455 79.7861C157.45 79.7861 157.439 79.7861 157.428 79.7861C157.418 79.7861 157.412 79.7808 157.407 79.7754C157.407 79.7701 157.402 79.7595 157.407 79.7488C157.492 79.3765 157.71 79.0626 157.918 78.7541C157.971 78.6796 158.024 78.6052 158.072 78.5254C158.152 78.4083 158.226 78.2913 158.301 78.169C158.583 77.7381 158.87 77.2913 159.168 76.8604C159.242 76.7487 159.317 76.6423 159.391 76.5306C160.051 75.5571 160.737 74.5518 161.524 73.6581C161.562 73.6209 161.604 73.6049 161.657 73.6155C161.705 73.6262 161.742 73.6581 161.758 73.7007C161.769 73.7273 161.774 73.7698 161.748 73.8177C161.173 74.8762 160.503 75.8125 159.796 76.8019V76.7966Z" fill="#1F2E33"/>
<path d="M113.458 84.0576C113.948 84.4725 114.432 84.898 114.879 85.2917C114.974 85.3768 115.081 85.4619 115.187 85.547C115.533 85.8289 115.889 86.1162 116.086 86.5098C116.091 86.5205 116.086 86.5417 116.086 86.5524C116.075 86.563 116.065 86.5683 116.054 86.5683C115.719 86.4885 115.437 86.2598 115.171 86.0417C115.102 85.9885 115.033 85.93 114.964 85.8768C114.825 85.7704 114.687 85.664 114.543 85.5523C114.192 85.281 113.825 85.0044 113.474 84.7225C113.378 84.6427 113.283 84.5682 113.182 84.4884C112.315 83.7916 111.416 83.0682 110.623 82.233C110.57 82.1798 110.575 82.0947 110.607 82.0415C110.644 81.9723 110.713 81.9458 110.777 81.983C111.724 82.5841 112.554 83.2862 113.437 84.031L113.469 84.0576H113.458Z" fill="#1F2E33"/>
<path d="M158.86 121.884C158.86 121.884 158.897 121.852 158.918 121.857C158.918 121.857 158.923 121.857 158.929 121.857C159.296 122.001 159.679 122.235 160.094 122.576C160.152 122.623 160.184 122.73 160.168 122.81C160.152 122.879 160.142 122.927 160.067 122.974C160.009 123.012 159.95 123.028 159.892 123.012C159.854 123.006 159.828 122.985 159.796 122.964C159.402 122.639 159.094 122.294 158.865 121.948C158.854 121.927 158.854 121.905 158.865 121.884H158.86Z" fill="#1F2E33"/>
<path d="M161.62 124.448C161.62 124.448 161.61 124.448 161.604 124.448C161.392 124.358 161.243 124.256 161.104 124.123C161.088 124.108 161.078 124.097 161.062 124.081C161.014 124.033 160.961 123.98 160.918 123.927C160.886 123.884 160.86 123.831 160.838 123.783C160.817 123.73 160.79 123.682 160.764 123.65C160.753 123.639 160.753 123.618 160.764 123.602C160.774 123.586 160.785 123.581 160.801 123.586H160.806C160.806 123.586 160.865 123.608 160.876 123.613C160.892 123.613 160.913 123.623 160.929 123.623L160.982 123.634C160.982 123.634 161.024 123.645 161.035 123.65C161.11 123.677 161.173 123.725 161.232 123.772C161.253 123.788 161.274 123.799 161.29 123.815C161.461 123.932 161.599 124.07 161.737 124.272C161.764 124.31 161.764 124.358 161.737 124.395C161.711 124.443 161.658 124.464 161.615 124.453L161.62 124.448Z" fill="#1F2E33"/>
<path d="M164.993 127.422C164.509 127.012 164.025 126.586 163.573 126.187C163.477 126.102 163.371 126.017 163.264 125.932C162.918 125.65 162.562 125.363 162.365 124.969C162.36 124.953 162.365 124.937 162.365 124.927C162.37 124.911 162.386 124.911 162.397 124.911C162.732 124.991 163.009 125.219 163.28 125.437C163.349 125.491 163.418 125.549 163.488 125.602C163.605 125.693 163.722 125.783 163.839 125.874C164.211 126.161 164.599 126.453 164.972 126.757C165.067 126.836 165.163 126.911 165.259 126.991C166.126 127.688 167.03 128.411 167.823 129.251C167.876 129.305 167.871 129.384 167.839 129.438C167.807 129.496 167.759 129.523 167.706 129.512C167.695 129.512 167.679 129.501 167.669 129.496C166.716 128.895 165.881 128.182 164.993 127.437L164.977 127.427L164.993 127.422Z" fill="#1F2E33"/>
<path d="M142.358 132.762C142.518 133.177 142.635 133.661 142.699 134.198C142.71 134.278 142.688 134.347 142.64 134.401C142.587 134.459 142.502 134.48 142.422 134.464C142.327 134.443 142.263 134.363 142.252 134.257C142.199 133.73 142.204 133.236 142.268 132.784C142.268 132.768 142.279 132.752 142.289 132.746C142.316 132.73 142.358 132.741 142.369 132.773L142.358 132.762Z" fill="#1F2E33"/>
<path d="M142.465 135.486C142.465 135.486 142.465 135.465 142.481 135.454C142.497 135.438 142.524 135.443 142.534 135.47C142.545 135.512 142.571 135.55 142.598 135.592C142.625 135.629 142.651 135.672 142.662 135.72C142.688 135.805 142.704 135.89 142.72 135.975C142.72 135.997 142.731 136.023 142.736 136.044C142.774 136.236 142.774 136.433 142.742 136.688C142.742 136.72 142.72 136.747 142.699 136.768C142.673 136.784 142.641 136.794 142.609 136.784C142.571 136.773 142.54 136.752 142.529 136.715C142.444 136.486 142.401 136.278 142.396 136.06C142.396 135.959 142.391 135.853 142.396 135.752C142.396 135.699 142.417 135.656 142.433 135.608C142.449 135.566 142.465 135.523 142.465 135.481V135.486Z" fill="#1F2E33"/>
<path d="M142.444 134.294C142.444 134.294 142.46 134.305 142.465 134.31C142.646 134.629 142.689 135.018 142.731 135.39C142.742 135.48 142.753 135.571 142.763 135.661C142.79 135.837 142.816 136.018 142.838 136.193C142.907 136.672 142.981 137.167 143.04 137.656C143.056 137.794 143.072 137.927 143.093 138.066C143.237 139.241 143.391 140.459 143.391 141.683C143.391 141.731 143.37 141.773 143.338 141.805C143.3 141.837 143.253 141.853 143.215 141.843C143.178 141.832 143.141 141.8 143.13 141.747C142.864 140.571 142.747 139.406 142.62 138.177V138.156C142.556 137.523 142.502 136.901 142.439 136.156C142.428 136.012 142.412 135.874 142.391 135.72C142.332 135.252 142.274 134.762 142.396 134.326C142.396 134.305 142.423 134.294 142.439 134.294H142.444Z" fill="#1F2E33"/>
<path d="M135.816 77.0838C135.874 77.0253 135.954 77.004 136.034 77.02C136.129 77.0412 136.193 77.121 136.209 77.2274C136.262 77.754 136.257 78.2541 136.193 78.7062C136.193 78.7222 136.183 78.7328 136.172 78.7435C136.161 78.7541 136.145 78.7541 136.135 78.7541C136.119 78.7541 136.103 78.7381 136.097 78.7222C135.938 78.3126 135.821 77.8285 135.757 77.2859C135.746 77.2061 135.768 77.137 135.821 77.0838H135.816Z" fill="#1F2E33"/>
<path d="M135.986 75.9986C135.986 75.9986 135.981 76.0199 135.97 76.0305C135.959 76.0359 135.949 76.0412 135.938 76.0359C135.927 76.0359 135.917 76.0252 135.917 76.0146C135.906 75.972 135.88 75.9348 135.853 75.8922C135.826 75.855 135.805 75.8125 135.784 75.7646C135.757 75.6741 135.741 75.5837 135.72 75.4933L135.709 75.4401C135.672 75.2486 135.672 75.0571 135.704 74.7964C135.704 74.7645 135.725 74.7379 135.747 74.7167C135.773 74.6954 135.805 74.6901 135.832 74.7007C135.869 74.7113 135.895 74.7326 135.911 74.7698C135.997 74.9986 136.039 75.206 136.044 75.4241C136.044 75.5358 136.044 75.6316 136.044 75.7327C136.044 75.7859 136.023 75.8284 136.007 75.871C135.991 75.9135 135.975 75.9561 135.975 76.004L135.986 75.9986Z" fill="#1F2E33"/>
<path d="M135.693 73.823C135.693 73.823 135.677 73.8123 135.672 73.807C135.497 73.4879 135.449 73.1049 135.406 72.7325C135.396 72.6421 135.385 72.5463 135.369 72.4559C135.342 72.2803 135.321 72.1048 135.294 71.9293C135.225 71.4505 135.151 70.9558 135.092 70.4664C135.076 70.3388 135.06 70.2058 135.044 70.0728C134.895 68.8919 134.747 67.6684 134.741 66.4343C134.741 66.3864 134.757 66.3439 134.794 66.3119C134.832 66.28 134.88 66.2641 134.917 66.2747C134.959 66.2853 134.991 66.3173 135.002 66.3705C135.268 67.5514 135.385 68.7163 135.513 69.9504V69.9664C135.587 70.6579 135.64 71.3335 135.693 71.9665C135.704 72.1048 135.72 72.2431 135.741 72.3867C135.8 72.8602 135.858 73.3495 135.741 73.7911C135.741 73.8123 135.715 73.823 135.699 73.823H135.693Z" fill="#1F2E33"/>
<path d="M114.474 109.873H114.479C114.479 109.873 114.511 109.894 114.517 109.921C114.517 109.947 114.506 109.968 114.485 109.979C114.107 110.171 113.66 110.309 113.166 110.394C113.134 110.394 113.107 110.394 113.08 110.394C112.969 110.367 112.921 110.245 112.926 110.144C112.926 110.043 112.99 109.921 113.128 109.899C113.612 109.825 114.065 109.814 114.474 109.873Z" fill="#1F2E33"/>
<path d="M111.894 110.325C111.857 110.357 111.82 110.383 111.772 110.399C111.692 110.431 111.612 110.453 111.532 110.474L111.474 110.49C111.293 110.538 111.123 110.543 110.889 110.516C110.889 110.516 110.884 110.516 110.878 110.516C110.836 110.506 110.804 110.469 110.804 110.421C110.804 110.368 110.83 110.314 110.878 110.293C111.086 110.192 111.277 110.144 111.479 110.123C111.57 110.123 111.665 110.112 111.761 110.118C111.809 110.118 111.846 110.139 111.889 110.155C111.931 110.171 111.969 110.187 112.006 110.187H112.011C112.011 110.187 112.038 110.203 112.038 110.219C112.038 110.235 112.027 110.251 112.011 110.256C111.969 110.266 111.937 110.298 111.9 110.325H111.894Z" fill="#1F2E33"/>
<path d="M103.187 111.543C104.261 111.219 105.32 111.054 106.442 110.883H106.479C107.139 110.777 107.804 110.687 108.309 110.623C108.437 110.607 108.565 110.586 108.697 110.559C109.096 110.49 109.511 110.415 109.889 110.5C109.921 110.506 109.948 110.516 109.974 110.522C109.985 110.522 109.995 110.538 110.001 110.554C110.001 110.57 110.001 110.58 109.985 110.591C109.687 110.798 109.336 110.857 108.995 110.915C108.91 110.931 108.825 110.942 108.745 110.958C108.612 110.985 108.485 111.011 108.352 111.038C107.884 111.134 107.4 111.235 106.921 111.32C106.788 111.346 106.655 111.368 106.522 111.389C105.453 111.58 104.341 111.782 103.234 111.82C103.224 111.82 103.213 111.82 103.203 111.82C103.139 111.804 103.091 111.74 103.091 111.665C103.091 111.602 103.128 111.559 103.187 111.538V111.543Z" fill="#1F2E33"/>
<path d="M165.323 101.58C164.838 101.654 164.386 101.665 163.977 101.606C163.977 101.606 163.939 101.585 163.939 101.559C163.939 101.532 163.95 101.511 163.971 101.5C164.354 101.308 164.796 101.17 165.291 101.085C165.323 101.085 165.349 101.085 165.376 101.085C165.493 101.112 165.535 101.234 165.53 101.335C165.525 101.436 165.466 101.559 165.328 101.574L165.323 101.58Z" fill="#1F2E33"/>
<path d="M166.7 101.367C166.7 101.367 166.674 101.367 166.658 101.362C166.626 101.356 166.599 101.34 166.573 101.33C166.53 101.314 166.493 101.298 166.456 101.298C166.456 101.298 166.429 101.277 166.429 101.261C166.429 101.245 166.44 101.229 166.45 101.223C166.493 101.207 166.525 101.181 166.562 101.149C166.599 101.122 166.637 101.09 166.685 101.074C166.764 101.043 166.849 101.021 166.929 101L166.982 100.984C167.158 100.936 167.334 100.931 167.568 100.957C167.621 100.963 167.653 101 167.653 101.053C167.653 101.106 167.626 101.16 167.584 101.181C167.371 101.282 167.185 101.335 166.982 101.346C166.892 101.351 166.796 101.356 166.7 101.351V101.367Z" fill="#1F2E33"/>
<path d="M175.265 99.9414C174.185 100.266 173.126 100.431 172.004 100.601H171.972C171.35 100.702 170.727 100.782 170.142 100.862C170.015 100.878 169.882 100.899 169.749 100.926C169.35 100.995 168.935 101.069 168.562 100.984C168.536 100.979 168.504 100.968 168.477 100.963C168.461 100.963 168.456 100.947 168.451 100.931C168.451 100.92 168.451 100.904 168.467 100.899C168.759 100.691 169.116 100.633 169.451 100.574C169.536 100.558 169.621 100.543 169.706 100.527C169.839 100.5 169.972 100.468 170.11 100.441C170.578 100.346 171.057 100.245 171.536 100.16C171.658 100.138 171.775 100.117 171.898 100.096C172.983 99.8989 174.1 99.6967 175.222 99.6542C175.302 99.6542 175.366 99.7233 175.366 99.8138C175.366 99.8776 175.329 99.9255 175.27 99.9414H175.265Z" fill="#1F2E33"/>
<path d="M116.756 120.325L116.804 120.299C116.873 120.262 116.948 120.224 117.022 120.192C117.065 120.177 117.113 120.177 117.15 120.171C117.193 120.171 117.23 120.171 117.267 120.155C117.288 120.145 117.31 120.155 117.31 120.182C117.31 120.198 117.31 120.214 117.299 120.219C117.272 120.246 117.251 120.283 117.235 120.32C117.219 120.357 117.198 120.4 117.166 120.432C117.102 120.501 117.028 120.56 116.959 120.613C116.804 120.735 116.645 120.82 116.437 120.884C116.421 120.884 116.4 120.889 116.384 120.884C116.342 120.873 116.31 120.841 116.294 120.799C116.283 120.762 116.294 120.724 116.32 120.698C116.474 120.517 116.602 120.405 116.756 120.325Z" fill="#1F2E33"/>
<path d="M112.719 122.9L112.979 122.735C113.357 122.496 113.745 122.256 114.118 122.028C114.23 121.964 114.336 121.895 114.448 121.826C114.522 121.778 114.602 121.73 114.676 121.682C114.98 121.485 115.293 121.283 115.639 121.235H115.65C115.65 121.235 115.671 121.246 115.671 121.262C115.671 121.272 115.671 121.288 115.666 121.294C115.437 121.639 115.091 121.873 114.751 122.097C114.655 122.161 114.559 122.224 114.469 122.288L114.442 122.304C113.99 122.629 113.517 122.959 113.054 123.278L112.932 123.363C112.038 123.969 111.197 124.538 110.256 124.996C110.229 125.012 110.203 125.012 110.176 125.007C110.128 124.996 110.096 124.953 110.08 124.895C110.07 124.836 110.091 124.772 110.134 124.735C110.947 124.033 111.846 123.459 112.719 122.9Z" fill="#1F2E33"/>
<path d="M161.721 91.2282L161.679 91.2495C161.609 91.2867 161.53 91.3293 161.455 91.3559C161.413 91.3718 161.37 91.3718 161.328 91.3771C161.285 91.3771 161.248 91.3771 161.211 91.3931C161.205 91.3931 161.2 91.3931 161.189 91.3931C161.179 91.3931 161.168 91.3824 161.168 91.3665C161.168 91.3505 161.168 91.3346 161.179 91.3293C161.205 91.3027 161.226 91.2654 161.242 91.2282C161.264 91.191 161.28 91.1537 161.312 91.1165C161.375 91.0473 161.445 90.9941 161.519 90.9356C161.673 90.8133 161.838 90.7228 162.046 90.6643C162.104 90.6484 162.168 90.6856 162.184 90.7494C162.195 90.7867 162.184 90.8239 162.157 90.8558C162.003 91.0367 161.87 91.1484 161.721 91.2282Z" fill="#1F2E33"/>
<path d="M165.764 88.6482L165.498 88.8185C165.121 89.0578 164.738 89.2972 164.36 89.526C164.248 89.5951 164.136 89.6589 164.03 89.7281C163.956 89.776 163.876 89.8238 163.801 89.8717C163.498 90.0685 163.184 90.2707 162.839 90.3185H162.828C162.828 90.3185 162.807 90.3079 162.807 90.2973C162.807 90.2866 162.807 90.2707 162.807 90.26C163.03 89.9143 163.381 89.6855 163.716 89.4621C163.812 89.3983 163.913 89.3345 164.004 89.2653C164.466 88.9355 164.94 88.6004 165.418 88.2759L165.536 88.1961C166.434 87.5897 167.28 87.0152 168.222 86.5577C168.248 86.5471 168.275 86.5417 168.296 86.5471C168.344 86.5577 168.381 86.6003 168.392 86.6588C168.403 86.7173 168.381 86.7758 168.344 86.813C167.53 87.5152 166.637 88.0897 165.77 88.6429L165.764 88.6482Z" fill="#1F2E33"/>
<path d="M127.235 82.9033C127.289 82.9139 127.331 82.9512 127.363 83.0097C127.576 83.4246 127.735 83.8555 127.831 84.2863C127.831 84.3076 127.831 84.3289 127.815 84.3448C127.805 84.3608 127.789 84.3661 127.773 84.3608C127.762 84.3608 127.757 84.3555 127.751 84.3448C127.454 84.047 127.198 83.6906 126.985 83.2969C126.938 83.2065 126.943 83.1054 127.001 83.015C127.06 82.9299 127.156 82.882 127.241 82.9033H127.235Z" fill="#1F2E33"/>
<path d="M126.31 81.0734C126.469 81.233 126.565 81.3766 126.634 81.5415L126.656 81.5841C126.688 81.6639 126.725 81.7383 126.746 81.8234C126.757 81.8713 126.757 81.9192 126.757 81.9617C126.757 82.0096 126.757 82.0522 126.767 82.0894C126.767 82.1001 126.767 82.116 126.762 82.1266C126.751 82.1373 126.741 82.1426 126.73 82.1426C126.725 82.1426 126.714 82.1373 126.714 82.132C126.688 82.1 126.656 82.0841 126.624 82.0628C126.587 82.0415 126.555 82.0203 126.523 81.9883C126.464 81.9192 126.416 81.85 126.363 81.7649C126.251 81.5947 126.182 81.4245 126.134 81.1957C126.124 81.1532 126.134 81.1053 126.166 81.0734C126.209 81.0308 126.267 81.0255 126.31 81.0681V81.0734Z" fill="#1F2E33"/>
<path d="M125.826 80.3765C125.826 80.3765 125.805 80.3872 125.794 80.3872C125.794 80.3872 125.783 80.3872 125.783 80.3818C125.475 80.1478 125.278 79.7701 125.081 79.4084C125.023 79.302 124.97 79.1956 124.911 79.0999L124.842 78.9828C124.581 78.5254 124.31 78.0519 124.049 77.5785L123.991 77.4668C123.459 76.4987 122.959 75.5837 122.571 74.5571C122.555 74.5092 122.56 74.456 122.586 74.4188C122.618 74.3762 122.677 74.3549 122.73 74.3656C122.762 74.3709 122.789 74.3922 122.805 74.4188C123.422 75.2911 123.922 76.2699 124.406 77.2061L124.544 77.4774C124.767 77.9189 124.991 78.3711 125.204 78.8073L125.331 79.0626C125.369 79.1424 125.411 79.2275 125.459 79.3073C125.629 79.6318 125.805 79.9722 125.837 80.3499C125.837 80.3606 125.837 80.3712 125.826 80.3818V80.3765Z" fill="#1F2E33"/>
<path d="M151.242 128.656C151.189 128.645 151.146 128.608 151.115 128.549C150.896 128.134 150.737 127.704 150.646 127.273C150.646 127.251 150.646 127.23 150.662 127.214C150.684 127.193 150.71 127.188 150.732 127.214C151.024 127.517 151.285 127.868 151.498 128.262C151.545 128.352 151.54 128.454 151.482 128.544C151.423 128.629 151.327 128.677 151.242 128.656Z" fill="#1F2E33"/>
<path d="M152.216 130.512C152.216 130.512 152.184 130.496 152.168 130.486C152.014 130.326 151.913 130.182 151.843 130.017C151.833 129.996 151.827 129.975 151.817 129.959C151.785 129.89 151.753 129.81 151.732 129.736C151.716 129.688 151.716 129.64 151.716 129.592C151.716 129.544 151.716 129.501 151.705 129.464C151.705 129.454 151.705 129.438 151.71 129.427C151.721 129.411 151.748 129.411 151.764 129.427C151.79 129.459 151.822 129.48 151.854 129.496C151.886 129.517 151.923 129.533 151.95 129.571C152.014 129.645 152.061 129.72 152.109 129.794C152.216 129.959 152.29 130.134 152.338 130.358C152.349 130.4 152.338 130.448 152.306 130.48C152.28 130.512 152.242 130.523 152.21 130.517L152.216 130.512Z" fill="#1F2E33"/>
<path d="M152.646 131.177C152.646 131.177 152.678 131.161 152.694 131.177C153.003 131.416 153.205 131.794 153.397 132.156C153.45 132.257 153.508 132.363 153.561 132.459L153.593 132.512C153.87 132.991 154.152 133.486 154.423 133.98L154.482 134.081C155.014 135.055 155.514 135.97 155.907 137.002C155.923 137.05 155.918 137.103 155.891 137.14C155.859 137.183 155.801 137.204 155.748 137.193C155.716 137.188 155.689 137.167 155.673 137.14C155.056 136.268 154.556 135.294 154.072 134.353L153.934 134.081C153.726 133.677 153.524 133.262 153.327 132.858C153.269 132.736 153.21 132.619 153.152 132.496C153.115 132.411 153.067 132.331 153.029 132.252C152.859 131.927 152.684 131.587 152.652 131.204C152.652 131.193 152.652 131.182 152.662 131.172L152.646 131.177Z" fill="#1F2E33"/>
<path d="M119.735 103.192C119.384 101.447 119.793 99.8138 120.198 98.7499C120.969 96.7338 122.613 95.1486 124.831 94.2869C124.969 94.2337 125.108 94.1964 125.251 94.1752C126.432 93.8028 127.714 93.6964 128.805 93.872C130.012 92.308 132.156 91.2122 134.72 90.8558C135.768 90.7069 136.821 90.7441 137.768 90.9622C138.225 91.0686 138.656 91.2122 139.06 91.3984C139.411 91.558 139.741 91.7601 140.039 91.9942C140.784 90.425 141.47 88.9196 142.13 87.4035C141.662 86.1375 141.172 84.8821 140.677 83.6746C138.837 79.2754 140.55 75.7167 143.204 74.472L143.757 74.2167C144.726 73.7645 145.885 73.6581 147.029 73.9188C147.247 73.9667 147.47 74.0305 147.683 74.105C149.705 71.5995 152.471 71.174 154.258 71.5835C154.359 71.6048 154.449 71.6314 154.556 71.658L155.146 71.8282C156.572 72.2325 157.833 73.2911 158.599 74.7327C159.599 76.5998 159.726 78.9297 158.96 81.2809C158.099 84.0097 157.141 86.7758 156.109 89.5153C156.322 90.4196 156.497 91.292 156.615 92.1112C157.428 97.1009 157.705 101.649 157.428 105.633C158.301 105.697 159.173 105.745 160.035 105.772C160.099 105.772 160.157 105.772 160.21 105.777C160.354 105.787 160.498 105.809 160.631 105.846C160.668 105.851 160.705 105.862 160.742 105.873C162.992 106.389 164.312 108.261 164.907 109.352C165.163 109.655 165.317 110.032 165.344 110.442C165.365 110.591 165.365 110.74 165.344 110.889C165.322 113.059 164.764 115.065 164.274 116.575C163.673 118.426 162.833 120.304 161.695 122.31C160.508 124.405 159.04 126.257 157.205 128.395C157.093 128.523 156.971 128.634 156.838 128.73C155.918 129.629 154.827 130.299 153.88 130.837C152.492 131.624 151.018 132.268 149.768 132.8C148.843 133.188 147.907 133.566 146.997 133.927L146.938 133.954C146.662 134.066 146.385 134.172 146.114 134.284C145.954 134.348 145.789 134.411 145.625 134.47C145.263 134.603 144.917 134.736 144.646 134.885C144.561 135.028 144.481 135.177 144.406 135.305C144.21 135.667 144.023 136.05 143.853 136.449C143.848 136.465 143.843 136.475 143.837 136.491L143.821 136.544C143.608 137.268 143.465 138.023 143.311 138.821L143.257 139.098C143.002 140.417 142.96 140.917 142.901 141.545C142.853 142.082 142.795 142.688 142.608 143.864C142.433 144.986 142.3 145.853 142.178 146.667C142.098 147.205 141.811 147.667 141.374 147.965C140.933 148.268 140.369 148.37 139.832 148.247C139.103 148.082 138.534 147.518 138.364 146.811L137.794 146.05L118.219 141.614C117.831 141.784 117.389 141.821 116.974 141.726C116.458 141.609 116.027 141.305 115.756 140.869C115.49 140.444 115.41 139.933 115.533 139.428L115.809 138.279C116.554 135.167 116.862 133.879 117.602 130.326C117.65 130.103 117.698 129.884 117.745 129.661C117.884 129.012 118.033 128.347 118.107 127.709C117.655 126.767 117.378 125.799 117.139 124.879C116.596 122.836 116.304 120.703 116.261 118.528C116.261 118.464 116.261 118.405 116.261 118.341C116.261 118.325 116.261 118.315 116.261 118.299C116.421 114.022 117.586 109.527 119.714 104.936C119.714 104.357 119.719 103.777 119.724 103.197L119.735 103.192Z" fill="white"/>
<path d="M137.444 100.292C141.922 91.8133 145.109 84.5736 147.455 77.5094C148.652 73.8177 151.63 72.424 153.95 72.9559C154.019 72.9719 154.093 72.9878 154.168 73.0091L154.764 73.1847C155.822 73.4826 156.769 74.2911 157.354 75.3922C158.168 76.9189 158.264 78.8552 157.615 80.8446C154.918 89.377 151.487 97.7445 147.423 105.718C146.545 107.399 144.529 108.245 142.518 107.788C142.093 107.692 141.688 107.538 141.321 107.33L139.561 106.362C137.449 105.192 136.422 102.239 137.438 100.287L137.444 100.292Z" fill="white"/>
<path d="M138.343 100.766C137.545 102.293 138.449 104.585 140.056 105.479C140.641 105.798 141.226 106.123 141.811 106.442C143.418 107.335 145.668 106.878 146.519 105.25C150.567 97.3083 153.955 89.0419 156.642 80.5414C157.748 77.137 156.243 74.6634 154.482 74.1634C154.28 74.1049 154.078 74.0464 153.881 73.9879C152.104 73.4825 149.508 74.4719 148.423 77.8232C145.758 85.8396 142.279 93.324 138.343 100.766Z" fill="#1F2E33"/>
<path d="M144.035 76.2646C144.226 76.1795 144.412 76.0891 144.604 76.004C146.258 75.2273 149.072 76.1848 150.519 79.6478C152.051 83.2437 153.998 87.9088 154.668 92.425C155.727 98.8935 155.892 104.782 154.918 109.681C154.541 111.58 152.913 113.022 151.088 112.862C150.423 112.809 149.758 112.756 149.093 112.697C147.264 112.538 145.588 110.931 145.896 109.176C147.136 102.17 147.194 96.8508 145.279 90.3664C144.439 87.8503 143.513 85.3608 142.508 82.9033C141.098 79.5414 142.364 77.0466 144.035 76.2646Z" fill="#1F2E33"/>
<path d="M148.482 113.171C148.668 113.213 148.859 113.245 149.045 113.261L151.04 113.426C153.12 113.607 155.03 112.043 155.477 109.788C156.423 105.005 156.338 99.1328 155.227 92.3293C154.524 87.595 152.423 82.6745 151.04 79.4243C150.115 77.2168 148.54 75.7061 146.721 75.2911C145.886 75.0996 145.045 75.1688 144.364 75.4933L143.8 75.7539C141.763 76.7061 140.492 79.5467 141.987 83.1213C142.976 85.5364 143.907 88.0312 144.742 90.5366C146.513 96.5316 146.673 101.559 145.343 109.075C144.987 111.08 146.694 112.761 148.482 113.171ZM146.465 76.3923C147.923 76.7274 149.21 77.9881 149.992 79.8605C151.359 83.0628 153.423 87.9035 154.104 92.4995C155.195 99.1754 155.28 104.915 154.359 109.559C154.03 111.219 152.615 112.415 151.131 112.288L149.136 112.123C149.003 112.112 148.865 112.091 148.726 112.059C147.439 111.766 146.221 110.57 146.449 109.261C147.795 101.649 147.62 96.3029 145.816 90.1962V90.1749C144.965 87.6482 144.029 85.1215 143.024 82.6798C141.657 79.4137 143.018 77.3551 144.269 76.77L144.832 76.5093C145.29 76.2912 145.87 76.2487 146.46 76.387L146.465 76.3923Z" fill="white"/>
<path d="M120.491 127.916C119.251 132.805 118.629 135.066 117.411 139.959L140.21 145.13C141.502 140.672 141.46 138.428 142.763 133.97C144.949 132.927 147.152 131.906 149.364 130.895C151.088 129.906 152.822 128.927 154.567 127.959C155.386 127.097 156.205 126.241 157.035 125.384C157.865 124.288 158.695 123.193 159.53 122.102C160.541 119.506 161.551 116.91 162.573 114.32C162.753 113.346 162.929 112.373 163.105 111.399C162.993 110.804 162.886 110.213 162.769 109.617C162.046 109.117 161.317 108.623 160.588 108.128C159.195 107.734 155.03 107.835 153.636 107.458C154.402 106.25 151.593 104.596 147.763 103.399C147.625 103.357 147.279 102.601 147.269 102.75C147.21 103.489 146.088 103.42 146.157 102.505C146.167 102.383 145.444 102.814 145.322 102.787C144.423 102.617 143.497 102.505 142.566 102.463C140.976 102.255 139.997 94.9146 139.997 94.9146C139.433 94.4571 138.864 94.005 138.3 93.5475C137.678 93.34 137.05 93.1272 136.428 92.9251C135.247 93.106 134.066 93.2922 132.89 93.4837C132.406 93.8879 131.917 94.2922 131.433 94.6965C130.672 95.1274 129.911 95.5635 129.151 95.9997C128.161 95.888 127.166 95.7816 126.172 95.6806C125.443 96.2923 124.714 96.904 123.991 97.5211C123.555 97.9201 123.124 98.3243 122.693 98.7233C122.32 100.117 121.948 101.516 121.576 102.91C121.624 103.74 121.666 104.564 121.714 105.394C120.597 108.288 119.491 111.187 118.395 114.091C118.379 116.128 118.363 118.166 118.342 120.203C119.081 122.778 119.799 125.352 120.496 127.932L120.491 127.916Z" fill="#1F2E33"/>
<path d="M155.344 126.693C156.838 124.948 158.275 123.15 159.418 121.166C160.37 119.506 161.179 117.767 161.78 115.958C162.36 114.219 162.812 112.4 162.775 110.548C162.764 109.857 163.924 109.889 163.934 110.575C163.966 112.479 163.514 114.341 162.934 116.134C162.323 118.038 161.461 119.863 160.471 121.607C159.275 123.719 157.727 125.618 156.136 127.469C155.684 127.991 154.891 127.219 155.338 126.698L155.344 126.693Z" fill="white"/>
<path d="M162.807 110.772C162.37 109.814 161.381 108.426 160.152 108.256C159.838 108.213 159.562 108.032 159.551 107.713C159.54 107.452 159.796 107.144 160.115 107.186C161.955 107.436 163.248 109.038 163.924 110.522C164.046 110.798 163.801 111.102 163.53 111.165C163.2 111.24 162.934 111.043 162.812 110.772H162.807Z" fill="white"/>
<path d="M160.152 108.256C157.567 108.181 154.923 107.931 152.365 107.538C151.62 107.421 151.886 106.394 152.62 106.511C155.083 106.894 157.626 107.117 160.115 107.192C160.87 107.213 160.902 108.282 160.152 108.261V108.256Z" fill="white"/>
<path d="M152.364 107.538C150.455 107.277 148.689 106.436 146.848 105.92C146.125 105.718 146.364 104.686 147.093 104.888C148.939 105.404 150.71 106.25 152.62 106.506C152.939 106.548 153.125 106.91 153.056 107.165C152.976 107.474 152.673 107.58 152.359 107.538H152.364Z" fill="white"/>
<path d="M158.758 115.304C156.024 116.618 152.7 116.315 150.008 114.815C147.316 113.314 145.178 110.564 144.688 107.692C144.571 107.006 145.731 107 145.848 107.676C146.268 110.192 148.237 112.57 150.556 113.9C152.864 115.224 155.811 115.506 158.168 114.373C158.812 114.059 159.413 114.995 158.764 115.309L158.758 115.304Z" fill="white"/>
<path d="M144.688 107.692C144.587 106.341 145.306 104.186 147.242 104.942C147.54 105.059 147.625 105.442 147.486 105.67C147.327 105.942 146.997 105.979 146.699 105.862C146.423 105.75 146.226 106.006 146.109 106.192C145.837 106.628 145.811 107.176 145.843 107.671C145.891 108.357 144.736 108.373 144.683 107.687L144.688 107.692Z" fill="white"/>
<path d="M156.163 127.39C155.349 128.299 154.269 128.985 153.195 129.592C151.918 130.31 150.577 130.916 149.226 131.486C148.024 131.996 146.806 132.47 145.593 132.954C144.928 133.22 144.178 133.438 143.598 133.869C143.364 134.044 142.987 133.911 142.843 133.683C142.673 133.411 142.784 133.129 143.018 132.954C143.598 132.523 144.396 132.284 145.066 132.012C146.231 131.544 147.402 131.087 148.561 130.597C149.886 130.039 151.2 129.443 152.455 128.751C153.514 128.166 154.567 127.507 155.365 126.613C155.828 126.097 156.62 126.868 156.163 127.384V127.39Z" fill="white"/>
<path d="M119.671 127.618C119.107 126.666 118.794 125.56 118.512 124.507C117.99 122.538 117.719 120.517 117.676 118.49C117.66 117.809 118.783 117.719 118.794 118.405C118.825 120.336 119.065 122.272 119.549 124.155C119.714 124.794 119.911 125.427 120.145 126.049C120.224 126.267 120.315 126.485 120.411 126.698C120.448 126.778 120.485 126.863 120.528 126.943C120.597 127.081 120.49 126.884 120.576 127.033C120.927 127.629 120.022 128.225 119.671 127.624V127.618Z" fill="white"/>
<path d="M117.682 118.347C117.852 113.788 119.225 109.266 121.188 105.144C121.486 104.521 122.533 105 122.236 105.623C120.305 109.66 118.969 114.075 118.794 118.543C118.783 118.836 118.416 119.012 118.145 118.964C117.815 118.905 117.677 118.629 117.687 118.341L117.682 118.347Z" fill="white"/>
<path d="M121.14 105.42C121.14 104.628 121.15 103.835 121.15 103.043C121.15 102.755 121.326 102.495 121.666 102.473C121.954 102.452 122.305 102.676 122.305 102.968C122.305 103.761 122.294 104.553 122.289 105.346C122.289 105.633 122.113 105.894 121.773 105.915C121.485 105.936 121.14 105.713 121.14 105.42Z" fill="white"/>
<path d="M138.039 107.713C138.199 105.511 138.396 103.314 138.619 101.122C138.736 99.9893 138.853 98.8616 138.981 97.7338C139.061 96.9732 139.263 96.2072 139.263 95.4359C139.263 94.7497 140.449 94.7177 140.444 95.4039C140.444 96.1753 140.257 96.9253 140.172 97.686C140.045 98.819 139.922 99.9467 139.8 101.08C139.561 103.372 139.385 105.256 139.215 107.554C139.194 107.841 138.768 108.415 138.491 108.351C138.151 108.277 138.018 107.995 138.039 107.708V107.713Z" fill="white"/>
<path d="M139.215 95.2922C138.938 93.4198 136.763 93.09 135.018 93.3187C133.231 93.5475 130.927 94.5528 130.433 96.2125C130.236 96.8615 129.076 96.6381 129.273 95.9838C129.922 93.7815 132.555 92.5846 134.917 92.2548C136.087 92.0899 137.374 92.1751 138.47 92.6804C139.598 93.1964 140.242 94.1805 140.396 95.2656C140.497 95.9518 139.316 95.9784 139.215 95.2976V95.2922Z" fill="white"/>
<path d="M139.199 107.665C138.97 108.639 138.396 109.469 137.47 109.979C136.289 110.628 134.885 110.559 133.566 110.288C132.837 110.139 133.055 109.101 133.784 109.25C134.784 109.453 135.811 109.554 136.736 109.117C137.47 108.772 137.896 108.144 138.066 107.41C138.22 106.745 139.359 106.995 139.199 107.66V107.665Z" fill="white"/>
<path d="M133.417 110.245C132.784 110.022 132.22 109.692 131.773 109.213C131.145 108.538 130.911 107.649 130.847 106.793C130.794 106.107 131.949 106.053 131.996 106.74C132.044 107.41 132.199 108.043 132.667 108.58C132.975 108.942 133.481 109.144 133.927 109.304C134.225 109.41 134.31 109.793 134.188 110.027C134.034 110.304 133.715 110.346 133.417 110.245Z" fill="white"/>
<path d="M130.847 106.788C130.842 105.968 130.762 105.149 130.698 104.33C130.597 103.032 130.48 101.734 130.353 100.436C130.273 99.6276 130.241 98.8084 129.986 98.0158C129.879 97.6753 129.736 97.3455 129.576 97.021C129.528 96.92 129.475 96.8242 129.411 96.7285C129.39 96.6966 129.369 96.6646 129.347 96.6327C129.337 96.6221 129.326 96.6061 129.315 96.5955C129.416 96.7125 129.555 96.7657 129.746 96.7604C129.427 96.7391 129.135 96.5742 129.103 96.255C129.076 95.9944 129.31 95.6752 129.635 95.6965C130.262 95.7337 130.502 96.3242 130.725 96.7817C131.087 97.5211 131.316 98.319 131.395 99.1116C131.555 100.675 131.699 102.245 131.821 103.809C131.895 104.782 131.996 105.761 132.002 106.734C132.002 107.415 130.858 107.474 130.853 106.788H130.847Z" fill="white"/>
<path d="M129.481 96.8402C129.145 96.404 128.433 96.3082 127.901 96.287C127.092 96.255 126.305 96.42 125.587 96.7178C124.906 96.9998 124.496 95.9891 125.172 95.7071C126.645 95.0901 129.326 94.7975 130.449 96.2657C130.89 96.8455 129.922 97.4147 129.481 96.8402Z" fill="white"/>
<path d="M125.757 96.6168C123.129 97.6381 121.714 100.394 122.305 102.968C122.459 103.644 121.305 103.713 121.15 103.043C120.863 101.782 121.065 100.436 121.517 99.2552C122.156 97.5796 123.555 96.3029 125.342 95.6061C126.034 95.3401 126.443 96.3508 125.757 96.6168Z" fill="white"/>
<path d="M132.002 106.74C132.028 108.171 131.465 109.5 130.002 110.08C128.784 110.564 127.31 110.213 126.268 109.468C125.672 109.043 126.422 108.256 127.012 108.681C127.709 109.181 128.645 109.367 129.465 109.117C130.523 108.798 130.864 107.74 130.848 106.793C130.832 106.107 131.986 106.053 131.997 106.74H132.002Z" fill="white"/>
<path d="M126.267 109.469C124.81 108.155 124.48 105.974 124.203 104.224C124.092 103.537 125.251 103.474 125.358 104.154C125.491 105.006 125.656 105.851 125.916 106.681C126.14 107.383 126.432 108.16 127.017 108.687C127.555 109.171 126.81 109.963 126.273 109.474L126.267 109.469Z" fill="white"/>
<path d="M124.203 104.224C124.06 103.495 123.916 102.761 123.767 102.032C123.629 101.351 124.794 101.287 124.927 101.963C125.071 102.697 125.214 103.426 125.358 104.16C125.491 104.841 124.336 104.899 124.203 104.229V104.224Z" fill="white"/>
<path d="M139.183 145.524L140.109 141.465C140.226 140.917 141.348 135.965 141.561 135.443C141.891 134.613 142.327 133.688 142.912 132.986C143.354 132.454 144.205 133.145 143.758 133.677C143.705 133.741 143.657 133.81 143.609 133.879C143.524 134.007 143.673 133.778 143.572 133.933C143.534 133.986 143.502 134.044 143.471 134.097C143.364 134.268 143.268 134.443 143.178 134.619C142.955 135.028 142.752 135.454 142.566 135.879C142.545 135.927 142.529 135.975 142.513 136.018C142.455 136.183 142.534 135.943 142.481 136.124C142.221 137.002 142.056 137.917 141.885 138.816C141.401 141.327 141.625 141.098 141.226 143.625C141.077 144.561 140.933 145.502 140.79 146.439C140.689 147.114 139.641 146.933 139.742 146.258L139.188 145.513L139.183 145.524Z" fill="white"/>
<path d="M116.916 139.741C117.863 135.784 118.166 134.582 118.99 130.597C119.219 129.491 119.512 128.352 119.581 127.219C119.597 126.927 119.953 126.751 120.225 126.799C120.549 126.863 120.687 127.134 120.666 127.422C120.624 128.145 120.459 128.863 120.32 129.571C120.092 130.746 119.831 131.922 119.576 133.092C119.028 135.566 119.081 135.273 118.49 137.736C118.315 138.47 118.139 139.199 117.964 139.933C117.804 140.592 116.756 140.401 116.916 139.736V139.741Z" fill="white"/>
<path d="M133.183 125.32C134.06 120.73 138.05 116.815 142.848 115.708C145.407 115.118 148.136 115.304 150.716 115.948C151.434 116.128 151.173 117.155 150.455 116.974C147.178 116.16 143.683 116.166 140.694 117.591C138.454 118.655 136.662 120.4 135.475 122.459C134.89 123.475 134.497 124.421 134.273 125.554C134.14 126.225 133.055 125.985 133.183 125.315V125.32Z" fill="white"/>
<path d="M152.524 115.836C152.817 115.878 152.604 115.847 152.524 115.852C152.487 115.852 152.338 115.873 152.498 115.852C152.418 115.862 152.343 115.884 152.269 115.9C151.896 116.001 151.492 116.352 151.21 116.682C151.019 116.905 150.614 116.868 150.402 116.676C150.162 116.453 150.189 116.144 150.38 115.921C150.944 115.261 151.817 114.671 152.79 114.809C153.104 114.852 153.28 115.214 153.216 115.464C153.136 115.767 152.838 115.878 152.529 115.836H152.524Z" fill="white"/>
<path d="M146.417 107.266C146.902 108.165 148.104 108.995 149.04 109.277C149.524 109.426 150.072 109.458 150.524 109.272C151.205 108.984 150.971 108.447 151.29 108.08C151.391 107.963 151.54 107.974 151.604 108.107C151.748 108.394 151.402 109.176 150.955 109.426C150.444 109.713 149.753 109.623 149.21 109.495C148.178 109.25 146.731 108.096 146.417 107.272V107.266Z" fill="white"/>
<path d="M133.597 108.543C132.858 107.389 132.762 105.846 133.576 104.926C133.954 104.495 134.459 104.367 135.002 104.362C135.651 104.357 136.635 104.548 137.044 105.091C137.188 105.282 137.108 105.415 136.922 105.378C136.624 105.319 135.959 104.904 135.326 104.814C134.81 104.74 134.294 104.787 133.837 105.043C132.815 105.617 132.916 107.415 133.597 108.548V108.543Z" fill="white"/>
<path d="M127.385 108.314C126.837 107.479 126.358 106.053 127.055 105.123C127.326 104.755 127.64 104.553 128.087 104.49C128.608 104.42 129.246 104.5 129.815 104.75C129.959 104.814 129.901 105.053 129.73 105.085C129.31 105.17 128.959 104.958 128.534 104.931C128.124 104.904 127.693 104.963 127.369 105.234C126.523 105.942 126.794 107.463 127.385 108.314Z" fill="white"/>
</g>
<path d="M171.44 169.795C167.913 171.774 164.365 174.066 160.413 175.103C156.934 176.018 153.684 175.125 150.492 173.641C144.96 171.066 139.257 166.044 132.869 166.06C129.406 166.071 125.884 167.545 122.725 168.816C119.081 170.289 115.522 171.976 111.82 173.316C108.463 174.534 104.835 175.657 101.287 174.609C98.0479 173.651 95.3669 171.449 92.6593 169.529C88.5846 166.656 84.2333 161.257 84.2971 156.033C84.2971 154.129 84.2971 152.225 84.2971 150.32C84.228 144.857 88.8878 140.309 94.303 140.32C120.012 140.368 145.721 140.373 171.429 140.32C176.914 140.24 181.435 144.889 181.435 150.32V156.039C181.435 161.869 176.233 167.156 171.429 169.789L171.44 169.795Z" fill="#F3E700" stroke="#070404" stroke-width="1.1" stroke-miterlimit="10"/>
<path d="M109.772 171.784C109.767 171.864 109.793 171.933 109.788 171.976C109.761 172.258 109.495 172.38 108.91 172.534C106.772 173.098 104.564 173.353 102.394 172.922C100.878 172.619 99.346 172.215 97.9736 171.465C97.7714 171.353 97.6225 171.226 97.548 171.183C97.3991 171.055 97.2023 170.938 96.9788 170.805C96.3565 170.428 95.5266 169.96 95.117 169.683C94.5851 169.327 94.7181 169.146 94.7713 168.444C94.9415 166.167 95.2979 163.848 95.5054 161.587C95.6543 159.975 95.6862 158.321 95.8352 156.693C95.8245 156.783 95.8192 156.879 95.8139 156.975C96.3671 154.395 96.6384 151.682 96.8831 149.054C96.9842 147.639 97.0799 146.23 97.1491 144.815C97.165 144.49 97.1757 143.027 97.1916 142.549C97.1916 142.533 97.1916 142.527 97.1916 142.517C97.2076 142.102 97.7076 142.288 97.9895 142.293C98.2768 142.299 98.463 142.336 99.1917 142.352C99.3194 142.352 99.4151 142.352 99.479 142.352C99.6066 142.352 99.6705 142.394 99.6545 142.639C99.4949 145.299 99.0853 148.001 98.7981 150.682C98.5853 152.661 98.3566 154.634 98.1225 156.608C97.9842 157.916 97.8778 159.23 97.7289 160.539C97.6704 161.044 97.6225 161.427 97.5799 161.619C97.5002 161.97 97.5161 162.204 97.4948 162.369C97.4789 162.496 97.4789 162.534 97.4948 162.587C97.7448 162.725 97.8725 162.794 98.1278 162.933C98.5268 163.135 99.0587 163.363 99.5588 163.512C101.261 164.018 103.123 164.427 104.947 164.534C106.623 164.635 108.448 164.379 110.022 164.183C110.315 164.145 110.394 164.236 110.373 164.369C110.357 164.502 110.261 164.693 110.235 164.874C110.128 165.693 110.075 166.098 109.974 166.901C109.799 168.523 109.884 170.204 109.767 171.784H109.772Z" fill="#242829"/>
<path d="M122.512 159.704C124.225 159.113 125.05 157.395 125.14 155.666C125.247 153.624 125.475 151.56 125.555 149.501C125.576 148.98 125.576 148.512 125.571 148.187C125.544 146.453 125.502 144.549 125.507 142.745C125.507 141.969 125.672 141.708 126.284 141.703C127.635 141.692 128.986 141.687 130.337 141.697C130.465 141.697 130.624 141.665 130.816 141.671C131.167 141.671 131.529 141.814 131.614 142.628C131.742 143.852 131.683 145.139 131.678 146.389C131.678 148.692 131.64 151.001 131.619 153.299C131.566 159.624 127.959 164.996 122.081 167.273C119.693 168.199 115.805 169.598 113.969 166.89C112.969 165.422 113.012 163.369 113.129 161.667C113.15 161.241 113.225 160.629 113.315 159.927C113.762 156.443 114.411 152.927 114.725 149.458C114.916 147.331 115.076 145.155 115.187 143.011C115.225 142.288 115.102 141.681 115.959 141.719C116.496 141.74 117.076 141.777 117.624 141.772C117.975 141.772 118.331 141.729 118.688 141.692C119.044 141.655 119.459 141.612 119.847 141.612C120.395 141.607 120.906 141.634 121.129 141.628C121.544 141.623 121.576 141.82 121.597 142.325C121.454 147.272 121.039 152.209 120.629 157.14C120.475 158.432 120.682 160.331 122.523 159.698L122.512 159.704Z" fill="#242829"/>
<path d="M149.12 145.852C149.343 146.214 149.439 146.453 149.439 146.65C149.439 147.043 149.072 147.219 148.737 147.469C147.865 148.129 147.072 149.017 146.12 149.623C146.024 149.687 145.928 149.714 145.865 149.703C145.545 149.661 145.386 149.171 145.194 148.884C144.737 148.139 144.141 147.405 143.247 147.293C140.965 147.001 141.205 152.374 141.205 153.475C141.205 155.384 141.189 160.124 143.343 161.097C144.083 161.432 144.556 161.278 144.907 160.023C145.099 159.342 145.418 159.246 145.737 159.358C146.024 159.454 146.311 159.714 146.535 159.831C147.71 160.688 148.971 161.448 150.237 162.161C150.588 162.358 150.684 162.826 150.684 163.353C150.684 163.571 150.673 163.8 150.652 164.002C150.604 164.454 150.524 164.922 150.397 165.438C149.397 169.289 146.78 170.433 143.311 168.64C137.63 165.699 134.614 158.938 134.667 152.677C134.71 147.597 136.518 141.522 142.641 141.58C145.881 141.612 147.615 143.245 149.12 145.857V145.852Z" fill="#242829"/>
<path d="M158.434 172.997C158.434 173.71 158.083 173.625 157.828 173.641C157.541 173.662 156.61 173.486 156.136 173.428C155.322 173.327 154.466 173.231 153.679 173.008C153.333 172.912 153.36 172.625 153.36 171.96C153.349 168.321 153.338 164.683 153.328 161.044C153.328 159.597 153.328 158.156 153.328 156.709C153.328 154.597 153.386 152.469 153.264 150.363C153.232 149.836 153.232 149.272 153.232 148.724C153.232 147.815 153.253 146.9 153.264 145.985C153.274 144.964 153.285 143.942 153.296 142.921C153.296 142.66 153.423 142.591 153.615 142.591C153.838 142.591 154.126 142.703 154.317 142.703C155.53 142.703 156.743 142.692 157.956 142.708C158.434 142.719 158.466 142.974 158.466 143.24C158.466 143.506 158.509 143.995 158.498 145.144C158.482 147.097 158.174 149.07 158.147 151.038V154.065C158.147 154.671 158.147 155.326 158.179 156.033C158.466 155.56 158.722 155.081 158.945 154.613C159.333 153.863 159.727 153.113 160.126 152.363C161.28 150.198 162.392 147.964 163.573 145.852C164.126 144.862 165.041 143.91 165.392 142.878C165.573 142.341 166.046 142.384 166.318 142.362C166.589 142.341 167.179 142.277 167.658 142.235C167.722 142.235 167.754 142.235 167.786 142.235C168.169 142.229 168.36 142.325 168.36 142.463C168.36 142.639 168.19 142.783 168.041 142.958C166.908 144.336 165.823 146.011 164.945 147.57C163.679 149.825 162.466 152.363 161.243 154.687C160.589 155.932 159.775 157.507 159.615 158.746C159.578 159.033 159.993 159.384 160.445 160.06C161.174 161.151 162.025 162.273 162.871 163.289C163.903 164.528 164.908 165.927 166.222 166.922C167.195 167.662 168.142 168.459 169.158 169.156C169.19 169.178 169.222 169.231 169.222 169.268C169.222 169.491 168.823 169.773 168.584 169.874C167.765 170.215 166.812 170.901 165.935 171.374C165.302 171.715 164.924 171.704 164.69 171.539C164.472 171.385 163.988 171.034 163.509 170.545C162.78 169.8 162.025 169.023 161.307 168.231C160.695 167.592 160.078 166.97 159.488 166.305C159.004 165.789 158.759 165.518 158.275 164.954V168.832C158.291 170.225 158.424 171.63 158.434 173.018V172.997Z" fill="#242829"/>
<path d="M171.658 196.823C164.636 197.094 157.248 196.402 150.46 198.44C144.859 200.121 139.055 203.264 133.092 203.339C126.948 203.419 120.857 200.062 115.086 198.365C108.463 196.424 101.314 197.083 94.4731 196.828C89.143 196.636 84.4619 192.142 84.5204 186.705C84.5204 184.811 84.5151 182.918 84.5098 181.024C84.7013 176.832 88.1057 170.944 92.7496 174.763C95.3295 176.784 97.9254 179.152 101.149 180.077C104.676 181.088 108.309 179.933 111.623 178.683C115.517 177.21 119.24 175.337 123.076 173.731C126.182 172.428 129.656 170.97 133.092 171.018C139.651 171.114 145.279 176.566 150.928 179.237C153.923 180.652 157.008 181.434 160.285 180.598C164.413 179.545 168.051 176.949 171.658 174.79C173.903 173.571 176.467 172.821 178.727 174.444C180.738 175.891 181.701 178.604 181.664 181.013V186.705C181.664 192.142 177.063 196.69 171.658 196.823Z" fill="#00A14B" stroke="#070404" stroke-width="0.78" stroke-miterlimit="10"/>
<path d="M113.192 196.429C113.203 196.477 113.24 196.535 113.245 196.557C113.272 196.727 113.049 196.7 112.533 196.594C110.426 196.142 108.373 195.913 106.229 195.934C104.527 195.95 102.803 196.041 101.101 195.977C100.851 195.966 100.66 195.934 100.569 195.929C100.378 195.897 100.128 195.881 99.851 195.87C99.0691 195.833 98.2711 195.833 97.4945 195.791C96.8136 195.753 96.9466 195.557 96.9094 195.057C96.7923 193.583 96.7498 192.025 96.5157 190.583C96.3615 189.631 96.0795 188.652 95.904 187.684C96.0529 187.945 95.8242 186.429 95.7976 186.125C95.6965 185.136 95.6008 184.146 95.4891 183.162C95.3508 182.189 95.2337 181.21 95.138 180.231C95.1167 179.987 94.989 178.816 94.9678 178.417C94.9678 178.407 94.9678 178.401 94.9678 178.391C94.9518 178.045 95.3348 178.471 95.5476 178.625C95.7604 178.779 95.904 178.917 96.4572 179.3C96.553 179.364 96.6274 179.418 96.6753 179.449C96.7711 179.513 96.8242 179.577 96.8349 179.769C96.936 181.46 97.0636 183.2 97.3562 184.891C97.5477 185.939 97.7711 186.987 97.9945 188.03C98.0743 188.375 98.3616 189.402 98.5052 190.051C98.5637 190.312 98.6009 190.514 98.6009 190.61C98.6009 190.79 98.6648 190.918 98.6861 191.003C98.702 191.067 98.702 191.094 98.7392 191.12C99.0212 191.195 99.1648 191.227 99.4521 191.296C99.8989 191.397 100.473 191.509 101.021 191.583C102.878 191.833 104.803 192.009 106.702 191.987C108.357 191.971 110.075 192.136 111.681 192.306C111.979 192.338 112.07 192.392 112.086 192.455C112.102 192.519 112.059 192.599 112.086 192.679C112.192 193.067 112.24 193.264 112.341 193.663C112.634 194.589 113.033 195.525 113.213 196.44L113.192 196.429Z" fill="#242829"/>
<path d="M123.198 192.429C125.017 192.535 125.427 190.503 125.368 189.099C125.283 186.982 125.321 184.827 125.241 182.694C125.22 182.146 125.182 181.657 125.156 181.322C124.996 179.535 124.826 177.524 124.783 175.646C124.767 174.822 124.969 174.46 125.704 174.199C127.246 173.662 128.799 173.157 130.401 172.837C130.539 172.811 130.714 172.742 130.922 172.704C131.305 172.641 131.688 172.731 131.773 173.651C131.911 175.114 131.837 176.641 131.837 178.13C131.837 181.088 131.821 184.051 131.826 187.008C131.826 191.876 130.581 201.504 123.586 199.493C119.682 198.371 115.512 195.551 114.15 191.525C114.059 191.296 113.985 190.971 113.9 190.61C113.453 188.742 113.166 186.796 112.772 184.955C112.485 183.599 112.203 182.152 112.065 180.758C112.011 180.215 111.793 179.801 112.852 179.423C113.517 179.189 114.24 178.928 114.916 178.646C115.357 178.465 115.793 178.247 116.235 178.029C116.676 177.811 117.198 177.55 117.682 177.343C118.368 177.045 119.017 176.795 119.299 176.673C119.826 176.444 119.868 176.619 119.921 177.082C120.076 181.311 120.48 185.514 120.9 189.721C120.98 191.099 121.666 192.344 123.182 192.439L123.198 192.429Z" fill="#242829"/>
<path d="M149.338 182.684C149.561 183.019 149.657 183.21 149.657 183.338C149.657 183.593 149.29 183.567 148.955 183.62C148.098 183.753 147.221 184.109 146.337 184.29C146.242 184.311 146.146 184.306 146.082 184.285C145.763 184.173 145.603 183.763 145.412 183.487C144.901 182.705 144.321 181.976 143.465 181.561C141.226 180.487 141.422 186.056 141.422 186.886C141.422 188.184 141.433 193.275 143.561 193.211C144.316 193.19 144.774 192.849 145.125 191.806C145.316 191.243 145.635 191.104 145.954 191.11C146.242 191.11 146.529 191.227 146.752 191.253C147.96 191.556 149.215 191.721 150.455 191.844C150.806 191.876 150.902 192.088 150.902 192.354C150.902 192.466 150.891 192.583 150.87 192.689C150.822 192.913 150.742 193.19 150.614 193.503C149.3 196.535 146.529 198.732 143.529 199.775C136.183 202.328 134.885 190.897 134.885 186.21C134.885 181.551 136.007 172.013 142.859 175.907C145.747 177.545 147.604 179.939 149.338 182.689V182.684Z" fill="#242829"/>
<path d="M158.652 195.674C158.652 196.057 158.301 195.988 158.046 195.977C157.758 195.972 156.828 195.924 156.354 195.977C155.535 196.073 154.705 196.248 153.897 196.408C153.551 196.477 153.577 196.301 153.577 195.929C153.567 194.269 153.556 192.61 153.545 190.955C153.545 190.583 153.545 189.913 153.545 189.205C153.545 188.29 153.583 187.354 153.482 186.455C153.455 186.205 153.45 185.928 153.45 185.652C153.45 185.077 153.482 184.498 153.482 184.194C153.492 183.466 153.503 183.088 153.514 182.274C153.514 182.093 153.641 182.083 153.833 182.141C154.056 182.21 154.343 182.37 154.535 182.418C155.774 182.71 156.897 182.896 158.173 182.859C158.652 182.811 158.684 182.982 158.684 183.157C158.684 183.333 158.732 183.684 158.716 184.333C158.689 185.269 158.423 186.237 158.365 187.2V188.365C158.365 188.588 158.365 188.822 158.397 189.067C158.684 188.881 158.939 188.689 159.163 188.492C159.636 188.109 159.87 187.902 160.344 187.455C161.652 186.21 162.785 184.742 163.791 183.263C164.408 182.354 165.243 181.434 165.61 180.444C165.785 179.965 166.254 179.731 166.536 179.561C166.807 179.396 167.397 179.024 167.876 178.721C167.94 178.683 167.972 178.667 168.004 178.646C168.387 178.423 168.578 178.402 168.578 178.513C168.578 178.657 168.413 178.864 168.259 179.093C167.254 180.614 166.2 182.231 165.163 183.716C164.094 185.248 162.828 186.881 161.461 188.179C160.902 188.711 160.003 189.413 159.833 189.913C159.806 189.987 160.2 190.104 160.663 190.322C161.45 190.695 162.301 191.062 163.089 191.439C164.227 191.987 165.323 192.727 166.44 193.344C167.482 193.924 168.456 194.668 169.376 195.434C169.408 195.461 169.44 195.514 169.44 195.541C169.44 195.706 169.062 195.775 168.802 195.769C168.009 195.753 167.025 195.934 166.153 196.003C165.525 196.051 165.147 195.956 164.908 195.791C164.684 195.642 164.206 195.323 163.727 194.972C163.035 194.461 162.275 194.019 161.525 193.578C161.11 193.344 160.344 193.019 159.705 192.7C159.221 192.487 158.977 192.381 158.493 192.168V193.69C158.493 194.088 158.652 195.275 158.652 195.674Z" fill="#242829"/>
<path fill-rule="evenodd" clip-rule="evenodd" d="M210.509 116.472C205.826 126.153 199.582 133.665 192.138 139.51C199.582 145.354 205.826 152.871 210.509 162.547C215.193 152.867 221.437 145.354 228.881 139.51C221.437 133.665 215.193 126.148 210.509 116.472Z" fill="#1F2E33"/>
</g>
<defs>
<clipPath id="clip0_85_701">
<rect width="265.971" height="265.971" fill="white"/>
</clipPath>
</defs>
</svg>
