<svg width="284" height="277" viewBox="0 0 284 277" fill="none" xmlns="http://www.w3.org/2000/svg">
<path d="M127.635 111.243C128.646 114.052 132.747 116.8 137.553 120.019C139.183 121.11 140.898 122.262 142.676 123.542C152.025 130.279 160.761 139.22 150.52 152.743L152.059 153.857C163.311 138.999 153.911 129.315 143.818 122.041C142.131 120.822 140.336 119.625 138.637 118.484C134.116 115.454 130.254 112.866 129.447 110.623L127.635 111.243Z" fill="#F05A28"/>
<path d="M139.194 111.31C140.858 115.01 145.323 118.456 150.048 122.102C158.767 128.827 168.446 136.301 161.05 146.561L162.618 147.635C171.053 135.941 160.624 127.885 151.23 120.639C146.703 117.143 142.426 113.847 140.949 110.556L139.194 111.31Z" fill="#F05A28"/>
<path d="M148.276 111.343C149.736 114.262 153.042 117.448 156.62 120.888C163.493 127.503 171.411 135.126 167.85 142.71L169.593 143.486C173.711 134.716 165.282 126.595 157.966 119.553C154.519 116.235 151.327 113.16 150.003 110.517L148.276 111.337V111.343Z" fill="#F05A28"/>
<path d="M153.871 111.199C154.513 113.282 156.58 115.409 158.801 117.703C162.192 121.199 165.992 125.121 164.76 129.065L166.594 129.608C168.156 124.633 163.947 120.296 160.199 116.423C158.137 114.296 156.223 112.318 155.711 110.667L153.871 111.199Z" fill="#F05A28"/>
<path d="M126.278 123.924C126.403 124.201 126.55 124.451 126.721 124.667C127.51 125.703 128.686 126.107 129.89 126.151C131.004 126.19 132.151 125.908 133.003 125.542C133.395 125.37 133.73 125.187 133.974 125.005L133.003 123.736C132.833 123.858 132.605 123.985 132.35 124.096C131.68 124.379 130.793 124.6 129.953 124.572C129.197 124.545 128.482 124.312 128.027 123.725C127.931 123.597 127.84 123.448 127.766 123.282L126.284 123.924H126.278Z" fill="#F05A28"/>
<path d="M158.807 111.293C159.17 112.124 159.835 114.058 160.204 115.836C160.431 116.938 160.545 117.947 160.386 118.478L162.226 118.988C162.482 118.129 162.363 116.822 162.079 115.465C161.681 113.553 160.96 111.465 160.568 110.562L158.801 111.288L158.807 111.293Z" fill="#F05A28"/>
<path d="M175.745 144.472L168.992 148.932L116.696 183.44L109.056 188.476L110.135 190.028L117.769 184.992L170.065 150.483L176.819 146.023L175.745 144.472Z" fill="#F05A28"/>
<path d="M168.833 143.564L171.593 145.115C172.689 145.73 174.024 146.018 175.444 146.018C177.563 146.018 179.937 145.381 182.044 144.284C184.163 143.181 186.037 141.591 187.162 139.691C187.866 138.5 188.275 137.187 188.275 135.802V117.204H186.355V135.802C186.355 136.855 186.037 137.852 185.503 138.76C184.566 140.339 182.97 141.685 181.141 142.633C179.306 143.586 177.262 144.14 175.444 144.14C174.336 144.14 173.337 143.935 172.547 143.492L169.787 141.94L168.833 143.558V143.564Z" fill="#F05A28"/>
<path d="M134.889 144.223C136.059 146.555 136.331 148.688 136.036 150.561C135.672 152.86 134.451 154.804 132.997 156.272L133.69 156.921L134.247 157.679C135.383 156.876 136.581 156.117 137.774 155.364C143.238 151.901 148.617 148.494 149.35 140.611L147.441 140.445C146.811 147.226 142.079 150.405 137.155 153.53C137.513 152.693 137.791 151.796 137.939 150.843C138.285 148.627 137.973 146.123 136.61 143.408L134.889 144.228V144.223Z" fill="#F05A28"/>
<path d="M134.906 153.801C132.611 156.433 129.305 156.017 126.084 155.608C122.597 155.164 119.183 154.732 116.576 157.519L115.849 158.294L116.724 158.909C118.081 159.857 119.535 162.987 120.66 166.981C121.785 170.964 122.534 175.745 122.512 180.1H124.426C124.449 175.585 123.67 170.621 122.512 166.494C121.484 162.832 120.115 159.779 118.689 158.173C120.592 156.804 123.188 157.131 125.835 157.469C129.572 157.945 133.395 158.427 136.371 155.02L134.906 153.813V153.801Z" fill="#F05A28"/>
<path d="M116.639 177.38L108.056 169.879L107.784 169.64H107.42H92.0957H91.1357V171.917C91.1357 173.053 91.6129 174.083 92.374 174.831C93.1408 175.579 94.1973 176.039 95.3617 176.039H100.116C100.139 176.277 100.161 176.504 100.195 176.726C100.479 178.593 101.212 180.2 102.348 181.341C103.518 182.521 105.097 183.202 107.017 183.175C107.375 183.175 107.738 183.141 108.096 183.091L107.818 181.241C107.523 181.285 107.244 181.308 106.994 181.308C105.642 181.324 104.535 180.853 103.723 180.039C102.876 179.186 102.314 177.939 102.092 176.455C102.024 176.006 101.985 175.546 101.979 175.086L101.968 174.161H95.356C94.7255 174.161 94.1461 173.906 93.7315 173.502C93.3169 173.097 93.0556 172.532 93.0556 171.917V171.507H107.051L115.361 178.77L116.639 177.38Z" fill="#F05A28"/>
<path d="M98.974 174.161H90.1757C89.8462 174.161 89.5395 174.294 89.318 174.504C89.1021 174.726 88.9658 175.02 88.9658 175.341V177.097C88.9658 177.906 89.3066 178.643 89.8519 179.175C90.3972 179.707 91.1469 180.039 91.9819 180.039H98.9797C99.8033 180.039 100.559 179.707 101.104 179.175C101.649 178.643 101.99 177.912 101.99 177.097C101.99 176.294 101.649 175.557 101.104 175.025C100.559 174.493 99.8033 174.161 98.9797 174.161H98.974ZM90.8857 176.039H98.974C99.275 176.039 99.5477 176.155 99.7408 176.349C99.9339 176.543 100.059 176.809 100.059 177.103C100.059 177.396 99.9339 177.662 99.7408 177.851C99.542 178.045 99.2693 178.161 98.9683 178.161H91.9705C91.6752 178.161 91.3969 178.039 91.2037 177.851C91.0049 177.657 90.8857 177.391 90.8857 177.103V176.039Z" fill="#F05A28"/>
<path d="M98.9738 182.161H91.976C91.6807 182.161 91.4024 182.039 91.2092 181.85C91.0104 181.657 90.8912 181.391 90.8912 181.103C90.8912 180.809 91.0161 180.543 91.2092 180.349C91.408 180.161 91.6807 180.039 91.976 180.039H98.9738C99.2748 180.039 99.5475 180.155 99.7406 180.349C99.9337 180.543 100.059 180.809 100.059 181.103C100.059 181.396 99.9337 181.662 99.7406 181.85C99.5418 182.044 99.2692 182.161 98.9681 182.161H98.9738ZM91.976 184.033H98.9738C99.7974 184.033 100.553 183.701 101.098 183.169C101.643 182.637 101.984 181.906 101.984 181.092C101.984 180.288 101.643 179.551 101.098 179.02C100.553 178.488 99.7974 178.155 98.9738 178.155H91.976C91.1468 178.155 90.3913 178.488 89.846 179.02C89.3008 179.557 88.96 180.288 88.96 181.097C88.96 181.906 89.3008 182.643 89.846 183.175C90.3913 183.706 91.1411 184.039 91.976 184.039V184.033Z" fill="#F05A28"/>
<path d="M101.087 182.161H91.0786V185.097C91.0786 185.906 91.4194 186.643 91.9647 187.174C92.51 187.706 93.2597 188.039 94.0947 188.039H101.092C101.916 188.039 102.671 187.706 103.217 187.174C103.762 186.643 104.103 185.911 104.103 185.097C104.103 184.294 103.762 183.557 103.217 183.025C102.671 182.493 101.916 182.161 101.092 182.161H101.087ZM92.9984 184.033H101.087C101.388 184.033 101.66 184.15 101.854 184.344C102.047 184.537 102.172 184.803 102.172 185.097C102.172 185.391 102.047 185.656 101.854 185.845C101.655 186.039 101.382 186.155 101.081 186.155H94.0833C93.788 186.155 93.5096 186.033 93.3165 185.845C93.1177 185.651 92.9984 185.385 92.9984 185.097V184.033Z" fill="#F05A28"/>
<path d="M121.007 166.898C119.587 168.848 117.979 170.217 116.258 171.208C114.52 172.211 112.64 172.842 110.709 173.313L111.175 175.13C113.265 174.621 115.31 173.928 117.235 172.815C119.178 171.696 120.978 170.161 122.569 167.978L121.007 166.893V166.898Z" fill="#F05A28"/>
<path d="M127.454 172.721C128.084 169.352 129.118 166.272 130.464 163.53C131.873 160.677 133.616 158.189 135.599 156.15L134.207 154.865C132.094 157.042 130.231 159.685 128.737 162.721C127.317 165.602 126.227 168.848 125.568 172.388L127.454 172.721Z" fill="#F05A28"/>
<path d="M168.81 141.957C166.981 143.043 164.737 144.339 162.346 145.719C146.516 154.854 124.25 167.701 122.506 178.77L124.403 179.047C126.011 168.854 147.811 156.272 163.317 147.325C165.578 146.023 167.708 144.788 169.798 143.552L168.804 141.957H168.81Z" fill="#F05A28"/>
<path fill-rule="evenodd" clip-rule="evenodd" d="M187.309 97.022L188.695 95.6703C190.933 93.4875 194.585 93.4875 196.818 95.6703C199.056 97.853 199.056 101.41 196.818 103.592L187.309 112.866L177.801 103.592C175.563 101.41 175.563 97.853 177.801 95.6703C180.039 93.4875 183.685 93.4875 185.923 95.6703L187.309 97.022Z" fill="#009345"/>
<path d="M100.916 170.571V122.323H98.9966V170.571H100.916Z" fill="#F05A28"/>
<path d="M100.973 140.312C100.973 140.273 101.49 125.858 88.29 125.858V127.73C99.5024 127.73 99.0593 140.228 99.0593 140.267L100.973 140.312Z" fill="#F05A28"/>
<path d="M100.911 169.469C100.911 169.469 100.576 160.112 108.92 160.112V158.239C98.5879 158.239 98.9968 169.491 98.9968 169.518L100.911 169.469Z" fill="#F05A28"/>
<path d="M96.3725 112.512H97.2472C97.7243 112.512 98.1617 112.706 98.4798 113.01C98.7978 113.321 98.991 113.747 98.991 114.213C98.991 114.678 98.7922 115.105 98.4741 115.415C98.1617 115.725 97.7243 115.913 97.2415 115.913H92.0614V110.861C92.0614 110.39 92.2545 109.963 92.5726 109.659C92.885 109.349 93.3223 109.16 93.8051 109.16C94.2879 109.16 94.7196 109.354 95.0377 109.659C95.3558 109.969 95.5489 110.396 95.5489 110.861V112.506H96.3611L96.3725 112.512ZM97.2472 110.927H97.1904V110.872C97.1904 109.969 96.8098 109.144 96.2021 108.545C95.5943 107.952 94.748 107.581 93.8165 107.581C92.885 107.581 92.0443 107.952 91.4366 108.545C90.8231 109.144 90.4482 109.969 90.4482 110.872V117.514H97.2586C98.1844 117.514 99.025 117.143 99.6385 116.551C100.246 115.952 100.627 115.127 100.627 114.224C100.627 113.321 100.246 112.495 99.6385 111.897C99.0307 111.304 98.1844 110.933 97.2529 110.933L97.2472 110.927Z" fill="#F05A28"/>
<path d="M95.5606 104.723V105.576C95.5606 106.047 95.3674 106.473 95.0494 106.778C94.7313 107.088 94.2939 107.277 93.8168 107.277C93.3397 107.277 92.8966 107.088 92.5842 106.778C92.2718 106.468 92.073 106.041 92.073 105.57V100.518H97.2532C97.7303 100.518 98.1677 100.712 98.4858 101.016C98.8038 101.327 98.9969 101.753 98.9969 102.219C98.9969 102.684 98.8038 103.116 98.4858 103.421C98.1677 103.731 97.7303 103.919 97.2532 103.919H95.5662V104.712L95.5606 104.723ZM97.1907 105.576V105.52H97.2475C98.1734 105.52 99.0197 105.149 99.6331 104.556C100.247 103.958 100.627 103.133 100.627 102.23C100.627 101.327 100.247 100.501 99.6388 99.9028C99.031 99.31 98.1847 98.9389 97.2532 98.9389H90.4429V105.581C90.4429 106.484 90.8234 107.31 91.4312 107.903C92.0446 108.501 92.8853 108.872 93.8111 108.872C94.737 108.872 95.5833 108.501 96.1967 107.908C96.8102 107.31 97.1907 106.484 97.1907 105.581V105.576Z" fill="#F05A28"/>
<path d="M102.734 105.515V105.576C102.734 106.479 103.115 107.304 103.723 107.897C104.336 108.495 105.177 108.867 106.102 108.867C107.028 108.867 107.875 108.495 108.488 107.897C109.096 107.304 109.476 106.479 109.476 105.57V98.9333H102.666C101.735 98.9333 100.894 99.3045 100.286 99.8917C99.6784 100.49 99.2979 101.316 99.2979 102.219C99.2979 103.122 99.6784 103.947 100.286 104.545C100.894 105.138 101.74 105.509 102.672 105.509H102.729L102.734 105.515ZM104.364 105.576V103.93H103.552H102.677C102.2 103.93 101.757 103.736 101.445 103.426C101.127 103.116 100.934 102.689 100.934 102.219C100.934 101.748 101.132 101.321 101.445 101.016C101.763 100.706 102.206 100.512 102.683 100.512H107.863V105.57C107.863 106.036 107.664 106.468 107.352 106.772C107.04 107.083 106.602 107.271 106.12 107.271C105.637 107.271 105.199 107.083 104.887 106.772C104.575 106.462 104.376 106.036 104.376 105.565L104.364 105.576Z" fill="#F05A28"/>
<path d="M102.734 110.927H102.677C101.751 110.927 100.905 111.299 100.292 111.891C99.6838 112.484 99.3032 113.31 99.3032 114.218C99.3032 115.127 99.6838 115.952 100.292 116.545C100.899 117.138 101.746 117.509 102.677 117.503H109.482V110.861C109.482 109.952 109.101 109.127 108.493 108.534C107.88 107.941 107.039 107.57 106.114 107.57C105.188 107.57 104.336 107.941 103.728 108.534C103.12 109.127 102.74 109.952 102.74 110.861V110.922L102.734 110.927ZM102.677 112.512H103.552H104.364V110.872C104.364 110.407 104.563 109.98 104.875 109.67C105.188 109.36 105.631 109.171 106.108 109.171C106.585 109.171 107.028 109.36 107.34 109.67C107.658 109.986 107.857 110.412 107.857 110.878V115.93H102.671C102.194 115.93 101.757 115.742 101.439 115.431C101.121 115.121 100.928 114.695 100.928 114.229C100.928 113.758 101.126 113.332 101.439 113.027C101.757 112.717 102.194 112.523 102.671 112.523L102.677 112.512Z" fill="#F05A28"/>
<path d="M106.176 99.5704C105.688 96.7672 103.989 96.1688 102.473 95.6425C101.649 95.3545 100.916 95.0996 100.916 94.119H98.9965C98.9965 95.0996 98.2638 95.3545 97.4402 95.6425C95.9293 96.1688 94.231 96.7616 93.7368 99.5704L95.6283 99.8862C95.9293 98.1633 97.071 97.7644 98.082 97.4098C98.7807 97.1661 99.4452 96.9334 99.9507 96.5234C100.462 96.9334 101.121 97.1661 101.819 97.4098C102.836 97.7644 103.972 98.1633 104.273 99.8862L106.165 99.5704H106.176Z" fill="#F05A28"/>
<path d="M91.0901 102.158C88.216 102.634 87.6026 104.29 87.063 105.77C86.7676 106.573 86.5063 107.288 85.501 107.288V109.16C86.5063 109.16 86.7676 109.875 87.063 110.678C87.6026 112.152 88.2103 113.808 91.0901 114.29L91.4139 112.445C89.6474 112.152 89.2384 111.038 88.8749 110.052C88.625 109.371 88.3864 108.722 87.9661 108.229C88.3864 107.731 88.625 107.088 88.8749 106.407C89.2384 105.415 89.6474 104.307 91.4139 104.013L91.0901 102.169V102.158Z" fill="#F05A28"/>
<path d="M93.7427 116.872C94.2312 119.675 95.9295 120.273 97.446 120.8C98.2696 121.088 99.0024 121.343 99.0024 122.323H100.922C100.922 121.343 101.655 121.088 102.479 120.8C103.989 120.273 105.688 119.681 106.182 116.872L104.29 116.556C103.989 118.279 102.848 118.678 101.837 119.032C101.138 119.276 100.473 119.509 99.968 119.919C99.4568 119.509 98.7979 119.276 98.0992 119.032C97.0825 118.678 95.9465 118.279 95.6455 116.556L93.754 116.872H93.7427Z" fill="#F05A28"/>
<path d="M108.829 114.285C111.703 113.808 112.316 112.152 112.856 110.673C113.151 109.869 113.412 109.155 114.418 109.155V107.282C113.412 107.282 113.151 106.567 112.856 105.764C112.316 104.291 111.708 102.634 108.829 102.152L108.505 103.997C110.271 104.291 110.68 105.404 111.044 106.39C111.294 107.072 111.532 107.72 111.953 108.213C111.532 108.711 111.294 109.354 111.044 110.035C110.68 111.027 110.271 112.135 108.505 112.429L108.829 114.274V114.285Z" fill="#F05A28"/>
<path d="M111.351 135.708C107.5 135.658 105.489 135.675 103.904 136.666C102.319 137.658 101.456 139.436 99.8997 142.893L99.3203 144.178L100.763 144.201C104.614 144.256 106.625 144.234 108.21 143.242C109.794 142.251 110.658 140.472 112.214 137.015L112.793 135.724L111.345 135.708H111.351ZM104.944 138.245C105.898 137.647 107.34 137.547 109.879 137.564C108.834 139.835 108.141 141.071 107.187 141.669C106.233 142.267 104.79 142.361 102.251 142.35C103.296 140.079 103.989 138.843 104.944 138.245Z" fill="#F05A28"/>
<path d="M90.2325 148.743C92.7715 148.732 94.2085 148.827 95.1684 149.425C96.1227 150.023 96.8156 151.264 97.8607 153.53C95.3218 153.547 93.8848 153.447 92.9248 152.849C91.9706 152.25 91.272 151.009 90.2268 148.743H90.2325ZM96.2022 147.852C94.6175 146.86 92.6067 146.843 88.7557 146.893L87.313 146.91L87.8924 148.201C89.443 151.658 90.312 153.436 91.8967 154.428C93.4815 155.419 95.4922 155.436 99.3432 155.386L100.792 155.364L100.212 154.078C98.6559 150.622 97.7926 148.843 96.2079 147.852H96.2022Z" fill="#F05A28"/>
<path d="M120.371 111.11C120.711 112.805 121.024 114.207 121.302 115.443C122.688 121.653 123.148 123.708 119.519 129.254C119.252 129.664 119.172 130.107 119.218 130.545C119.269 130.988 119.45 131.409 119.7 131.769C119.945 132.123 120.263 132.4 120.626 132.589C120.995 132.777 121.404 132.877 121.842 132.877H123.909L124.244 132.888C124.21 133.481 124.171 133.99 124.136 134.411C124.063 135.331 124.023 135.869 124.154 136.306C124.426 137.193 124.881 137.326 125.835 137.348C125.784 138.112 125.778 138.932 125.812 139.752C125.858 140.976 125.982 142.195 126.136 143.209C126.21 143.697 126.374 144.134 126.624 144.522C126.88 144.91 127.215 145.242 127.635 145.508C129.197 146.511 132.043 146.262 134.786 145.32C137.536 144.372 140.262 142.716 141.466 140.938L139.864 139.902C138.893 141.336 136.547 142.721 134.145 143.552C131.907 144.323 129.703 144.6 128.686 143.946C128.499 143.824 128.345 143.68 128.243 143.514C128.135 143.347 128.061 143.148 128.033 142.938C127.891 141.963 127.772 140.81 127.726 139.68C127.698 138.882 127.704 138.085 127.76 137.353H130.032V135.492H127.448L126.624 135.486H126.386C126.056 135.486 126.09 136.057 126 135.769C125.965 135.658 126 135.254 126.056 134.556C126.102 133.952 126.17 133.159 126.21 132.024L126.244 131.093L125.284 131.06L123.949 131.01H123.915H121.847C121.722 131.01 121.615 130.988 121.524 130.938C121.433 130.888 121.348 130.816 121.285 130.722C121.2 130.594 121.137 130.461 121.126 130.351C121.126 130.312 121.126 130.279 121.132 130.262C125.193 124.063 124.693 121.819 123.177 115.049C122.893 113.775 122.569 112.335 122.251 110.75L120.365 111.11H120.371Z" fill="#F05A28"/>
<path d="M119.933 111.869H161.534L161.738 111.199L163.09 106.817L163.465 105.615H117.292L117.661 106.817L119.013 111.199L119.223 111.869H119.933ZM160.108 109.997H120.649L119.876 107.493H160.88L160.108 109.997Z" fill="#F05A28"/>
<path d="M140.376 91.0277C142.943 93.698 145.584 96.1855 148.623 97.4541C151.764 98.7671 155.24 98.7727 159.324 96.3572C159.324 96.396 159.324 96.4403 159.324 96.4902L158.523 105.609H122.228L121.427 96.4902C121.427 96.4403 121.421 96.396 121.427 96.3572C125.301 98.6563 128.635 98.8004 131.753 97.5816C134.775 96.4071 137.518 93.9639 140.376 91.0111V91.0277ZM149.378 95.7312C146.669 94.601 144.198 92.2576 141.773 89.7425C141.585 89.5486 141.37 89.399 141.137 89.3048C140.898 89.2051 140.642 89.1552 140.376 89.1552C140.103 89.1552 139.847 89.2051 139.614 89.3048C139.382 89.4045 139.166 89.5541 138.978 89.7425C136.28 92.5235 133.724 94.8171 131.043 95.8586C128.47 96.8614 125.687 96.7173 122.393 94.7506C122.058 94.5512 121.688 94.4625 121.313 94.4736C120.939 94.4902 120.575 94.6121 120.263 94.8393C119.922 95.083 119.712 95.3988 119.604 95.7478C119.507 96.0414 119.49 96.3461 119.513 96.6453L120.388 106.628L120.461 107.487H160.284L160.358 106.628L161.232 96.6453C161.255 96.3461 161.238 96.0414 161.147 95.7423C161.034 95.3933 160.829 95.0775 160.494 94.8337C160.176 94.6066 159.812 94.4847 159.438 94.4625C159.074 94.4459 158.699 94.5401 158.364 94.734C154.894 96.7893 151.98 96.8115 149.378 95.7201V95.7312Z" fill="#F05A28"/>
<path d="M120.353 110.927C120.285 118.213 125.017 119.803 130.714 121.714C136.445 123.636 143.261 125.93 146.373 135.686C147.339 138.705 147.969 142.467 147.311 146.511C146.652 150.555 144.686 154.915 140.461 159.153L141.835 160.455C146.373 155.901 148.486 151.187 149.202 146.799C149.918 142.411 149.236 138.367 148.202 135.121C144.8 124.462 137.484 122.002 131.333 119.935C126.346 118.262 122.211 116.866 122.262 110.933L120.348 110.916L120.353 110.927Z" fill="#F05A28"/>
<path fill-rule="evenodd" clip-rule="evenodd" d="M152.15 100.994C152.866 100.994 153.44 101.559 153.44 102.252C153.44 102.944 152.86 103.509 152.15 103.509C151.44 103.509 150.861 102.944 150.861 102.252C150.861 101.559 151.44 100.994 152.15 100.994Z" fill="#F05A28"/>
<path fill-rule="evenodd" clip-rule="evenodd" d="M128.203 100.994C128.919 100.994 129.493 101.559 129.493 102.252C129.493 102.944 128.913 103.509 128.203 103.509C127.493 103.509 126.914 102.944 126.914 102.252C126.914 101.559 127.493 100.994 128.203 100.994Z" fill="#F05A28"/>
<path fill-rule="evenodd" clip-rule="evenodd" d="M119.774 91.8754C121.172 91.8754 122.296 92.9778 122.296 94.3351C122.296 95.6924 121.166 96.7949 119.774 96.7949C118.383 96.7949 117.252 95.6924 117.252 94.3351C117.252 92.9778 118.383 91.8754 119.774 91.8754ZM160.983 92.1634C162.38 92.1634 163.505 93.2659 163.505 94.6232C163.505 95.9805 162.374 97.083 160.983 97.083C159.591 97.083 158.461 95.9805 158.461 94.6232C158.461 93.2659 159.591 92.1634 160.983 92.1634Z" fill="#F05A28"/>
<path fill-rule="evenodd" clip-rule="evenodd" d="M140.375 85.7149C141.773 85.7149 142.897 86.8173 142.897 88.1746C142.897 89.5319 141.767 90.6344 140.375 90.6344C138.984 90.6344 137.854 89.5319 137.854 88.1746C137.854 86.8173 138.984 85.7149 140.375 85.7149Z" fill="#F05A28"/>
<path d="M188.269 132.921V132.694V132.689C188.269 130.899 188.286 122.24 197.016 122.24V120.368C186.383 120.368 186.355 130.561 186.355 132.689V132.916L188.269 132.932V132.921Z" fill="#F05A28"/>
<path d="M177.546 123.869C180.085 123.858 181.527 123.952 182.482 124.55C183.436 125.149 184.129 126.39 185.174 128.655C182.635 128.672 181.198 128.572 180.238 127.974C179.284 127.376 178.585 126.135 177.54 123.869H177.546ZM183.521 122.971C181.936 121.98 179.926 121.963 176.075 122.013L174.632 122.03L175.211 123.32C176.762 126.777 177.631 128.556 179.216 129.547C180.8 130.539 182.811 130.556 186.662 130.506L188.11 130.484L187.531 129.198C185.975 125.741 185.111 123.963 183.527 122.971H183.521Z" fill="#F05A28"/>
<path d="M96.8838 188.028C96.8838 188.028 101.513 187.457 104.006 191.285L105.631 190.282C102.484 185.446 96.6679 186.166 96.6509 186.166L96.8838 188.028Z" fill="#F05A28"/>
<path d="M140.955 98.1688L141.483 97.6536C141.75 97.3932 142.108 97.2602 142.466 97.2602C142.823 97.2602 143.181 97.3932 143.448 97.6536C143.715 97.9195 143.852 98.2685 143.852 98.6175C143.852 98.9666 143.715 99.3156 143.448 99.576L140.375 102.573L137.302 99.576C137.036 99.31 136.899 98.961 136.899 98.6175C136.899 98.2741 137.036 97.9195 137.302 97.6591C137.569 97.3987 137.927 97.2658 138.285 97.2658C138.643 97.2658 139.001 97.3987 139.268 97.6591L139.796 98.1799L140.37 98.7394L140.943 98.1799L140.955 98.1688ZM142.466 95.6647C141.71 95.6647 140.955 95.9417 140.375 96.4846C139.79 95.9417 139.041 95.6647 138.285 95.6647C137.53 95.6647 136.74 95.9528 136.149 96.5234C135.564 97.0996 135.269 97.853 135.269 98.6065C135.269 99.3599 135.564 100.113 136.149 100.69L139.796 104.246L140.37 104.806L140.943 104.246L144.59 100.69C145.175 100.119 145.47 99.3599 145.47 98.6065C145.47 97.853 145.175 97.0996 144.59 96.529C143.999 95.9528 143.227 95.6647 142.46 95.6647H142.466Z" fill="#F05A28"/>
<path d="M110.135 190.028L116.889 185.573L169.185 151.065L176.819 146.023L175.745 144.472L168.111 149.508L115.815 184.017L109.056 188.476L110.135 190.028Z" fill="#F05A28"/>
</svg>
