<svg width="123" height="65" viewBox="0 0 123 65" fill="none" xmlns="http://www.w3.org/2000/svg">
<mask id="mask0_305_248" style="mask-type:luminance" maskUnits="userSpaceOnUse" x="34" y="0" width="55" height="27">
<path d="M46.9709 26.8352C51.7598 24.7408 56.6345 23.6385 61.4724 23.6385C66.3103 23.6385 71.136 24.7408 75.9739 26.8352C71.9933 24.0182 66.3103 22.3647 61.4724 22.3647C56.6345 22.3647 50.9024 24.0059 46.9709 26.8352ZM59.0473 15.6896C58.9616 15.7263 58.9248 15.7263 58.8391 15.7753C58.0552 15.8978 57.2836 16.106 56.5365 16.351L44.0069 6.84662L52.2007 18.8128C51.9558 19.021 51.6986 19.217 51.5026 19.4252C51.1719 19.7069 50.8902 20.0744 50.6085 20.3193H34.6372L50.6085 22.2423C58.3492 19.0088 64.4486 19.0088 72.1893 22.2423L88.1238 20.3193H72.1893C71.9076 20.0744 71.6137 19.7069 71.283 19.4252C71.0502 19.217 70.842 19.0087 70.5848 18.8128L78.7787 6.84662L66.2368 16.351C65.4652 16.106 64.6936 15.91 63.9097 15.7753C63.824 15.7263 63.7872 15.7263 63.7382 15.6896L61.3622 0L59.035 15.6896H59.0473Z" fill="white"/>
</mask>
<g mask="url(#mask0_305_248)">
<path d="M46.9709 26.8352C51.7598 24.7408 56.6345 23.6385 61.4724 23.6385C66.3103 23.6385 71.136 24.7408 75.9739 26.8352C71.9933 24.0182 66.3103 22.3647 61.4724 22.3647C56.6345 22.3647 50.9024 24.0059 46.9709 26.8352ZM50.6085 20.3193H34.6372L50.6085 22.2423C58.3492 19.0088 64.4486 19.0088 72.1893 22.2423L88.1238 20.3193H72.1893C71.9076 20.0744 71.6137 19.7069 71.283 19.4252C71.0502 19.217 70.842 19.0087 70.5848 18.8128L78.7787 6.84662L66.2368 16.351C65.4652 16.106 64.6936 15.91 63.9097 15.7753C63.824 15.7263 63.7872 15.7263 63.7382 15.6896L61.3622 0L59.035 15.6896C58.9493 15.7263 58.9126 15.7263 58.8268 15.7753C58.043 15.8978 57.2714 16.106 56.5242 16.351L43.9946 6.84662L52.1885 18.8128C51.9435 19.021 51.6863 19.217 51.4903 19.4252C51.1596 19.7069 50.8779 20.0744 50.5962 20.3193" fill="#FFCA2C"/>
</g>
<path d="M14.379 42.5983V41.3857H10.8271L10.9374 41.4959V39.0463L10.8271 39.1566H14.1586V37.9318H10.8271L10.9374 38.042V35.6415L10.8271 35.7516H14.2565V34.5269H9.59009V42.5983H14.379Z" fill="#1C2E5A"/>
<path d="M23.1609 39.7445L23.0506 39.6342V41.2877L23.1241 41.1775L23.0139 41.2142C22.4137 41.4102 21.8871 41.5204 21.4462 41.5204C20.5398 41.5204 19.8294 41.2509 19.266 40.6998C18.7026 40.1486 18.4209 39.4383 18.4209 38.5809C18.4209 37.7235 18.7026 37.0621 19.2783 36.4987C19.8417 35.9353 20.5398 35.6536 21.3604 35.6536C22.2545 35.6536 23.1731 35.9231 24.0794 36.4498L24.2509 36.5478V35.1392L24.1774 35.1147C23.565 34.8575 23.0506 34.6738 22.6587 34.5881C22.2545 34.4901 21.8258 34.4411 21.3727 34.4411C20.1356 34.4411 19.0945 34.8453 18.2617 35.6414C17.4411 36.4376 17.0247 37.4541 17.0247 38.6544C17.0247 39.8547 17.4288 40.7733 18.2249 41.5449C19.0211 42.3287 20.0989 42.7207 21.4094 42.7207C22.3647 42.7207 23.3446 42.5002 24.3244 42.0838L24.3979 42.0593V38.5319H21.5441V39.7567H23.1609V39.7445Z" fill="#1C2E5A"/>
<path d="M32.5303 42.5983V41.3857H29.0887L29.1009 39.1566H32.3221V37.9318H29.0887L29.1009 38.042V35.7394L32.4201 35.7516V34.5269H27.7537V42.5983H32.5303Z" fill="#1C2E5A"/>
<path d="M41.8756 40.6631L36.5967 34.5636L36.56 34.5269H35.4822V42.5983H36.7682V36.7437L41.8143 42.5615L41.8388 42.5983H42.9657V34.5269H41.6796V40.7366L41.8756 40.6631Z" fill="#1C2E5A"/>
<path d="M50.4613 41.4592C49.5917 41.4592 48.8691 41.1897 48.3057 40.6631C47.7423 40.1242 47.4728 39.4505 47.4728 38.6054C47.4728 37.7603 47.7545 37.0989 48.3302 36.5355C48.8936 35.9966 49.6162 35.7149 50.4858 35.7149C51.3554 35.7149 52.2128 35.9721 53.1191 36.4865L53.2906 36.5845V35.127L53.2294 35.1025C52.2128 34.6616 51.2697 34.4534 50.4368 34.4534C49.2243 34.4534 48.1832 34.8575 47.3504 35.6536C46.5175 36.4498 46.1011 37.4541 46.1011 38.6299C46.1011 39.3647 46.2848 40.0506 46.64 40.6998C47.0074 41.3367 47.5096 41.8389 48.1342 42.1941C48.7589 42.5492 49.5305 42.7452 50.4123 42.7452C51.5024 42.7452 52.4822 42.5125 53.3151 42.0471L53.3763 42.0103V40.5161L53.2049 40.6263C52.323 41.1897 51.4044 41.4837 50.4858 41.4837" fill="#1C2E5A"/>
<path d="M59.2555 37.2826L57.1611 34.5758L57.1366 34.5269H55.4954L58.5206 38.4094L58.4961 38.3359V42.5983H59.8801V38.3359L59.8556 38.4094L62.8931 34.5269H61.2396L61.2029 34.5758L59.084 37.2826H59.2555Z" fill="#1C2E5A"/>
<path d="M74.5898 41.4592C73.708 41.4592 72.9976 41.1897 72.4342 40.6631C71.8708 40.1242 71.5891 39.4505 71.5891 38.6054C71.5891 37.7603 71.8708 37.0989 72.4464 36.5355C73.0221 35.9966 73.7447 35.7149 74.6143 35.7149C75.4839 35.7149 76.3413 35.9721 77.2476 36.4865L77.4068 36.5845V35.127L77.3334 35.1025C76.3168 34.6616 75.3737 34.4534 74.5408 34.4534C73.3283 34.4534 72.2872 34.8575 71.4544 35.6536C70.6215 36.4498 70.2051 37.4541 70.2051 38.6299C70.2051 39.3647 70.3888 40.0629 70.7562 40.6998C71.1237 41.3367 71.6136 41.8266 72.2382 42.1941C72.8751 42.5492 73.6345 42.7452 74.5286 42.7452C75.6187 42.7452 76.5862 42.5125 77.4313 42.0471L77.4926 42.0103V40.5161L77.3211 40.6263C76.4393 41.1897 75.5207 41.4837 74.5898 41.4837" fill="#1C2E5A"/>
<path d="M84.3513 34.5024H83.4204L79.9788 42.5983H81.375L82.3548 40.2712H85.5393L86.5436 42.5248L86.5681 42.586H87.9644L84.339 34.4902L84.3513 34.5024ZM82.5386 39.2791L83.8736 36.0579L85.3311 39.2791H82.5386Z" fill="#1C2E5A"/>
<path d="M93.476 40.5651C93.476 40.8345 93.3781 41.0551 93.1698 41.2265C92.9616 41.4102 92.6922 41.4959 92.3737 41.4959C91.6144 41.4959 90.9407 41.1163 90.3651 40.3814L90.1691 40.1242V41.9246L90.2181 41.9614C90.8672 42.4513 91.6021 42.6962 92.3982 42.6962C93.0964 42.6962 93.672 42.4881 94.1129 42.0716C94.5539 41.6675 94.7743 41.1163 94.7743 40.4549C94.7743 39.5363 94.2722 38.7647 93.2801 38.1645L92.4227 37.6623C92.043 37.4419 91.7736 37.2336 91.6144 37.0377C91.4551 36.854 91.3817 36.658 91.3817 36.4498C91.3817 36.2171 91.4796 36.0334 91.6878 35.8864C91.8961 35.7272 92.1778 35.6537 92.5207 35.6537C93.1454 35.6537 93.721 35.9231 94.2599 36.4375L94.4436 36.6213V35.0291L94.3946 34.9923C93.8312 34.6004 93.2066 34.4167 92.5452 34.4167C91.8348 34.4167 91.2469 34.6249 90.7937 35.0291C90.3528 35.421 90.1201 35.9599 90.1201 36.6213C90.1201 37.0622 90.2426 37.4542 90.4753 37.7849C90.708 38.1033 91.1 38.4462 91.6511 38.7769L92.5085 39.2913C93.1453 39.6955 93.476 40.1119 93.476 40.5528" fill="#1C2E5A"/>
<path d="M99.0855 34.5269H97.7383V42.5983H99.0855V34.5269Z" fill="#1C2E5A"/>
<path d="M108.97 40.6631L103.691 34.5636L103.654 34.5269H102.576V42.5983H103.862V36.7315L108.933 42.5983H110.06V34.5269H108.774V40.7366L108.97 40.6631Z" fill="#1C2E5A"/>
<path d="M120.532 35.6047C119.711 34.8208 118.67 34.4167 117.433 34.4167C116.196 34.4167 115.179 34.8208 114.359 35.6047C113.55 36.4008 113.146 37.4052 113.146 38.6055C113.146 39.8057 113.55 40.761 114.359 41.5449C115.167 42.3165 116.184 42.7085 117.384 42.7085C118.584 42.7085 119.699 42.3165 120.519 41.5449C121.352 40.7733 121.781 39.769 121.781 38.5809C121.781 37.3929 121.365 36.4008 120.544 35.6047M119.552 40.6263C119.001 41.1775 118.278 41.4592 117.445 41.4592C116.612 41.4592 115.914 41.1775 115.363 40.6508C114.812 40.1119 114.53 39.4261 114.53 38.6177C114.53 37.8093 114.812 37.0622 115.363 36.5356C115.914 35.9966 116.625 35.715 117.482 35.715C118.339 35.715 119.001 35.9966 119.564 36.5356C120.115 37.0867 120.409 37.7726 120.409 38.5687C120.409 39.3648 120.128 40.0874 119.564 40.6386" fill="#1C2E5A"/>
<path d="M9.6391 52.764H9.45539L6.01372 61.1783H6.22194L2.60881 52.5068L0 64.228H1.66572L3.19671 57.3447L2.97624 57.3692L6.08721 64.718L9.17368 57.3815L8.96547 57.3692L10.5455 64.228H12.2112L9.6391 52.764Z" fill="#1C2E5A"/>
<path d="M20.699 52.911C17.4533 52.911 14.9058 55.4341 14.9058 58.6675C14.9058 61.901 17.4043 64.4241 20.699 64.4241C23.9937 64.4241 26.4678 61.8887 26.4678 58.6675C26.4678 55.4463 23.9325 52.911 20.699 52.911ZM20.699 62.8808C18.3842 62.8808 16.5837 61.0314 16.5837 58.6798C16.5837 56.3282 18.4332 54.4665 20.699 54.4665C21.8013 54.4665 22.8302 54.9074 23.6018 55.7158C24.3734 56.5119 24.7898 57.5652 24.7898 58.6798C24.7898 60.9947 22.9526 62.8808 20.6868 62.8808" fill="#1C2E5A"/>
<path d="M38.936 64.4608V53.107H37.3193V60.8599L37.4295 60.7497H37.4173L37.503 60.7864L30.24 52.8253L30.2032 52.7886H30.0195V64.2281H31.6363V56.4629L31.526 56.5854H31.5383L31.4525 56.5364L38.7278 64.5343L38.7645 64.5711H38.936V64.4608Z" fill="#1C2E5A"/>
<path d="M49.5305 53.1069H42.5737V54.5767H45.3418L45.2315 54.4665V64.2281H46.8605V54.4665L46.7503 54.5767H49.5305V53.1069Z" fill="#1C2E5A"/>
<path d="M65.3792 53.8663C64.7423 53.3764 63.8605 53.1192 62.8194 53.1192H60.0881V64.2281H61.7294V59.5861H62.6969C63.8482 59.5861 64.7423 59.3411 65.3425 58.8635C66.1264 58.2388 66.5183 57.3692 66.5183 56.3159C66.5183 55.2626 66.1386 54.4787 65.3792 53.8663ZM64.1054 57.7857C63.64 58.1041 63.0889 58.1776 62.4152 58.1776H61.7294V58.2879L61.6191 58.1776H61.7294V54.5277H61.6191L61.7294 54.4175V54.5277H62.4765C63.1746 54.5277 63.6645 54.6257 64.0687 54.8829C64.5586 55.2013 64.8403 55.728 64.8403 56.2914C64.8403 56.9283 64.5831 57.4427 64.1177 57.7857" fill="#1C2E5A"/>
<path d="M76.9415 64.2281H78.7296L73.7203 52.8498L73.6958 52.7886H73.5365L73.512 52.8498L68.5149 64.2281H70.1929L71.4789 61.2273H75.6432L76.9415 64.2281ZM71.7483 60.0516L71.8096 59.8923L73.463 56.1322L73.5733 55.8995L73.6713 56.1322L75.3002 59.8923L75.3615 60.0516H71.7483Z" fill="#1C2E5A"/>
<path d="M101.278 64.4607V53.1069H99.6735V60.8599L99.7838 60.7497H99.7715L99.8572 60.7864L92.582 53.0947L92.5208 53.1682V64.228H93.9905V56.4629L93.8803 56.5854H93.8925L93.8068 56.5364L101.082 64.5342L101.119 64.571H101.278V64.4607Z" fill="#1C2E5A"/>
<path d="M111.309 64.1179V62.7583H107.439L107.561 62.8686V58.986L107.439 59.0962H111.187V57.6387H107.439L107.561 57.7367V54.4665L107.439 54.5767H111.272V53.1069H105.92V64.2281H111.309V64.1179Z" fill="#1C2E5A"/>
<path d="M120.826 55.3483L121.805 54.7727L121.891 54.7237L121.842 54.6257C121.303 53.5357 120.213 52.911 118.841 52.911C116.943 52.911 115.571 54.1358 115.571 55.826C115.571 57.0141 116.196 57.9204 117.372 58.4593L118.866 59.1574H118.89C119.76 59.5861 120.752 60.0638 120.752 61.1171C120.752 62.1704 119.895 62.8931 118.67 62.8931C117.617 62.8931 116.759 62.3664 116.355 61.4723L116.306 61.3743L116.208 61.4233L114.971 61.9745L114.873 62.0112L114.91 62.1092C115.473 63.5667 116.833 64.3996 118.67 64.3996C119.797 64.3996 120.764 64.0566 121.462 63.4197C122.099 62.8073 122.455 61.9622 122.455 61.0191C122.455 59.7331 121.671 58.7165 120.115 58.0184L118.621 57.3325C117.617 56.8548 117.237 56.4384 117.237 55.7892C117.237 54.9441 117.947 54.3317 118.927 54.3317C119.699 54.3317 120.274 54.6502 120.654 55.2871L120.715 55.3851L120.813 55.3238L120.826 55.3483Z" fill="#1C2E5A"/>
<path d="M122.271 47.6811H0.0979004V48.4772H122.271V47.6811Z" fill="#1C2E5A"/>
<path d="M85.1229 59.3044C85.8578 59.2309 86.4824 59.0227 86.9111 58.7042C87.6827 58.0918 88.0869 57.2345 88.0869 56.2057C88.0869 55.2381 87.695 54.4175 86.9478 53.8051C86.3232 53.3397 85.4658 53.1069 84.388 53.1069H81.6567V64.2281H83.298V59.3166L86.7764 64.1914L86.8131 64.2403H88.834L85.1351 59.3289L85.1229 59.3044ZM83.1877 58.2633V54.393H84.0451C84.682 54.393 85.2331 54.4542 85.6986 54.7482C86.1885 55.0666 86.5192 55.63 86.5192 56.2669C86.5192 56.9528 86.2497 57.4917 85.7353 57.8469C85.2576 58.1653 84.6942 58.2511 83.9838 58.2511H83.1877V58.2633Z" fill="#1C2E5A"/>
<path d="M6.9813 42.4268L6.56487 41.8634C6.3934 41.6306 6.17294 41.2999 5.91573 40.8713C5.46256 40.1486 5.13187 39.6465 4.89916 39.3771C4.70319 39.1321 4.48272 38.9483 4.27451 38.7891C4.64195 38.6299 4.94815 38.3972 5.14411 38.091C5.37682 37.7481 5.4993 37.3317 5.4993 36.8417C5.4993 36.1436 5.25434 35.5802 4.76443 35.1515C4.27451 34.7473 3.62537 34.5391 2.80476 34.5391H0.734863V42.6105H2.08214V39.1933H2.26585C2.62104 39.1933 2.866 39.2301 3.00073 39.3036C3.1477 39.3771 3.30692 39.5118 3.49064 39.6955C3.67436 39.8792 3.88258 40.1242 4.11529 40.4549L4.48273 41.0673L4.82567 41.6429L5.04613 41.9614L5.07063 41.9981C5.07063 41.9981 5.10737 42.0471 5.11962 42.0716L5.46256 42.5738L5.4993 42.6227H7.11602L6.9813 42.4513V42.4268ZM3.56413 37.9318C3.35592 38.0298 2.96399 38.0788 2.38833 38.0788H1.9719V35.6047H2.3026C2.85376 35.6047 3.24569 35.6414 3.4784 35.7271C3.72336 35.8129 3.90708 35.9599 4.02955 36.1559C4.16428 36.3641 4.22552 36.5845 4.22552 36.8295C4.22552 37.0744 4.16428 37.3071 4.05405 37.5031C3.93157 37.6991 3.77235 37.846 3.56413 37.944" fill="#1C2E5A"/>
</svg>
