<svg width="16" height="19" viewBox="0 0 16 19" fill="none" xmlns="http://www.w3.org/2000/svg">
<path d="M12.705 12.4344C11.9086 12.4344 11.1892 12.738 10.6304 13.2242L6.2018 10.3334C6.2942 10.0364 6.358 9.724 6.358 9.3962C6.358 9.0684 6.2942 8.7582 6.2018 8.459L10.6304 5.5682C11.1892 6.0544 11.9086 6.358 12.705 6.358C14.4584 6.358 15.884 4.9324 15.884 3.179C15.884 1.4256 14.4584 0 12.705 0C10.9516 0 9.526 1.4256 9.526 3.179C9.526 3.5068 9.5898 3.817 9.6822 4.1162L5.2536 7.007C4.6948 6.5208 3.9754 6.2172 3.179 6.2172C1.4256 6.2172 0 7.6428 0 9.3962C0 11.1496 1.4256 12.5752 3.179 12.5752C3.9754 12.5752 4.6948 12.2716 5.2536 11.7854L9.6822 14.6762C9.5898 14.9754 9.526 15.2856 9.526 15.6134C9.526 17.3668 10.9516 18.7924 12.705 18.7924C14.4584 18.7924 15.884 17.3668 15.884 15.6134C15.884 13.86 14.4584 12.4344 12.705 12.4344Z" fill="white"/>
</svg>
