<svg width="35" height="39" viewBox="0 0 35 39" fill="none" xmlns="http://www.w3.org/2000/svg">
<path fill-rule="evenodd" clip-rule="evenodd" d="M15.6332 29.4188C14.1117 31.7387 11.4908 33.2686 8.51048 33.2686C3.81216 33.2686 0 29.4565 0 24.7581V24.6954C0.00836 22.108 0.484876 19.0942 4.5353 14.5046C7.85004 10.751 11.4657 8.46449 17.0251 0.133757V0C22.5845 8.33074 26.2002 10.6172 29.515 14.3708C33.5654 18.9605 34.0419 21.9743 34.0503 24.5617V24.6244C34.0503 29.3227 30.2381 33.1348 25.5398 33.1348C22.5636 33.1348 19.9386 31.605 18.4171 29.2851C18.4171 29.3185 18.4171 29.3519 18.4171 29.3812C18.4171 30.56 18.6386 31.7387 19.0859 32.8506C19.7756 34.5644 20.8958 36.0692 22.3379 37.2229C22.4508 37.3107 22.5595 37.4026 22.6681 37.4862C22.8228 37.6116 22.8855 37.8206 22.8186 38.0087C22.7517 38.1968 22.5762 38.3222 22.3755 38.3222H11.6831C11.4825 38.3222 11.3069 38.1968 11.24 38.0087C11.1731 37.8206 11.2358 37.6116 11.3905 37.4862C11.495 37.4026 11.6079 37.3148 11.7207 37.2229C13.1628 36.0692 14.2872 34.5644 14.9728 32.8506C15.4158 31.7513 15.6374 30.585 15.6416 29.4188H15.6332Z" fill="#1F2E33"/>
</svg>
