<svg xmlns="http://www.w3.org/2000/svg" width="19" height="19" viewBox="0 0 19 19">
  <path id="Path_1" data-name="Path 1" d="M15.508,4.536a1.1,1.1,0,1,1-1.1-1.1h0A1.1,1.1,0,0,1,15.508,4.536ZM19,9.5v.014L18.937,13.5A5.5,5.5,0,0,1,13.5,18.937L9.5,19H9.486L5.5,18.938A5.5,5.5,0,0,1,.063,13.5L0,9.5V9.486L.063,5.5A5.5,5.5,0,0,1,5.5.063L9.5,0h.014L13.5.062A5.5,5.5,0,0,1,18.937,5.5Zm-1.769,0-.062-3.972a3.739,3.739,0,0,0-3.7-3.7L9.5,1.769l-3.972.062a3.739,3.739,0,0,0-3.7,3.7L1.769,9.5l.062,3.972a3.739,3.739,0,0,0,3.7,3.7l3.972.062,3.972-.062a3.739,3.739,0,0,0,3.7-3.7Zm-2.852,0A4.879,4.879,0,1,1,9.5,4.621h0A4.884,4.884,0,0,1,14.378,9.5Zm-1.769,0A3.109,3.109,0,1,0,9.5,12.609h0A3.113,3.113,0,0,0,12.609,9.5Z"/>
</svg>
