<svg xmlns="http://www.w3.org/2000/svg" width="21" height="17" viewBox="0 0 21 17">
  <path id="Path_3" data-name="Path 3" d="M22.524,6.4a8.6,8.6,0,0,1-2.475.676A4.3,4.3,0,0,0,21.943,4.7,8.645,8.645,0,0,1,19.207,5.74a4.306,4.306,0,0,0-7.341,3.914A12.249,12.249,0,0,1,2.986,5.17,4.286,4.286,0,0,0,4.319,10.9a4.309,4.309,0,0,1-1.952-.537c0,.018,0,.036,0,.054a4.3,4.3,0,0,0,3.456,4.208,4.347,4.347,0,0,1-1.135.15,4.285,4.285,0,0,1-.811-.077A4.311,4.311,0,0,0,7.9,17.679a8.721,8.721,0,0,1-6.378,1.777,12.226,12.226,0,0,0,6.6,1.928A12.149,12.149,0,0,0,20.386,9.174q0-.279-.012-.556A8.707,8.707,0,0,0,22.524,6.4Z" transform="translate(-1.524 -4.385)"/>
</svg>
