<svg xmlns="http://www.w3.org/2000/svg" width="22" height="16" viewBox="0 0 22 16">
  <path id="Path_4" data-name="Path 4" d="M23.382,7.824A2.774,2.774,0,0,0,21.436,5.8c-1.721-.469-8.6-.469-8.6-.469s-6.882,0-8.6.469A2.774,2.774,0,0,0,2.285,7.824a31.544,31.544,0,0,0-.451,5.509,31.544,31.544,0,0,0,.451,5.509,2.774,2.774,0,0,0,1.946,2.022c1.721.469,8.6.469,8.6.469s6.882,0,8.6-.469a2.774,2.774,0,0,0,1.946-2.022,31.545,31.545,0,0,0,.451-5.509A31.544,31.544,0,0,0,23.382,7.824ZM10.633,16.762V9.9l5.726,3.429Z" transform="translate(-1.833 -5.333)"/>
</svg>
